G04 #@! TF.GenerationSoftware,KiCad,Pcbnew,7.0.2*
G04 #@! TF.CreationDate,2023-12-01T11:33:06-06:00*
G04 #@! TF.ProjectId,SixteenSegClock-Main,53697874-6565-46e5-9365-67436c6f636b,rev?*
G04 #@! TF.SameCoordinates,PX1312d00PYb0866e0*
G04 #@! TF.FileFunction,Paste,Top*
G04 #@! TF.FilePolarity,Positive*
%FSLAX46Y46*%
G04 Gerber Fmt 4.6, Leading zero omitted, Abs format (unit mm)*
G04 Created by KiCad (PCBNEW 7.0.2) date 2023-12-01 11:33:06*
%MOMM*%
%LPD*%
G01*
G04 APERTURE LIST*
G04 Aperture macros list*
%AMRotRect*
0 Rectangle, with rotation*
0 The origin of the aperture is its center*
0 $1 length*
0 $2 width*
0 $3 Rotation angle, in degrees counterclockwise*
0 Add horizontal line*
21,1,$1,$2,0,0,$3*%
G04 Aperture macros list end*
%ADD10RotRect,1.500000X1.000000X350.000000*%
%ADD11RotRect,1.500000X1.000000X20.000000*%
%ADD12R,1.000000X1.500000*%
%ADD13RotRect,1.500000X1.000000X325.000000*%
G04 APERTURE END LIST*
D10*
X28480919Y129351285D03*
X28203082Y127775593D03*
X27925245Y126199901D03*
X32750803Y125349025D03*
X33028640Y126924717D03*
X33306477Y128500409D03*
D11*
X61606521Y66339591D03*
X62153753Y64836083D03*
X62700985Y63332574D03*
X67305479Y65008473D03*
X66758247Y66511981D03*
X66211015Y68015490D03*
D12*
X51309886Y148884000D03*
X49709886Y148884000D03*
X48109886Y148884000D03*
X48109886Y143984000D03*
X49709886Y143984000D03*
X51309886Y143984000D03*
D11*
X67706521Y47410649D03*
X68253753Y45907141D03*
X68800985Y44403632D03*
X73405479Y46079531D03*
X72858247Y47583039D03*
X72311015Y49086548D03*
D13*
X70616800Y106111748D03*
X69699077Y104801104D03*
X68781355Y103490461D03*
X72795200Y100679936D03*
X73712923Y101990580D03*
X74630645Y103301223D03*
D11*
X40435493Y122191279D03*
X40982725Y120687771D03*
X41529957Y119184262D03*
X46134451Y120860161D03*
X45587219Y122363669D03*
X45039987Y123867178D03*
D13*
X41291800Y68227641D03*
X40374077Y66916997D03*
X39456355Y65606354D03*
X43470200Y62795829D03*
X44387923Y64106473D03*
X45305645Y65417116D03*
D10*
X95085614Y128168869D03*
X94807777Y126593177D03*
X94529940Y125017485D03*
X99355498Y124166609D03*
X99633335Y125742301D03*
X99911172Y127317993D03*
D12*
X61168935Y19292000D03*
X62768935Y19292000D03*
X64368935Y19292000D03*
X64368935Y24192000D03*
X62768935Y24192000D03*
X61168935Y24192000D03*
D10*
X83819281Y65411505D03*
X83541444Y63835813D03*
X83263607Y62260121D03*
X88089165Y61409245D03*
X88367002Y62984937D03*
X88644839Y64560629D03*
X24680919Y107970220D03*
X24403082Y106394528D03*
X24125245Y104818836D03*
X28950803Y103967960D03*
X29228640Y105543652D03*
X29506477Y107119344D03*
X46571058Y43530344D03*
X46293221Y41954652D03*
X46015384Y40378960D03*
X50840942Y39528084D03*
X51118779Y41103776D03*
X51396616Y42679468D03*
D13*
X28741800Y49220906D03*
X27824077Y47910262D03*
X26906355Y46599619D03*
X30920200Y43789094D03*
X31837923Y45099738D03*
X32755645Y46410381D03*
D10*
X57837487Y108572144D03*
X57559650Y106996452D03*
X57281813Y105420760D03*
X62107371Y104569884D03*
X62385208Y106145576D03*
X62663045Y107721268D03*
X13330919Y43561468D03*
X13053082Y41985776D03*
X12775245Y40410084D03*
X17600803Y39559208D03*
X17878640Y41134900D03*
X18156477Y42710592D03*
X91535614Y107990274D03*
X91257777Y106414582D03*
X90979940Y104838890D03*
X95805498Y103988014D03*
X96083335Y105563706D03*
X96361172Y107139398D03*
D12*
X75075121Y87111000D03*
X73475121Y87111000D03*
X71875121Y87111000D03*
X71875121Y82211000D03*
X73475121Y82211000D03*
X75075121Y82211000D03*
X83079190Y144005000D03*
X84679190Y144005000D03*
X86279190Y144005000D03*
X86279190Y148905000D03*
X84679190Y148905000D03*
X83079190Y148905000D03*
X37984621Y82211000D03*
X39584621Y82211000D03*
X41184621Y82211000D03*
X41184621Y87111000D03*
X39584621Y87111000D03*
X37984621Y87111000D03*
D10*
X80119281Y44479092D03*
X79841444Y42903400D03*
X79563607Y41327708D03*
X84389165Y40476832D03*
X84667002Y42052524D03*
X84944839Y43628216D03*
D11*
X46052243Y103875413D03*
X46599475Y102371905D03*
X47146707Y100868396D03*
X51751201Y102544295D03*
X51203969Y104047803D03*
X50656737Y105551312D03*
D12*
X104010997Y22966000D03*
X102410997Y22966000D03*
X100810997Y22966000D03*
X100810997Y18066000D03*
X102410997Y18066000D03*
X104010997Y18066000D03*
X29804165Y24192000D03*
X28204165Y24192000D03*
X26604165Y24192000D03*
X26604165Y19292000D03*
X28204165Y19292000D03*
X29804165Y19292000D03*
D13*
X83088722Y124872070D03*
X82170999Y123561426D03*
X81253277Y122250783D03*
X85267122Y119440258D03*
X86184845Y120750902D03*
X87102567Y122061545D03*
D10*
X50571058Y64332109D03*
X50293221Y62756417D03*
X50015384Y61180725D03*
X54840942Y60329849D03*
X55118779Y61905541D03*
X55396616Y63481233D03*
X17180919Y65483622D03*
X16903082Y63907930D03*
X16625245Y62332238D03*
X21450803Y61481362D03*
X21728640Y63057054D03*
X22006477Y64632746D03*
X61537487Y128860259D03*
X61259650Y127284567D03*
X60981813Y125708875D03*
X65807371Y124857999D03*
X66085208Y126433691D03*
X66363045Y128009383D03*
M02*
