M48
; DRILL file {KiCad 7.0.2} date Fri Dec  1 11:34:49 2023
; FORMAT={-:-/ absolute / metric / decimal}
; #@! TF.CreationDate,2023-12-01T11:34:49-06:00
; #@! TF.GenerationSoftware,Kicad,Pcbnew,7.0.2
; #@! TF.FileFunction,Plated,1,2,PTH
FMAT,2
METRIC
; #@! TA.AperFunction,Plated,PTH,ViaDrill
T1C0.400
; #@! TA.AperFunction,Plated,PTH,ViaDrill
T2C0.600
; #@! TA.AperFunction,Plated,PTH,ComponentDrill
T3C1.000
; #@! TA.AperFunction,Plated,PTH,ComponentDrill
T4C4.300
%
G90
G05
T1
X19.45Y129.25
X21.525Y128.7
T2
X11.255Y42.345
X15.034Y64.267
X16.08Y41.47
X19.859Y63.392
X22.355Y106.795
X26.23Y128.145
X26.31Y48.99
X27.405Y105.92
X28.206Y22.005
X28.206Y17.159
X29.131Y89.455
X29.191Y87.165
X30.26Y46.215
X31.28Y127.27
X35.131Y91.465
X35.181Y89.355
X38.835Y68.04
X39.281Y120.08
X39.548Y85.117
X39.548Y80.392
X42.785Y65.265
X43.906Y121.78
X44.856Y101.755
X48.057Y41.615
X48.871Y137.865
X49.481Y103.455
X49.706Y146.505
X49.706Y141.659
X50.981Y75.03
X52.057Y62.415
X52.907Y40.74
X53.601Y73.735
X56.907Y61.565
X59.427Y106.601
X62.781Y22.007
X62.781Y17.159
X63.202Y126.876
X63.856Y65.43
X64.177Y105.776
X66.706Y100.48
X67.431Y37.855
X68.131Y126.005
X68.481Y67.105
X68.991Y99.005
X69.491Y38.855
X70.006Y46.505
X70.981Y30.455
X71.352Y103.595
X73.171Y31.545
X73.448Y85.292
X73.448Y80.567
X74.631Y48.205
X75.256Y100.88
X80.635Y124.64
X81.656Y42.555
X84.681Y146.48
X84.681Y141.632
X84.685Y121.84
X85.332Y63.49
X86.456Y41.705
X90.132Y62.64
X93.157Y106.04
X96.657Y126.24
X97.907Y105.215
X100.811Y20.516
X101.432Y125.39
X102.416Y25.158
T3
X13.0Y117.15
X13.0Y114.61
X13.0Y112.07
X101.3Y57.18
X101.3Y54.64
X101.3Y52.1
T4
X9.0Y156.1
X9.0Y9.0
X105.3Y156.1
X105.3Y9.0
T0
M30
