M48
; DRILL file {KiCad 7.0.2} date Tue Dec  5 14:34:08 2023
; FORMAT={-:-/ absolute / metric / decimal}
; #@! TF.CreationDate,2023-12-05T14:34:08-06:00
; #@! TF.GenerationSoftware,Kicad,Pcbnew,7.0.2
; #@! TF.FileFunction,Plated,1,2,PTH
FMAT,2
METRIC
; #@! TA.AperFunction,Plated,PTH,ViaDrill
T1C0.400
; #@! TA.AperFunction,Plated,PTH,ViaDrill
T2C0.600
; #@! TA.AperFunction,Plated,PTH,ComponentDrill
T3C1.000
; #@! TA.AperFunction,Plated,PTH,ComponentDrill
T4C4.300
%
G90
G05
T1
X15.694Y126.045
X19.944Y130.295
X22.044Y128.145
T2
X11.249Y42.34
X14.644Y46.495
X15.028Y64.262
X15.434Y41.565
X16.744Y59.195
X18.894Y44.345
X19.304Y63.475
X19.944Y51.795
X20.994Y59.195
X22.349Y106.79
X23.144Y139.795
X25.244Y110.145
X26.224Y128.14
X26.304Y48.985
X26.824Y105.935
X27.314Y122.845
X28.2Y22.0
X28.2Y17.154
X28.444Y89.945
X29.494Y110.145
X29.494Y86.795
X29.494Y50.745
X29.824Y46.495
X30.634Y127.345
X31.624Y116.475
X32.694Y121.795
X33.744Y88.895
X33.744Y48.595
X34.794Y92.095
X37.994Y63.445
X37.994Y54.995
X38.829Y68.035
X39.275Y120.075
X39.542Y80.387
X39.574Y84.665
X41.144Y60.295
X42.354Y65.535
X43.294Y117.545
X43.324Y121.465
X44.85Y101.75
X45.344Y68.615
X46.444Y105.895
X46.514Y118.515
X47.544Y113.295
X47.544Y45.445
X48.594Y137.695
X48.694Y41.525
X48.914Y103.235
X49.644Y58.145
X49.674Y109.015
X49.7Y146.5
X49.7Y141.654
X52.704Y62.325
X52.844Y82.545
X52.844Y44.345
X52.901Y40.735
X53.894Y75.145
X55.014Y57.105
X55.994Y66.645
X56.901Y61.56
X58.144Y111.195
X59.174Y50.705
X59.934Y106.565
X60.244Y123.895
X61.294Y148.375
X62.775Y22.002
X62.775Y17.154
X63.414Y61.345
X63.674Y126.845
X64.171Y105.771
X64.464Y65.665
X64.494Y109.045
X65.544Y101.695
X66.594Y121.855
X67.694Y35.895
X67.704Y50.695
X67.974Y100.305
X68.125Y126.0
X68.475Y67.1
X68.744Y62.395
X69.794Y114.395
X69.794Y99.495
X70.104Y37.275
X70.544Y46.755
X71.724Y103.385
X71.944Y107.995
X71.944Y29.545
X72.974Y51.815
X73.165Y31.54
X73.454Y84.615
X73.464Y80.235
X74.024Y148.305
X74.625Y48.2
X75.094Y121.795
X75.094Y58.145
X75.25Y100.875
X77.254Y104.845
X80.394Y46.495
X80.629Y124.635
X82.234Y42.455
X83.584Y60.265
X83.594Y117.545
X84.194Y122.135
X84.644Y110.145
X84.675Y146.475
X84.675Y141.627
X85.944Y63.395
X86.45Y41.7
X86.744Y46.495
X88.874Y59.185
X90.126Y62.635
X92.044Y111.195
X92.064Y51.775
X93.664Y105.955
X94.144Y121.795
X97.214Y126.145
X97.394Y110.145
X97.901Y105.21
X100.544Y121.795
X101.426Y125.385
X102.405Y20.511
X102.41Y25.153
X103.704Y114.355
T3
X12.994Y117.145
X12.994Y114.605
X12.994Y112.065
X101.294Y57.175
X101.294Y54.635
X101.294Y52.095
T4
X8.994Y156.095
X8.994Y8.995
X105.294Y156.095
X105.294Y8.995
T0
M30
