G04 #@! TF.GenerationSoftware,KiCad,Pcbnew,7.0.2*
G04 #@! TF.CreationDate,2023-12-05T14:33:53-06:00*
G04 #@! TF.ProjectId,SixteenSegClock-Main,53697874-6565-46e5-9365-67436c6f636b,A*
G04 #@! TF.SameCoordinates,PX9fcafb8PYcb70528*
G04 #@! TF.FileFunction,Paste,Bot*
G04 #@! TF.FilePolarity,Positive*
%FSLAX46Y46*%
G04 Gerber Fmt 4.6, Leading zero omitted, Abs format (unit mm)*
G04 Created by KiCad (PCBNEW 7.0.2) date 2023-12-05 14:33:53*
%MOMM*%
%LPD*%
G01*
G04 APERTURE LIST*
G04 Aperture macros list*
%AMRoundRect*
0 Rectangle with rounded corners*
0 $1 Rounding radius*
0 $2 $3 $4 $5 $6 $7 $8 $9 X,Y pos of 4 corners*
0 Add a 4 corners polygon primitive as box body*
4,1,4,$2,$3,$4,$5,$6,$7,$8,$9,$2,$3,0*
0 Add four circle primitives for the rounded corners*
1,1,$1+$1,$2,$3*
1,1,$1+$1,$4,$5*
1,1,$1+$1,$6,$7*
1,1,$1+$1,$8,$9*
0 Add four rect primitives between the rounded corners*
20,1,$1+$1,$2,$3,$4,$5,0*
20,1,$1+$1,$4,$5,$6,$7,0*
20,1,$1+$1,$6,$7,$8,$9,0*
20,1,$1+$1,$8,$9,$2,$3,0*%
G04 Aperture macros list end*
%ADD10R,1.500000X2.000000*%
%ADD11R,3.800000X2.000000*%
%ADD12RoundRect,0.237500X-0.044194X-0.380070X0.380070X0.044194X0.044194X0.380070X-0.380070X-0.044194X0*%
%ADD13RoundRect,0.237500X0.237500X-0.300000X0.237500X0.300000X-0.237500X0.300000X-0.237500X-0.300000X0*%
%ADD14RoundRect,0.237500X-0.372264X-0.088463X0.171520X-0.342034X0.372264X0.088463X-0.171520X0.342034X0*%
%ADD15RoundRect,0.237500X0.190480X-0.287443X0.277304X0.204960X-0.190480X0.287443X-0.277304X-0.204960X0*%
%ADD16RoundRect,0.237500X-0.336684X-0.181797X0.254201X-0.285986X0.336684X0.181797X-0.254201X0.285986X0*%
%ADD17RoundRect,0.237500X-0.200678X-0.325783X0.363138X-0.120571X0.200678X0.325783X-0.363138X0.120571X0*%
%ADD18RoundRect,0.237500X-0.237500X0.300000X-0.237500X-0.300000X0.237500X-0.300000X0.237500X0.300000X0*%
%ADD19RoundRect,0.237500X-0.381970X-0.022476X0.109521X-0.366622X0.381970X0.022476X-0.109521X0.366622X0*%
%ADD20RoundRect,0.237500X-0.300000X-0.237500X0.300000X-0.237500X0.300000X0.237500X-0.300000X0.237500X0*%
G04 APERTURE END LIST*
D10*
X9400000Y130900000D03*
D11*
X11700000Y137200000D03*
D10*
X11700000Y130900000D03*
X14000000Y130900000D03*
D12*
X21403880Y138104880D03*
X20184120Y136885120D03*
D13*
X82394000Y146477500D03*
X82394000Y144752500D03*
D14*
X79225690Y111750492D03*
X77662310Y112479508D03*
D15*
X18077454Y122043637D03*
X17760546Y120246363D03*
D16*
X65343397Y116045228D03*
X63644603Y116344772D03*
D17*
X70724485Y57329992D03*
X69103515Y56740008D03*
D16*
X87573397Y52325228D03*
X85874603Y52624772D03*
D13*
X41634000Y83207500D03*
X41634000Y81482500D03*
D18*
X100554000Y21862500D03*
X100554000Y23587500D03*
D16*
X28123397Y116795228D03*
X26424603Y117094772D03*
D18*
X71704000Y81232500D03*
X71704000Y82957500D03*
D17*
X45524485Y112219992D03*
X43903515Y111630008D03*
D19*
X35680519Y56380290D03*
X34267481Y57369710D03*
D16*
X98993397Y115445228D03*
X97294603Y115744772D03*
D13*
X61034000Y20897500D03*
X61034000Y19172500D03*
D16*
X16703397Y52625228D03*
X15004603Y52924772D03*
D18*
X30284000Y18892500D03*
X30284000Y20617500D03*
X51834000Y142912500D03*
X51834000Y144637500D03*
D16*
X54023397Y51345228D03*
X52324603Y51644772D03*
D20*
X13406500Y125875000D03*
X11681500Y125875000D03*
M02*
