G04 #@! TF.GenerationSoftware,KiCad,Pcbnew,7.0.2*
G04 #@! TF.CreationDate,2023-12-01T11:33:06-06:00*
G04 #@! TF.ProjectId,SixteenSegClock-Main,53697874-6565-46e5-9365-67436c6f636b,rev?*
G04 #@! TF.SameCoordinates,PX1312d00PYb0866e0*
G04 #@! TF.FileFunction,Paste,Bot*
G04 #@! TF.FilePolarity,Positive*
%FSLAX46Y46*%
G04 Gerber Fmt 4.6, Leading zero omitted, Abs format (unit mm)*
G04 Created by KiCad (PCBNEW 7.0.2) date 2023-12-01 11:33:06*
%MOMM*%
%LPD*%
G01*
G04 APERTURE LIST*
G04 Aperture macros list*
%AMRoundRect*
0 Rectangle with rounded corners*
0 $1 Rounding radius*
0 $2 $3 $4 $5 $6 $7 $8 $9 X,Y pos of 4 corners*
0 Add a 4 corners polygon primitive as box body*
4,1,4,$2,$3,$4,$5,$6,$7,$8,$9,$2,$3,0*
0 Add four circle primitives for the rounded corners*
1,1,$1+$1,$2,$3*
1,1,$1+$1,$4,$5*
1,1,$1+$1,$6,$7*
1,1,$1+$1,$8,$9*
0 Add four rect primitives between the rounded corners*
20,1,$1+$1,$2,$3,$4,$5,0*
20,1,$1+$1,$4,$5,$6,$7,0*
20,1,$1+$1,$6,$7,$8,$9,0*
20,1,$1+$1,$8,$9,$2,$3,0*%
G04 Aperture macros list end*
%ADD10R,1.500000X2.000000*%
%ADD11R,3.800000X2.000000*%
%ADD12RoundRect,0.237500X-0.044194X-0.380070X0.380070X0.044194X0.044194X0.380070X-0.380070X-0.044194X0*%
%ADD13RoundRect,0.237500X0.237500X-0.300000X0.237500X0.300000X-0.237500X0.300000X-0.237500X-0.300000X0*%
%ADD14RoundRect,0.237500X-0.372264X-0.088463X0.171520X-0.342034X0.372264X0.088463X-0.171520X0.342034X0*%
%ADD15RoundRect,0.237500X0.190480X-0.287443X0.277304X0.204960X-0.190480X0.287443X-0.277304X-0.204960X0*%
%ADD16RoundRect,0.237500X-0.336684X-0.181797X0.254201X-0.285986X0.336684X0.181797X-0.254201X0.285986X0*%
%ADD17RoundRect,0.237500X-0.200678X-0.325783X0.363138X-0.120571X0.200678X0.325783X-0.363138X0.120571X0*%
%ADD18RoundRect,0.237500X-0.120571X0.363138X-0.325783X-0.200678X0.120571X-0.363138X0.325783X0.200678X0*%
%ADD19RoundRect,0.237500X-0.237500X0.300000X-0.237500X-0.300000X0.237500X-0.300000X0.237500X0.300000X0*%
%ADD20RoundRect,0.237500X-0.381970X-0.022476X0.109521X-0.366622X0.381970X0.022476X-0.109521X0.366622X0*%
%ADD21RoundRect,0.237500X-0.300000X-0.237500X0.300000X-0.237500X0.300000X0.237500X-0.300000X0.237500X0*%
G04 APERTURE END LIST*
D10*
X14006000Y130905000D03*
X11706000Y130905000D03*
D11*
X11706000Y137205000D03*
D10*
X9406000Y130905000D03*
D12*
X20321120Y136295120D03*
X21540880Y137514880D03*
D13*
X79656000Y144755000D03*
X79656000Y146480000D03*
D14*
X77049310Y112719508D03*
X78612690Y111990492D03*
D15*
X17766546Y120251363D03*
X18083454Y122048637D03*
D16*
X62956603Y116454772D03*
X64655397Y116155228D03*
D17*
X68520515Y56535008D03*
X70141485Y57124992D03*
D16*
X85107206Y52754544D03*
X86806000Y52455000D03*
D13*
X44656000Y83342500D03*
X44656000Y85067500D03*
D18*
X100875992Y24145485D03*
X100286008Y22524515D03*
D16*
X26006603Y117204772D03*
X27705397Y116905228D03*
D19*
X68281000Y85255000D03*
X68281000Y83530000D03*
D17*
X43645515Y111510008D03*
X45266485Y112099992D03*
D20*
X33949481Y57499710D03*
X35362519Y56510290D03*
D16*
X96481603Y115879772D03*
X98180397Y115580228D03*
D13*
X57706000Y20267500D03*
X57706000Y21992500D03*
D16*
X14731603Y52954772D03*
X16430397Y52655228D03*
D19*
X33281000Y21917500D03*
X33281000Y20192500D03*
X54731000Y146530000D03*
X54731000Y144805000D03*
D16*
X51656603Y51729772D03*
X53355397Y51430228D03*
D21*
X11518500Y125880000D03*
X13243500Y125880000D03*
M02*
