G04 #@! TF.GenerationSoftware,KiCad,Pcbnew,7.0.2*
G04 #@! TF.CreationDate,2023-12-01T11:33:06-06:00*
G04 #@! TF.ProjectId,SixteenSegClock-Main,53697874-6565-46e5-9365-67436c6f636b,rev?*
G04 #@! TF.SameCoordinates,PX1312d00PYb0866e0*
G04 #@! TF.FileFunction,Legend,Bot*
G04 #@! TF.FilePolarity,Positive*
%FSLAX46Y46*%
G04 Gerber Fmt 4.6, Leading zero omitted, Abs format (unit mm)*
G04 Created by KiCad (PCBNEW 7.0.2) date 2023-12-01 11:33:06*
%MOMM*%
%LPD*%
G01*
G04 APERTURE LIST*
G04 Aperture macros list*
%AMRoundRect*
0 Rectangle with rounded corners*
0 $1 Rounding radius*
0 $2 $3 $4 $5 $6 $7 $8 $9 X,Y pos of 4 corners*
0 Add a 4 corners polygon primitive as box body*
4,1,4,$2,$3,$4,$5,$6,$7,$8,$9,$2,$3,0*
0 Add four circle primitives for the rounded corners*
1,1,$1+$1,$2,$3*
1,1,$1+$1,$4,$5*
1,1,$1+$1,$6,$7*
1,1,$1+$1,$8,$9*
0 Add four rect primitives between the rounded corners*
20,1,$1+$1,$2,$3,$4,$5,0*
20,1,$1+$1,$4,$5,$6,$7,0*
20,1,$1+$1,$6,$7,$8,$9,0*
20,1,$1+$1,$8,$9,$2,$3,0*%
G04 Aperture macros list end*
%ADD10C,0.150000*%
%ADD11C,0.120000*%
%ADD12C,7.500000*%
%ADD13R,1.500000X2.000000*%
%ADD14R,3.800000X2.000000*%
%ADD15C,1.700000*%
%ADD16O,1.700000X1.700000*%
%ADD17R,1.700000X1.700000*%
%ADD18RoundRect,0.237500X-0.044194X-0.380070X0.380070X0.044194X0.044194X0.380070X-0.380070X-0.044194X0*%
%ADD19RoundRect,0.237500X0.237500X-0.300000X0.237500X0.300000X-0.237500X0.300000X-0.237500X-0.300000X0*%
%ADD20RoundRect,0.237500X-0.372264X-0.088463X0.171520X-0.342034X0.372264X0.088463X-0.171520X0.342034X0*%
%ADD21RoundRect,0.237500X0.190480X-0.287443X0.277304X0.204960X-0.190480X0.287443X-0.277304X-0.204960X0*%
%ADD22RoundRect,0.237500X-0.336684X-0.181797X0.254201X-0.285986X0.336684X0.181797X-0.254201X0.285986X0*%
%ADD23RoundRect,0.237500X-0.200678X-0.325783X0.363138X-0.120571X0.200678X0.325783X-0.363138X0.120571X0*%
%ADD24RoundRect,0.237500X-0.120571X0.363138X-0.325783X-0.200678X0.120571X-0.363138X0.325783X0.200678X0*%
%ADD25RoundRect,0.237500X-0.237500X0.300000X-0.237500X-0.300000X0.237500X-0.300000X0.237500X0.300000X0*%
%ADD26RoundRect,0.237500X-0.381970X-0.022476X0.109521X-0.366622X0.381970X0.022476X-0.109521X0.366622X0*%
%ADD27RoundRect,0.237500X-0.300000X-0.237500X0.300000X-0.237500X0.300000X0.237500X-0.300000X0.237500X0*%
G04 APERTURE END LIST*
D10*
X15668619Y134816905D02*
X16478142Y134816905D01*
X16478142Y134816905D02*
X16573380Y134769286D01*
X16573380Y134769286D02*
X16621000Y134721667D01*
X16621000Y134721667D02*
X16668619Y134626429D01*
X16668619Y134626429D02*
X16668619Y134435953D01*
X16668619Y134435953D02*
X16621000Y134340715D01*
X16621000Y134340715D02*
X16573380Y134293096D01*
X16573380Y134293096D02*
X16478142Y134245477D01*
X16478142Y134245477D02*
X15668619Y134245477D01*
X16668619Y133245477D02*
X16668619Y133816905D01*
X16668619Y133531191D02*
X15668619Y133531191D01*
X15668619Y133531191D02*
X15811476Y133626429D01*
X15811476Y133626429D02*
X15906714Y133721667D01*
X15906714Y133721667D02*
X15954333Y133816905D01*
X106018333Y50367381D02*
X106018333Y49653096D01*
X106018333Y49653096D02*
X106065952Y49510239D01*
X106065952Y49510239D02*
X106161190Y49415000D01*
X106161190Y49415000D02*
X106304047Y49367381D01*
X106304047Y49367381D02*
X106399285Y49367381D01*
X105589761Y50272143D02*
X105542142Y50319762D01*
X105542142Y50319762D02*
X105446904Y50367381D01*
X105446904Y50367381D02*
X105208809Y50367381D01*
X105208809Y50367381D02*
X105113571Y50319762D01*
X105113571Y50319762D02*
X105065952Y50272143D01*
X105065952Y50272143D02*
X105018333Y50176905D01*
X105018333Y50176905D02*
X105018333Y50081667D01*
X105018333Y50081667D02*
X105065952Y49938810D01*
X105065952Y49938810D02*
X105637380Y49367381D01*
X105637380Y49367381D02*
X105018333Y49367381D01*
X22319791Y135751911D02*
X22387134Y135751911D01*
X22387134Y135751911D02*
X22521821Y135819254D01*
X22521821Y135819254D02*
X22589165Y135886598D01*
X22589165Y135886598D02*
X22656508Y136021285D01*
X22656508Y136021285D02*
X22656508Y136155972D01*
X22656508Y136155972D02*
X22622837Y136256987D01*
X22622837Y136256987D02*
X22521821Y136425346D01*
X22521821Y136425346D02*
X22420806Y136526361D01*
X22420806Y136526361D02*
X22252447Y136627376D01*
X22252447Y136627376D02*
X22151432Y136661048D01*
X22151432Y136661048D02*
X22016745Y136661048D01*
X22016745Y136661048D02*
X21882058Y136593705D01*
X21882058Y136593705D02*
X21814715Y136526361D01*
X21814715Y136526361D02*
X21747371Y136391674D01*
X21747371Y136391674D02*
X21747371Y136324331D01*
X21477997Y136054956D02*
X21410654Y136054956D01*
X21410654Y136054956D02*
X21309638Y136021285D01*
X21309638Y136021285D02*
X21141280Y135852926D01*
X21141280Y135852926D02*
X21107608Y135751911D01*
X21107608Y135751911D02*
X21107608Y135684567D01*
X21107608Y135684567D02*
X21141280Y135583552D01*
X21141280Y135583552D02*
X21208623Y135516208D01*
X21208623Y135516208D02*
X21343310Y135448865D01*
X21343310Y135448865D02*
X22151432Y135448865D01*
X22151432Y135448865D02*
X21713699Y135011132D01*
X81453380Y145784167D02*
X81501000Y145831786D01*
X81501000Y145831786D02*
X81548619Y145974643D01*
X81548619Y145974643D02*
X81548619Y146069881D01*
X81548619Y146069881D02*
X81501000Y146212738D01*
X81501000Y146212738D02*
X81405761Y146307976D01*
X81405761Y146307976D02*
X81310523Y146355595D01*
X81310523Y146355595D02*
X81120047Y146403214D01*
X81120047Y146403214D02*
X80977190Y146403214D01*
X80977190Y146403214D02*
X80786714Y146355595D01*
X80786714Y146355595D02*
X80691476Y146307976D01*
X80691476Y146307976D02*
X80596238Y146212738D01*
X80596238Y146212738D02*
X80548619Y146069881D01*
X80548619Y146069881D02*
X80548619Y145974643D01*
X80548619Y145974643D02*
X80596238Y145831786D01*
X80596238Y145831786D02*
X80643857Y145784167D01*
X80881952Y144927024D02*
X81548619Y144927024D01*
X80501000Y145165119D02*
X81215285Y145403214D01*
X81215285Y145403214D02*
X81215285Y144784167D01*
X77654020Y110454337D02*
X77677053Y110391055D01*
X77677053Y110391055D02*
X77786401Y110287523D01*
X77786401Y110287523D02*
X77872716Y110247274D01*
X77872716Y110247274D02*
X78022313Y110230057D01*
X78022313Y110230057D02*
X78148877Y110276123D01*
X78148877Y110276123D02*
X78232284Y110342313D01*
X78232284Y110342313D02*
X78355941Y110494819D01*
X78355941Y110494819D02*
X78416315Y110624291D01*
X78416315Y110624291D02*
X78453656Y110817046D01*
X78453656Y110817046D02*
X78450748Y110923486D01*
X78450748Y110923486D02*
X78404682Y111050050D01*
X78404682Y111050050D02*
X78295334Y111153582D01*
X78295334Y111153582D02*
X78209019Y111193831D01*
X78209019Y111193831D02*
X78059422Y111211048D01*
X78059422Y111211048D02*
X77996140Y111188015D01*
X76750620Y110770516D02*
X77268511Y110529019D01*
X77009566Y110649768D02*
X77432184Y111556075D01*
X77432184Y111556075D02*
X77458125Y111386353D01*
X77458125Y111386353D02*
X77504190Y111259789D01*
X77504190Y111259789D02*
X77570381Y111176382D01*
X76353246Y112059192D02*
X76784821Y111857946D01*
X76784821Y111857946D02*
X76626732Y111406246D01*
X76626732Y111406246D02*
X76603699Y111469528D01*
X76603699Y111469528D02*
X76537509Y111552935D01*
X76537509Y111552935D02*
X76321721Y111653558D01*
X76321721Y111653558D02*
X76215281Y111650650D01*
X76215281Y111650650D02*
X76151999Y111627617D01*
X76151999Y111627617D02*
X76068592Y111561427D01*
X76068592Y111561427D02*
X75967969Y111345639D01*
X75967969Y111345639D02*
X75970877Y111239200D01*
X75970877Y111239200D02*
X75993910Y111175917D01*
X75993910Y111175917D02*
X76060100Y111092511D01*
X76060100Y111092511D02*
X76275888Y110991887D01*
X76275888Y110991887D02*
X76382327Y110994795D01*
X76382327Y110994795D02*
X76445610Y111017828D01*
X19817807Y120985485D02*
X19406733Y121396444D01*
X19917034Y121548232D02*
X18932226Y121721880D01*
X18932226Y121721880D02*
X18866075Y121346715D01*
X18866075Y121346715D02*
X18896432Y121244655D01*
X18896432Y121244655D02*
X18935059Y121189491D01*
X18935059Y121189491D02*
X19020581Y121126057D01*
X19020581Y121126057D02*
X19161268Y121101250D01*
X19161268Y121101250D02*
X19263328Y121131608D01*
X19263328Y121131608D02*
X19318493Y121170234D01*
X19318493Y121170234D02*
X19381926Y121255757D01*
X19381926Y121255757D02*
X19448078Y121630922D01*
X19652427Y120047573D02*
X19751655Y120610320D01*
X19702041Y120328946D02*
X18717233Y120502594D01*
X18717233Y120502594D02*
X18874458Y120571579D01*
X18874458Y120571579D02*
X18984787Y120648832D01*
X18984787Y120648832D02*
X19048221Y120734354D01*
X64126978Y114423295D02*
X64165605Y114368130D01*
X64165605Y114368130D02*
X64298023Y114296428D01*
X64298023Y114296428D02*
X64391814Y114279890D01*
X64391814Y114279890D02*
X64540770Y114301979D01*
X64540770Y114301979D02*
X64651099Y114379232D01*
X64651099Y114379232D02*
X64714532Y114464754D01*
X64714532Y114464754D02*
X64794504Y114644068D01*
X64794504Y114644068D02*
X64819311Y114784754D01*
X64819311Y114784754D02*
X64805491Y114980606D01*
X64805491Y114980606D02*
X64775133Y115082666D01*
X64775133Y115082666D02*
X64697880Y115192995D01*
X64697880Y115192995D02*
X64565462Y115264698D01*
X64565462Y115264698D02*
X64471671Y115281236D01*
X64471671Y115281236D02*
X64322715Y115259147D01*
X64322715Y115259147D02*
X64267551Y115220520D01*
X63172528Y114494883D02*
X63735275Y114395655D01*
X63453902Y114445269D02*
X63627550Y115430077D01*
X63627550Y115430077D02*
X63696534Y115272852D01*
X63696534Y115272852D02*
X63773788Y115162523D01*
X63773788Y115162523D02*
X63859310Y115099089D01*
X62444173Y115300263D02*
X62328407Y114643724D01*
X62744802Y115634083D02*
X62855246Y114889304D01*
X62855246Y114889304D02*
X62245603Y114996800D01*
X70549828Y55360885D02*
X70610862Y55332425D01*
X70610862Y55332425D02*
X70761391Y55336538D01*
X70761391Y55336538D02*
X70850885Y55369111D01*
X70850885Y55369111D02*
X70968840Y55462718D01*
X70968840Y55462718D02*
X71025762Y55584786D01*
X71025762Y55584786D02*
X71037936Y55690567D01*
X71037936Y55690567D02*
X71017536Y55885843D01*
X71017536Y55885843D02*
X70968676Y56020085D01*
X70968676Y56020085D02*
X70858782Y56182787D01*
X70858782Y56182787D02*
X70781462Y56255995D01*
X70781462Y56255995D02*
X70659394Y56312916D01*
X70659394Y56312916D02*
X70508865Y56308804D01*
X70508865Y56308804D02*
X70419371Y56276230D01*
X70419371Y56276230D02*
X70301415Y56182623D01*
X70301415Y56182623D02*
X70272955Y56121589D01*
X69687456Y54945657D02*
X70224424Y55141098D01*
X69955940Y55043377D02*
X69613920Y55983070D01*
X69613920Y55983070D02*
X69752274Y55881402D01*
X69752274Y55881402D02*
X69874342Y55824480D01*
X69874342Y55824480D02*
X69980123Y55812307D01*
X68955049Y55287185D02*
X69028257Y55364505D01*
X69028257Y55364505D02*
X69056717Y55425539D01*
X69056717Y55425539D02*
X69068891Y55531320D01*
X69068891Y55531320D02*
X69052605Y55576068D01*
X69052605Y55576068D02*
X68975284Y55649275D01*
X68975284Y55649275D02*
X68914250Y55677736D01*
X68914250Y55677736D02*
X68808469Y55689910D01*
X68808469Y55689910D02*
X68629480Y55624763D01*
X68629480Y55624763D02*
X68556272Y55547443D01*
X68556272Y55547443D02*
X68527811Y55486409D01*
X68527811Y55486409D02*
X68515637Y55380627D01*
X68515637Y55380627D02*
X68531924Y55335880D01*
X68531924Y55335880D02*
X68609245Y55262672D01*
X68609245Y55262672D02*
X68670279Y55234212D01*
X68670279Y55234212D02*
X68776060Y55222038D01*
X68776060Y55222038D02*
X68955049Y55287185D01*
X68955049Y55287185D02*
X69060830Y55275011D01*
X69060830Y55275011D02*
X69121864Y55246550D01*
X69121864Y55246550D02*
X69199185Y55173342D01*
X69199185Y55173342D02*
X69264331Y54994353D01*
X69264331Y54994353D02*
X69252158Y54888572D01*
X69252158Y54888572D02*
X69223697Y54827538D01*
X69223697Y54827538D02*
X69150489Y54750217D01*
X69150489Y54750217D02*
X68971500Y54685071D01*
X68971500Y54685071D02*
X68865719Y54697245D01*
X68865719Y54697245D02*
X68804685Y54725705D01*
X68804685Y54725705D02*
X68727364Y54798913D01*
X68727364Y54798913D02*
X68662218Y54977902D01*
X68662218Y54977902D02*
X68674391Y55083683D01*
X68674391Y55083683D02*
X68702852Y55144717D01*
X68702852Y55144717D02*
X68776060Y55222038D01*
X85808625Y50805757D02*
X85847251Y50750592D01*
X85847251Y50750592D02*
X85979669Y50678890D01*
X85979669Y50678890D02*
X86073460Y50662352D01*
X86073460Y50662352D02*
X86222416Y50684440D01*
X86222416Y50684440D02*
X86332745Y50761694D01*
X86332745Y50761694D02*
X86396179Y50847216D01*
X86396179Y50847216D02*
X86476150Y51026529D01*
X86476150Y51026529D02*
X86500957Y51167216D01*
X86500957Y51167216D02*
X86487137Y51363068D01*
X86487137Y51363068D02*
X86456780Y51465128D01*
X86456780Y51465128D02*
X86379526Y51575457D01*
X86379526Y51575457D02*
X86247109Y51647159D01*
X86247109Y51647159D02*
X86153317Y51663697D01*
X86153317Y51663697D02*
X86004362Y51641609D01*
X86004362Y51641609D02*
X85949197Y51602982D01*
X85121614Y51845614D02*
X85309196Y51812539D01*
X85309196Y51812539D02*
X85394719Y51749105D01*
X85394719Y51749105D02*
X85433345Y51693941D01*
X85433345Y51693941D02*
X85502330Y51536716D01*
X85502330Y51536716D02*
X85516149Y51340864D01*
X85516149Y51340864D02*
X85449998Y50965700D01*
X85449998Y50965700D02*
X85386564Y50880177D01*
X85386564Y50880177D02*
X85331400Y50841551D01*
X85331400Y50841551D02*
X85229339Y50811193D01*
X85229339Y50811193D02*
X85041757Y50844269D01*
X85041757Y50844269D02*
X84956235Y50907702D01*
X84956235Y50907702D02*
X84917608Y50962867D01*
X84917608Y50962867D02*
X84887250Y51064927D01*
X84887250Y51064927D02*
X84928595Y51299405D01*
X84928595Y51299405D02*
X84992029Y51384927D01*
X84992029Y51384927D02*
X85047193Y51423554D01*
X85047193Y51423554D02*
X85149253Y51453912D01*
X85149253Y51453912D02*
X85336836Y51420836D01*
X85336836Y51420836D02*
X85422358Y51357402D01*
X85422358Y51357402D02*
X85460985Y51302238D01*
X85460985Y51302238D02*
X85491342Y51200178D01*
X46453380Y84847858D02*
X46501000Y84895477D01*
X46501000Y84895477D02*
X46548619Y85038334D01*
X46548619Y85038334D02*
X46548619Y85133572D01*
X46548619Y85133572D02*
X46501000Y85276429D01*
X46501000Y85276429D02*
X46405761Y85371667D01*
X46405761Y85371667D02*
X46310523Y85419286D01*
X46310523Y85419286D02*
X46120047Y85466905D01*
X46120047Y85466905D02*
X45977190Y85466905D01*
X45977190Y85466905D02*
X45786714Y85419286D01*
X45786714Y85419286D02*
X45691476Y85371667D01*
X45691476Y85371667D02*
X45596238Y85276429D01*
X45596238Y85276429D02*
X45548619Y85133572D01*
X45548619Y85133572D02*
X45548619Y85038334D01*
X45548619Y85038334D02*
X45596238Y84895477D01*
X45596238Y84895477D02*
X45643857Y84847858D01*
X46548619Y83895477D02*
X46548619Y84466905D01*
X46548619Y84181191D02*
X45548619Y84181191D01*
X45548619Y84181191D02*
X45691476Y84276429D01*
X45691476Y84276429D02*
X45786714Y84371667D01*
X45786714Y84371667D02*
X45834333Y84466905D01*
X46548619Y82943096D02*
X46548619Y83514524D01*
X46548619Y83228810D02*
X45548619Y83228810D01*
X45548619Y83228810D02*
X45691476Y83324048D01*
X45691476Y83324048D02*
X45786714Y83419286D01*
X45786714Y83419286D02*
X45834333Y83514524D01*
X99802335Y24302526D02*
X99863369Y24330987D01*
X99863369Y24330987D02*
X99956976Y24448942D01*
X99956976Y24448942D02*
X99989549Y24538436D01*
X99989549Y24538436D02*
X99993662Y24688965D01*
X99993662Y24688965D02*
X99936741Y24811033D01*
X99936741Y24811033D02*
X99863533Y24888353D01*
X99863533Y24888353D02*
X99700831Y24998247D01*
X99700831Y24998247D02*
X99566589Y25047107D01*
X99566589Y25047107D02*
X99371313Y25067507D01*
X99371313Y25067507D02*
X99265532Y25055333D01*
X99265532Y25055333D02*
X99143464Y24998412D01*
X99143464Y24998412D02*
X99049857Y24880456D01*
X99049857Y24880456D02*
X99017283Y24790962D01*
X99017283Y24790962D02*
X99013171Y24640433D01*
X99013171Y24640433D02*
X99041631Y24579399D01*
X99566096Y23375007D02*
X99761536Y23911974D01*
X99663816Y23643491D02*
X98724123Y23985511D01*
X98724123Y23985511D02*
X98890938Y24026146D01*
X98890938Y24026146D02*
X99013006Y24083067D01*
X99013006Y24083067D02*
X99090327Y24156275D01*
X99403229Y22927535D02*
X99338082Y22748545D01*
X99338082Y22748545D02*
X99260762Y22675338D01*
X99260762Y22675338D02*
X99199728Y22646877D01*
X99199728Y22646877D02*
X99032913Y22606243D01*
X99032913Y22606243D02*
X98837637Y22626642D01*
X98837637Y22626642D02*
X98479659Y22756935D01*
X98479659Y22756935D02*
X98406451Y22834256D01*
X98406451Y22834256D02*
X98377990Y22895290D01*
X98377990Y22895290D02*
X98365816Y23001071D01*
X98365816Y23001071D02*
X98430963Y23180060D01*
X98430963Y23180060D02*
X98508284Y23253268D01*
X98508284Y23253268D02*
X98569318Y23281729D01*
X98569318Y23281729D02*
X98675099Y23293903D01*
X98675099Y23293903D02*
X98898835Y23212469D01*
X98898835Y23212469D02*
X98972043Y23135149D01*
X98972043Y23135149D02*
X99000504Y23074115D01*
X99000504Y23074115D02*
X99012678Y22968333D01*
X99012678Y22968333D02*
X98947531Y22789344D01*
X98947531Y22789344D02*
X98870210Y22716136D01*
X98870210Y22716136D02*
X98809176Y22687676D01*
X98809176Y22687676D02*
X98703395Y22675502D01*
X27176978Y115173295D02*
X27215605Y115118130D01*
X27215605Y115118130D02*
X27348023Y115046428D01*
X27348023Y115046428D02*
X27441814Y115029890D01*
X27441814Y115029890D02*
X27590770Y115051979D01*
X27590770Y115051979D02*
X27701099Y115129232D01*
X27701099Y115129232D02*
X27764532Y115214754D01*
X27764532Y115214754D02*
X27844504Y115394068D01*
X27844504Y115394068D02*
X27869311Y115534754D01*
X27869311Y115534754D02*
X27855491Y115730606D01*
X27855491Y115730606D02*
X27825133Y115832666D01*
X27825133Y115832666D02*
X27747880Y115942995D01*
X27747880Y115942995D02*
X27615462Y116014698D01*
X27615462Y116014698D02*
X27521671Y116031236D01*
X27521671Y116031236D02*
X27372715Y116009147D01*
X27372715Y116009147D02*
X27317551Y115970520D01*
X26222528Y115244883D02*
X26785275Y115145655D01*
X26503902Y115195269D02*
X26677550Y116180077D01*
X26677550Y116180077D02*
X26746534Y116022852D01*
X26746534Y116022852D02*
X26823788Y115912523D01*
X26823788Y115912523D02*
X26909310Y115849089D01*
X25786533Y116337187D02*
X25692742Y116353725D01*
X25692742Y116353725D02*
X25590682Y116323367D01*
X25590682Y116323367D02*
X25535517Y116284741D01*
X25535517Y116284741D02*
X25472084Y116199219D01*
X25472084Y116199219D02*
X25392112Y116019905D01*
X25392112Y116019905D02*
X25350768Y115785427D01*
X25350768Y115785427D02*
X25364587Y115589576D01*
X25364587Y115589576D02*
X25394945Y115487515D01*
X25394945Y115487515D02*
X25433572Y115432351D01*
X25433572Y115432351D02*
X25519094Y115368917D01*
X25519094Y115368917D02*
X25612885Y115352379D01*
X25612885Y115352379D02*
X25714945Y115382737D01*
X25714945Y115382737D02*
X25770110Y115421364D01*
X25770110Y115421364D02*
X25833543Y115506886D01*
X25833543Y115506886D02*
X25913515Y115686199D01*
X25913515Y115686199D02*
X25954860Y115920678D01*
X25954860Y115920678D02*
X25941040Y116116529D01*
X25941040Y116116529D02*
X25910682Y116218589D01*
X25910682Y116218589D02*
X25872056Y116273754D01*
X25872056Y116273754D02*
X25786533Y116337187D01*
X67218380Y85035358D02*
X67266000Y85082977D01*
X67266000Y85082977D02*
X67313619Y85225834D01*
X67313619Y85225834D02*
X67313619Y85321072D01*
X67313619Y85321072D02*
X67266000Y85463929D01*
X67266000Y85463929D02*
X67170761Y85559167D01*
X67170761Y85559167D02*
X67075523Y85606786D01*
X67075523Y85606786D02*
X66885047Y85654405D01*
X66885047Y85654405D02*
X66742190Y85654405D01*
X66742190Y85654405D02*
X66551714Y85606786D01*
X66551714Y85606786D02*
X66456476Y85559167D01*
X66456476Y85559167D02*
X66361238Y85463929D01*
X66361238Y85463929D02*
X66313619Y85321072D01*
X66313619Y85321072D02*
X66313619Y85225834D01*
X66313619Y85225834D02*
X66361238Y85082977D01*
X66361238Y85082977D02*
X66408857Y85035358D01*
X67313619Y84082977D02*
X67313619Y84654405D01*
X67313619Y84368691D02*
X66313619Y84368691D01*
X66313619Y84368691D02*
X66456476Y84463929D01*
X66456476Y84463929D02*
X66551714Y84559167D01*
X66551714Y84559167D02*
X66599333Y84654405D01*
X66408857Y83702024D02*
X66361238Y83654405D01*
X66361238Y83654405D02*
X66313619Y83559167D01*
X66313619Y83559167D02*
X66313619Y83321072D01*
X66313619Y83321072D02*
X66361238Y83225834D01*
X66361238Y83225834D02*
X66408857Y83178215D01*
X66408857Y83178215D02*
X66504095Y83130596D01*
X66504095Y83130596D02*
X66599333Y83130596D01*
X66599333Y83130596D02*
X66742190Y83178215D01*
X66742190Y83178215D02*
X67313619Y83749643D01*
X67313619Y83749643D02*
X67313619Y83130596D01*
X45674828Y110335885D02*
X45735862Y110307425D01*
X45735862Y110307425D02*
X45886391Y110311538D01*
X45886391Y110311538D02*
X45975885Y110344111D01*
X45975885Y110344111D02*
X46093840Y110437718D01*
X46093840Y110437718D02*
X46150762Y110559786D01*
X46150762Y110559786D02*
X46162936Y110665567D01*
X46162936Y110665567D02*
X46142536Y110860843D01*
X46142536Y110860843D02*
X46093676Y110995085D01*
X46093676Y110995085D02*
X45983782Y111157787D01*
X45983782Y111157787D02*
X45906462Y111230995D01*
X45906462Y111230995D02*
X45784394Y111287916D01*
X45784394Y111287916D02*
X45633865Y111283804D01*
X45633865Y111283804D02*
X45544371Y111251230D01*
X45544371Y111251230D02*
X45426415Y111157623D01*
X45426415Y111157623D02*
X45397955Y111096589D01*
X44812456Y109920657D02*
X45349424Y110116098D01*
X45080940Y110018377D02*
X44738920Y110958070D01*
X44738920Y110958070D02*
X44877274Y110856402D01*
X44877274Y110856402D02*
X44999342Y110799480D01*
X44999342Y110799480D02*
X45105123Y110787307D01*
X44157205Y110746343D02*
X43575491Y110534617D01*
X43575491Y110534617D02*
X44019015Y110290645D01*
X44019015Y110290645D02*
X43884773Y110241785D01*
X43884773Y110241785D02*
X43811565Y110164465D01*
X43811565Y110164465D02*
X43783105Y110103431D01*
X43783105Y110103431D02*
X43770931Y109997649D01*
X43770931Y109997649D02*
X43852364Y109773913D01*
X43852364Y109773913D02*
X43929685Y109700705D01*
X43929685Y109700705D02*
X43990719Y109672245D01*
X43990719Y109672245D02*
X44096500Y109660071D01*
X44096500Y109660071D02*
X44364984Y109757791D01*
X44364984Y109757791D02*
X44438191Y109835111D01*
X44438191Y109835111D02*
X44466652Y109896145D01*
X34151662Y55163945D02*
X34163356Y55097625D01*
X34163356Y55097625D02*
X34253065Y54976678D01*
X34253065Y54976678D02*
X34331079Y54922051D01*
X34331079Y54922051D02*
X34475414Y54879119D01*
X34475414Y54879119D02*
X34608055Y54902507D01*
X34608055Y54902507D02*
X34701689Y54953209D01*
X34701689Y54953209D02*
X34849948Y55081924D01*
X34849948Y55081924D02*
X34931888Y55198946D01*
X34931888Y55198946D02*
X35002133Y55382288D01*
X35002133Y55382288D02*
X35017752Y55487616D01*
X35017752Y55487616D02*
X34994364Y55620257D01*
X34994364Y55620257D02*
X34904656Y55741203D01*
X34904656Y55741203D02*
X34826641Y55795830D01*
X34826641Y55795830D02*
X34682306Y55838762D01*
X34682306Y55838762D02*
X34615986Y55827068D01*
X33316891Y55632194D02*
X33784978Y55304436D01*
X33550935Y55468315D02*
X34124511Y56287467D01*
X34124511Y56287467D02*
X34120586Y56115819D01*
X34120586Y56115819D02*
X34143974Y55983178D01*
X34143974Y55983178D02*
X34194675Y55889544D01*
X33188337Y56942983D02*
X33344366Y56833730D01*
X33344366Y56833730D02*
X33395067Y56740096D01*
X33395067Y56740096D02*
X33406762Y56673776D01*
X33406762Y56673776D02*
X33402837Y56502128D01*
X33402837Y56502128D02*
X33332591Y56318786D01*
X33332591Y56318786D02*
X33114086Y56006728D01*
X33114086Y56006728D02*
X33020452Y55956027D01*
X33020452Y55956027D02*
X32954132Y55944333D01*
X32954132Y55944333D02*
X32848804Y55959952D01*
X32848804Y55959952D02*
X32692775Y56069204D01*
X32692775Y56069204D02*
X32642074Y56162838D01*
X32642074Y56162838D02*
X32630380Y56229158D01*
X32630380Y56229158D02*
X32645999Y56334486D01*
X32645999Y56334486D02*
X32782565Y56529522D01*
X32782565Y56529522D02*
X32876198Y56580223D01*
X32876198Y56580223D02*
X32942519Y56591918D01*
X32942519Y56591918D02*
X33047846Y56576298D01*
X33047846Y56576298D02*
X33203875Y56467046D01*
X33203875Y56467046D02*
X33254577Y56373412D01*
X33254577Y56373412D02*
X33266271Y56307092D01*
X33266271Y56307092D02*
X33250652Y56201764D01*
X97183022Y113930985D02*
X97221648Y113875820D01*
X97221648Y113875820D02*
X97354066Y113804118D01*
X97354066Y113804118D02*
X97447857Y113787580D01*
X97447857Y113787580D02*
X97596813Y113809668D01*
X97596813Y113809668D02*
X97707142Y113886922D01*
X97707142Y113886922D02*
X97770576Y113972444D01*
X97770576Y113972444D02*
X97850547Y114151757D01*
X97850547Y114151757D02*
X97875354Y114292444D01*
X97875354Y114292444D02*
X97861534Y114488296D01*
X97861534Y114488296D02*
X97831177Y114590356D01*
X97831177Y114590356D02*
X97753923Y114700685D01*
X97753923Y114700685D02*
X97621506Y114772387D01*
X97621506Y114772387D02*
X97527714Y114788925D01*
X97527714Y114788925D02*
X97378759Y114766837D01*
X97378759Y114766837D02*
X97323594Y114728210D01*
X96449115Y114979111D02*
X96918071Y114896422D01*
X96918071Y114896422D02*
X96882277Y114419197D01*
X96882277Y114419197D02*
X96843651Y114474361D01*
X96843651Y114474361D02*
X96758129Y114537795D01*
X96758129Y114537795D02*
X96523650Y114579140D01*
X96523650Y114579140D02*
X96421590Y114548782D01*
X96421590Y114548782D02*
X96366426Y114510155D01*
X96366426Y114510155D02*
X96302992Y114424633D01*
X96302992Y114424633D02*
X96261647Y114190155D01*
X96261647Y114190155D02*
X96292005Y114088095D01*
X96292005Y114088095D02*
X96330632Y114032930D01*
X96330632Y114032930D02*
X96416154Y113969497D01*
X96416154Y113969497D02*
X96650632Y113928152D01*
X96650632Y113928152D02*
X96752692Y113958510D01*
X96752692Y113958510D02*
X96807857Y113997136D01*
X59503380Y21296667D02*
X59551000Y21344286D01*
X59551000Y21344286D02*
X59598619Y21487143D01*
X59598619Y21487143D02*
X59598619Y21582381D01*
X59598619Y21582381D02*
X59551000Y21725238D01*
X59551000Y21725238D02*
X59455761Y21820476D01*
X59455761Y21820476D02*
X59360523Y21868095D01*
X59360523Y21868095D02*
X59170047Y21915714D01*
X59170047Y21915714D02*
X59027190Y21915714D01*
X59027190Y21915714D02*
X58836714Y21868095D01*
X58836714Y21868095D02*
X58741476Y21820476D01*
X58741476Y21820476D02*
X58646238Y21725238D01*
X58646238Y21725238D02*
X58598619Y21582381D01*
X58598619Y21582381D02*
X58598619Y21487143D01*
X58598619Y21487143D02*
X58646238Y21344286D01*
X58646238Y21344286D02*
X58693857Y21296667D01*
X58598619Y20963333D02*
X58598619Y20296667D01*
X58598619Y20296667D02*
X59598619Y20725238D01*
X8948333Y119957381D02*
X8948333Y119243096D01*
X8948333Y119243096D02*
X8995952Y119100239D01*
X8995952Y119100239D02*
X9091190Y119005000D01*
X9091190Y119005000D02*
X9234047Y118957381D01*
X9234047Y118957381D02*
X9329285Y118957381D01*
X7948333Y118957381D02*
X8519761Y118957381D01*
X8234047Y118957381D02*
X8234047Y119957381D01*
X8234047Y119957381D02*
X8329285Y119814524D01*
X8329285Y119814524D02*
X8424523Y119719286D01*
X8424523Y119719286D02*
X8519761Y119671667D01*
X15433022Y51005985D02*
X15471648Y50950820D01*
X15471648Y50950820D02*
X15604066Y50879118D01*
X15604066Y50879118D02*
X15697857Y50862580D01*
X15697857Y50862580D02*
X15846813Y50884668D01*
X15846813Y50884668D02*
X15957142Y50961922D01*
X15957142Y50961922D02*
X16020576Y51047444D01*
X16020576Y51047444D02*
X16100547Y51226757D01*
X16100547Y51226757D02*
X16125354Y51367444D01*
X16125354Y51367444D02*
X16111534Y51563296D01*
X16111534Y51563296D02*
X16081177Y51665356D01*
X16081177Y51665356D02*
X16003923Y51775685D01*
X16003923Y51775685D02*
X15871506Y51847387D01*
X15871506Y51847387D02*
X15777714Y51863925D01*
X15777714Y51863925D02*
X15628759Y51841837D01*
X15628759Y51841837D02*
X15573594Y51803210D01*
X14947528Y50994883D02*
X14759945Y51027959D01*
X14759945Y51027959D02*
X14674423Y51091392D01*
X14674423Y51091392D02*
X14635796Y51146557D01*
X14635796Y51146557D02*
X14566812Y51303782D01*
X14566812Y51303782D02*
X14552992Y51499633D01*
X14552992Y51499633D02*
X14619144Y51874798D01*
X14619144Y51874798D02*
X14682577Y51960320D01*
X14682577Y51960320D02*
X14737742Y51998947D01*
X14737742Y51998947D02*
X14839802Y52029305D01*
X14839802Y52029305D02*
X15027385Y51996229D01*
X15027385Y51996229D02*
X15112907Y51932795D01*
X15112907Y51932795D02*
X15151533Y51877631D01*
X15151533Y51877631D02*
X15181891Y51775570D01*
X15181891Y51775570D02*
X15140546Y51541092D01*
X15140546Y51541092D02*
X15077113Y51455570D01*
X15077113Y51455570D02*
X15021948Y51416943D01*
X15021948Y51416943D02*
X14919888Y51386586D01*
X14919888Y51386586D02*
X14732306Y51419662D01*
X14732306Y51419662D02*
X14646783Y51483095D01*
X14646783Y51483095D02*
X14608157Y51538260D01*
X14608157Y51538260D02*
X14577799Y51640320D01*
X32218380Y21221667D02*
X32266000Y21269286D01*
X32266000Y21269286D02*
X32313619Y21412143D01*
X32313619Y21412143D02*
X32313619Y21507381D01*
X32313619Y21507381D02*
X32266000Y21650238D01*
X32266000Y21650238D02*
X32170761Y21745476D01*
X32170761Y21745476D02*
X32075523Y21793095D01*
X32075523Y21793095D02*
X31885047Y21840714D01*
X31885047Y21840714D02*
X31742190Y21840714D01*
X31742190Y21840714D02*
X31551714Y21793095D01*
X31551714Y21793095D02*
X31456476Y21745476D01*
X31456476Y21745476D02*
X31361238Y21650238D01*
X31361238Y21650238D02*
X31313619Y21507381D01*
X31313619Y21507381D02*
X31313619Y21412143D01*
X31313619Y21412143D02*
X31361238Y21269286D01*
X31361238Y21269286D02*
X31408857Y21221667D01*
X31742190Y20650238D02*
X31694571Y20745476D01*
X31694571Y20745476D02*
X31646952Y20793095D01*
X31646952Y20793095D02*
X31551714Y20840714D01*
X31551714Y20840714D02*
X31504095Y20840714D01*
X31504095Y20840714D02*
X31408857Y20793095D01*
X31408857Y20793095D02*
X31361238Y20745476D01*
X31361238Y20745476D02*
X31313619Y20650238D01*
X31313619Y20650238D02*
X31313619Y20459762D01*
X31313619Y20459762D02*
X31361238Y20364524D01*
X31361238Y20364524D02*
X31408857Y20316905D01*
X31408857Y20316905D02*
X31504095Y20269286D01*
X31504095Y20269286D02*
X31551714Y20269286D01*
X31551714Y20269286D02*
X31646952Y20316905D01*
X31646952Y20316905D02*
X31694571Y20364524D01*
X31694571Y20364524D02*
X31742190Y20459762D01*
X31742190Y20459762D02*
X31742190Y20650238D01*
X31742190Y20650238D02*
X31789809Y20745476D01*
X31789809Y20745476D02*
X31837428Y20793095D01*
X31837428Y20793095D02*
X31932666Y20840714D01*
X31932666Y20840714D02*
X32123142Y20840714D01*
X32123142Y20840714D02*
X32218380Y20793095D01*
X32218380Y20793095D02*
X32266000Y20745476D01*
X32266000Y20745476D02*
X32313619Y20650238D01*
X32313619Y20650238D02*
X32313619Y20459762D01*
X32313619Y20459762D02*
X32266000Y20364524D01*
X32266000Y20364524D02*
X32218380Y20316905D01*
X32218380Y20316905D02*
X32123142Y20269286D01*
X32123142Y20269286D02*
X31932666Y20269286D01*
X31932666Y20269286D02*
X31837428Y20316905D01*
X31837428Y20316905D02*
X31789809Y20364524D01*
X31789809Y20364524D02*
X31742190Y20459762D01*
X53668380Y145834167D02*
X53716000Y145881786D01*
X53716000Y145881786D02*
X53763619Y146024643D01*
X53763619Y146024643D02*
X53763619Y146119881D01*
X53763619Y146119881D02*
X53716000Y146262738D01*
X53716000Y146262738D02*
X53620761Y146357976D01*
X53620761Y146357976D02*
X53525523Y146405595D01*
X53525523Y146405595D02*
X53335047Y146453214D01*
X53335047Y146453214D02*
X53192190Y146453214D01*
X53192190Y146453214D02*
X53001714Y146405595D01*
X53001714Y146405595D02*
X52906476Y146357976D01*
X52906476Y146357976D02*
X52811238Y146262738D01*
X52811238Y146262738D02*
X52763619Y146119881D01*
X52763619Y146119881D02*
X52763619Y146024643D01*
X52763619Y146024643D02*
X52811238Y145881786D01*
X52811238Y145881786D02*
X52858857Y145834167D01*
X52763619Y145500833D02*
X52763619Y144881786D01*
X52763619Y144881786D02*
X53144571Y145215119D01*
X53144571Y145215119D02*
X53144571Y145072262D01*
X53144571Y145072262D02*
X53192190Y144977024D01*
X53192190Y144977024D02*
X53239809Y144929405D01*
X53239809Y144929405D02*
X53335047Y144881786D01*
X53335047Y144881786D02*
X53573142Y144881786D01*
X53573142Y144881786D02*
X53668380Y144929405D01*
X53668380Y144929405D02*
X53716000Y144977024D01*
X53716000Y144977024D02*
X53763619Y145072262D01*
X53763619Y145072262D02*
X53763619Y145357976D01*
X53763619Y145357976D02*
X53716000Y145453214D01*
X53716000Y145453214D02*
X53668380Y145500833D01*
X52826978Y49698295D02*
X52865605Y49643130D01*
X52865605Y49643130D02*
X52998023Y49571428D01*
X52998023Y49571428D02*
X53091814Y49554890D01*
X53091814Y49554890D02*
X53240770Y49576979D01*
X53240770Y49576979D02*
X53351099Y49654232D01*
X53351099Y49654232D02*
X53414532Y49739754D01*
X53414532Y49739754D02*
X53494504Y49919068D01*
X53494504Y49919068D02*
X53519311Y50059754D01*
X53519311Y50059754D02*
X53505491Y50255606D01*
X53505491Y50255606D02*
X53475133Y50357666D01*
X53475133Y50357666D02*
X53397880Y50467995D01*
X53397880Y50467995D02*
X53265462Y50539698D01*
X53265462Y50539698D02*
X53171671Y50556236D01*
X53171671Y50556236D02*
X53022715Y50534147D01*
X53022715Y50534147D02*
X52967551Y50495520D01*
X51872528Y49769883D02*
X52435275Y49670655D01*
X52153902Y49720269D02*
X52327550Y50705077D01*
X52327550Y50705077D02*
X52396534Y50547852D01*
X52396534Y50547852D02*
X52473788Y50437523D01*
X52473788Y50437523D02*
X52559310Y50374089D01*
X51717907Y50812573D02*
X51061369Y50928339D01*
X51061369Y50928339D02*
X51309781Y49869110D01*
X12547666Y124082620D02*
X12595285Y124035000D01*
X12595285Y124035000D02*
X12738142Y123987381D01*
X12738142Y123987381D02*
X12833380Y123987381D01*
X12833380Y123987381D02*
X12976237Y124035000D01*
X12976237Y124035000D02*
X13071475Y124130239D01*
X13071475Y124130239D02*
X13119094Y124225477D01*
X13119094Y124225477D02*
X13166713Y124415953D01*
X13166713Y124415953D02*
X13166713Y124558810D01*
X13166713Y124558810D02*
X13119094Y124749286D01*
X13119094Y124749286D02*
X13071475Y124844524D01*
X13071475Y124844524D02*
X12976237Y124939762D01*
X12976237Y124939762D02*
X12833380Y124987381D01*
X12833380Y124987381D02*
X12738142Y124987381D01*
X12738142Y124987381D02*
X12595285Y124939762D01*
X12595285Y124939762D02*
X12547666Y124892143D01*
X11595285Y123987381D02*
X12166713Y123987381D01*
X11880999Y123987381D02*
X11880999Y124987381D01*
X11880999Y124987381D02*
X11976237Y124844524D01*
X11976237Y124844524D02*
X12071475Y124749286D01*
X12071475Y124749286D02*
X12166713Y124701667D01*
D11*
X15116000Y129955000D02*
X15116000Y135965000D01*
X8296000Y132205000D02*
X8296000Y135965000D01*
X8296000Y135965000D02*
X9556000Y135965000D01*
X15116000Y135965000D02*
X13856000Y135965000D01*
X100020000Y58380000D02*
X100020000Y57110000D01*
X101290000Y58380000D02*
X100020000Y58380000D01*
X102342929Y57560000D02*
X102740000Y57560000D01*
X102342929Y56800000D02*
X102740000Y56800000D01*
X102342929Y55020000D02*
X102740000Y55020000D01*
X102342929Y54260000D02*
X102740000Y54260000D01*
X102410000Y52480000D02*
X102740000Y52480000D01*
X102410000Y51720000D02*
X102740000Y51720000D01*
X102740000Y58510000D02*
X105400000Y58510000D01*
X102740000Y55910000D02*
X105400000Y55910000D01*
X102740000Y53370000D02*
X105400000Y53370000D01*
X102740000Y50770000D02*
X102740000Y58510000D01*
X105400000Y58510000D02*
X105400000Y50770000D01*
X105400000Y57460000D02*
X111400000Y57460000D01*
X105400000Y57340000D02*
X111400000Y57340000D01*
X105400000Y57220000D02*
X111400000Y57220000D01*
X105400000Y57100000D02*
X111400000Y57100000D01*
X105400000Y56980000D02*
X111400000Y56980000D01*
X105400000Y56860000D02*
X111400000Y56860000D01*
X105400000Y56800000D02*
X111400000Y56800000D01*
X105400000Y56800000D02*
X111400000Y56800000D01*
X105400000Y54260000D02*
X111400000Y54260000D01*
X105400000Y51730000D02*
X111400000Y51730000D01*
X105400000Y50770000D02*
X102740000Y50770000D01*
X111400000Y57560000D02*
X105400000Y57560000D01*
X111400000Y57560000D02*
X105400000Y57560000D01*
X111400000Y56800000D02*
X111400000Y57560000D01*
X111400000Y56800000D02*
X111400000Y57560000D01*
X111400000Y55020000D02*
X105400000Y55020000D01*
X111400000Y54260000D02*
X111400000Y55020000D01*
X111400000Y52490000D02*
X105400000Y52490000D01*
X111400000Y51730000D02*
X111400000Y52490000D01*
X20466949Y137162198D02*
X20673802Y137369051D01*
X21188198Y136440949D02*
X21395051Y136647802D01*
X79146000Y145471233D02*
X79146000Y145763767D01*
X80166000Y145471233D02*
X80166000Y145763767D01*
X77913972Y112879032D02*
X78179098Y112755402D01*
X77482902Y111954598D02*
X77748028Y111830968D01*
X17366206Y120989877D02*
X17454670Y121491585D01*
X18395330Y120808415D02*
X18483794Y121310123D01*
X63750516Y116832651D02*
X64038605Y116781853D01*
X63573395Y115828147D02*
X63861484Y115777349D01*
X69019124Y57259217D02*
X69294016Y57359269D01*
X69367984Y56300731D02*
X69642876Y56400783D01*
X85901119Y53132423D02*
X86189208Y53081625D01*
X85723998Y52127919D02*
X86012087Y52077121D01*
X44146000Y84058733D02*
X44146000Y84351267D01*
X45166000Y84058733D02*
X45166000Y84351267D01*
X101110269Y23298016D02*
X101010217Y23023124D01*
X100151783Y23646876D02*
X100051731Y23371984D01*
X26800516Y117582651D02*
X27088605Y117531853D01*
X26623395Y116578147D02*
X26911484Y116527349D01*
X68791000Y84538767D02*
X68791000Y84246233D01*
X67771000Y84538767D02*
X67771000Y84246233D01*
X44144124Y112234217D02*
X44419016Y112334269D01*
X44492984Y111275731D02*
X44767876Y111375783D01*
X34828709Y57506663D02*
X35068339Y57338872D01*
X34243661Y56671128D02*
X34483291Y56503337D01*
X97275516Y116257651D02*
X97563605Y116206853D01*
X97098395Y115253147D02*
X97386484Y115202349D01*
X57196000Y20983733D02*
X57196000Y21276267D01*
X58216000Y20983733D02*
X58216000Y21276267D01*
X14270000Y117150000D02*
X14270000Y118420000D01*
X14270000Y118420000D02*
X13000000Y118420000D01*
X11957071Y111690000D02*
X11560000Y111690000D01*
X11957071Y112450000D02*
X11560000Y112450000D01*
X11957071Y114230000D02*
X11560000Y114230000D01*
X11957071Y114990000D02*
X11560000Y114990000D01*
X11890000Y116770000D02*
X11560000Y116770000D01*
X11890000Y117530000D02*
X11560000Y117530000D01*
X11560000Y110740000D02*
X8900000Y110740000D01*
X11560000Y113340000D02*
X8900000Y113340000D01*
X11560000Y115880000D02*
X8900000Y115880000D01*
X11560000Y118480000D02*
X11560000Y110740000D01*
X8900000Y110740000D02*
X8900000Y118480000D01*
X8900000Y112450000D02*
X2900000Y112450000D01*
X8900000Y114990000D02*
X2900000Y114990000D01*
X8900000Y116870000D02*
X2900000Y116870000D01*
X8900000Y116990000D02*
X2900000Y116990000D01*
X8900000Y117110000D02*
X2900000Y117110000D01*
X8900000Y117230000D02*
X2900000Y117230000D01*
X8900000Y117350000D02*
X2900000Y117350000D01*
X8900000Y117470000D02*
X2900000Y117470000D01*
X8900000Y117530000D02*
X2900000Y117530000D01*
X8900000Y118480000D02*
X11560000Y118480000D01*
X2900000Y111690000D02*
X8900000Y111690000D01*
X2900000Y112450000D02*
X2900000Y111690000D01*
X2900000Y114230000D02*
X8900000Y114230000D01*
X2900000Y114990000D02*
X2900000Y114230000D01*
X2900000Y116770000D02*
X8900000Y116770000D01*
X2900000Y117530000D02*
X2900000Y116770000D01*
X15525516Y53332651D02*
X15813605Y53281853D01*
X15348395Y52328147D02*
X15636484Y52277349D01*
X33791000Y21201267D02*
X33791000Y20908733D01*
X32771000Y21201267D02*
X32771000Y20908733D01*
X55241000Y145813767D02*
X55241000Y145521233D01*
X54221000Y145813767D02*
X54221000Y145521233D01*
X52450516Y52107651D02*
X52738605Y52056853D01*
X52273395Y51103147D02*
X52561484Y51052349D01*
X12234733Y126390000D02*
X12527267Y126390000D01*
X12234733Y125370000D02*
X12527267Y125370000D01*
%LPC*%
D12*
X105300000Y156100000D03*
X9000000Y9000000D03*
X9000000Y156100000D03*
X105300000Y9000000D03*
D13*
X14006000Y130905000D03*
X11706000Y130905000D03*
D14*
X11706000Y137205000D03*
D13*
X9406000Y130905000D03*
D15*
X101300000Y52100000D03*
D16*
X101300000Y54640000D03*
D17*
X101300000Y57180000D03*
D18*
X20321120Y136295120D03*
X21540880Y137514880D03*
D19*
X79656000Y144755000D03*
X79656000Y146480000D03*
D20*
X77049310Y112719508D03*
X78612690Y111990492D03*
D21*
X17766546Y120251363D03*
X18083454Y122048637D03*
D22*
X62956603Y116454772D03*
X64655397Y116155228D03*
D23*
X68520515Y56535008D03*
X70141485Y57124992D03*
D22*
X85107206Y52754544D03*
X86806000Y52455000D03*
D19*
X44656000Y83342500D03*
X44656000Y85067500D03*
D24*
X100875992Y24145485D03*
X100286008Y22524515D03*
D22*
X26006603Y117204772D03*
X27705397Y116905228D03*
D25*
X68281000Y85255000D03*
X68281000Y83530000D03*
D23*
X43645515Y111510008D03*
X45266485Y112099992D03*
D26*
X33949481Y57499710D03*
X35362519Y56510290D03*
D22*
X96481603Y115879772D03*
X98180397Y115580228D03*
D19*
X57706000Y20267500D03*
X57706000Y21992500D03*
D17*
X13000000Y117150000D03*
D16*
X13000000Y114610000D03*
X13000000Y112070000D03*
D22*
X14731603Y52954772D03*
X16430397Y52655228D03*
D25*
X33281000Y21917500D03*
X33281000Y20192500D03*
X54731000Y146530000D03*
X54731000Y144805000D03*
D22*
X51656603Y51729772D03*
X53355397Y51430228D03*
D27*
X11518500Y125880000D03*
X13243500Y125880000D03*
%LPD*%
M02*
