G04 #@! TF.GenerationSoftware,KiCad,Pcbnew,7.0.2*
G04 #@! TF.CreationDate,2023-12-05T14:33:53-06:00*
G04 #@! TF.ProjectId,SixteenSegClock-Main,53697874-6565-46e5-9365-67436c6f636b,A*
G04 #@! TF.SameCoordinates,PX9fcafb8PYcb70528*
G04 #@! TF.FileFunction,Legend,Top*
G04 #@! TF.FilePolarity,Positive*
%FSLAX46Y46*%
G04 Gerber Fmt 4.6, Leading zero omitted, Abs format (unit mm)*
G04 Created by KiCad (PCBNEW 7.0.2) date 2023-12-05 14:33:53*
%MOMM*%
%LPD*%
G01*
G04 APERTURE LIST*
G04 Aperture macros list*
%AMRotRect*
0 Rectangle, with rotation*
0 The origin of the aperture is its center*
0 $1 length*
0 $2 width*
0 $3 Rotation angle, in degrees counterclockwise*
0 Add horizontal line*
21,1,$1,$2,0,0,$3*%
G04 Aperture macros list end*
%ADD10C,0.150000*%
%ADD11C,1.000000*%
%ADD12C,0.120000*%
%ADD13RotRect,1.500000X1.000000X350.000000*%
%ADD14RotRect,1.500000X1.000000X20.000000*%
%ADD15R,1.000000X1.500000*%
%ADD16C,7.500000*%
%ADD17RotRect,1.500000X1.000000X325.000000*%
%ADD18R,1.700000X1.700000*%
%ADD19O,1.700000X1.700000*%
%ADD20C,1.700000*%
G04 APERTURE END LIST*
D10*
X105115000Y142691000D02*
X95743000Y89539000D01*
X90335000Y85002000D01*
X85836000Y90364000D01*
X94688000Y140565000D01*
X101853000Y146578000D01*
X105115000Y142691000D01*
G36*
X105115000Y142691000D02*
G01*
X95743000Y89539000D01*
X90335000Y85002000D01*
X85836000Y90364000D01*
X94688000Y140565000D01*
X101853000Y146578000D01*
X105115000Y142691000D01*
G37*
X65351000Y146573000D02*
X59507000Y141670000D01*
X38939000Y141670000D01*
X33664000Y147956000D01*
X37494000Y151170000D01*
X61494000Y151170000D01*
X65351000Y146573000D01*
G36*
X65351000Y146573000D02*
G01*
X59507000Y141670000D01*
X38939000Y141670000D01*
X33664000Y147956000D01*
X37494000Y151170000D01*
X61494000Y151170000D01*
X65351000Y146573000D01*
G37*
X54631000Y84777000D02*
X44706000Y79647000D01*
X28255000Y79647000D01*
X24078000Y84624000D01*
X30064000Y89647000D01*
X47675000Y89647000D01*
X54631000Y84777000D01*
G36*
X54631000Y84777000D02*
G01*
X44706000Y79647000D01*
X28255000Y79647000D01*
X24078000Y84624000D01*
X30064000Y89647000D01*
X47675000Y89647000D01*
X54631000Y84777000D01*
G37*
X64556000Y77827000D02*
X76034000Y46292000D01*
X73164000Y30015000D01*
X69901000Y33903000D01*
X60761000Y59015000D01*
X57830000Y82537000D01*
X64556000Y77827000D01*
G36*
X64556000Y77827000D02*
G01*
X76034000Y46292000D01*
X73164000Y30015000D01*
X69901000Y33903000D01*
X60761000Y59015000D01*
X57830000Y82537000D01*
X64556000Y77827000D01*
G37*
X45143000Y131165000D02*
X52156000Y111895000D01*
X55289000Y86758000D01*
X49082000Y91104000D01*
X37073000Y124097000D01*
X39504000Y137884000D01*
X45143000Y131165000D01*
G36*
X45143000Y131165000D02*
G01*
X52156000Y111895000D01*
X55289000Y86758000D01*
X49082000Y91104000D01*
X37073000Y124097000D01*
X39504000Y137884000D01*
X45143000Y131165000D01*
G37*
X43002000Y55986000D02*
X29265000Y37152000D01*
X20436000Y29744000D01*
X23291000Y45931000D01*
X47172000Y78670000D01*
X54521000Y82468000D01*
X43002000Y55986000D01*
G36*
X43002000Y55986000D02*
G01*
X29265000Y37152000D01*
X20436000Y29744000D01*
X23291000Y45931000D01*
X47172000Y78670000D01*
X54521000Y82468000D01*
X43002000Y55986000D01*
G37*
X93740000Y79041000D02*
X84157000Y24692000D01*
X80327000Y21478000D01*
X74842000Y28015000D01*
X83741000Y78483000D01*
X89884000Y83637000D01*
X93740000Y79041000D01*
G36*
X93740000Y79041000D02*
G01*
X84157000Y24692000D01*
X80327000Y21478000D01*
X74842000Y28015000D01*
X83741000Y78483000D01*
X89884000Y83637000D01*
X93740000Y79041000D01*
G37*
X71107000Y139714000D02*
X65438000Y107567000D01*
X57100000Y88397000D01*
X54948000Y105664000D01*
X60996000Y139962000D01*
X66807000Y144838000D01*
X71107000Y139714000D01*
G36*
X71107000Y139714000D02*
G01*
X65438000Y107567000D01*
X57100000Y88397000D01*
X54948000Y105664000D01*
X60996000Y139962000D01*
X66807000Y144838000D01*
X71107000Y139714000D01*
G37*
X88818000Y118796000D02*
X69673000Y92550000D01*
X58598000Y86826000D01*
X66687000Y105425000D01*
X88583000Y135443000D01*
X92304000Y138565000D01*
X88818000Y118796000D01*
G36*
X88818000Y118796000D02*
G01*
X69673000Y92550000D01*
X58598000Y86826000D01*
X66687000Y105425000D01*
X88583000Y135443000D01*
X92304000Y138565000D01*
X88818000Y118796000D01*
G37*
X88003000Y84670000D02*
X82017000Y79647000D01*
X65444000Y79647000D01*
X58487000Y84518000D01*
X68413000Y89647000D01*
X83826000Y89647000D01*
X88003000Y84670000D01*
G36*
X88003000Y84670000D02*
G01*
X82017000Y79647000D01*
X65444000Y79647000D01*
X58487000Y84518000D01*
X68413000Y89647000D01*
X83826000Y89647000D01*
X88003000Y84670000D01*
G37*
X44371000Y21211000D02*
X39326000Y16978000D01*
X14557000Y16978000D01*
X11986000Y20043000D01*
X19656000Y26478000D01*
X39951000Y26478000D01*
X44371000Y21211000D01*
G36*
X44371000Y21211000D02*
G01*
X39326000Y16978000D01*
X14557000Y16978000D01*
X11986000Y20043000D01*
X19656000Y26478000D01*
X39951000Y26478000D01*
X44371000Y21211000D01*
G37*
X78795000Y20192000D02*
X74965000Y16978000D01*
X50500000Y16978000D01*
X46948000Y21211000D01*
X53225000Y26478000D01*
X73520000Y26478000D01*
X78795000Y20192000D01*
G36*
X78795000Y20192000D02*
G01*
X74965000Y16978000D01*
X50500000Y16978000D01*
X46948000Y21211000D01*
X53225000Y26478000D01*
X73520000Y26478000D01*
X78795000Y20192000D01*
G37*
X26934000Y78110000D02*
X18053000Y27744000D01*
X10700000Y21575000D01*
X7486000Y25405000D01*
X16860000Y78568000D01*
X22546000Y83339000D01*
X26934000Y78110000D01*
G36*
X26934000Y78110000D02*
G01*
X18053000Y27744000D01*
X10700000Y21575000D01*
X7486000Y25405000D01*
X16860000Y78568000D01*
X22546000Y83339000D01*
X26934000Y78110000D01*
G37*
X57972000Y65224000D02*
X51318000Y27490000D01*
X45682000Y22760000D01*
X41259000Y28031000D01*
X46874000Y59873000D01*
X56019000Y80897000D01*
X57972000Y65224000D01*
G36*
X57972000Y65224000D02*
G01*
X51318000Y27490000D01*
X45682000Y22760000D01*
X41259000Y28031000D01*
X46874000Y59873000D01*
X56019000Y80897000D01*
X57972000Y65224000D01*
G37*
X100562000Y148106000D02*
X92892000Y141670000D01*
X72990000Y141670000D01*
X68875000Y146573000D01*
X74353000Y151170000D01*
X97991000Y151170000D01*
X100562000Y148106000D01*
G36*
X100562000Y148106000D02*
G01*
X92892000Y141670000D01*
X72990000Y141670000D01*
X68875000Y146573000D01*
X74353000Y151170000D01*
X97991000Y151170000D01*
X100562000Y148106000D01*
G37*
X37826000Y139884000D02*
X29318000Y91632000D01*
X22793000Y86157000D01*
X18996000Y90681000D01*
X28302000Y143456000D01*
X32132000Y146670000D01*
X37826000Y139884000D01*
G36*
X37826000Y139884000D02*
G01*
X29318000Y91632000D01*
X22793000Y86157000D01*
X18996000Y90681000D01*
X28302000Y143456000D01*
X32132000Y146670000D01*
X37826000Y139884000D01*
G37*
X103173166Y25440749D02*
X103614605Y25360640D01*
X104047085Y25241283D01*
X104467125Y25083639D01*
X104871343Y24888978D01*
X105256485Y24658866D01*
X105619449Y24395157D01*
X105957313Y24099974D01*
X106267357Y23775694D01*
X106547085Y23424926D01*
X106794244Y23050496D01*
X107006844Y22655419D01*
X107183174Y22242874D01*
X107321814Y21816184D01*
X107421648Y21378784D01*
X107481871Y20934197D01*
X107502000Y20486000D01*
X107481871Y20037803D01*
X107421648Y19593216D01*
X107321814Y19155816D01*
X107183174Y18729126D01*
X107006844Y18316581D01*
X106794244Y17921504D01*
X106547085Y17547074D01*
X106267357Y17196306D01*
X105957313Y16872026D01*
X105619449Y16576843D01*
X105256485Y16313134D01*
X104871343Y16083022D01*
X104467125Y15888361D01*
X104047085Y15730717D01*
X103614605Y15611360D01*
X103173166Y15531251D01*
X102726324Y15491035D01*
X102277676Y15491035D01*
X101830834Y15531251D01*
X101389395Y15611360D01*
X100956915Y15730717D01*
X100536875Y15888361D01*
X100132657Y16083022D01*
X99747515Y16313134D01*
X99384551Y16576843D01*
X99046687Y16872026D01*
X98736643Y17196306D01*
X98456915Y17547074D01*
X98209756Y17921504D01*
X97997156Y18316581D01*
X97820826Y18729126D01*
X97682186Y19155816D01*
X97582352Y19593216D01*
X97522129Y20037803D01*
X97502000Y20486000D01*
X97522129Y20934197D01*
X97582352Y21378784D01*
X97682186Y21816184D01*
X97820826Y22242874D01*
X97997156Y22655419D01*
X98209756Y23050496D01*
X98456915Y23424926D01*
X98736643Y23775694D01*
X99046687Y24099974D01*
X99384551Y24395157D01*
X99747515Y24658866D01*
X100132657Y24888978D01*
X100536875Y25083639D01*
X100956915Y25241283D01*
X101389395Y25360640D01*
X101830834Y25440749D01*
X102277676Y25480965D01*
X102726324Y25480965D01*
X103173166Y25440749D01*
G36*
X103173166Y25440749D02*
G01*
X103614605Y25360640D01*
X104047085Y25241283D01*
X104467125Y25083639D01*
X104871343Y24888978D01*
X105256485Y24658866D01*
X105619449Y24395157D01*
X105957313Y24099974D01*
X106267357Y23775694D01*
X106547085Y23424926D01*
X106794244Y23050496D01*
X107006844Y22655419D01*
X107183174Y22242874D01*
X107321814Y21816184D01*
X107421648Y21378784D01*
X107481871Y20934197D01*
X107502000Y20486000D01*
X107481871Y20037803D01*
X107421648Y19593216D01*
X107321814Y19155816D01*
X107183174Y18729126D01*
X107006844Y18316581D01*
X106794244Y17921504D01*
X106547085Y17547074D01*
X106267357Y17196306D01*
X105957313Y16872026D01*
X105619449Y16576843D01*
X105256485Y16313134D01*
X104871343Y16083022D01*
X104467125Y15888361D01*
X104047085Y15730717D01*
X103614605Y15611360D01*
X103173166Y15531251D01*
X102726324Y15491035D01*
X102277676Y15491035D01*
X101830834Y15531251D01*
X101389395Y15611360D01*
X100956915Y15730717D01*
X100536875Y15888361D01*
X100132657Y16083022D01*
X99747515Y16313134D01*
X99384551Y16576843D01*
X99046687Y16872026D01*
X98736643Y17196306D01*
X98456915Y17547074D01*
X98209756Y17921504D01*
X97997156Y18316581D01*
X97820826Y18729126D01*
X97682186Y19155816D01*
X97582352Y19593216D01*
X97522129Y20037803D01*
X97502000Y20486000D01*
X97522129Y20934197D01*
X97582352Y21378784D01*
X97682186Y21816184D01*
X97820826Y22242874D01*
X97997156Y22655419D01*
X98209756Y23050496D01*
X98456915Y23424926D01*
X98736643Y23775694D01*
X99046687Y24099974D01*
X99384551Y24395157D01*
X99747515Y24658866D01*
X100132657Y24888978D01*
X100536875Y25083639D01*
X100956915Y25241283D01*
X101389395Y25360640D01*
X101830834Y25440749D01*
X102277676Y25480965D01*
X102726324Y25480965D01*
X103173166Y25440749D01*
G37*
D11*
G36*
X48606491Y154370000D02*
G01*
X47283916Y154370000D01*
X46965179Y155386051D01*
X45356840Y155386051D01*
X45038103Y154370000D01*
X43749722Y154370000D01*
X44414344Y156323943D01*
X45638940Y156323943D01*
X46683078Y156323943D01*
X46161620Y158003113D01*
X45638940Y156323943D01*
X44414344Y156323943D01*
X45477740Y159450252D01*
X46878473Y159450252D01*
X48606491Y154370000D01*
G37*
G36*
X52612074Y154370000D02*
G01*
X49231753Y154370000D01*
X49231753Y155229735D01*
X50311306Y155229735D01*
X50311306Y157887097D01*
X49231753Y157887097D01*
X49231753Y158746832D01*
X49290924Y158747309D01*
X49349981Y158748740D01*
X49408924Y158751126D01*
X49467752Y158754465D01*
X49526466Y158758758D01*
X49585065Y158764006D01*
X49643550Y158770207D01*
X49701920Y158777363D01*
X49759069Y158785892D01*
X49813280Y158795605D01*
X49864551Y158806500D01*
X49912885Y158818579D01*
X49969169Y158835341D01*
X50020862Y158853951D01*
X50067964Y158874410D01*
X50076833Y158878723D01*
X50126886Y158906076D01*
X50173242Y158936230D01*
X50215901Y158969188D01*
X50254863Y159004947D01*
X50290128Y159043510D01*
X50321696Y159084875D01*
X50333288Y159102206D01*
X50360002Y159147733D01*
X50382900Y159196540D01*
X50401981Y159248626D01*
X50417246Y159303992D01*
X50428695Y159362638D01*
X50435107Y159411916D01*
X50438312Y159450252D01*
X51558166Y159450252D01*
X51558166Y155229735D01*
X52612074Y155229735D01*
X52612074Y154370000D01*
G37*
G36*
X93250525Y49213685D02*
G01*
X93180746Y49214364D01*
X93112156Y49216399D01*
X93044753Y49219792D01*
X92978538Y49224542D01*
X92913510Y49230650D01*
X92849671Y49238114D01*
X92787019Y49246936D01*
X92725555Y49257115D01*
X92665279Y49268650D01*
X92606191Y49281544D01*
X92548291Y49295794D01*
X92491578Y49311401D01*
X92436054Y49328366D01*
X92381717Y49346688D01*
X92328568Y49366367D01*
X92276607Y49387403D01*
X92225833Y49409796D01*
X92176248Y49433547D01*
X92127850Y49458654D01*
X92080640Y49485119D01*
X92034618Y49512941D01*
X91989783Y49542120D01*
X91946137Y49572656D01*
X91903678Y49604550D01*
X91862407Y49637801D01*
X91822324Y49672408D01*
X91783429Y49708373D01*
X91745722Y49745696D01*
X91709202Y49784375D01*
X91673871Y49824411D01*
X91639727Y49865805D01*
X91606771Y49908556D01*
X91575246Y49952614D01*
X91545242Y49997776D01*
X91516761Y50044043D01*
X91489801Y50091414D01*
X91464363Y50139889D01*
X91440447Y50189469D01*
X91418052Y50240153D01*
X91397180Y50291941D01*
X91377829Y50344834D01*
X91359999Y50398831D01*
X91343692Y50453932D01*
X91328906Y50510138D01*
X91315642Y50567448D01*
X91303900Y50625862D01*
X91293679Y50685381D01*
X91284981Y50746004D01*
X91277804Y50807731D01*
X91272148Y50870563D01*
X91268015Y50934499D01*
X91265403Y50999539D01*
X91264313Y51065684D01*
X91264745Y51132933D01*
X91266698Y51201286D01*
X91270173Y51270744D01*
X91275170Y51341306D01*
X91281689Y51412973D01*
X91289729Y51485743D01*
X91299292Y51559619D01*
X91310376Y51634598D01*
X91322981Y51710682D01*
X91337109Y51787870D01*
X91352758Y51866162D01*
X91369105Y51941701D01*
X91386546Y52016276D01*
X91405083Y52089888D01*
X91424714Y52162536D01*
X91445440Y52234220D01*
X91467261Y52304941D01*
X91490177Y52374698D01*
X91514187Y52443491D01*
X91539292Y52511321D01*
X91565493Y52578188D01*
X91592787Y52644090D01*
X91621177Y52709029D01*
X91650661Y52773005D01*
X91681241Y52836016D01*
X91712915Y52898065D01*
X91745684Y52959149D01*
X91779547Y53019270D01*
X91814506Y53078427D01*
X91850559Y53136621D01*
X91887707Y53193851D01*
X91925950Y53250118D01*
X91965288Y53305421D01*
X92005720Y53359760D01*
X92047247Y53413136D01*
X92089869Y53465548D01*
X92133586Y53516996D01*
X92178398Y53567481D01*
X92224304Y53617002D01*
X92271305Y53665560D01*
X92319402Y53713154D01*
X92368592Y53759784D01*
X92418878Y53805451D01*
X92470090Y53849930D01*
X92521908Y53892996D01*
X92574332Y53934651D01*
X92627362Y53974894D01*
X92680998Y54013725D01*
X92735239Y54051144D01*
X92790087Y54087150D01*
X92845540Y54121745D01*
X92901599Y54154928D01*
X92958264Y54186698D01*
X93015534Y54217057D01*
X93073411Y54246004D01*
X93131893Y54273538D01*
X93190981Y54299661D01*
X93250675Y54324371D01*
X93310975Y54347670D01*
X93371881Y54369556D01*
X93433392Y54390031D01*
X93495510Y54409093D01*
X93558233Y54426743D01*
X93621562Y54442982D01*
X93685497Y54457808D01*
X93750037Y54471222D01*
X93815184Y54483225D01*
X93880936Y54493815D01*
X93947294Y54502993D01*
X94014258Y54510759D01*
X94081828Y54517113D01*
X94150004Y54522055D01*
X94218786Y54525585D01*
X94288173Y54527703D01*
X94358166Y54528409D01*
X94413883Y54528109D01*
X94468376Y54527207D01*
X94521646Y54525705D01*
X94573691Y54523601D01*
X94624514Y54520896D01*
X94674112Y54517590D01*
X94738341Y54512247D01*
X94800394Y54505836D01*
X94860271Y54498356D01*
X94889394Y54494215D01*
X94946982Y54485228D01*
X95003731Y54475363D01*
X95059639Y54464620D01*
X95114708Y54452999D01*
X95168938Y54440501D01*
X95222328Y54427125D01*
X95274878Y54412871D01*
X95326589Y54397740D01*
X95377149Y54380787D01*
X95428842Y54361986D01*
X95481668Y54341336D01*
X95535627Y54318838D01*
X95590718Y54294491D01*
X95635608Y54273683D01*
X95669750Y54257300D01*
X95714420Y54235394D01*
X95767091Y54209086D01*
X95816244Y54183970D01*
X95861878Y54160046D01*
X95911996Y54132913D01*
X95957047Y54107496D01*
X95964063Y54103427D01*
X95711272Y52887097D01*
X95583044Y52887097D01*
X95549059Y52925541D01*
X95511217Y52967140D01*
X95475711Y53005307D01*
X95437371Y53045793D01*
X95403257Y53081303D01*
X95396198Y53088598D01*
X95360105Y53125467D01*
X95322043Y53162038D01*
X95282014Y53198310D01*
X95240016Y53234285D01*
X95196052Y53269961D01*
X95150119Y53305340D01*
X95131195Y53319407D01*
X95082859Y53353712D01*
X95032496Y53386407D01*
X94980105Y53417492D01*
X94936733Y53441201D01*
X94892063Y53463879D01*
X94846096Y53485527D01*
X94798831Y53506145D01*
X94786812Y53511138D01*
X94738288Y53529742D01*
X94688581Y53545866D01*
X94637691Y53559510D01*
X94585617Y53570672D01*
X94532361Y53579354D01*
X94477922Y53585556D01*
X94422299Y53589277D01*
X94365493Y53590517D01*
X94314668Y53589733D01*
X94264314Y53587383D01*
X94214433Y53583465D01*
X94165024Y53577980D01*
X94116087Y53570929D01*
X94067622Y53562310D01*
X94019630Y53552124D01*
X93972110Y53540371D01*
X93925062Y53527051D01*
X93878487Y53512164D01*
X93847699Y53501368D01*
X93801839Y53483723D01*
X93755850Y53463759D01*
X93709732Y53441476D01*
X93663486Y53416875D01*
X93617111Y53389956D01*
X93570607Y53360719D01*
X93523974Y53329163D01*
X93477213Y53295288D01*
X93430322Y53259096D01*
X93383303Y53220584D01*
X93351886Y53193622D01*
X93309400Y53155304D01*
X93267579Y53114539D01*
X93226424Y53071327D01*
X93185934Y53025667D01*
X93146110Y52977560D01*
X93106951Y52927006D01*
X93068458Y52874005D01*
X93030630Y52818557D01*
X92993468Y52760661D01*
X92956971Y52700319D01*
X92933009Y52658730D01*
X92898344Y52594459D01*
X92876152Y52550419D01*
X92854695Y52505425D01*
X92833973Y52459477D01*
X92813985Y52412575D01*
X92794732Y52364718D01*
X92776213Y52315908D01*
X92758429Y52266143D01*
X92741380Y52215425D01*
X92725065Y52163752D01*
X92709485Y52111126D01*
X92694640Y52057545D01*
X92680529Y52003010D01*
X92667153Y51947521D01*
X92654512Y51891078D01*
X92648466Y51862499D01*
X92636559Y51802654D01*
X92625874Y51744022D01*
X92616409Y51686601D01*
X92608166Y51630392D01*
X92601144Y51575394D01*
X92595343Y51521608D01*
X92590764Y51469034D01*
X92587406Y51417671D01*
X92585268Y51367521D01*
X92584353Y51318581D01*
X92585268Y51247444D01*
X92588932Y51179034D01*
X92595343Y51113349D01*
X92604503Y51050391D01*
X92615948Y50989913D01*
X92629218Y50931666D01*
X92644312Y50875653D01*
X92661232Y50821872D01*
X92679976Y50770323D01*
X92700544Y50721007D01*
X92722938Y50673923D01*
X92747156Y50629072D01*
X92773198Y50586454D01*
X92801066Y50546068D01*
X92820657Y50520384D01*
X92860194Y50473234D01*
X92901868Y50429480D01*
X92945679Y50389123D01*
X92991627Y50352162D01*
X93039713Y50318598D01*
X93089935Y50288430D01*
X93142295Y50261659D01*
X93196791Y50238284D01*
X93252605Y50217962D01*
X93308914Y50200350D01*
X93365720Y50185447D01*
X93423021Y50173254D01*
X93480819Y50163771D01*
X93539113Y50156997D01*
X93597903Y50152932D01*
X93657189Y50151578D01*
X93719376Y50152932D01*
X93781371Y50156997D01*
X93843176Y50163771D01*
X93904790Y50173254D01*
X93966214Y50185447D01*
X94027446Y50200350D01*
X94088488Y50217962D01*
X94149339Y50238284D01*
X94209064Y50260266D01*
X94266728Y50282858D01*
X94322331Y50306061D01*
X94375874Y50329875D01*
X94427356Y50354299D01*
X94476777Y50379334D01*
X94524137Y50404980D01*
X94569436Y50431236D01*
X94616167Y50458484D01*
X94661714Y50485885D01*
X94706079Y50513439D01*
X94749260Y50541145D01*
X94791258Y50569004D01*
X94832074Y50597016D01*
X94881429Y50632245D01*
X94910155Y50653497D01*
X94956845Y50688362D01*
X95001508Y50721975D01*
X95044143Y50754336D01*
X95084751Y50785445D01*
X95130804Y50821123D01*
X95173937Y50854997D01*
X95288731Y50854997D01*
X95038383Y49653322D01*
X94990250Y49632267D01*
X94939731Y49610317D01*
X94886828Y49587473D01*
X94831539Y49563735D01*
X94785591Y49544100D01*
X94738116Y49523893D01*
X94689115Y49503113D01*
X94639294Y49482734D01*
X94589357Y49463118D01*
X94539307Y49444266D01*
X94489141Y49426176D01*
X94438862Y49408850D01*
X94388468Y49392288D01*
X94337959Y49376488D01*
X94287336Y49361452D01*
X94225035Y49343973D01*
X94163917Y49327563D01*
X94103982Y49312222D01*
X94045230Y49297949D01*
X93987661Y49284744D01*
X93931276Y49272609D01*
X93876073Y49261541D01*
X93822053Y49251543D01*
X93766641Y49242670D01*
X93706648Y49234980D01*
X93642077Y49228473D01*
X93590643Y49224370D01*
X93536632Y49220931D01*
X93480046Y49218158D01*
X93420884Y49216051D01*
X93359146Y49214609D01*
X93294832Y49213833D01*
X93250525Y49213685D01*
G37*
G36*
X104300881Y115075080D02*
G01*
X104366493Y115074565D01*
X104429948Y115073706D01*
X104491248Y115072504D01*
X104550391Y115070958D01*
X104607377Y115069069D01*
X104662208Y115066837D01*
X104714882Y115064261D01*
X104765401Y115061341D01*
X104837135Y115056318D01*
X104904018Y115050522D01*
X104966049Y115043953D01*
X105023230Y115036612D01*
X105058654Y115031288D01*
X105109909Y115022437D01*
X105160177Y115011911D01*
X105209458Y114999711D01*
X105257750Y114985836D01*
X105305056Y114970287D01*
X105351374Y114953064D01*
X105396704Y114934166D01*
X105441047Y114913593D01*
X105498635Y114883559D01*
X105554467Y114850548D01*
X105597515Y114821951D01*
X105637815Y114791572D01*
X105675367Y114759412D01*
X105721163Y114713759D01*
X105762074Y114664939D01*
X105798099Y114612952D01*
X105829240Y114557797D01*
X105855497Y114499474D01*
X105871983Y114453654D01*
X105886015Y114406495D01*
X105897428Y114357984D01*
X105906222Y114308120D01*
X105912397Y114256905D01*
X105915954Y114204336D01*
X105916891Y114150416D01*
X105915210Y114095143D01*
X105910909Y114038517D01*
X105903990Y113980539D01*
X105894451Y113921209D01*
X105886638Y113880904D01*
X105870523Y113811109D01*
X105851489Y113742773D01*
X105829536Y113675898D01*
X105804664Y113610482D01*
X105776871Y113546525D01*
X105746160Y113484029D01*
X105712529Y113422992D01*
X105675978Y113363415D01*
X105636508Y113305297D01*
X105594119Y113248640D01*
X105564237Y113211679D01*
X105517726Y113158109D01*
X105469326Y113107308D01*
X105419036Y113059276D01*
X105366858Y113014014D01*
X105312791Y112971521D01*
X105256834Y112931797D01*
X105198989Y112894842D01*
X105139254Y112860656D01*
X105077631Y112829240D01*
X105014118Y112800592D01*
X104970727Y112783033D01*
X104964621Y112756166D01*
X105018998Y112743004D01*
X105071611Y112728250D01*
X105122458Y112711902D01*
X105171540Y112693960D01*
X105218858Y112674426D01*
X105264410Y112653298D01*
X105308197Y112630576D01*
X105370568Y112593507D01*
X105428968Y112552853D01*
X105483397Y112508614D01*
X105533854Y112460789D01*
X105580341Y112409380D01*
X105622855Y112354386D01*
X105660551Y112295951D01*
X105692579Y112233758D01*
X105718940Y112167809D01*
X105739634Y112098103D01*
X105750281Y112049546D01*
X105758410Y111999318D01*
X105764020Y111947422D01*
X105767111Y111893855D01*
X105767684Y111838619D01*
X105765737Y111781713D01*
X105761272Y111723138D01*
X105754288Y111662893D01*
X105744786Y111600978D01*
X105732765Y111537394D01*
X105717037Y111467892D01*
X105699162Y111399979D01*
X105679141Y111333654D01*
X105656973Y111268918D01*
X105632658Y111205770D01*
X105606197Y111144211D01*
X105577589Y111084240D01*
X105546835Y111025858D01*
X105513933Y110969064D01*
X105478886Y110913859D01*
X105454328Y110877938D01*
X105416099Y110825456D01*
X105376518Y110774712D01*
X105335585Y110725708D01*
X105293299Y110678442D01*
X105249661Y110632914D01*
X105204670Y110589126D01*
X105158328Y110547076D01*
X105110632Y110506766D01*
X105061584Y110468194D01*
X105011184Y110431360D01*
X104976833Y110407771D01*
X104935655Y110380337D01*
X104894248Y110353904D01*
X104831709Y110316133D01*
X104768654Y110280617D01*
X104705084Y110247354D01*
X104640999Y110216346D01*
X104576399Y110187591D01*
X104511283Y110161090D01*
X104445652Y110136844D01*
X104379506Y110114851D01*
X104312845Y110095113D01*
X104290511Y110089034D01*
X104221993Y110072229D01*
X104150619Y110057077D01*
X104101451Y110047894D01*
X104051014Y110039446D01*
X103999308Y110031732D01*
X103946333Y110024753D01*
X103892089Y110018509D01*
X103836577Y110012999D01*
X103779795Y110008224D01*
X103721744Y110004183D01*
X103662425Y110000878D01*
X103601836Y109998306D01*
X103539979Y109996470D01*
X103476853Y109995368D01*
X103412457Y109995000D01*
X101410887Y109995000D01*
X101605906Y110932893D01*
X102855584Y110932893D01*
X102921529Y110932893D01*
X102981717Y110932917D01*
X103039548Y110932988D01*
X103095023Y110933108D01*
X103148141Y110933275D01*
X103198902Y110933489D01*
X103270626Y110933901D01*
X103337047Y110934420D01*
X103398167Y110935046D01*
X103453984Y110935779D01*
X103504498Y110936620D01*
X103563603Y110937908D01*
X103601746Y110938999D01*
X103661787Y110943167D01*
X103710549Y110949206D01*
X103759961Y110957650D01*
X103810021Y110968498D01*
X103860730Y110981750D01*
X103912088Y110997406D01*
X103964094Y111015467D01*
X104003525Y111030590D01*
X104049283Y111049977D01*
X104102937Y111077216D01*
X104152656Y111107794D01*
X104198440Y111141711D01*
X104240288Y111178968D01*
X104278201Y111219564D01*
X104299059Y111245524D01*
X104331295Y111291129D01*
X104360072Y111338641D01*
X104385391Y111388062D01*
X104407251Y111439392D01*
X104425653Y111492629D01*
X104440596Y111547774D01*
X104445605Y111570367D01*
X104455718Y111626505D01*
X104462244Y111679513D01*
X104465182Y111729392D01*
X104463811Y111787340D01*
X104456834Y111840398D01*
X104444252Y111888567D01*
X104426065Y111931846D01*
X104397143Y111978615D01*
X104360749Y112020919D01*
X104316886Y112058757D01*
X104274626Y112086878D01*
X104227179Y112111899D01*
X104185486Y112129683D01*
X104135038Y112147047D01*
X104084635Y112158954D01*
X104027619Y112168113D01*
X103975056Y112173647D01*
X103917901Y112177272D01*
X103881404Y112178532D01*
X103829502Y112179676D01*
X103773326Y112180669D01*
X103712876Y112181508D01*
X103648152Y112182195D01*
X103596804Y112182610D01*
X103543051Y112182939D01*
X103486894Y112183183D01*
X103428333Y112183340D01*
X103367368Y112183412D01*
X103346512Y112183416D01*
X103115702Y112183416D01*
X102855584Y110932893D01*
X101605906Y110932893D01*
X102044698Y113043151D01*
X103294000Y113043151D01*
X103451536Y113043151D01*
X103510509Y113043205D01*
X103566068Y113043366D01*
X103618214Y113043634D01*
X103682433Y113044159D01*
X103740584Y113044875D01*
X103792667Y113045781D01*
X103849237Y113047182D01*
X103904607Y113049257D01*
X103954381Y113054066D01*
X104005700Y113062996D01*
X104058566Y113076048D01*
X104112976Y113093221D01*
X104159499Y113110681D01*
X104187929Y113122530D01*
X104237833Y113146770D01*
X104283741Y113173692D01*
X104325655Y113203298D01*
X104363573Y113235588D01*
X104403802Y113277877D01*
X104438277Y113324031D01*
X104468159Y113373991D01*
X104490437Y113417789D01*
X104510329Y113463554D01*
X104527836Y113511288D01*
X104542958Y113560989D01*
X104555695Y113612658D01*
X104557956Y113623228D01*
X104566254Y113678075D01*
X104568709Y113733624D01*
X104565319Y113789874D01*
X104557763Y113838646D01*
X104548187Y113879683D01*
X104532359Y113926981D01*
X104506296Y113975542D01*
X104472052Y114016974D01*
X104429626Y114051277D01*
X104394314Y114071414D01*
X104342472Y114093060D01*
X104293757Y114107801D01*
X104241092Y114119021D01*
X104184477Y114126720D01*
X104134281Y114130447D01*
X104113434Y114131253D01*
X104056655Y114133012D01*
X104005307Y114134205D01*
X103948692Y114135207D01*
X103886811Y114136018D01*
X103836944Y114136501D01*
X103784114Y114136876D01*
X103728323Y114137145D01*
X103669568Y114137306D01*
X103607852Y114137359D01*
X103521146Y114137359D01*
X103294000Y113043151D01*
X102044698Y113043151D01*
X102467238Y115075252D01*
X104233113Y115075252D01*
X104300881Y115075080D01*
G37*
G36*
X41082406Y107213659D02*
G01*
X39995190Y106585955D01*
X39270138Y108784559D01*
X37789494Y107929709D01*
X38514547Y105731105D01*
X37426274Y105102790D01*
X35800974Y110030592D01*
X36889247Y110658907D01*
X37489764Y108839645D01*
X38970408Y109694495D01*
X38369891Y111513756D01*
X39457106Y112141461D01*
X41082406Y107213659D01*
G37*
G36*
X38237249Y92109358D02*
G01*
X38172291Y92083777D01*
X38103812Y92058325D01*
X38056204Y92041428D01*
X38007031Y92024589D01*
X37956293Y92007807D01*
X37903991Y91991082D01*
X37850124Y91974414D01*
X37794692Y91957804D01*
X37737696Y91941251D01*
X37679135Y91924755D01*
X37619009Y91908316D01*
X37557319Y91891935D01*
X37494064Y91875610D01*
X37429244Y91859343D01*
X37362859Y91843134D01*
X37295750Y91827458D01*
X37228755Y91812794D01*
X37161874Y91799141D01*
X37095108Y91786500D01*
X37028457Y91774870D01*
X36961920Y91764251D01*
X36895497Y91754643D01*
X36829189Y91746047D01*
X36762995Y91738462D01*
X36696916Y91731889D01*
X36630951Y91726327D01*
X36565101Y91721776D01*
X36499366Y91718236D01*
X36433744Y91715708D01*
X36368238Y91714191D01*
X36302846Y91713685D01*
X36227989Y91714364D01*
X36154086Y91716399D01*
X36081138Y91719792D01*
X36009144Y91724542D01*
X35938103Y91730650D01*
X35868017Y91738114D01*
X35798885Y91746936D01*
X35730707Y91757115D01*
X35663483Y91768650D01*
X35597213Y91781544D01*
X35531897Y91795794D01*
X35467535Y91811401D01*
X35404127Y91828366D01*
X35341674Y91846688D01*
X35280174Y91866367D01*
X35219628Y91887403D01*
X35160037Y91909796D01*
X35101400Y91933547D01*
X35043716Y91958654D01*
X34986987Y91985119D01*
X34931212Y92012941D01*
X34876391Y92042120D01*
X34822524Y92072656D01*
X34769611Y92104550D01*
X34717652Y92137801D01*
X34666647Y92172408D01*
X34616597Y92208373D01*
X34567500Y92245696D01*
X34519358Y92284375D01*
X34472169Y92324411D01*
X34425935Y92365805D01*
X34380654Y92408556D01*
X34336626Y92452553D01*
X34293996Y92497686D01*
X34252763Y92543953D01*
X34212928Y92591356D01*
X34174491Y92639895D01*
X34137451Y92689569D01*
X34101810Y92740378D01*
X34067566Y92792323D01*
X34034719Y92845402D01*
X34003270Y92899618D01*
X33973220Y92954968D01*
X33944566Y93011454D01*
X33917311Y93069075D01*
X33891453Y93127832D01*
X33866993Y93187724D01*
X33843931Y93248751D01*
X33822266Y93310914D01*
X33801999Y93374212D01*
X33783130Y93438645D01*
X33765658Y93504214D01*
X33749585Y93570918D01*
X33734909Y93638758D01*
X33721630Y93707732D01*
X33709750Y93777842D01*
X33699267Y93849088D01*
X33690182Y93921469D01*
X33682494Y93994985D01*
X33676205Y94069636D01*
X33671313Y94145423D01*
X33667818Y94222345D01*
X33665722Y94300403D01*
X33665023Y94379596D01*
X33665722Y94454159D01*
X33667818Y94527792D01*
X33671313Y94600495D01*
X33676205Y94672267D01*
X33682494Y94743110D01*
X33690182Y94813022D01*
X33699267Y94882004D01*
X33709750Y94950055D01*
X33721630Y95017177D01*
X33734909Y95083368D01*
X33749585Y95148629D01*
X33765658Y95212960D01*
X33783130Y95276361D01*
X33801999Y95338831D01*
X33822266Y95400371D01*
X33843931Y95460981D01*
X33866993Y95520661D01*
X33891453Y95579410D01*
X33917311Y95637229D01*
X33944566Y95694118D01*
X33973220Y95750077D01*
X34003270Y95805106D01*
X34034719Y95859204D01*
X34067566Y95912372D01*
X34101810Y95964610D01*
X34137451Y96015918D01*
X34174491Y96066295D01*
X34212928Y96115743D01*
X34252763Y96164260D01*
X34293996Y96211846D01*
X34336626Y96258503D01*
X34380654Y96304229D01*
X34425972Y96348783D01*
X34472317Y96391923D01*
X34519690Y96433648D01*
X34568092Y96473959D01*
X34617521Y96512855D01*
X34667978Y96550337D01*
X34719464Y96586405D01*
X34771977Y96621058D01*
X34825519Y96654297D01*
X34880088Y96686121D01*
X34935685Y96716531D01*
X34992311Y96745527D01*
X35049964Y96773108D01*
X35108646Y96799274D01*
X35168355Y96824027D01*
X35229093Y96847364D01*
X35290858Y96869288D01*
X35353652Y96889797D01*
X35417474Y96908891D01*
X35482323Y96926572D01*
X35548201Y96942837D01*
X35615106Y96957689D01*
X35683040Y96971126D01*
X35752002Y96983148D01*
X35821991Y96993756D01*
X35893009Y97002950D01*
X35965055Y97010729D01*
X36038128Y97017094D01*
X36112230Y97022045D01*
X36187360Y97025581D01*
X36263517Y97027702D01*
X36340703Y97028409D01*
X36420058Y97027937D01*
X36497534Y97026520D01*
X36573130Y97024159D01*
X36646846Y97020853D01*
X36718683Y97016603D01*
X36788641Y97011408D01*
X36856719Y97005268D01*
X36922917Y96998184D01*
X36987236Y96990156D01*
X37049675Y96981183D01*
X37110235Y96971265D01*
X37168915Y96960403D01*
X37225716Y96948596D01*
X37280637Y96935845D01*
X37333679Y96922149D01*
X37384841Y96907509D01*
X37435173Y96892053D01*
X37485725Y96875910D01*
X37536496Y96859080D01*
X37587487Y96841564D01*
X37638696Y96823360D01*
X37690126Y96804469D01*
X37741775Y96784892D01*
X37793643Y96764627D01*
X37845730Y96743676D01*
X37898038Y96722037D01*
X37950564Y96699712D01*
X38003310Y96676700D01*
X38056275Y96653001D01*
X38109460Y96628614D01*
X38162865Y96603541D01*
X38216488Y96577781D01*
X38216488Y95387097D01*
X38099252Y95387097D01*
X38054789Y95422018D01*
X38010540Y95456508D01*
X37969335Y95488463D01*
X37924196Y95523340D01*
X37885251Y95553346D01*
X37843787Y95585222D01*
X37833027Y95593483D01*
X37789807Y95626150D01*
X37746855Y95657596D01*
X37704170Y95687822D01*
X37661752Y95716825D01*
X37619601Y95744608D01*
X37577717Y95771169D01*
X37525738Y95802654D01*
X37494751Y95820629D01*
X37445864Y95847629D01*
X37395069Y95873675D01*
X37342366Y95898767D01*
X37287755Y95922905D01*
X37231235Y95946089D01*
X37172808Y95968319D01*
X37112472Y95989595D01*
X37065968Y96004926D01*
X37050229Y96009917D01*
X37002583Y96024321D01*
X36954444Y96037308D01*
X36905812Y96048879D01*
X36856685Y96059032D01*
X36807065Y96067769D01*
X36756951Y96075090D01*
X36706344Y96080993D01*
X36655242Y96085479D01*
X36603647Y96088549D01*
X36551558Y96090202D01*
X36516558Y96090517D01*
X36455239Y96089605D01*
X36394928Y96086868D01*
X36335626Y96082306D01*
X36277334Y96075920D01*
X36220050Y96067709D01*
X36163775Y96057673D01*
X36108509Y96045813D01*
X36054252Y96032128D01*
X36001004Y96016618D01*
X35948765Y95999284D01*
X35914499Y95986714D01*
X35864182Y95966492D01*
X35814894Y95944296D01*
X35766637Y95920124D01*
X35719410Y95893978D01*
X35673214Y95865856D01*
X35628048Y95835760D01*
X35583913Y95803689D01*
X35540808Y95769643D01*
X35498733Y95733622D01*
X35457689Y95695626D01*
X35430899Y95669198D01*
X35393629Y95629524D01*
X35357840Y95587897D01*
X35323533Y95544316D01*
X35290707Y95498781D01*
X35259362Y95451294D01*
X35229498Y95401852D01*
X35201116Y95350457D01*
X35174215Y95297109D01*
X35148794Y95241808D01*
X35124856Y95184552D01*
X35109719Y95145297D01*
X35088550Y95084861D01*
X35069462Y95022622D01*
X35052457Y94958580D01*
X35037534Y94892735D01*
X35024693Y94825086D01*
X35013935Y94755634D01*
X35005259Y94684379D01*
X34998665Y94611321D01*
X34995426Y94561614D01*
X34993112Y94511105D01*
X34991724Y94459795D01*
X34991261Y94407684D01*
X34991700Y94351818D01*
X34993017Y94296878D01*
X34995211Y94242863D01*
X34998283Y94189773D01*
X35002233Y94137609D01*
X35007061Y94086371D01*
X35012766Y94036058D01*
X35019349Y93986670D01*
X35026810Y93938208D01*
X35044365Y93844060D01*
X35065431Y93753614D01*
X35090008Y93666869D01*
X35118096Y93583827D01*
X35149695Y93504486D01*
X35184805Y93428847D01*
X35223426Y93356910D01*
X35265558Y93288675D01*
X35311200Y93224141D01*
X35360354Y93163309D01*
X35413019Y93106179D01*
X35440668Y93079003D01*
X35498285Y93027244D01*
X35558477Y92978825D01*
X35621246Y92933745D01*
X35686590Y92892004D01*
X35754511Y92853603D01*
X35825007Y92818540D01*
X35898080Y92786818D01*
X35973728Y92758434D01*
X36051953Y92733389D01*
X36132753Y92711684D01*
X36216130Y92693318D01*
X36302082Y92678292D01*
X36390611Y92666604D01*
X36481715Y92658256D01*
X36575396Y92653247D01*
X36671652Y92651578D01*
X36721555Y92652011D01*
X36771930Y92653155D01*
X36821346Y92654798D01*
X36832853Y92655241D01*
X36883127Y92657495D01*
X36934457Y92660453D01*
X36985409Y92664257D01*
X36994053Y92665011D01*
X36994053Y93667628D01*
X36001206Y93667628D01*
X36001206Y94605520D01*
X38237249Y94605520D01*
X38237249Y92109358D01*
G37*
G36*
X42697123Y91870000D02*
G01*
X39316802Y91870000D01*
X39316802Y92729735D01*
X40396356Y92729735D01*
X40396356Y95387097D01*
X39316802Y95387097D01*
X39316802Y96246832D01*
X39375974Y96247309D01*
X39435031Y96248740D01*
X39493974Y96251126D01*
X39552802Y96254465D01*
X39611516Y96258758D01*
X39670115Y96264006D01*
X39728600Y96270207D01*
X39786970Y96277363D01*
X39844119Y96285892D01*
X39898329Y96295605D01*
X39949601Y96306500D01*
X39997935Y96318579D01*
X40054219Y96335341D01*
X40105912Y96353951D01*
X40153013Y96374410D01*
X40161883Y96378723D01*
X40211936Y96406076D01*
X40258292Y96436230D01*
X40300951Y96469188D01*
X40339913Y96504947D01*
X40375178Y96543510D01*
X40406746Y96584875D01*
X40418338Y96602206D01*
X40445052Y96647733D01*
X40467949Y96696540D01*
X40487031Y96748626D01*
X40502296Y96803992D01*
X40513745Y96862638D01*
X40520156Y96911916D01*
X40523362Y96950252D01*
X41643215Y96950252D01*
X41643215Y92729735D01*
X42697123Y92729735D01*
X42697123Y91870000D01*
G37*
G36*
X78311810Y125137336D02*
G01*
X78273282Y125087213D01*
X78233391Y125038483D01*
X78192136Y124991148D01*
X78149518Y124945206D01*
X78105537Y124900657D01*
X78060192Y124857503D01*
X78013484Y124815742D01*
X77965412Y124775375D01*
X77915977Y124736401D01*
X77865179Y124698822D01*
X77830556Y124674543D01*
X77777735Y124639643D01*
X77724049Y124606852D01*
X77669500Y124576170D01*
X77614086Y124547595D01*
X77557807Y124521130D01*
X77500664Y124496772D01*
X77442657Y124474523D01*
X77383786Y124454383D01*
X77324050Y124436351D01*
X77263450Y124420427D01*
X77222570Y124410982D01*
X77153268Y124396479D01*
X77083824Y124384411D01*
X77014235Y124374779D01*
X76944504Y124367582D01*
X76874629Y124362821D01*
X76804611Y124360495D01*
X76734449Y124360604D01*
X76664144Y124363149D01*
X76593695Y124368129D01*
X76523104Y124375545D01*
X76475963Y124381842D01*
X76405052Y124393476D01*
X76333646Y124407450D01*
X76285766Y124418065D01*
X76237666Y124429721D01*
X76189345Y124442415D01*
X76140804Y124456150D01*
X76092042Y124470924D01*
X76043060Y124486738D01*
X75993857Y124503592D01*
X75944433Y124521486D01*
X75894790Y124540419D01*
X75844926Y124560392D01*
X75794841Y124581404D01*
X75744536Y124603457D01*
X75694010Y124626549D01*
X75638019Y124652907D01*
X75582937Y124679337D01*
X75528767Y124705841D01*
X75475506Y124732418D01*
X75423157Y124759067D01*
X75371717Y124785790D01*
X75321188Y124812585D01*
X75271569Y124839453D01*
X75222860Y124866394D01*
X75175062Y124893408D01*
X75143703Y124911458D01*
X75097545Y124938248D01*
X75052737Y124964834D01*
X75009280Y124991218D01*
X74967172Y125017398D01*
X74913129Y125051989D01*
X74861486Y125086219D01*
X74812243Y125120087D01*
X74765400Y125153594D01*
X74720957Y125186740D01*
X75330772Y126003254D01*
X75434811Y125954740D01*
X75473230Y125913360D01*
X75512878Y125871976D01*
X75553756Y125830586D01*
X75588760Y125796091D01*
X75624617Y125761593D01*
X75653918Y125733992D01*
X75694166Y125699697D01*
X75739962Y125665446D01*
X75780594Y125638078D01*
X75824775Y125610738D01*
X75872507Y125583427D01*
X75923790Y125556145D01*
X75978623Y125528892D01*
X76007371Y125515276D01*
X76063309Y125490115D01*
X76117814Y125467470D01*
X76170887Y125447341D01*
X76222528Y125429727D01*
X76272736Y125414628D01*
X76321511Y125402045D01*
X76384317Y125389180D01*
X76444576Y125380787D01*
X76502289Y125376867D01*
X76530190Y125376583D01*
X76584715Y125379055D01*
X76637698Y125384813D01*
X76689141Y125393859D01*
X76739042Y125406192D01*
X76787402Y125421812D01*
X76834222Y125440720D01*
X76879500Y125462914D01*
X76923237Y125488396D01*
X76966146Y125515443D01*
X77008054Y125544768D01*
X77048960Y125576370D01*
X77088866Y125610250D01*
X77127770Y125646407D01*
X77165672Y125684842D01*
X77202574Y125725554D01*
X77238474Y125768544D01*
X77274360Y125813625D01*
X77310960Y125860057D01*
X77348274Y125907841D01*
X77386303Y125956975D01*
X77425046Y126007461D01*
X77464503Y126059298D01*
X77494565Y126099063D01*
X77525029Y126139588D01*
X77545561Y126167026D01*
X78792551Y127838500D01*
X77754376Y128322609D01*
X78327834Y129090051D01*
X80504902Y128074867D01*
X78311810Y125137336D01*
G37*
G36*
X60122803Y42195000D02*
G01*
X56784003Y42195000D01*
X57840354Y47275252D01*
X59096983Y47275252D01*
X58236027Y43132893D01*
X60318197Y43132893D01*
X60122803Y42195000D01*
G37*
G36*
X22939220Y123987359D02*
G01*
X20839953Y123987359D01*
X20628682Y122971309D01*
X22560643Y122971309D01*
X22366470Y122033416D01*
X20434509Y122033416D01*
X19978996Y119845000D01*
X18729694Y119845000D01*
X19786045Y124925252D01*
X23134614Y124925252D01*
X22939220Y123987359D01*
G37*
G36*
X77612085Y63432867D02*
G01*
X76530157Y62808216D01*
X75455936Y66065890D01*
X75367581Y63490733D01*
X74624087Y63061476D01*
X73136614Y64726828D01*
X74210835Y61469154D01*
X73187076Y60878087D01*
X71561776Y65805888D01*
X72815035Y66529458D01*
X74582531Y64637989D01*
X74732469Y67636488D01*
X75986785Y68360668D01*
X77612085Y63432867D01*
G37*
G36*
X25549887Y14474985D02*
G01*
X25616405Y14474183D01*
X25682389Y14472847D01*
X25747838Y14470977D01*
X25812753Y14468573D01*
X25877134Y14465635D01*
X25940981Y14462162D01*
X26004293Y14458155D01*
X26067071Y14453613D01*
X26129315Y14448538D01*
X26191025Y14442928D01*
X26252200Y14436783D01*
X26312841Y14430105D01*
X26372947Y14422892D01*
X26432520Y14415145D01*
X26491558Y14406864D01*
X26550248Y14397557D01*
X26608470Y14386733D01*
X26666225Y14374392D01*
X26723512Y14360534D01*
X26780332Y14345159D01*
X26836684Y14328267D01*
X26892569Y14309858D01*
X26947987Y14289932D01*
X27002936Y14268490D01*
X27057419Y14245530D01*
X27111434Y14221053D01*
X27164981Y14195059D01*
X27218061Y14167549D01*
X27270673Y14138521D01*
X27322818Y14107976D01*
X27374496Y14075915D01*
X27436859Y14035042D01*
X27497552Y13992414D01*
X27556576Y13948031D01*
X27613930Y13901892D01*
X27669614Y13853997D01*
X27723629Y13804347D01*
X27775975Y13752942D01*
X27826650Y13699781D01*
X27875656Y13644864D01*
X27922993Y13588192D01*
X27968659Y13529765D01*
X28012656Y13469582D01*
X28054984Y13407643D01*
X28095642Y13343949D01*
X28134630Y13278500D01*
X28171949Y13211295D01*
X28207292Y13142463D01*
X28240356Y13072134D01*
X28271139Y13000306D01*
X28299642Y12926981D01*
X28325864Y12852158D01*
X28349807Y12775837D01*
X28371469Y12698018D01*
X28390851Y12618701D01*
X28407953Y12537886D01*
X28422774Y12455573D01*
X28435316Y12371763D01*
X28445577Y12286454D01*
X28453558Y12199648D01*
X28459258Y12111344D01*
X28462679Y12021541D01*
X28463819Y11930241D01*
X28462598Y11842128D01*
X28458934Y11755169D01*
X28452828Y11669364D01*
X28444279Y11584714D01*
X28433288Y11501218D01*
X28419855Y11418877D01*
X28403979Y11337690D01*
X28385661Y11257658D01*
X28364900Y11178779D01*
X28341697Y11101056D01*
X28316052Y11024487D01*
X28287964Y10949072D01*
X28257434Y10874812D01*
X28224461Y10801706D01*
X28189046Y10729754D01*
X28151188Y10658957D01*
X28111465Y10589906D01*
X28070454Y10522887D01*
X28028155Y10457901D01*
X27984568Y10394946D01*
X27939694Y10334024D01*
X27893531Y10275133D01*
X27846080Y10218275D01*
X27797341Y10163450D01*
X27747314Y10110656D01*
X27695999Y10059894D01*
X27643397Y10011165D01*
X27589506Y9964468D01*
X27534327Y9919803D01*
X27477860Y9877170D01*
X27420105Y9836570D01*
X27361062Y9798001D01*
X27311021Y9766660D01*
X27260427Y9736750D01*
X27209279Y9708271D01*
X27157577Y9681223D01*
X27105323Y9655606D01*
X27052515Y9631420D01*
X26999154Y9608665D01*
X26945239Y9587342D01*
X26890771Y9567449D01*
X26835749Y9548988D01*
X26780175Y9531958D01*
X26724046Y9516359D01*
X26667365Y9502191D01*
X26610130Y9489454D01*
X26552342Y9478148D01*
X26494000Y9468273D01*
X26435148Y9459400D01*
X26375829Y9451100D01*
X26316042Y9443372D01*
X26255787Y9436216D01*
X26195065Y9429633D01*
X26133876Y9423623D01*
X26072219Y9418184D01*
X26010094Y9413319D01*
X25947502Y9409025D01*
X25884443Y9405304D01*
X25820916Y9402156D01*
X25756921Y9399580D01*
X25692459Y9397576D01*
X25627530Y9396145D01*
X25562133Y9395287D01*
X25496268Y9395000D01*
X23895256Y9395000D01*
X23895256Y13537359D01*
X25179974Y13537359D01*
X25179974Y10332893D01*
X25204398Y10332893D01*
X25257907Y10332950D01*
X25310357Y10333122D01*
X25361749Y10333408D01*
X25412081Y10333809D01*
X25461354Y10334324D01*
X25533278Y10335312D01*
X25602819Y10336557D01*
X25669978Y10338059D01*
X25734753Y10339820D01*
X25797146Y10341837D01*
X25857156Y10344113D01*
X25914783Y10346646D01*
X25933463Y10347548D01*
X25989065Y10351866D01*
X26044131Y10358868D01*
X26098659Y10368553D01*
X26152652Y10380921D01*
X26206107Y10395973D01*
X26259026Y10413708D01*
X26311408Y10434126D01*
X26363254Y10457228D01*
X26414563Y10483013D01*
X26465335Y10511481D01*
X26498885Y10531951D01*
X26556859Y10570823D01*
X26612172Y10612336D01*
X26664822Y10656490D01*
X26714811Y10703283D01*
X26762138Y10752718D01*
X26806803Y10804792D01*
X26848806Y10859507D01*
X26888147Y10916862D01*
X26924826Y10976858D01*
X26958844Y11039494D01*
X26980043Y11082719D01*
X27009506Y11149798D01*
X27027538Y11196033D01*
X27044282Y11243479D01*
X27059738Y11292137D01*
X27073906Y11342006D01*
X27086786Y11393087D01*
X27098378Y11445380D01*
X27108682Y11498884D01*
X27117698Y11553600D01*
X27125426Y11609528D01*
X27131866Y11666668D01*
X27137018Y11725019D01*
X27140882Y11784582D01*
X27143458Y11845356D01*
X27144746Y11907342D01*
X27144907Y11938790D01*
X27144230Y12001415D01*
X27142198Y12062896D01*
X27138811Y12123231D01*
X27134069Y12182422D01*
X27127973Y12240468D01*
X27120521Y12297369D01*
X27111715Y12353125D01*
X27101554Y12407736D01*
X27090039Y12461202D01*
X27077168Y12513524D01*
X27062943Y12564700D01*
X27047363Y12614732D01*
X27030428Y12663619D01*
X27012138Y12711360D01*
X26992494Y12757957D01*
X26971495Y12803409D01*
X26949089Y12847678D01*
X26925222Y12890726D01*
X26899896Y12932553D01*
X26859171Y12993003D01*
X26815160Y13050705D01*
X26767866Y13105660D01*
X26717287Y13157867D01*
X26663423Y13207326D01*
X26625690Y13238772D01*
X26586496Y13268997D01*
X26545843Y13298001D01*
X26503731Y13325784D01*
X26460158Y13352345D01*
X26437824Y13365168D01*
X26388598Y13391039D01*
X26338920Y13414613D01*
X26288792Y13435890D01*
X26238213Y13454870D01*
X26187183Y13471553D01*
X26135703Y13485939D01*
X26083771Y13498029D01*
X26031389Y13507821D01*
X25978556Y13515317D01*
X25925272Y13520515D01*
X25889499Y13522705D01*
X25834713Y13525324D01*
X25777973Y13527685D01*
X25719279Y13529789D01*
X25658632Y13531635D01*
X25596032Y13533223D01*
X25531478Y13534554D01*
X25464971Y13535628D01*
X25396510Y13536443D01*
X25326096Y13537001D01*
X25253728Y13537302D01*
X25204398Y13537359D01*
X25179974Y13537359D01*
X23895256Y13537359D01*
X23895256Y14475252D01*
X25482835Y14475252D01*
X25549887Y14474985D01*
G37*
G36*
X32716087Y9395000D02*
G01*
X29335766Y9395000D01*
X29335766Y10254735D01*
X30415319Y10254735D01*
X30415319Y12912097D01*
X29335766Y12912097D01*
X29335766Y13771832D01*
X29394937Y13772309D01*
X29453994Y13773740D01*
X29512937Y13776126D01*
X29571765Y13779465D01*
X29630479Y13783758D01*
X29689078Y13789006D01*
X29747563Y13795207D01*
X29805933Y13802363D01*
X29863082Y13810892D01*
X29917293Y13820605D01*
X29968565Y13831500D01*
X30016898Y13843579D01*
X30073182Y13860341D01*
X30124875Y13878951D01*
X30171977Y13899410D01*
X30180846Y13903723D01*
X30230899Y13931076D01*
X30277255Y13961230D01*
X30319914Y13994188D01*
X30358876Y14029947D01*
X30394141Y14068510D01*
X30425709Y14109875D01*
X30437301Y14127206D01*
X30464015Y14172733D01*
X30486913Y14221540D01*
X30505994Y14273626D01*
X30521259Y14328992D01*
X30532708Y14387638D01*
X30539120Y14436916D01*
X30542325Y14475252D01*
X31662179Y14475252D01*
X31662179Y10254735D01*
X32716087Y10254735D01*
X32716087Y9395000D01*
G37*
G36*
X85706491Y154370000D02*
G01*
X84383916Y154370000D01*
X84065179Y155386051D01*
X82456840Y155386051D01*
X82138103Y154370000D01*
X80849722Y154370000D01*
X81514344Y156323943D01*
X82738940Y156323943D01*
X83783078Y156323943D01*
X83261620Y158003113D01*
X82738940Y156323943D01*
X81514344Y156323943D01*
X82577740Y159450252D01*
X83978473Y159450252D01*
X85706491Y154370000D01*
G37*
G36*
X89939219Y154370000D02*
G01*
X86181543Y154370000D01*
X86181543Y155180887D01*
X86240848Y155226983D01*
X86299390Y155272764D01*
X86357169Y155318230D01*
X86414185Y155363382D01*
X86470437Y155408219D01*
X86525926Y155452740D01*
X86580651Y155496947D01*
X86634614Y155540840D01*
X86687813Y155584417D01*
X86740249Y155627679D01*
X86791921Y155670627D01*
X86842831Y155713260D01*
X86892977Y155755578D01*
X86942360Y155797581D01*
X86990979Y155839269D01*
X87038836Y155880643D01*
X87085953Y155921730D01*
X87132354Y155962559D01*
X87178040Y156003131D01*
X87223010Y156043446D01*
X87267265Y156083502D01*
X87310804Y156123302D01*
X87353627Y156162843D01*
X87395735Y156202127D01*
X87437128Y156241154D01*
X87477805Y156279922D01*
X87517766Y156318434D01*
X87557012Y156356687D01*
X87595542Y156394683D01*
X87633357Y156432421D01*
X87670456Y156469902D01*
X87706840Y156507125D01*
X87752750Y156555144D01*
X87797057Y156602418D01*
X87839761Y156648948D01*
X87880863Y156694734D01*
X87920361Y156739776D01*
X87958257Y156784074D01*
X87994550Y156827627D01*
X88029240Y156870437D01*
X88062328Y156912502D01*
X88093812Y156953823D01*
X88123694Y156994399D01*
X88151972Y157034232D01*
X88191385Y157092586D01*
X88227192Y157149265D01*
X88249059Y157186121D01*
X88279177Y157241225D01*
X88306332Y157296631D01*
X88330525Y157352337D01*
X88351755Y157408343D01*
X88370024Y157464650D01*
X88385329Y157521258D01*
X88397673Y157578166D01*
X88407054Y157635375D01*
X88413472Y157692884D01*
X88416928Y157750694D01*
X88417586Y157789400D01*
X88415708Y157853460D01*
X88410073Y157914665D01*
X88400681Y157973015D01*
X88387533Y158028510D01*
X88370628Y158081150D01*
X88349967Y158130935D01*
X88325548Y158177865D01*
X88297373Y158221939D01*
X88265442Y158263159D01*
X88229753Y158301523D01*
X88203874Y158325513D01*
X88162551Y158358905D01*
X88118265Y158389012D01*
X88071017Y158415834D01*
X88020806Y158439373D01*
X87967633Y158459626D01*
X87911498Y158476596D01*
X87852400Y158490281D01*
X87790340Y158500681D01*
X87725318Y158507798D01*
X87657333Y158511629D01*
X87610364Y158512359D01*
X87549810Y158511345D01*
X87490270Y158508304D01*
X87431743Y158503236D01*
X87374231Y158496140D01*
X87317732Y158487017D01*
X87262246Y158475866D01*
X87240336Y158470838D01*
X87186025Y158457648D01*
X87131476Y158443265D01*
X87076688Y158427690D01*
X87021662Y158410922D01*
X86966398Y158392962D01*
X86910894Y158373809D01*
X86888626Y158365813D01*
X86835276Y158344383D01*
X86784370Y158322832D01*
X86735909Y158301163D01*
X86689893Y158279374D01*
X86637900Y158253071D01*
X86589429Y158226595D01*
X86545365Y158201694D01*
X86499492Y158175681D01*
X86454364Y158149959D01*
X86408903Y158123817D01*
X86405025Y158121571D01*
X86304886Y158121571D01*
X86304886Y159215779D01*
X86362741Y159240909D01*
X86411141Y159259882D01*
X86463835Y159278962D01*
X86520821Y159298150D01*
X86582101Y159317445D01*
X86647675Y159336847D01*
X86717542Y159356357D01*
X86766505Y159369423D01*
X86817376Y159382536D01*
X86870155Y159395698D01*
X86924843Y159408907D01*
X86981439Y159422164D01*
X87038855Y159435029D01*
X87096004Y159447065D01*
X87152886Y159458271D01*
X87209500Y159468646D01*
X87265848Y159478192D01*
X87321928Y159486907D01*
X87377742Y159494793D01*
X87433288Y159501848D01*
X87488567Y159508073D01*
X87543579Y159513469D01*
X87598323Y159518034D01*
X87652801Y159521769D01*
X87707012Y159524674D01*
X87760955Y159526749D01*
X87814631Y159527994D01*
X87868040Y159528409D01*
X87924472Y159528016D01*
X87980044Y159526835D01*
X88034754Y159524867D01*
X88088603Y159522113D01*
X88141591Y159518571D01*
X88193718Y159514241D01*
X88244984Y159509125D01*
X88295389Y159503222D01*
X88344933Y159496531D01*
X88393615Y159489054D01*
X88488398Y159471737D01*
X88579736Y159451273D01*
X88667630Y159427659D01*
X88752080Y159400897D01*
X88833086Y159370987D01*
X88910647Y159337929D01*
X88984764Y159301722D01*
X89055437Y159262366D01*
X89122666Y159219862D01*
X89186451Y159174210D01*
X89246791Y159125409D01*
X89303577Y159073903D01*
X89356700Y159019831D01*
X89406159Y158963192D01*
X89451955Y158903987D01*
X89494087Y158842216D01*
X89532555Y158777878D01*
X89567360Y158710973D01*
X89598501Y158641503D01*
X89625978Y158569465D01*
X89649792Y158494861D01*
X89669942Y158417691D01*
X89686428Y158337955D01*
X89699251Y158255651D01*
X89708410Y158170782D01*
X89713905Y158083346D01*
X89715737Y157993343D01*
X89714902Y157937086D01*
X89712398Y157880972D01*
X89708224Y157825002D01*
X89702380Y157769174D01*
X89694867Y157713489D01*
X89685684Y157657948D01*
X89674831Y157602550D01*
X89662309Y157547295D01*
X89648117Y157492183D01*
X89632256Y157437214D01*
X89614725Y157382388D01*
X89595524Y157327705D01*
X89574654Y157273165D01*
X89552114Y157218769D01*
X89527904Y157164516D01*
X89502025Y157110405D01*
X89474361Y157056271D01*
X89444494Y157001641D01*
X89412423Y156946514D01*
X89378148Y156890892D01*
X89341669Y156834773D01*
X89302986Y156778159D01*
X89262099Y156721048D01*
X89219008Y156663441D01*
X89173714Y156605338D01*
X89126215Y156546739D01*
X89076513Y156487643D01*
X89024606Y156428052D01*
X88970496Y156367964D01*
X88914182Y156307381D01*
X88855664Y156246301D01*
X88794942Y156184725D01*
X88756388Y156146977D01*
X88717967Y156109754D01*
X88679680Y156073055D01*
X88641527Y156036882D01*
X88603507Y156001233D01*
X88565621Y155966108D01*
X88527868Y155931509D01*
X88490249Y155897434D01*
X88452763Y155863884D01*
X88415411Y155830859D01*
X88378193Y155798358D01*
X88341108Y155766383D01*
X88285731Y155719403D01*
X88230655Y155673604D01*
X88194104Y155643727D01*
X88140795Y155600518D01*
X88090320Y155559735D01*
X88042678Y155521378D01*
X87997870Y155485446D01*
X87955896Y155451940D01*
X87916755Y155420860D01*
X87868975Y155383193D01*
X87826233Y155349839D01*
X87779888Y155314210D01*
X87771564Y155307893D01*
X89939219Y155307893D01*
X89939219Y154370000D01*
G37*
G36*
X99779056Y33024985D02*
G01*
X99845574Y33024183D01*
X99911558Y33022847D01*
X99977007Y33020977D01*
X100041922Y33018573D01*
X100106303Y33015635D01*
X100170150Y33012162D01*
X100233462Y33008155D01*
X100296240Y33003613D01*
X100358484Y32998538D01*
X100420194Y32992928D01*
X100481369Y32986783D01*
X100542010Y32980105D01*
X100602116Y32972892D01*
X100661689Y32965145D01*
X100720727Y32956864D01*
X100779417Y32947557D01*
X100837639Y32936733D01*
X100895394Y32924392D01*
X100952681Y32910534D01*
X101009501Y32895159D01*
X101065853Y32878267D01*
X101121738Y32859858D01*
X101177156Y32839932D01*
X101232105Y32818490D01*
X101286588Y32795530D01*
X101340603Y32771053D01*
X101394150Y32745059D01*
X101447230Y32717549D01*
X101499842Y32688521D01*
X101551987Y32657976D01*
X101603665Y32625915D01*
X101666028Y32585042D01*
X101726721Y32542414D01*
X101785745Y32498031D01*
X101843099Y32451892D01*
X101898783Y32403997D01*
X101952798Y32354347D01*
X102005144Y32302942D01*
X102055819Y32249781D01*
X102104825Y32194864D01*
X102152162Y32138192D01*
X102197828Y32079765D01*
X102241825Y32019582D01*
X102284153Y31957643D01*
X102324811Y31893949D01*
X102363799Y31828500D01*
X102401118Y31761295D01*
X102436461Y31692463D01*
X102469525Y31622134D01*
X102500308Y31550306D01*
X102528811Y31476981D01*
X102555033Y31402158D01*
X102578976Y31325837D01*
X102600638Y31248018D01*
X102620020Y31168701D01*
X102637122Y31087886D01*
X102651943Y31005573D01*
X102664485Y30921763D01*
X102674746Y30836454D01*
X102682727Y30749648D01*
X102688427Y30661344D01*
X102691848Y30571541D01*
X102692988Y30480241D01*
X102691767Y30392128D01*
X102688103Y30305169D01*
X102681997Y30219364D01*
X102673448Y30134714D01*
X102662457Y30051218D01*
X102649024Y29968877D01*
X102633148Y29887690D01*
X102614830Y29807658D01*
X102594069Y29728779D01*
X102570866Y29651056D01*
X102545221Y29574487D01*
X102517133Y29499072D01*
X102486603Y29424812D01*
X102453630Y29351706D01*
X102418215Y29279754D01*
X102380357Y29208957D01*
X102340634Y29139906D01*
X102299623Y29072887D01*
X102257324Y29007901D01*
X102213737Y28944946D01*
X102168863Y28884024D01*
X102122700Y28825133D01*
X102075249Y28768275D01*
X102026510Y28713450D01*
X101976483Y28660656D01*
X101925168Y28609894D01*
X101872566Y28561165D01*
X101818675Y28514468D01*
X101763496Y28469803D01*
X101707029Y28427170D01*
X101649274Y28386570D01*
X101590231Y28348001D01*
X101540190Y28316660D01*
X101489596Y28286750D01*
X101438448Y28258271D01*
X101386746Y28231223D01*
X101334492Y28205606D01*
X101281684Y28181420D01*
X101228323Y28158665D01*
X101174408Y28137342D01*
X101119940Y28117449D01*
X101064918Y28098988D01*
X101009344Y28081958D01*
X100953215Y28066359D01*
X100896534Y28052191D01*
X100839299Y28039454D01*
X100781511Y28028148D01*
X100723169Y28018273D01*
X100664317Y28009400D01*
X100604998Y28001100D01*
X100545211Y27993372D01*
X100484956Y27986216D01*
X100424234Y27979633D01*
X100363045Y27973623D01*
X100301388Y27968184D01*
X100239263Y27963319D01*
X100176671Y27959025D01*
X100113612Y27955304D01*
X100050085Y27952156D01*
X99986090Y27949580D01*
X99921628Y27947576D01*
X99856699Y27946145D01*
X99791302Y27945287D01*
X99725437Y27945000D01*
X98124425Y27945000D01*
X98124425Y32087359D01*
X99409143Y32087359D01*
X99409143Y28882893D01*
X99433567Y28882893D01*
X99487076Y28882950D01*
X99539526Y28883122D01*
X99590918Y28883408D01*
X99641250Y28883809D01*
X99690523Y28884324D01*
X99762447Y28885312D01*
X99831988Y28886557D01*
X99899147Y28888059D01*
X99963922Y28889820D01*
X100026315Y28891837D01*
X100086325Y28894113D01*
X100143952Y28896646D01*
X100162632Y28897548D01*
X100218234Y28901866D01*
X100273300Y28908868D01*
X100327828Y28918553D01*
X100381821Y28930921D01*
X100435276Y28945973D01*
X100488195Y28963708D01*
X100540577Y28984126D01*
X100592423Y29007228D01*
X100643732Y29033013D01*
X100694504Y29061481D01*
X100728054Y29081951D01*
X100786028Y29120823D01*
X100841341Y29162336D01*
X100893991Y29206490D01*
X100943980Y29253283D01*
X100991307Y29302718D01*
X101035972Y29354792D01*
X101077975Y29409507D01*
X101117316Y29466862D01*
X101153995Y29526858D01*
X101188013Y29589494D01*
X101209212Y29632719D01*
X101238675Y29699798D01*
X101256707Y29746033D01*
X101273451Y29793479D01*
X101288907Y29842137D01*
X101303075Y29892006D01*
X101315955Y29943087D01*
X101327547Y29995380D01*
X101337851Y30048884D01*
X101346867Y30103600D01*
X101354595Y30159528D01*
X101361035Y30216668D01*
X101366187Y30275019D01*
X101370051Y30334582D01*
X101372627Y30395356D01*
X101373915Y30457342D01*
X101374076Y30488790D01*
X101373399Y30551415D01*
X101371367Y30612896D01*
X101367980Y30673231D01*
X101363238Y30732422D01*
X101357142Y30790468D01*
X101349690Y30847369D01*
X101340884Y30903125D01*
X101330723Y30957736D01*
X101319208Y31011202D01*
X101306337Y31063524D01*
X101292112Y31114700D01*
X101276532Y31164732D01*
X101259597Y31213619D01*
X101241307Y31261360D01*
X101221663Y31307957D01*
X101200664Y31353409D01*
X101178258Y31397678D01*
X101154391Y31440726D01*
X101129065Y31482553D01*
X101088340Y31543003D01*
X101044329Y31600705D01*
X100997035Y31655660D01*
X100946456Y31707867D01*
X100892592Y31757326D01*
X100854859Y31788772D01*
X100815665Y31818997D01*
X100775012Y31848001D01*
X100732900Y31875784D01*
X100689327Y31902345D01*
X100666993Y31915168D01*
X100617767Y31941039D01*
X100568089Y31964613D01*
X100517961Y31985890D01*
X100467382Y32004870D01*
X100416352Y32021553D01*
X100364872Y32035939D01*
X100312940Y32048029D01*
X100260558Y32057821D01*
X100207725Y32065317D01*
X100154441Y32070515D01*
X100118668Y32072705D01*
X100063882Y32075324D01*
X100007142Y32077685D01*
X99948448Y32079789D01*
X99887801Y32081635D01*
X99825201Y32083223D01*
X99760647Y32084554D01*
X99694140Y32085628D01*
X99625679Y32086443D01*
X99555265Y32087001D01*
X99482897Y32087302D01*
X99433567Y32087359D01*
X99409143Y32087359D01*
X98124425Y32087359D01*
X98124425Y33025252D01*
X99712004Y33025252D01*
X99779056Y33024985D01*
G37*
G36*
X105464977Y33024937D02*
G01*
X105518820Y33023992D01*
X105571719Y33022418D01*
X105623673Y33020214D01*
X105674682Y33017381D01*
X105724747Y33013917D01*
X105773868Y33009824D01*
X105845778Y33002504D01*
X105915562Y32993767D01*
X105983222Y32983614D01*
X106048756Y32972043D01*
X106112165Y32959056D01*
X106173448Y32944652D01*
X106233143Y32928713D01*
X106291787Y32911121D01*
X106349378Y32891876D01*
X106405918Y32870978D01*
X106461406Y32848427D01*
X106515841Y32824224D01*
X106569225Y32798367D01*
X106621558Y32770858D01*
X106672838Y32741695D01*
X106723066Y32710880D01*
X106755967Y32689418D01*
X106808858Y32652112D01*
X106859451Y32612553D01*
X106907747Y32570739D01*
X106953747Y32526672D01*
X106997449Y32480350D01*
X107038855Y32431775D01*
X107077964Y32380946D01*
X107114775Y32327862D01*
X107149290Y32272525D01*
X107181508Y32214933D01*
X107201711Y32175287D01*
X107230082Y32114210D01*
X107255664Y32050966D01*
X107278454Y31985554D01*
X107298454Y31917973D01*
X107315663Y31848224D01*
X107330081Y31776307D01*
X107338143Y31727158D01*
X107344965Y31677046D01*
X107350546Y31625969D01*
X107354887Y31573929D01*
X107357988Y31520926D01*
X107359848Y31466959D01*
X107360469Y31412028D01*
X107359470Y31345456D01*
X107356476Y31279464D01*
X107351485Y31214051D01*
X107344497Y31149219D01*
X107335514Y31084965D01*
X107324533Y31021292D01*
X107311557Y30958198D01*
X107296584Y30895683D01*
X107279614Y30833748D01*
X107260649Y30772393D01*
X107246896Y30731811D01*
X107224731Y30672295D01*
X107200828Y30614646D01*
X107175186Y30558865D01*
X107147806Y30504952D01*
X107118686Y30452906D01*
X107087828Y30402728D01*
X107055231Y30354417D01*
X107020895Y30307974D01*
X106984820Y30263398D01*
X106947006Y30220690D01*
X106920831Y30193256D01*
X106879371Y30152135D01*
X106836658Y30111969D01*
X106792693Y30072756D01*
X106747476Y30034498D01*
X106701007Y29997194D01*
X106653285Y29960844D01*
X106633846Y29946571D01*
X106584222Y29911944D01*
X106533048Y29879046D01*
X106490993Y29853973D01*
X106447945Y29830007D01*
X106403905Y29807147D01*
X106358873Y29785394D01*
X106312848Y29764748D01*
X106289464Y29754840D01*
X106241626Y29735530D01*
X106192759Y29717288D01*
X106142861Y29700114D01*
X106091932Y29684010D01*
X106039973Y29668973D01*
X105986984Y29655006D01*
X105932964Y29642107D01*
X105877914Y29630276D01*
X105821815Y29619972D01*
X105764036Y29611042D01*
X105704578Y29603486D01*
X105643441Y29597303D01*
X105580625Y29592495D01*
X105516130Y29589060D01*
X105466656Y29587386D01*
X105416238Y29586484D01*
X105382101Y29586312D01*
X104709212Y29586312D01*
X104709212Y27945000D01*
X103424495Y27945000D01*
X103424495Y32087359D01*
X104709212Y32087359D01*
X104709212Y30524205D01*
X104798361Y30524205D01*
X104854717Y30524294D01*
X104910059Y30524563D01*
X104964388Y30525010D01*
X105017703Y30525636D01*
X105070004Y30526441D01*
X105121291Y30527425D01*
X105141522Y30527869D01*
X105190913Y30529431D01*
X105247585Y30532408D01*
X105301424Y30536586D01*
X105352429Y30541967D01*
X105408353Y30549765D01*
X105423623Y30552293D01*
X105475677Y30562979D01*
X105529258Y30577938D01*
X105577393Y30594535D01*
X105626697Y30614403D01*
X105640999Y30620681D01*
X105689126Y30643647D01*
X105731994Y30667664D01*
X105774545Y30696401D01*
X105814205Y30730372D01*
X105818075Y30734254D01*
X105856852Y30774975D01*
X105891515Y30816233D01*
X105922063Y30858027D01*
X105948497Y30900358D01*
X105974786Y30951864D01*
X105995151Y31004142D01*
X106010922Y31060242D01*
X106021572Y31112239D01*
X106029956Y31169006D01*
X106035031Y31217855D01*
X106038657Y31269756D01*
X106040832Y31324711D01*
X106041557Y31382719D01*
X106039935Y31437005D01*
X106035069Y31489346D01*
X106026960Y31539740D01*
X106015606Y31588188D01*
X105996853Y31646011D01*
X105973031Y31700792D01*
X105944140Y31752533D01*
X105937754Y31762516D01*
X105904683Y31810065D01*
X105869585Y31852724D01*
X105832460Y31890493D01*
X105793307Y31923373D01*
X105752127Y31951363D01*
X105708919Y31974464D01*
X105691069Y31982335D01*
X105645807Y32001416D01*
X105589875Y32022263D01*
X105534658Y32039770D01*
X105480156Y32053938D01*
X105426370Y32064767D01*
X105373300Y32072256D01*
X105341801Y32075147D01*
X105287008Y32078665D01*
X105226430Y32081587D01*
X105173803Y32083495D01*
X105117475Y32085022D01*
X105057445Y32086167D01*
X104993712Y32086930D01*
X104943484Y32087252D01*
X104891173Y32087359D01*
X104709212Y32087359D01*
X103424495Y32087359D01*
X103424495Y33025252D01*
X105410189Y33025252D01*
X105464977Y33024937D01*
G37*
G36*
X60649887Y14474985D02*
G01*
X60716405Y14474183D01*
X60782389Y14472847D01*
X60847838Y14470977D01*
X60912753Y14468573D01*
X60977134Y14465635D01*
X61040981Y14462162D01*
X61104293Y14458155D01*
X61167071Y14453613D01*
X61229315Y14448538D01*
X61291025Y14442928D01*
X61352200Y14436783D01*
X61412841Y14430105D01*
X61472947Y14422892D01*
X61532520Y14415145D01*
X61591558Y14406864D01*
X61650248Y14397557D01*
X61708470Y14386733D01*
X61766225Y14374392D01*
X61823512Y14360534D01*
X61880332Y14345159D01*
X61936684Y14328267D01*
X61992569Y14309858D01*
X62047987Y14289932D01*
X62102936Y14268490D01*
X62157419Y14245530D01*
X62211434Y14221053D01*
X62264981Y14195059D01*
X62318061Y14167549D01*
X62370673Y14138521D01*
X62422818Y14107976D01*
X62474496Y14075915D01*
X62536859Y14035042D01*
X62597552Y13992414D01*
X62656576Y13948031D01*
X62713930Y13901892D01*
X62769614Y13853997D01*
X62823629Y13804347D01*
X62875975Y13752942D01*
X62926650Y13699781D01*
X62975656Y13644864D01*
X63022993Y13588192D01*
X63068659Y13529765D01*
X63112656Y13469582D01*
X63154984Y13407643D01*
X63195642Y13343949D01*
X63234630Y13278500D01*
X63271949Y13211295D01*
X63307292Y13142463D01*
X63340356Y13072134D01*
X63371139Y13000306D01*
X63399642Y12926981D01*
X63425864Y12852158D01*
X63449807Y12775837D01*
X63471469Y12698018D01*
X63490851Y12618701D01*
X63507953Y12537886D01*
X63522774Y12455573D01*
X63535316Y12371763D01*
X63545577Y12286454D01*
X63553558Y12199648D01*
X63559258Y12111344D01*
X63562679Y12021541D01*
X63563819Y11930241D01*
X63562598Y11842128D01*
X63558934Y11755169D01*
X63552828Y11669364D01*
X63544279Y11584714D01*
X63533288Y11501218D01*
X63519855Y11418877D01*
X63503979Y11337690D01*
X63485661Y11257658D01*
X63464900Y11178779D01*
X63441697Y11101056D01*
X63416052Y11024487D01*
X63387964Y10949072D01*
X63357434Y10874812D01*
X63324461Y10801706D01*
X63289046Y10729754D01*
X63251188Y10658957D01*
X63211465Y10589906D01*
X63170454Y10522887D01*
X63128155Y10457901D01*
X63084568Y10394946D01*
X63039694Y10334024D01*
X62993531Y10275133D01*
X62946080Y10218275D01*
X62897341Y10163450D01*
X62847314Y10110656D01*
X62795999Y10059894D01*
X62743397Y10011165D01*
X62689506Y9964468D01*
X62634327Y9919803D01*
X62577860Y9877170D01*
X62520105Y9836570D01*
X62461062Y9798001D01*
X62411021Y9766660D01*
X62360427Y9736750D01*
X62309279Y9708271D01*
X62257577Y9681223D01*
X62205323Y9655606D01*
X62152515Y9631420D01*
X62099154Y9608665D01*
X62045239Y9587342D01*
X61990771Y9567449D01*
X61935749Y9548988D01*
X61880175Y9531958D01*
X61824046Y9516359D01*
X61767365Y9502191D01*
X61710130Y9489454D01*
X61652342Y9478148D01*
X61594000Y9468273D01*
X61535148Y9459400D01*
X61475829Y9451100D01*
X61416042Y9443372D01*
X61355787Y9436216D01*
X61295065Y9429633D01*
X61233876Y9423623D01*
X61172219Y9418184D01*
X61110094Y9413319D01*
X61047502Y9409025D01*
X60984443Y9405304D01*
X60920916Y9402156D01*
X60856921Y9399580D01*
X60792459Y9397576D01*
X60727530Y9396145D01*
X60662133Y9395287D01*
X60596268Y9395000D01*
X58995256Y9395000D01*
X58995256Y13537359D01*
X60279974Y13537359D01*
X60279974Y10332893D01*
X60304398Y10332893D01*
X60357907Y10332950D01*
X60410357Y10333122D01*
X60461749Y10333408D01*
X60512081Y10333809D01*
X60561354Y10334324D01*
X60633278Y10335312D01*
X60702819Y10336557D01*
X60769978Y10338059D01*
X60834753Y10339820D01*
X60897146Y10341837D01*
X60957156Y10344113D01*
X61014783Y10346646D01*
X61033463Y10347548D01*
X61089065Y10351866D01*
X61144131Y10358868D01*
X61198659Y10368553D01*
X61252652Y10380921D01*
X61306107Y10395973D01*
X61359026Y10413708D01*
X61411408Y10434126D01*
X61463254Y10457228D01*
X61514563Y10483013D01*
X61565335Y10511481D01*
X61598885Y10531951D01*
X61656859Y10570823D01*
X61712172Y10612336D01*
X61764822Y10656490D01*
X61814811Y10703283D01*
X61862138Y10752718D01*
X61906803Y10804792D01*
X61948806Y10859507D01*
X61988147Y10916862D01*
X62024826Y10976858D01*
X62058844Y11039494D01*
X62080043Y11082719D01*
X62109506Y11149798D01*
X62127538Y11196033D01*
X62144282Y11243479D01*
X62159738Y11292137D01*
X62173906Y11342006D01*
X62186786Y11393087D01*
X62198378Y11445380D01*
X62208682Y11498884D01*
X62217698Y11553600D01*
X62225426Y11609528D01*
X62231866Y11666668D01*
X62237018Y11725019D01*
X62240882Y11784582D01*
X62243458Y11845356D01*
X62244746Y11907342D01*
X62244907Y11938790D01*
X62244230Y12001415D01*
X62242198Y12062896D01*
X62238811Y12123231D01*
X62234069Y12182422D01*
X62227973Y12240468D01*
X62220521Y12297369D01*
X62211715Y12353125D01*
X62201554Y12407736D01*
X62190039Y12461202D01*
X62177168Y12513524D01*
X62162943Y12564700D01*
X62147363Y12614732D01*
X62130428Y12663619D01*
X62112138Y12711360D01*
X62092494Y12757957D01*
X62071495Y12803409D01*
X62049089Y12847678D01*
X62025222Y12890726D01*
X61999896Y12932553D01*
X61959171Y12993003D01*
X61915160Y13050705D01*
X61867866Y13105660D01*
X61817287Y13157867D01*
X61763423Y13207326D01*
X61725690Y13238772D01*
X61686496Y13268997D01*
X61645843Y13298001D01*
X61603731Y13325784D01*
X61560158Y13352345D01*
X61537824Y13365168D01*
X61488598Y13391039D01*
X61438920Y13414613D01*
X61388792Y13435890D01*
X61338213Y13454870D01*
X61287183Y13471553D01*
X61235703Y13485939D01*
X61183771Y13498029D01*
X61131389Y13507821D01*
X61078556Y13515317D01*
X61025272Y13520515D01*
X60989499Y13522705D01*
X60934713Y13525324D01*
X60877973Y13527685D01*
X60819279Y13529789D01*
X60758632Y13531635D01*
X60696032Y13533223D01*
X60631478Y13534554D01*
X60564971Y13535628D01*
X60496510Y13536443D01*
X60426096Y13537001D01*
X60353728Y13537302D01*
X60304398Y13537359D01*
X60279974Y13537359D01*
X58995256Y13537359D01*
X58995256Y14475252D01*
X60582835Y14475252D01*
X60649887Y14474985D01*
G37*
G36*
X68043233Y9395000D02*
G01*
X64285556Y9395000D01*
X64285556Y10205887D01*
X64344862Y10251983D01*
X64403404Y10297764D01*
X64461182Y10343230D01*
X64518198Y10388382D01*
X64574450Y10433219D01*
X64629939Y10477740D01*
X64684664Y10521947D01*
X64738627Y10565840D01*
X64791826Y10609417D01*
X64844262Y10652679D01*
X64895934Y10695627D01*
X64946844Y10738260D01*
X64996990Y10780578D01*
X65046373Y10822581D01*
X65094992Y10864269D01*
X65142849Y10905643D01*
X65189966Y10946730D01*
X65236367Y10987559D01*
X65282053Y11028131D01*
X65327023Y11068446D01*
X65371278Y11108502D01*
X65414817Y11148302D01*
X65457641Y11187843D01*
X65499749Y11227127D01*
X65541141Y11266154D01*
X65581818Y11304922D01*
X65621779Y11343434D01*
X65661025Y11381687D01*
X65699555Y11419683D01*
X65737370Y11457421D01*
X65774469Y11494902D01*
X65810853Y11532125D01*
X65856763Y11580144D01*
X65901070Y11627418D01*
X65943774Y11673948D01*
X65984876Y11719734D01*
X66024375Y11764776D01*
X66062270Y11809074D01*
X66098563Y11852627D01*
X66133253Y11895437D01*
X66166341Y11937502D01*
X66197825Y11978823D01*
X66227707Y12019399D01*
X66255986Y12059232D01*
X66295398Y12117586D01*
X66331205Y12174265D01*
X66353072Y12211121D01*
X66383190Y12266225D01*
X66410345Y12321631D01*
X66434538Y12377337D01*
X66455769Y12433343D01*
X66474037Y12489650D01*
X66489342Y12546258D01*
X66501686Y12603166D01*
X66511067Y12660375D01*
X66517485Y12717884D01*
X66520941Y12775694D01*
X66521600Y12814400D01*
X66519721Y12878460D01*
X66514086Y12939665D01*
X66504695Y12998015D01*
X66491546Y13053510D01*
X66474641Y13106150D01*
X66453980Y13155935D01*
X66429561Y13202865D01*
X66401386Y13246939D01*
X66369455Y13288159D01*
X66333766Y13326523D01*
X66307887Y13350513D01*
X66266564Y13383905D01*
X66222278Y13414012D01*
X66175030Y13440834D01*
X66124819Y13464373D01*
X66071647Y13484626D01*
X66015511Y13501596D01*
X65956414Y13515281D01*
X65894353Y13525681D01*
X65829331Y13532798D01*
X65761346Y13536629D01*
X65714377Y13537359D01*
X65653823Y13536345D01*
X65594283Y13533304D01*
X65535757Y13528236D01*
X65478244Y13521140D01*
X65421745Y13512017D01*
X65366259Y13500866D01*
X65344349Y13495838D01*
X65290038Y13482648D01*
X65235489Y13468265D01*
X65180702Y13452690D01*
X65125675Y13435922D01*
X65070411Y13417962D01*
X65014907Y13398809D01*
X64992639Y13390813D01*
X64939289Y13369383D01*
X64888383Y13347832D01*
X64839922Y13326163D01*
X64793906Y13304374D01*
X64741914Y13278071D01*
X64693442Y13251595D01*
X64649378Y13226694D01*
X64603505Y13200681D01*
X64558377Y13174959D01*
X64512916Y13148817D01*
X64509039Y13146571D01*
X64408899Y13146571D01*
X64408899Y14240779D01*
X64466754Y14265909D01*
X64515154Y14284882D01*
X64567848Y14303962D01*
X64624834Y14323150D01*
X64686115Y14342445D01*
X64751688Y14361847D01*
X64821555Y14381357D01*
X64870518Y14394423D01*
X64921389Y14407536D01*
X64974169Y14420698D01*
X65028856Y14433907D01*
X65085452Y14447164D01*
X65142868Y14460029D01*
X65200017Y14472065D01*
X65256899Y14483271D01*
X65313513Y14493646D01*
X65369861Y14503192D01*
X65425941Y14511907D01*
X65481755Y14519793D01*
X65537301Y14526848D01*
X65592580Y14533073D01*
X65647592Y14538469D01*
X65702337Y14543034D01*
X65756814Y14546769D01*
X65811025Y14549674D01*
X65864968Y14551749D01*
X65918644Y14552994D01*
X65972053Y14553409D01*
X66028485Y14553016D01*
X66084057Y14551835D01*
X66138767Y14549867D01*
X66192616Y14547113D01*
X66245604Y14543571D01*
X66297731Y14539241D01*
X66348997Y14534125D01*
X66399402Y14528222D01*
X66448946Y14521531D01*
X66497629Y14514054D01*
X66592411Y14496737D01*
X66683749Y14476273D01*
X66771643Y14452659D01*
X66856093Y14425897D01*
X66937099Y14395987D01*
X67014660Y14362929D01*
X67088777Y14326722D01*
X67159450Y14287366D01*
X67226679Y14244862D01*
X67290464Y14199210D01*
X67350804Y14150409D01*
X67407591Y14098903D01*
X67460713Y14044831D01*
X67510173Y13988192D01*
X67555968Y13928987D01*
X67598100Y13867216D01*
X67636568Y13802878D01*
X67671373Y13735973D01*
X67702514Y13666503D01*
X67729991Y13594465D01*
X67753805Y13519861D01*
X67773955Y13442691D01*
X67790441Y13362955D01*
X67803264Y13280651D01*
X67812423Y13195782D01*
X67817919Y13108346D01*
X67819750Y13018343D01*
X67818916Y12962086D01*
X67816411Y12905972D01*
X67812237Y12850002D01*
X67806393Y12794174D01*
X67798880Y12738489D01*
X67789697Y12682948D01*
X67778844Y12627550D01*
X67766322Y12572295D01*
X67752130Y12517183D01*
X67736269Y12462214D01*
X67718738Y12407388D01*
X67699537Y12352705D01*
X67678667Y12298165D01*
X67656127Y12243769D01*
X67631917Y12189516D01*
X67606038Y12135405D01*
X67578374Y12081271D01*
X67548507Y12026641D01*
X67516436Y11971514D01*
X67482161Y11915892D01*
X67445682Y11859773D01*
X67406999Y11803159D01*
X67366112Y11746048D01*
X67323021Y11688441D01*
X67277727Y11630338D01*
X67230228Y11571739D01*
X67180526Y11512643D01*
X67128619Y11453052D01*
X67074509Y11392964D01*
X67018195Y11332381D01*
X66959677Y11271301D01*
X66898955Y11209725D01*
X66860401Y11171977D01*
X66821980Y11134754D01*
X66783693Y11098055D01*
X66745540Y11061882D01*
X66707520Y11026233D01*
X66669634Y10991108D01*
X66631881Y10956509D01*
X66594262Y10922434D01*
X66556776Y10888884D01*
X66519424Y10855859D01*
X66482206Y10823358D01*
X66445121Y10791383D01*
X66389744Y10744403D01*
X66334668Y10698604D01*
X66298117Y10668727D01*
X66244809Y10625518D01*
X66194333Y10584735D01*
X66146692Y10546378D01*
X66101884Y10510446D01*
X66059909Y10476940D01*
X66020768Y10445860D01*
X65972988Y10408193D01*
X65930246Y10374839D01*
X65883902Y10339210D01*
X65875577Y10332893D01*
X68043233Y10332893D01*
X68043233Y9395000D01*
G37*
G36*
X57164133Y126270000D02*
G01*
X54468913Y126270000D01*
X54647210Y127129735D01*
X55366505Y127129735D01*
X56066261Y130490517D01*
X55346966Y130490517D01*
X55525263Y131350252D01*
X58220483Y131350252D01*
X58042186Y130490517D01*
X57322890Y130490517D01*
X56623135Y127129735D01*
X57342430Y127129735D01*
X57164133Y126270000D01*
G37*
G36*
X33929299Y64898306D02*
G01*
X32614699Y65657291D01*
X32836502Y67912364D01*
X32388560Y67769095D01*
X31221837Y66461460D01*
X30133564Y67089775D01*
X33588515Y70961227D01*
X34676788Y70332912D01*
X33142878Y68613993D01*
X36061190Y69533627D01*
X37321852Y68805784D01*
X34171399Y67901725D01*
X33929299Y64898306D01*
G37*
G36*
X79112249Y92109358D02*
G01*
X79047291Y92083777D01*
X78978812Y92058325D01*
X78931204Y92041428D01*
X78882031Y92024589D01*
X78831293Y92007807D01*
X78778991Y91991082D01*
X78725124Y91974414D01*
X78669692Y91957804D01*
X78612696Y91941251D01*
X78554135Y91924755D01*
X78494009Y91908316D01*
X78432319Y91891935D01*
X78369064Y91875610D01*
X78304244Y91859343D01*
X78237859Y91843134D01*
X78170750Y91827458D01*
X78103755Y91812794D01*
X78036874Y91799141D01*
X77970108Y91786500D01*
X77903457Y91774870D01*
X77836920Y91764251D01*
X77770497Y91754643D01*
X77704189Y91746047D01*
X77637995Y91738462D01*
X77571916Y91731889D01*
X77505951Y91726327D01*
X77440101Y91721776D01*
X77374366Y91718236D01*
X77308744Y91715708D01*
X77243238Y91714191D01*
X77177846Y91713685D01*
X77102989Y91714364D01*
X77029086Y91716399D01*
X76956138Y91719792D01*
X76884144Y91724542D01*
X76813103Y91730650D01*
X76743017Y91738114D01*
X76673885Y91746936D01*
X76605707Y91757115D01*
X76538483Y91768650D01*
X76472213Y91781544D01*
X76406897Y91795794D01*
X76342535Y91811401D01*
X76279127Y91828366D01*
X76216674Y91846688D01*
X76155174Y91866367D01*
X76094628Y91887403D01*
X76035037Y91909796D01*
X75976400Y91933547D01*
X75918716Y91958654D01*
X75861987Y91985119D01*
X75806212Y92012941D01*
X75751391Y92042120D01*
X75697524Y92072656D01*
X75644611Y92104550D01*
X75592652Y92137801D01*
X75541647Y92172408D01*
X75491597Y92208373D01*
X75442500Y92245696D01*
X75394358Y92284375D01*
X75347169Y92324411D01*
X75300935Y92365805D01*
X75255654Y92408556D01*
X75211626Y92452553D01*
X75168996Y92497686D01*
X75127763Y92543953D01*
X75087928Y92591356D01*
X75049491Y92639895D01*
X75012451Y92689569D01*
X74976810Y92740378D01*
X74942566Y92792323D01*
X74909719Y92845402D01*
X74878270Y92899618D01*
X74848220Y92954968D01*
X74819566Y93011454D01*
X74792311Y93069075D01*
X74766453Y93127832D01*
X74741993Y93187724D01*
X74718931Y93248751D01*
X74697266Y93310914D01*
X74676999Y93374212D01*
X74658130Y93438645D01*
X74640658Y93504214D01*
X74624585Y93570918D01*
X74609909Y93638758D01*
X74596630Y93707732D01*
X74584750Y93777842D01*
X74574267Y93849088D01*
X74565182Y93921469D01*
X74557494Y93994985D01*
X74551205Y94069636D01*
X74546313Y94145423D01*
X74542818Y94222345D01*
X74540722Y94300403D01*
X74540023Y94379596D01*
X74540722Y94454159D01*
X74542818Y94527792D01*
X74546313Y94600495D01*
X74551205Y94672267D01*
X74557494Y94743110D01*
X74565182Y94813022D01*
X74574267Y94882004D01*
X74584750Y94950055D01*
X74596630Y95017177D01*
X74609909Y95083368D01*
X74624585Y95148629D01*
X74640658Y95212960D01*
X74658130Y95276361D01*
X74676999Y95338831D01*
X74697266Y95400371D01*
X74718931Y95460981D01*
X74741993Y95520661D01*
X74766453Y95579410D01*
X74792311Y95637229D01*
X74819566Y95694118D01*
X74848220Y95750077D01*
X74878270Y95805106D01*
X74909719Y95859204D01*
X74942566Y95912372D01*
X74976810Y95964610D01*
X75012451Y96015918D01*
X75049491Y96066295D01*
X75087928Y96115743D01*
X75127763Y96164260D01*
X75168996Y96211846D01*
X75211626Y96258503D01*
X75255654Y96304229D01*
X75300972Y96348783D01*
X75347317Y96391923D01*
X75394690Y96433648D01*
X75443092Y96473959D01*
X75492521Y96512855D01*
X75542978Y96550337D01*
X75594464Y96586405D01*
X75646977Y96621058D01*
X75700519Y96654297D01*
X75755088Y96686121D01*
X75810685Y96716531D01*
X75867311Y96745527D01*
X75924964Y96773108D01*
X75983646Y96799274D01*
X76043355Y96824027D01*
X76104093Y96847364D01*
X76165858Y96869288D01*
X76228652Y96889797D01*
X76292474Y96908891D01*
X76357323Y96926572D01*
X76423201Y96942837D01*
X76490106Y96957689D01*
X76558040Y96971126D01*
X76627002Y96983148D01*
X76696991Y96993756D01*
X76768009Y97002950D01*
X76840055Y97010729D01*
X76913128Y97017094D01*
X76987230Y97022045D01*
X77062360Y97025581D01*
X77138517Y97027702D01*
X77215703Y97028409D01*
X77295058Y97027937D01*
X77372534Y97026520D01*
X77448130Y97024159D01*
X77521846Y97020853D01*
X77593683Y97016603D01*
X77663641Y97011408D01*
X77731719Y97005268D01*
X77797917Y96998184D01*
X77862236Y96990156D01*
X77924675Y96981183D01*
X77985235Y96971265D01*
X78043915Y96960403D01*
X78100716Y96948596D01*
X78155637Y96935845D01*
X78208679Y96922149D01*
X78259841Y96907509D01*
X78310173Y96892053D01*
X78360725Y96875910D01*
X78411496Y96859080D01*
X78462487Y96841564D01*
X78513696Y96823360D01*
X78565126Y96804469D01*
X78616775Y96784892D01*
X78668643Y96764627D01*
X78720730Y96743676D01*
X78773038Y96722037D01*
X78825564Y96699712D01*
X78878310Y96676700D01*
X78931275Y96653001D01*
X78984460Y96628614D01*
X79037865Y96603541D01*
X79091488Y96577781D01*
X79091488Y95387097D01*
X78974252Y95387097D01*
X78929789Y95422018D01*
X78885540Y95456508D01*
X78844335Y95488463D01*
X78799196Y95523340D01*
X78760251Y95553346D01*
X78718787Y95585222D01*
X78708027Y95593483D01*
X78664807Y95626150D01*
X78621855Y95657596D01*
X78579170Y95687822D01*
X78536752Y95716825D01*
X78494601Y95744608D01*
X78452717Y95771169D01*
X78400738Y95802654D01*
X78369751Y95820629D01*
X78320864Y95847629D01*
X78270069Y95873675D01*
X78217366Y95898767D01*
X78162755Y95922905D01*
X78106235Y95946089D01*
X78047808Y95968319D01*
X77987472Y95989595D01*
X77940968Y96004926D01*
X77925229Y96009917D01*
X77877583Y96024321D01*
X77829444Y96037308D01*
X77780812Y96048879D01*
X77731685Y96059032D01*
X77682065Y96067769D01*
X77631951Y96075090D01*
X77581344Y96080993D01*
X77530242Y96085479D01*
X77478647Y96088549D01*
X77426558Y96090202D01*
X77391558Y96090517D01*
X77330239Y96089605D01*
X77269928Y96086868D01*
X77210626Y96082306D01*
X77152334Y96075920D01*
X77095050Y96067709D01*
X77038775Y96057673D01*
X76983509Y96045813D01*
X76929252Y96032128D01*
X76876004Y96016618D01*
X76823765Y95999284D01*
X76789499Y95986714D01*
X76739182Y95966492D01*
X76689894Y95944296D01*
X76641637Y95920124D01*
X76594410Y95893978D01*
X76548214Y95865856D01*
X76503048Y95835760D01*
X76458913Y95803689D01*
X76415808Y95769643D01*
X76373733Y95733622D01*
X76332689Y95695626D01*
X76305899Y95669198D01*
X76268629Y95629524D01*
X76232840Y95587897D01*
X76198533Y95544316D01*
X76165707Y95498781D01*
X76134362Y95451294D01*
X76104498Y95401852D01*
X76076116Y95350457D01*
X76049215Y95297109D01*
X76023794Y95241808D01*
X75999856Y95184552D01*
X75984719Y95145297D01*
X75963550Y95084861D01*
X75944462Y95022622D01*
X75927457Y94958580D01*
X75912534Y94892735D01*
X75899693Y94825086D01*
X75888935Y94755634D01*
X75880259Y94684379D01*
X75873665Y94611321D01*
X75870426Y94561614D01*
X75868112Y94511105D01*
X75866724Y94459795D01*
X75866261Y94407684D01*
X75866700Y94351818D01*
X75868017Y94296878D01*
X75870211Y94242863D01*
X75873283Y94189773D01*
X75877233Y94137609D01*
X75882061Y94086371D01*
X75887766Y94036058D01*
X75894349Y93986670D01*
X75901810Y93938208D01*
X75919365Y93844060D01*
X75940431Y93753614D01*
X75965008Y93666869D01*
X75993096Y93583827D01*
X76024695Y93504486D01*
X76059805Y93428847D01*
X76098426Y93356910D01*
X76140558Y93288675D01*
X76186200Y93224141D01*
X76235354Y93163309D01*
X76288019Y93106179D01*
X76315668Y93079003D01*
X76373285Y93027244D01*
X76433477Y92978825D01*
X76496246Y92933745D01*
X76561590Y92892004D01*
X76629511Y92853603D01*
X76700007Y92818540D01*
X76773080Y92786818D01*
X76848728Y92758434D01*
X76926953Y92733389D01*
X77007753Y92711684D01*
X77091130Y92693318D01*
X77177082Y92678292D01*
X77265611Y92666604D01*
X77356715Y92658256D01*
X77450396Y92653247D01*
X77546652Y92651578D01*
X77596555Y92652011D01*
X77646930Y92653155D01*
X77696346Y92654798D01*
X77707853Y92655241D01*
X77758127Y92657495D01*
X77809457Y92660453D01*
X77860409Y92664257D01*
X77869053Y92665011D01*
X77869053Y93667628D01*
X76876206Y93667628D01*
X76876206Y94605520D01*
X79112249Y94605520D01*
X79112249Y92109358D01*
G37*
G36*
X83799269Y91870000D02*
G01*
X80041593Y91870000D01*
X80041593Y92680887D01*
X80100898Y92726983D01*
X80159440Y92772764D01*
X80217219Y92818230D01*
X80274234Y92863382D01*
X80330486Y92908219D01*
X80385975Y92952740D01*
X80440701Y92996947D01*
X80494663Y93040840D01*
X80547863Y93084417D01*
X80600298Y93127679D01*
X80651971Y93170627D01*
X80702880Y93213260D01*
X80753027Y93255578D01*
X80802409Y93297581D01*
X80851029Y93339269D01*
X80898885Y93380643D01*
X80946002Y93421730D01*
X80992404Y93462559D01*
X81038089Y93503131D01*
X81083060Y93543446D01*
X81127314Y93583502D01*
X81170854Y93623302D01*
X81213677Y93662843D01*
X81255785Y93702127D01*
X81297178Y93741154D01*
X81337855Y93779922D01*
X81377816Y93818434D01*
X81417062Y93856687D01*
X81455592Y93894683D01*
X81493407Y93932421D01*
X81530506Y93969902D01*
X81566889Y94007125D01*
X81612800Y94055144D01*
X81657107Y94102418D01*
X81699811Y94148948D01*
X81740913Y94194734D01*
X81780411Y94239776D01*
X81818307Y94284074D01*
X81854600Y94327627D01*
X81889290Y94370437D01*
X81922377Y94412502D01*
X81953862Y94453823D01*
X81983743Y94494399D01*
X82012022Y94534232D01*
X82051435Y94592586D01*
X82087241Y94649265D01*
X82109109Y94686121D01*
X82139226Y94741225D01*
X82166382Y94796631D01*
X82190575Y94852337D01*
X82211805Y94908343D01*
X82230073Y94964650D01*
X82245379Y95021258D01*
X82257722Y95078166D01*
X82267103Y95135375D01*
X82273522Y95192884D01*
X82276978Y95250694D01*
X82277636Y95289400D01*
X82275758Y95353460D01*
X82270123Y95414665D01*
X82260731Y95473015D01*
X82247583Y95528510D01*
X82230678Y95581150D01*
X82210016Y95630935D01*
X82185598Y95677865D01*
X82157423Y95721939D01*
X82125491Y95763159D01*
X82089803Y95801523D01*
X82063924Y95825513D01*
X82022600Y95858905D01*
X81978315Y95889012D01*
X81931067Y95915834D01*
X81880856Y95939373D01*
X81827683Y95959626D01*
X81771548Y95976596D01*
X81712450Y95990281D01*
X81650390Y96000681D01*
X81585368Y96007798D01*
X81517383Y96011629D01*
X81470414Y96012359D01*
X81409860Y96011345D01*
X81350320Y96008304D01*
X81291793Y96003236D01*
X81234280Y95996140D01*
X81177781Y95987017D01*
X81122296Y95975866D01*
X81100386Y95970838D01*
X81046075Y95957648D01*
X80991526Y95943265D01*
X80936738Y95927690D01*
X80881712Y95910922D01*
X80826447Y95892962D01*
X80770944Y95873809D01*
X80748676Y95865813D01*
X80695325Y95844383D01*
X80644420Y95822832D01*
X80595959Y95801163D01*
X80549942Y95779374D01*
X80497950Y95753071D01*
X80449478Y95726595D01*
X80405415Y95701694D01*
X80359542Y95675681D01*
X80314414Y95649959D01*
X80268952Y95623817D01*
X80265075Y95621571D01*
X80164936Y95621571D01*
X80164936Y96715779D01*
X80222791Y96740909D01*
X80271191Y96759882D01*
X80323884Y96778962D01*
X80380871Y96798150D01*
X80442151Y96817445D01*
X80507725Y96836847D01*
X80577591Y96856357D01*
X80626555Y96869423D01*
X80677426Y96882536D01*
X80730205Y96895698D01*
X80784893Y96908907D01*
X80841488Y96922164D01*
X80898904Y96935029D01*
X80956053Y96947065D01*
X81012935Y96958271D01*
X81069550Y96968646D01*
X81125898Y96978192D01*
X81181978Y96986907D01*
X81237791Y96994793D01*
X81293338Y97001848D01*
X81348617Y97008073D01*
X81403628Y97013469D01*
X81458373Y97018034D01*
X81512851Y97021769D01*
X81567061Y97024674D01*
X81621005Y97026749D01*
X81674681Y97027994D01*
X81728090Y97028409D01*
X81784522Y97028016D01*
X81840093Y97026835D01*
X81894803Y97024867D01*
X81948653Y97022113D01*
X82001641Y97018571D01*
X82053768Y97014241D01*
X82105034Y97009125D01*
X82155438Y97003222D01*
X82204982Y96996531D01*
X82253665Y96989054D01*
X82348448Y96971737D01*
X82439786Y96951273D01*
X82527680Y96927659D01*
X82612130Y96900897D01*
X82693135Y96870987D01*
X82770697Y96837929D01*
X82844814Y96801722D01*
X82915487Y96762366D01*
X82982716Y96719862D01*
X83046500Y96674210D01*
X83106841Y96625409D01*
X83163627Y96573903D01*
X83216750Y96519831D01*
X83266209Y96463192D01*
X83312005Y96403987D01*
X83354137Y96342216D01*
X83392605Y96277878D01*
X83427409Y96210973D01*
X83458550Y96141503D01*
X83486028Y96069465D01*
X83509841Y95994861D01*
X83529991Y95917691D01*
X83546478Y95837955D01*
X83559301Y95755651D01*
X83568460Y95670782D01*
X83573955Y95583346D01*
X83575787Y95493343D01*
X83574952Y95437086D01*
X83572448Y95380972D01*
X83568274Y95325002D01*
X83562430Y95269174D01*
X83554917Y95213489D01*
X83545734Y95157948D01*
X83534881Y95102550D01*
X83522359Y95047295D01*
X83508167Y94992183D01*
X83492305Y94937214D01*
X83474774Y94882388D01*
X83455574Y94827705D01*
X83434703Y94773165D01*
X83412163Y94718769D01*
X83387954Y94664516D01*
X83362074Y94610405D01*
X83334411Y94556271D01*
X83304544Y94501641D01*
X83272473Y94446514D01*
X83238197Y94390892D01*
X83201718Y94334773D01*
X83163036Y94278159D01*
X83122149Y94221048D01*
X83079058Y94163441D01*
X83033763Y94105338D01*
X82986265Y94046739D01*
X82936562Y93987643D01*
X82884656Y93928052D01*
X82830546Y93867964D01*
X82774231Y93807381D01*
X82715713Y93746301D01*
X82654991Y93684725D01*
X82616437Y93646977D01*
X82578017Y93609754D01*
X82539730Y93573055D01*
X82501576Y93536882D01*
X82463557Y93501233D01*
X82425670Y93466108D01*
X82387918Y93431509D01*
X82350298Y93397434D01*
X82312813Y93363884D01*
X82275461Y93330859D01*
X82238242Y93298358D01*
X82201158Y93266383D01*
X82145781Y93219403D01*
X82090705Y93173604D01*
X82054154Y93143727D01*
X82000845Y93100518D01*
X81950370Y93059735D01*
X81902728Y93021378D01*
X81857920Y92985446D01*
X81815946Y92951940D01*
X81776805Y92920860D01*
X81729025Y92883193D01*
X81686282Y92849839D01*
X81639938Y92814210D01*
X81631614Y92807893D01*
X83799269Y92807893D01*
X83799269Y91870000D01*
G37*
G36*
X7035015Y54370000D02*
G01*
X8091366Y59450252D01*
X11474129Y59450252D01*
X11278735Y58512359D01*
X9145274Y58512359D01*
X8951100Y57574467D01*
X10917255Y57574467D01*
X10721861Y56636574D01*
X8755706Y56636574D01*
X8479712Y55307893D01*
X10613173Y55307893D01*
X10417779Y54370000D01*
X7035015Y54370000D01*
G37*
D10*
X29941459Y130547250D02*
X30115107Y131532058D01*
X30115107Y131532058D02*
X30349585Y131490713D01*
X30349585Y131490713D02*
X30482003Y131419011D01*
X30482003Y131419011D02*
X30559256Y131308682D01*
X30559256Y131308682D02*
X30589614Y131206621D01*
X30589614Y131206621D02*
X30603433Y131010770D01*
X30603433Y131010770D02*
X30578626Y130870083D01*
X30578626Y130870083D02*
X30498655Y130690770D01*
X30498655Y130690770D02*
X30435221Y130605247D01*
X30435221Y130605247D02*
X30324892Y130527994D01*
X30324892Y130527994D02*
X30175937Y130505905D01*
X30175937Y130505905D02*
X29941459Y130547250D01*
X31036481Y131272888D02*
X31091645Y131311514D01*
X31091645Y131311514D02*
X31193706Y131341872D01*
X31193706Y131341872D02*
X31428184Y131300527D01*
X31428184Y131300527D02*
X31513706Y131237094D01*
X31513706Y131237094D02*
X31552333Y131181929D01*
X31552333Y131181929D02*
X31582690Y131079869D01*
X31582690Y131079869D02*
X31566152Y130986078D01*
X31566152Y130986078D02*
X31494450Y130853660D01*
X31494450Y130853660D02*
X30832475Y130390140D01*
X30832475Y130390140D02*
X31442118Y130282643D01*
X32402004Y130790341D02*
X32286239Y130133802D01*
X32233678Y131206850D02*
X31875166Y130544761D01*
X31875166Y130544761D02*
X32484808Y130437265D01*
X62717571Y68270794D02*
X62375551Y69210486D01*
X62375551Y69210486D02*
X62599288Y69291920D01*
X62599288Y69291920D02*
X62749816Y69296032D01*
X62749816Y69296032D02*
X62871884Y69239111D01*
X62871884Y69239111D02*
X62949205Y69165903D01*
X62949205Y69165903D02*
X63059098Y69003201D01*
X63059098Y69003201D02*
X63107958Y68868959D01*
X63107958Y68868959D02*
X63128358Y68673683D01*
X63128358Y68673683D02*
X63116184Y68567902D01*
X63116184Y68567902D02*
X63059263Y68445834D01*
X63059263Y68445834D02*
X62941308Y68352227D01*
X62941308Y68352227D02*
X62717571Y68270794D01*
X63831976Y69385855D02*
X64059989Y68759394D01*
X63477946Y69662400D02*
X63498510Y68909758D01*
X63498510Y68909758D02*
X64080224Y69121485D01*
X53666505Y145690906D02*
X52666505Y145690906D01*
X52666505Y145690906D02*
X52666505Y145929001D01*
X52666505Y145929001D02*
X52714124Y146071858D01*
X52714124Y146071858D02*
X52809362Y146167096D01*
X52809362Y146167096D02*
X52904600Y146214715D01*
X52904600Y146214715D02*
X53095076Y146262334D01*
X53095076Y146262334D02*
X53237933Y146262334D01*
X53237933Y146262334D02*
X53428409Y146214715D01*
X53428409Y146214715D02*
X53523647Y146167096D01*
X53523647Y146167096D02*
X53618886Y146071858D01*
X53618886Y146071858D02*
X53666505Y145929001D01*
X53666505Y145929001D02*
X53666505Y145690906D01*
X53666505Y147214715D02*
X53666505Y146643287D01*
X53666505Y146929001D02*
X52666505Y146929001D01*
X52666505Y146929001D02*
X52809362Y146833763D01*
X52809362Y146833763D02*
X52904600Y146738525D01*
X52904600Y146738525D02*
X52952219Y146643287D01*
X68817571Y49341852D02*
X68475551Y50281544D01*
X68475551Y50281544D02*
X68699288Y50362978D01*
X68699288Y50362978D02*
X68849816Y50367090D01*
X68849816Y50367090D02*
X68971884Y50310169D01*
X68971884Y50310169D02*
X69049205Y50236961D01*
X69049205Y50236961D02*
X69159098Y50074259D01*
X69159098Y50074259D02*
X69207958Y49940017D01*
X69207958Y49940017D02*
X69228358Y49744741D01*
X69228358Y49744741D02*
X69216184Y49638960D01*
X69216184Y49638960D02*
X69159263Y49516892D01*
X69159263Y49516892D02*
X69041308Y49423285D01*
X69041308Y49423285D02*
X68817571Y49341852D01*
X69862716Y50786431D02*
X69415244Y50623564D01*
X69415244Y50623564D02*
X69533363Y50159805D01*
X69533363Y50159805D02*
X69561824Y50220839D01*
X69561824Y50220839D02*
X69635032Y50298159D01*
X69635032Y50298159D02*
X69858768Y50379593D01*
X69858768Y50379593D02*
X69964549Y50367419D01*
X69964549Y50367419D02*
X70025583Y50338958D01*
X70025583Y50338958D02*
X70102904Y50265750D01*
X70102904Y50265750D02*
X70184337Y50042014D01*
X70184337Y50042014D02*
X70172163Y49936233D01*
X70172163Y49936233D02*
X70143703Y49875199D01*
X70143703Y49875199D02*
X70070495Y49797878D01*
X70070495Y49797878D02*
X69846758Y49716445D01*
X69846758Y49716445D02*
X69740977Y49728619D01*
X69740977Y49728619D02*
X69679943Y49757080D01*
X72447485Y106575405D02*
X73021062Y107394557D01*
X73021062Y107394557D02*
X73216098Y107257991D01*
X73216098Y107257991D02*
X73305807Y107137044D01*
X73305807Y107137044D02*
X73329195Y107004404D01*
X73329195Y107004404D02*
X73313576Y106899076D01*
X73313576Y106899076D02*
X73243330Y106715734D01*
X73243330Y106715734D02*
X73161391Y106598712D01*
X73161391Y106598712D02*
X73013131Y106469996D01*
X73013131Y106469996D02*
X72919497Y106419295D01*
X72919497Y106419295D02*
X72786857Y106395907D01*
X72786857Y106395907D02*
X72642522Y106438839D01*
X72642522Y106438839D02*
X72447485Y106575405D01*
X73695717Y105701384D02*
X73227630Y106029142D01*
X73461674Y105865263D02*
X74035250Y106684415D01*
X74035250Y106684415D02*
X73875296Y106622019D01*
X73875296Y106622019D02*
X73742655Y106598631D01*
X73742655Y106598631D02*
X73637328Y106614250D01*
X74971424Y106028899D02*
X74815395Y106138151D01*
X74815395Y106138151D02*
X74710067Y106153770D01*
X74710067Y106153770D02*
X74643747Y106142076D01*
X74643747Y106142076D02*
X74483793Y106079681D01*
X74483793Y106079681D02*
X74335533Y105950965D01*
X74335533Y105950965D02*
X74117028Y105638907D01*
X74117028Y105638907D02*
X74101409Y105533580D01*
X74101409Y105533580D02*
X74113103Y105467259D01*
X74113103Y105467259D02*
X74163804Y105373626D01*
X74163804Y105373626D02*
X74319833Y105264373D01*
X74319833Y105264373D02*
X74425161Y105248754D01*
X74425161Y105248754D02*
X74491481Y105260448D01*
X74491481Y105260448D02*
X74585115Y105311149D01*
X74585115Y105311149D02*
X74721680Y105506185D01*
X74721680Y105506185D02*
X74737300Y105611513D01*
X74737300Y105611513D02*
X74725605Y105677834D01*
X74725605Y105677834D02*
X74674904Y105771467D01*
X74674904Y105771467D02*
X74518875Y105880720D01*
X74518875Y105880720D02*
X74413548Y105896339D01*
X74413548Y105896339D02*
X74347227Y105884645D01*
X74347227Y105884645D02*
X74253594Y105833943D01*
X41099070Y123959615D02*
X40757050Y124899307D01*
X40757050Y124899307D02*
X40980786Y124980741D01*
X40980786Y124980741D02*
X41131315Y124984853D01*
X41131315Y124984853D02*
X41253383Y124927932D01*
X41253383Y124927932D02*
X41330703Y124854724D01*
X41330703Y124854724D02*
X41440597Y124692022D01*
X41440597Y124692022D02*
X41489457Y124557780D01*
X41489457Y124557780D02*
X41509857Y124362504D01*
X41509857Y124362504D02*
X41497683Y124256723D01*
X41497683Y124256723D02*
X41440762Y124134655D01*
X41440762Y124134655D02*
X41322807Y124041048D01*
X41322807Y124041048D02*
X41099070Y123959615D01*
X41684569Y125135546D02*
X41713029Y125196580D01*
X41713029Y125196580D02*
X41786237Y125273901D01*
X41786237Y125273901D02*
X42009974Y125355334D01*
X42009974Y125355334D02*
X42115755Y125343160D01*
X42115755Y125343160D02*
X42176789Y125314700D01*
X42176789Y125314700D02*
X42254109Y125241492D01*
X42254109Y125241492D02*
X42286683Y125151997D01*
X42286683Y125151997D02*
X42290795Y125001469D01*
X42290795Y125001469D02*
X41949268Y124269061D01*
X41949268Y124269061D02*
X42530983Y124480788D01*
X42579514Y125461280D02*
X42607975Y125522314D01*
X42607975Y125522314D02*
X42681183Y125599634D01*
X42681183Y125599634D02*
X42904919Y125681068D01*
X42904919Y125681068D02*
X43010700Y125668894D01*
X43010700Y125668894D02*
X43071734Y125640433D01*
X43071734Y125640433D02*
X43149055Y125567225D01*
X43149055Y125567225D02*
X43181628Y125477731D01*
X43181628Y125477731D02*
X43185741Y125327202D01*
X43185741Y125327202D02*
X42844214Y124594795D01*
X42844214Y124594795D02*
X43425928Y124806522D01*
X43122485Y68691298D02*
X43696062Y69510450D01*
X43696062Y69510450D02*
X43891098Y69373884D01*
X43891098Y69373884D02*
X43980807Y69252937D01*
X43980807Y69252937D02*
X44004195Y69120297D01*
X44004195Y69120297D02*
X43988576Y69014969D01*
X43988576Y69014969D02*
X43918330Y68831627D01*
X43918330Y68831627D02*
X43836391Y68714605D01*
X43836391Y68714605D02*
X43688131Y68585889D01*
X43688131Y68585889D02*
X43594497Y68535188D01*
X43594497Y68535188D02*
X43461857Y68511800D01*
X43461857Y68511800D02*
X43317522Y68554732D01*
X43317522Y68554732D02*
X43122485Y68691298D01*
X44370717Y67817277D02*
X43902630Y68145035D01*
X44136674Y67981156D02*
X44710250Y68800308D01*
X44710250Y68800308D02*
X44550296Y68737912D01*
X44550296Y68737912D02*
X44417655Y68714524D01*
X44417655Y68714524D02*
X44312328Y68730143D01*
X45201725Y68339909D02*
X45268046Y68351603D01*
X45268046Y68351603D02*
X45373373Y68335984D01*
X45373373Y68335984D02*
X45568409Y68199418D01*
X45568409Y68199418D02*
X45619111Y68105784D01*
X45619111Y68105784D02*
X45630805Y68039464D01*
X45630805Y68039464D02*
X45615186Y67934136D01*
X45615186Y67934136D02*
X45560559Y67856122D01*
X45560559Y67856122D02*
X45439613Y67766413D01*
X45439613Y67766413D02*
X44643768Y67626084D01*
X44643768Y67626084D02*
X45150862Y67271013D01*
X97015110Y129282144D02*
X97188758Y130266952D01*
X97188758Y130266952D02*
X97423236Y130225607D01*
X97423236Y130225607D02*
X97555654Y130153905D01*
X97555654Y130153905D02*
X97632907Y130043576D01*
X97632907Y130043576D02*
X97663265Y129941516D01*
X97663265Y129941516D02*
X97677085Y129745664D01*
X97677085Y129745664D02*
X97652278Y129604977D01*
X97652278Y129604977D02*
X97572307Y129425664D01*
X97572307Y129425664D02*
X97508873Y129340142D01*
X97508873Y129340142D02*
X97398544Y129262888D01*
X97398544Y129262888D02*
X97249588Y129240800D01*
X97249588Y129240800D02*
X97015110Y129282144D01*
X98595626Y130018883D02*
X98408044Y130051959D01*
X98408044Y130051959D02*
X98305984Y130021602D01*
X98305984Y130021602D02*
X98250819Y129982975D01*
X98250819Y129982975D02*
X98132221Y129858826D01*
X98132221Y129858826D02*
X98052250Y129679513D01*
X98052250Y129679513D02*
X97986098Y129304348D01*
X97986098Y129304348D02*
X98016456Y129202288D01*
X98016456Y129202288D02*
X98055082Y129147123D01*
X98055082Y129147123D02*
X98140605Y129083689D01*
X98140605Y129083689D02*
X98328187Y129050614D01*
X98328187Y129050614D02*
X98430247Y129080971D01*
X98430247Y129080971D02*
X98485412Y129119598D01*
X98485412Y129119598D02*
X98548845Y129205120D01*
X98548845Y129205120D02*
X98590190Y129439598D01*
X98590190Y129439598D02*
X98559832Y129541658D01*
X98559832Y129541658D02*
X98521206Y129596823D01*
X98521206Y129596823D02*
X98435684Y129660256D01*
X98435684Y129660256D02*
X98248101Y129693332D01*
X98248101Y129693332D02*
X98146041Y129662975D01*
X98146041Y129662975D02*
X98090876Y129624348D01*
X98090876Y129624348D02*
X98027443Y129538826D01*
X59725554Y20522715D02*
X58725554Y20522715D01*
X58725554Y20522715D02*
X58725554Y20760810D01*
X58725554Y20760810D02*
X58773173Y20903667D01*
X58773173Y20903667D02*
X58868411Y20998905D01*
X58868411Y20998905D02*
X58963649Y21046524D01*
X58963649Y21046524D02*
X59154125Y21094143D01*
X59154125Y21094143D02*
X59296982Y21094143D01*
X59296982Y21094143D02*
X59487458Y21046524D01*
X59487458Y21046524D02*
X59582696Y20998905D01*
X59582696Y20998905D02*
X59677935Y20903667D01*
X59677935Y20903667D02*
X59725554Y20760810D01*
X59725554Y20760810D02*
X59725554Y20522715D01*
X59725554Y22046524D02*
X59725554Y21475096D01*
X59725554Y21760810D02*
X58725554Y21760810D01*
X58725554Y21760810D02*
X58868411Y21665572D01*
X58868411Y21665572D02*
X58963649Y21570334D01*
X58963649Y21570334D02*
X59011268Y21475096D01*
X59058887Y22903667D02*
X59725554Y22903667D01*
X58677935Y22665572D02*
X59392220Y22427477D01*
X59392220Y22427477D02*
X59392220Y23046524D01*
X85279821Y66607470D02*
X85453469Y67592278D01*
X85453469Y67592278D02*
X85687947Y67550933D01*
X85687947Y67550933D02*
X85820365Y67479231D01*
X85820365Y67479231D02*
X85897618Y67368902D01*
X85897618Y67368902D02*
X85927976Y67266841D01*
X85927976Y67266841D02*
X85941795Y67070990D01*
X85941795Y67070990D02*
X85916988Y66930303D01*
X85916988Y66930303D02*
X85837017Y66750990D01*
X85837017Y66750990D02*
X85773583Y66665467D01*
X85773583Y66665467D02*
X85663254Y66588214D01*
X85663254Y66588214D02*
X85514299Y66566125D01*
X85514299Y66566125D02*
X85279821Y66607470D01*
X86780480Y66342863D02*
X86217733Y66442091D01*
X86499106Y66392477D02*
X86672754Y67377285D01*
X86672754Y67377285D02*
X86554156Y67253136D01*
X86554156Y67253136D02*
X86443827Y67175883D01*
X86443827Y67175883D02*
X86341767Y67145525D01*
X87563771Y67220175D02*
X87657562Y67203637D01*
X87657562Y67203637D02*
X87743085Y67140203D01*
X87743085Y67140203D02*
X87781711Y67085039D01*
X87781711Y67085039D02*
X87812069Y66982978D01*
X87812069Y66982978D02*
X87825889Y66787127D01*
X87825889Y66787127D02*
X87784544Y66552649D01*
X87784544Y66552649D02*
X87704572Y66373336D01*
X87704572Y66373336D02*
X87641139Y66287813D01*
X87641139Y66287813D02*
X87585974Y66249187D01*
X87585974Y66249187D02*
X87483914Y66218829D01*
X87483914Y66218829D02*
X87390123Y66235367D01*
X87390123Y66235367D02*
X87304601Y66298800D01*
X87304601Y66298800D02*
X87265974Y66353965D01*
X87265974Y66353965D02*
X87235616Y66456025D01*
X87235616Y66456025D02*
X87221797Y66651877D01*
X87221797Y66651877D02*
X87263141Y66886355D01*
X87263141Y66886355D02*
X87343113Y67065668D01*
X87343113Y67065668D02*
X87406546Y67151190D01*
X87406546Y67151190D02*
X87461711Y67189817D01*
X87461711Y67189817D02*
X87563771Y67220175D01*
X26141459Y109166185D02*
X26315107Y110150993D01*
X26315107Y110150993D02*
X26549585Y110109648D01*
X26549585Y110109648D02*
X26682003Y110037946D01*
X26682003Y110037946D02*
X26759256Y109927617D01*
X26759256Y109927617D02*
X26789614Y109825556D01*
X26789614Y109825556D02*
X26803433Y109629705D01*
X26803433Y109629705D02*
X26778626Y109489018D01*
X26778626Y109489018D02*
X26698655Y109309705D01*
X26698655Y109309705D02*
X26635221Y109224182D01*
X26635221Y109224182D02*
X26524892Y109146929D01*
X26524892Y109146929D02*
X26375937Y109124840D01*
X26375937Y109124840D02*
X26141459Y109166185D01*
X27236481Y109891823D02*
X27291645Y109930449D01*
X27291645Y109930449D02*
X27393706Y109960807D01*
X27393706Y109960807D02*
X27628184Y109919462D01*
X27628184Y109919462D02*
X27713706Y109856029D01*
X27713706Y109856029D02*
X27752333Y109800864D01*
X27752333Y109800864D02*
X27782690Y109698804D01*
X27782690Y109698804D02*
X27766152Y109605013D01*
X27766152Y109605013D02*
X27694450Y109472595D01*
X27694450Y109472595D02*
X27032475Y109009075D01*
X27032475Y109009075D02*
X27642118Y108901578D01*
X28706783Y109729276D02*
X28237827Y109811966D01*
X28237827Y109811966D02*
X28108241Y109351278D01*
X28108241Y109351278D02*
X28163406Y109389905D01*
X28163406Y109389905D02*
X28265466Y109420263D01*
X28265466Y109420263D02*
X28499944Y109378918D01*
X28499944Y109378918D02*
X28585466Y109315484D01*
X28585466Y109315484D02*
X28624093Y109260320D01*
X28624093Y109260320D02*
X28654451Y109158260D01*
X28654451Y109158260D02*
X28613106Y108923782D01*
X28613106Y108923782D02*
X28549672Y108838259D01*
X28549672Y108838259D02*
X28494508Y108799633D01*
X28494508Y108799633D02*
X28392448Y108769275D01*
X28392448Y108769275D02*
X28157970Y108810620D01*
X28157970Y108810620D02*
X28072447Y108874053D01*
X28072447Y108874053D02*
X28033821Y108929218D01*
X48500554Y44643619D02*
X48674202Y45628427D01*
X48674202Y45628427D02*
X48908680Y45587082D01*
X48908680Y45587082D02*
X49041098Y45515380D01*
X49041098Y45515380D02*
X49118351Y45405051D01*
X49118351Y45405051D02*
X49148709Y45302991D01*
X49148709Y45302991D02*
X49162529Y45107139D01*
X49162529Y45107139D02*
X49137722Y44966452D01*
X49137722Y44966452D02*
X49057751Y44787139D01*
X49057751Y44787139D02*
X48994317Y44701617D01*
X48994317Y44701617D02*
X48883988Y44624363D01*
X48883988Y44624363D02*
X48735032Y44602275D01*
X48735032Y44602275D02*
X48500554Y44643619D01*
X49532257Y44461702D02*
X49719840Y44428627D01*
X49719840Y44428627D02*
X49821900Y44458984D01*
X49821900Y44458984D02*
X49877065Y44497611D01*
X49877065Y44497611D02*
X49995663Y44621760D01*
X49995663Y44621760D02*
X50075634Y44801073D01*
X50075634Y44801073D02*
X50141786Y45176238D01*
X50141786Y45176238D02*
X50111428Y45278298D01*
X50111428Y45278298D02*
X50072802Y45333463D01*
X50072802Y45333463D02*
X49987279Y45396896D01*
X49987279Y45396896D02*
X49799697Y45429972D01*
X49799697Y45429972D02*
X49697637Y45399614D01*
X49697637Y45399614D02*
X49642472Y45360988D01*
X49642472Y45360988D02*
X49579039Y45275466D01*
X49579039Y45275466D02*
X49537694Y45040988D01*
X49537694Y45040988D02*
X49568051Y44938927D01*
X49568051Y44938927D02*
X49606678Y44883763D01*
X49606678Y44883763D02*
X49692200Y44820329D01*
X49692200Y44820329D02*
X49879783Y44787253D01*
X49879783Y44787253D02*
X49981843Y44817611D01*
X49981843Y44817611D02*
X50037008Y44856238D01*
X50037008Y44856238D02*
X50100441Y44941760D01*
X30572485Y49684563D02*
X31146062Y50503715D01*
X31146062Y50503715D02*
X31341098Y50367149D01*
X31341098Y50367149D02*
X31430807Y50246202D01*
X31430807Y50246202D02*
X31454195Y50113562D01*
X31454195Y50113562D02*
X31438576Y50008234D01*
X31438576Y50008234D02*
X31368330Y49824892D01*
X31368330Y49824892D02*
X31286391Y49707870D01*
X31286391Y49707870D02*
X31138131Y49579154D01*
X31138131Y49579154D02*
X31044497Y49528453D01*
X31044497Y49528453D02*
X30911857Y49505065D01*
X30911857Y49505065D02*
X30767522Y49547997D01*
X30767522Y49547997D02*
X30572485Y49684563D01*
X31820717Y48810542D02*
X31352630Y49138300D01*
X31586674Y48974421D02*
X32160250Y49793573D01*
X32160250Y49793573D02*
X32000296Y49731177D01*
X32000296Y49731177D02*
X31867655Y49707789D01*
X31867655Y49707789D02*
X31762328Y49723408D01*
X32667344Y49438501D02*
X33174438Y49083430D01*
X33174438Y49083430D02*
X32682882Y48962565D01*
X32682882Y48962565D02*
X32799904Y48880625D01*
X32799904Y48880625D02*
X32850605Y48786992D01*
X32850605Y48786992D02*
X32862300Y48720671D01*
X32862300Y48720671D02*
X32846680Y48615343D01*
X32846680Y48615343D02*
X32710115Y48420307D01*
X32710115Y48420307D02*
X32616481Y48369606D01*
X32616481Y48369606D02*
X32550161Y48357912D01*
X32550161Y48357912D02*
X32444833Y48373531D01*
X32444833Y48373531D02*
X32210790Y48537410D01*
X32210790Y48537410D02*
X32160088Y48631044D01*
X32160088Y48631044D02*
X32148394Y48697364D01*
X59298027Y109768109D02*
X59471675Y110752917D01*
X59471675Y110752917D02*
X59706153Y110711572D01*
X59706153Y110711572D02*
X59838571Y110639870D01*
X59838571Y110639870D02*
X59915824Y110529541D01*
X59915824Y110529541D02*
X59946182Y110427480D01*
X59946182Y110427480D02*
X59960001Y110231629D01*
X59960001Y110231629D02*
X59935194Y110090942D01*
X59935194Y110090942D02*
X59855223Y109911629D01*
X59855223Y109911629D02*
X59791789Y109826106D01*
X59791789Y109826106D02*
X59681460Y109748853D01*
X59681460Y109748853D02*
X59532505Y109726764D01*
X59532505Y109726764D02*
X59298027Y109768109D01*
X60798686Y109503502D02*
X60235939Y109602730D01*
X60517312Y109553116D02*
X60690960Y110537924D01*
X60690960Y110537924D02*
X60572362Y110413775D01*
X60572362Y110413775D02*
X60462033Y110336522D01*
X60462033Y110336522D02*
X60359973Y110306164D01*
X61267642Y109420813D02*
X61455224Y109387737D01*
X61455224Y109387737D02*
X61557285Y109418095D01*
X61557285Y109418095D02*
X61612449Y109456721D01*
X61612449Y109456721D02*
X61731047Y109580870D01*
X61731047Y109580870D02*
X61811019Y109760184D01*
X61811019Y109760184D02*
X61877170Y110135349D01*
X61877170Y110135349D02*
X61846813Y110237409D01*
X61846813Y110237409D02*
X61808186Y110292573D01*
X61808186Y110292573D02*
X61722664Y110356007D01*
X61722664Y110356007D02*
X61535081Y110389083D01*
X61535081Y110389083D02*
X61433021Y110358725D01*
X61433021Y110358725D02*
X61377857Y110320098D01*
X61377857Y110320098D02*
X61314423Y110234576D01*
X61314423Y110234576D02*
X61273078Y110000098D01*
X61273078Y110000098D02*
X61303436Y109898038D01*
X61303436Y109898038D02*
X61342063Y109842873D01*
X61342063Y109842873D02*
X61427585Y109779440D01*
X61427585Y109779440D02*
X61615167Y109746364D01*
X61615167Y109746364D02*
X61717228Y109776722D01*
X61717228Y109776722D02*
X61772392Y109815348D01*
X61772392Y109815348D02*
X61835826Y109900871D01*
X14791459Y44757433D02*
X14965107Y45742241D01*
X14965107Y45742241D02*
X15199585Y45700896D01*
X15199585Y45700896D02*
X15332003Y45629194D01*
X15332003Y45629194D02*
X15409256Y45518865D01*
X15409256Y45518865D02*
X15439614Y45416804D01*
X15439614Y45416804D02*
X15453433Y45220953D01*
X15453433Y45220953D02*
X15428626Y45080266D01*
X15428626Y45080266D02*
X15348655Y44900953D01*
X15348655Y44900953D02*
X15285221Y44815430D01*
X15285221Y44815430D02*
X15174892Y44738177D01*
X15174892Y44738177D02*
X15025937Y44716088D01*
X15025937Y44716088D02*
X14791459Y44757433D01*
X15886481Y45483071D02*
X15941645Y45521697D01*
X15941645Y45521697D02*
X16043706Y45552055D01*
X16043706Y45552055D02*
X16278184Y45510710D01*
X16278184Y45510710D02*
X16363706Y45447277D01*
X16363706Y45447277D02*
X16402333Y45392112D01*
X16402333Y45392112D02*
X16432690Y45290052D01*
X16432690Y45290052D02*
X16416152Y45196261D01*
X16416152Y45196261D02*
X16344450Y45063843D01*
X16344450Y45063843D02*
X15682475Y44600323D01*
X15682475Y44600323D02*
X16292118Y44492826D01*
X17230030Y44327447D02*
X16667283Y44426675D01*
X16948656Y44377061D02*
X17122305Y45361869D01*
X17122305Y45361869D02*
X17003707Y45237720D01*
X17003707Y45237720D02*
X16893377Y45160467D01*
X16893377Y45160467D02*
X16791317Y45130109D01*
X93465110Y109103549D02*
X93638758Y110088357D01*
X93638758Y110088357D02*
X93873236Y110047012D01*
X93873236Y110047012D02*
X94005654Y109975310D01*
X94005654Y109975310D02*
X94082907Y109864981D01*
X94082907Y109864981D02*
X94113265Y109762921D01*
X94113265Y109762921D02*
X94127085Y109567069D01*
X94127085Y109567069D02*
X94102278Y109426382D01*
X94102278Y109426382D02*
X94022307Y109247069D01*
X94022307Y109247069D02*
X93958873Y109161547D01*
X93958873Y109161547D02*
X93848544Y109084293D01*
X93848544Y109084293D02*
X93699588Y109062205D01*
X93699588Y109062205D02*
X93465110Y109103549D01*
X94529775Y109931247D02*
X95186313Y109815482D01*
X95186313Y109815482D02*
X94590605Y108905094D01*
X77431740Y83441715D02*
X76431740Y83441715D01*
X76431740Y83441715D02*
X76431740Y83679810D01*
X76431740Y83679810D02*
X76479359Y83822667D01*
X76479359Y83822667D02*
X76574597Y83917905D01*
X76574597Y83917905D02*
X76669835Y83965524D01*
X76669835Y83965524D02*
X76860311Y84013143D01*
X76860311Y84013143D02*
X77003168Y84013143D01*
X77003168Y84013143D02*
X77193644Y83965524D01*
X77193644Y83965524D02*
X77288882Y83917905D01*
X77288882Y83917905D02*
X77384121Y83822667D01*
X77384121Y83822667D02*
X77431740Y83679810D01*
X77431740Y83679810D02*
X77431740Y83441715D01*
X76526978Y84394096D02*
X76479359Y84441715D01*
X76479359Y84441715D02*
X76431740Y84536953D01*
X76431740Y84536953D02*
X76431740Y84775048D01*
X76431740Y84775048D02*
X76479359Y84870286D01*
X76479359Y84870286D02*
X76526978Y84917905D01*
X76526978Y84917905D02*
X76622216Y84965524D01*
X76622216Y84965524D02*
X76717454Y84965524D01*
X76717454Y84965524D02*
X76860311Y84917905D01*
X76860311Y84917905D02*
X77431740Y84346477D01*
X77431740Y84346477D02*
X77431740Y84965524D01*
X76431740Y85298858D02*
X76431740Y85965524D01*
X76431740Y85965524D02*
X77431740Y85536953D01*
X81635809Y145711906D02*
X80635809Y145711906D01*
X80635809Y145711906D02*
X80635809Y145950001D01*
X80635809Y145950001D02*
X80683428Y146092858D01*
X80683428Y146092858D02*
X80778666Y146188096D01*
X80778666Y146188096D02*
X80873904Y146235715D01*
X80873904Y146235715D02*
X81064380Y146283334D01*
X81064380Y146283334D02*
X81207237Y146283334D01*
X81207237Y146283334D02*
X81397713Y146235715D01*
X81397713Y146235715D02*
X81492951Y146188096D01*
X81492951Y146188096D02*
X81588190Y146092858D01*
X81588190Y146092858D02*
X81635809Y145950001D01*
X81635809Y145950001D02*
X81635809Y145711906D01*
X80635809Y146616668D02*
X80635809Y147235715D01*
X80635809Y147235715D02*
X81016761Y146902382D01*
X81016761Y146902382D02*
X81016761Y147045239D01*
X81016761Y147045239D02*
X81064380Y147140477D01*
X81064380Y147140477D02*
X81111999Y147188096D01*
X81111999Y147188096D02*
X81207237Y147235715D01*
X81207237Y147235715D02*
X81445332Y147235715D01*
X81445332Y147235715D02*
X81540570Y147188096D01*
X81540570Y147188096D02*
X81588190Y147140477D01*
X81588190Y147140477D02*
X81635809Y147045239D01*
X81635809Y147045239D02*
X81635809Y146759525D01*
X81635809Y146759525D02*
X81588190Y146664287D01*
X81588190Y146664287D02*
X81540570Y146616668D01*
X36541240Y83441715D02*
X35541240Y83441715D01*
X35541240Y83441715D02*
X35541240Y83679810D01*
X35541240Y83679810D02*
X35588859Y83822667D01*
X35588859Y83822667D02*
X35684097Y83917905D01*
X35684097Y83917905D02*
X35779335Y83965524D01*
X35779335Y83965524D02*
X35969811Y84013143D01*
X35969811Y84013143D02*
X36112668Y84013143D01*
X36112668Y84013143D02*
X36303144Y83965524D01*
X36303144Y83965524D02*
X36398382Y83917905D01*
X36398382Y83917905D02*
X36493621Y83822667D01*
X36493621Y83822667D02*
X36541240Y83679810D01*
X36541240Y83679810D02*
X36541240Y83441715D01*
X35636478Y84394096D02*
X35588859Y84441715D01*
X35588859Y84441715D02*
X35541240Y84536953D01*
X35541240Y84536953D02*
X35541240Y84775048D01*
X35541240Y84775048D02*
X35588859Y84870286D01*
X35588859Y84870286D02*
X35636478Y84917905D01*
X35636478Y84917905D02*
X35731716Y84965524D01*
X35731716Y84965524D02*
X35826954Y84965524D01*
X35826954Y84965524D02*
X35969811Y84917905D01*
X35969811Y84917905D02*
X36541240Y84346477D01*
X36541240Y84346477D02*
X36541240Y84965524D01*
X35541240Y85822667D02*
X35541240Y85632191D01*
X35541240Y85632191D02*
X35588859Y85536953D01*
X35588859Y85536953D02*
X35636478Y85489334D01*
X35636478Y85489334D02*
X35779335Y85394096D01*
X35779335Y85394096D02*
X35969811Y85346477D01*
X35969811Y85346477D02*
X36350763Y85346477D01*
X36350763Y85346477D02*
X36446001Y85394096D01*
X36446001Y85394096D02*
X36493621Y85441715D01*
X36493621Y85441715D02*
X36541240Y85536953D01*
X36541240Y85536953D02*
X36541240Y85727429D01*
X36541240Y85727429D02*
X36493621Y85822667D01*
X36493621Y85822667D02*
X36446001Y85870286D01*
X36446001Y85870286D02*
X36350763Y85917905D01*
X36350763Y85917905D02*
X36112668Y85917905D01*
X36112668Y85917905D02*
X36017430Y85870286D01*
X36017430Y85870286D02*
X35969811Y85822667D01*
X35969811Y85822667D02*
X35922192Y85727429D01*
X35922192Y85727429D02*
X35922192Y85536953D01*
X35922192Y85536953D02*
X35969811Y85441715D01*
X35969811Y85441715D02*
X36017430Y85394096D01*
X36017430Y85394096D02*
X36112668Y85346477D01*
X81579821Y45675057D02*
X81753469Y46659865D01*
X81753469Y46659865D02*
X81987947Y46618520D01*
X81987947Y46618520D02*
X82120365Y46546818D01*
X82120365Y46546818D02*
X82197618Y46436489D01*
X82197618Y46436489D02*
X82227976Y46334428D01*
X82227976Y46334428D02*
X82241795Y46138577D01*
X82241795Y46138577D02*
X82216988Y45997890D01*
X82216988Y45997890D02*
X82137017Y45818577D01*
X82137017Y45818577D02*
X82073583Y45733054D01*
X82073583Y45733054D02*
X81963254Y45655801D01*
X81963254Y45655801D02*
X81814299Y45633712D01*
X81814299Y45633712D02*
X81579821Y45675057D01*
X83080480Y45410450D02*
X82517733Y45509678D01*
X82799106Y45460064D02*
X82972754Y46444872D01*
X82972754Y46444872D02*
X82854156Y46320723D01*
X82854156Y46320723D02*
X82743827Y46243470D01*
X82743827Y46243470D02*
X82641767Y46213112D01*
X84018392Y45245071D02*
X83455645Y45344299D01*
X83737018Y45294685D02*
X83910667Y46279493D01*
X83910667Y46279493D02*
X83792069Y46155344D01*
X83792069Y46155344D02*
X83681739Y46078091D01*
X83681739Y46078091D02*
X83579679Y46047733D01*
X46715820Y105643749D02*
X46373800Y106583441D01*
X46373800Y106583441D02*
X46597536Y106664875D01*
X46597536Y106664875D02*
X46748065Y106668987D01*
X46748065Y106668987D02*
X46870133Y106612066D01*
X46870133Y106612066D02*
X46947453Y106538858D01*
X46947453Y106538858D02*
X47057347Y106376156D01*
X47057347Y106376156D02*
X47106207Y106241914D01*
X47106207Y106241914D02*
X47126607Y106046638D01*
X47126607Y106046638D02*
X47114433Y105940857D01*
X47114433Y105940857D02*
X47057512Y105818789D01*
X47057512Y105818789D02*
X46939557Y105725182D01*
X46939557Y105725182D02*
X46715820Y105643749D01*
X47301319Y106819680D02*
X47329779Y106880714D01*
X47329779Y106880714D02*
X47402987Y106958035D01*
X47402987Y106958035D02*
X47626724Y107039468D01*
X47626724Y107039468D02*
X47732505Y107027294D01*
X47732505Y107027294D02*
X47793539Y106998834D01*
X47793539Y106998834D02*
X47870859Y106925626D01*
X47870859Y106925626D02*
X47903433Y106836131D01*
X47903433Y106836131D02*
X47907545Y106685603D01*
X47907545Y106685603D02*
X47566018Y105953195D01*
X47566018Y105953195D02*
X48147733Y106164922D01*
X48118944Y107218622D02*
X48700658Y107430348D01*
X48700658Y107430348D02*
X48517720Y106958363D01*
X48517720Y106958363D02*
X48651962Y107007223D01*
X48651962Y107007223D02*
X48757744Y106995050D01*
X48757744Y106995050D02*
X48818777Y106966589D01*
X48818777Y106966589D02*
X48896098Y106893381D01*
X48896098Y106893381D02*
X48977531Y106669645D01*
X48977531Y106669645D02*
X48965358Y106563864D01*
X48965358Y106563864D02*
X48936897Y106502830D01*
X48936897Y106502830D02*
X48863689Y106425509D01*
X48863689Y106425509D02*
X48595205Y106327789D01*
X48595205Y106327789D02*
X48489424Y106339963D01*
X48489424Y106339963D02*
X48428390Y106368423D01*
X106367616Y19772906D02*
X105367616Y19772906D01*
X105367616Y19772906D02*
X105367616Y20011001D01*
X105367616Y20011001D02*
X105415235Y20153858D01*
X105415235Y20153858D02*
X105510473Y20249096D01*
X105510473Y20249096D02*
X105605711Y20296715D01*
X105605711Y20296715D02*
X105796187Y20344334D01*
X105796187Y20344334D02*
X105939044Y20344334D01*
X105939044Y20344334D02*
X106129520Y20296715D01*
X106129520Y20296715D02*
X106224758Y20249096D01*
X106224758Y20249096D02*
X106319997Y20153858D01*
X106319997Y20153858D02*
X106367616Y20011001D01*
X106367616Y20011001D02*
X106367616Y19772906D01*
X105462854Y20725287D02*
X105415235Y20772906D01*
X105415235Y20772906D02*
X105367616Y20868144D01*
X105367616Y20868144D02*
X105367616Y21106239D01*
X105367616Y21106239D02*
X105415235Y21201477D01*
X105415235Y21201477D02*
X105462854Y21249096D01*
X105462854Y21249096D02*
X105558092Y21296715D01*
X105558092Y21296715D02*
X105653330Y21296715D01*
X105653330Y21296715D02*
X105796187Y21249096D01*
X105796187Y21249096D02*
X106367616Y20677668D01*
X106367616Y20677668D02*
X106367616Y21296715D01*
X32160784Y20522715D02*
X31160784Y20522715D01*
X31160784Y20522715D02*
X31160784Y20760810D01*
X31160784Y20760810D02*
X31208403Y20903667D01*
X31208403Y20903667D02*
X31303641Y20998905D01*
X31303641Y20998905D02*
X31398879Y21046524D01*
X31398879Y21046524D02*
X31589355Y21094143D01*
X31589355Y21094143D02*
X31732212Y21094143D01*
X31732212Y21094143D02*
X31922688Y21046524D01*
X31922688Y21046524D02*
X32017926Y20998905D01*
X32017926Y20998905D02*
X32113165Y20903667D01*
X32113165Y20903667D02*
X32160784Y20760810D01*
X32160784Y20760810D02*
X32160784Y20522715D01*
X32160784Y22046524D02*
X32160784Y21475096D01*
X32160784Y21760810D02*
X31160784Y21760810D01*
X31160784Y21760810D02*
X31303641Y21665572D01*
X31303641Y21665572D02*
X31398879Y21570334D01*
X31398879Y21570334D02*
X31446498Y21475096D01*
X31160784Y22379858D02*
X31160784Y23046524D01*
X31160784Y23046524D02*
X32160784Y22617953D01*
X84919407Y125335727D02*
X85492984Y126154879D01*
X85492984Y126154879D02*
X85688020Y126018313D01*
X85688020Y126018313D02*
X85777729Y125897366D01*
X85777729Y125897366D02*
X85801117Y125764726D01*
X85801117Y125764726D02*
X85785498Y125659398D01*
X85785498Y125659398D02*
X85715252Y125476056D01*
X85715252Y125476056D02*
X85633313Y125359034D01*
X85633313Y125359034D02*
X85485053Y125230318D01*
X85485053Y125230318D02*
X85391419Y125179617D01*
X85391419Y125179617D02*
X85258779Y125156229D01*
X85258779Y125156229D02*
X85114444Y125199161D01*
X85114444Y125199161D02*
X84919407Y125335727D01*
X86167639Y124461706D02*
X85699552Y124789464D01*
X85933596Y124625585D02*
X86507172Y125444737D01*
X86507172Y125444737D02*
X86347218Y125382341D01*
X86347218Y125382341D02*
X86214577Y125358953D01*
X86214577Y125358953D02*
X86109250Y125374572D01*
X87482353Y124761908D02*
X87092281Y125035039D01*
X87092281Y125035039D02*
X86780142Y124672280D01*
X86780142Y124672280D02*
X86846462Y124683974D01*
X86846462Y124683974D02*
X86951790Y124668355D01*
X86951790Y124668355D02*
X87146826Y124531789D01*
X87146826Y124531789D02*
X87197527Y124438156D01*
X87197527Y124438156D02*
X87209222Y124371835D01*
X87209222Y124371835D02*
X87193602Y124266507D01*
X87193602Y124266507D02*
X87057037Y124071471D01*
X87057037Y124071471D02*
X86963403Y124020770D01*
X86963403Y124020770D02*
X86897083Y124009076D01*
X86897083Y124009076D02*
X86791755Y124024695D01*
X86791755Y124024695D02*
X86596719Y124161261D01*
X86596719Y124161261D02*
X86546018Y124254894D01*
X86546018Y124254894D02*
X86534323Y124321215D01*
X52500554Y65445384D02*
X52674202Y66430192D01*
X52674202Y66430192D02*
X52908680Y66388847D01*
X52908680Y66388847D02*
X53041098Y66317145D01*
X53041098Y66317145D02*
X53118351Y66206816D01*
X53118351Y66206816D02*
X53148709Y66104756D01*
X53148709Y66104756D02*
X53162529Y65908904D01*
X53162529Y65908904D02*
X53137722Y65768217D01*
X53137722Y65768217D02*
X53057751Y65588904D01*
X53057751Y65588904D02*
X52994317Y65503382D01*
X52994317Y65503382D02*
X52883988Y65426128D01*
X52883988Y65426128D02*
X52735032Y65404040D01*
X52735032Y65404040D02*
X52500554Y65445384D01*
X53725276Y65809677D02*
X53639754Y65873110D01*
X53639754Y65873110D02*
X53601127Y65928275D01*
X53601127Y65928275D02*
X53570770Y66030335D01*
X53570770Y66030335D02*
X53579039Y66077231D01*
X53579039Y66077231D02*
X53642472Y66162753D01*
X53642472Y66162753D02*
X53697637Y66201379D01*
X53697637Y66201379D02*
X53799697Y66231737D01*
X53799697Y66231737D02*
X53987279Y66198661D01*
X53987279Y66198661D02*
X54072802Y66135228D01*
X54072802Y66135228D02*
X54111428Y66080063D01*
X54111428Y66080063D02*
X54141786Y65978003D01*
X54141786Y65978003D02*
X54133517Y65931107D01*
X54133517Y65931107D02*
X54070083Y65845585D01*
X54070083Y65845585D02*
X54014919Y65806959D01*
X54014919Y65806959D02*
X53912859Y65776601D01*
X53912859Y65776601D02*
X53725276Y65809677D01*
X53725276Y65809677D02*
X53623216Y65779319D01*
X53623216Y65779319D02*
X53568051Y65740692D01*
X53568051Y65740692D02*
X53504618Y65655170D01*
X53504618Y65655170D02*
X53471542Y65467588D01*
X53471542Y65467588D02*
X53501900Y65365528D01*
X53501900Y65365528D02*
X53540526Y65310363D01*
X53540526Y65310363D02*
X53626049Y65246929D01*
X53626049Y65246929D02*
X53813631Y65213854D01*
X53813631Y65213854D02*
X53915691Y65244211D01*
X53915691Y65244211D02*
X53970856Y65282838D01*
X53970856Y65282838D02*
X54034289Y65368360D01*
X54034289Y65368360D02*
X54067365Y65555943D01*
X54067365Y65555943D02*
X54037008Y65658003D01*
X54037008Y65658003D02*
X53998381Y65713167D01*
X53998381Y65713167D02*
X53912859Y65776601D01*
X18641459Y66679587D02*
X18815107Y67664395D01*
X18815107Y67664395D02*
X19049585Y67623050D01*
X19049585Y67623050D02*
X19182003Y67551348D01*
X19182003Y67551348D02*
X19259256Y67441019D01*
X19259256Y67441019D02*
X19289614Y67338958D01*
X19289614Y67338958D02*
X19303433Y67143107D01*
X19303433Y67143107D02*
X19278626Y67002420D01*
X19278626Y67002420D02*
X19198655Y66823107D01*
X19198655Y66823107D02*
X19135221Y66737584D01*
X19135221Y66737584D02*
X19024892Y66660331D01*
X19024892Y66660331D02*
X18875937Y66638242D01*
X18875937Y66638242D02*
X18641459Y66679587D01*
X19736481Y67405225D02*
X19791645Y67443851D01*
X19791645Y67443851D02*
X19893706Y67474209D01*
X19893706Y67474209D02*
X20128184Y67432864D01*
X20128184Y67432864D02*
X20213706Y67369431D01*
X20213706Y67369431D02*
X20252333Y67314266D01*
X20252333Y67314266D02*
X20282690Y67212206D01*
X20282690Y67212206D02*
X20266152Y67118415D01*
X20266152Y67118415D02*
X20194450Y66985997D01*
X20194450Y66985997D02*
X19532475Y66522477D01*
X19532475Y66522477D02*
X20142118Y66414980D01*
X20925409Y67292292D02*
X21019200Y67275754D01*
X21019200Y67275754D02*
X21104723Y67212320D01*
X21104723Y67212320D02*
X21143349Y67157156D01*
X21143349Y67157156D02*
X21173707Y67055095D01*
X21173707Y67055095D02*
X21187527Y66859244D01*
X21187527Y66859244D02*
X21146182Y66624766D01*
X21146182Y66624766D02*
X21066210Y66445453D01*
X21066210Y66445453D02*
X21002777Y66359930D01*
X21002777Y66359930D02*
X20947612Y66321304D01*
X20947612Y66321304D02*
X20845552Y66290946D01*
X20845552Y66290946D02*
X20751761Y66307484D01*
X20751761Y66307484D02*
X20666239Y66370917D01*
X20666239Y66370917D02*
X20627612Y66426082D01*
X20627612Y66426082D02*
X20597254Y66528142D01*
X20597254Y66528142D02*
X20583435Y66723994D01*
X20583435Y66723994D02*
X20624779Y66958472D01*
X20624779Y66958472D02*
X20704751Y67137785D01*
X20704751Y67137785D02*
X20768184Y67223307D01*
X20768184Y67223307D02*
X20823349Y67261934D01*
X20823349Y67261934D02*
X20925409Y67292292D01*
X62998027Y130056224D02*
X63171675Y131041032D01*
X63171675Y131041032D02*
X63406153Y130999687D01*
X63406153Y130999687D02*
X63538571Y130927985D01*
X63538571Y130927985D02*
X63615824Y130817656D01*
X63615824Y130817656D02*
X63646182Y130715595D01*
X63646182Y130715595D02*
X63660001Y130519744D01*
X63660001Y130519744D02*
X63635194Y130379057D01*
X63635194Y130379057D02*
X63555223Y130199744D01*
X63555223Y130199744D02*
X63491789Y130114221D01*
X63491789Y130114221D02*
X63381460Y130036968D01*
X63381460Y130036968D02*
X63232505Y130014879D01*
X63232505Y130014879D02*
X62998027Y130056224D01*
X64498686Y129791617D02*
X63935939Y129890845D01*
X64217312Y129841231D02*
X64390960Y130826039D01*
X64390960Y130826039D02*
X64272362Y130701890D01*
X64272362Y130701890D02*
X64162033Y130624637D01*
X64162033Y130624637D02*
X64059973Y130594279D01*
X65160661Y130255137D02*
X65075139Y130318571D01*
X65075139Y130318571D02*
X65036512Y130373735D01*
X65036512Y130373735D02*
X65006154Y130475795D01*
X65006154Y130475795D02*
X65014423Y130522691D01*
X65014423Y130522691D02*
X65077857Y130608213D01*
X65077857Y130608213D02*
X65133021Y130646840D01*
X65133021Y130646840D02*
X65235081Y130677198D01*
X65235081Y130677198D02*
X65422664Y130644122D01*
X65422664Y130644122D02*
X65508186Y130580688D01*
X65508186Y130580688D02*
X65546813Y130525524D01*
X65546813Y130525524D02*
X65577170Y130423464D01*
X65577170Y130423464D02*
X65568902Y130376568D01*
X65568902Y130376568D02*
X65505468Y130291046D01*
X65505468Y130291046D02*
X65450303Y130252419D01*
X65450303Y130252419D02*
X65348243Y130222061D01*
X65348243Y130222061D02*
X65160661Y130255137D01*
X65160661Y130255137D02*
X65058601Y130224780D01*
X65058601Y130224780D02*
X65003436Y130186153D01*
X65003436Y130186153D02*
X64940003Y130100631D01*
X64940003Y130100631D02*
X64906927Y129913048D01*
X64906927Y129913048D02*
X64937284Y129810988D01*
X64937284Y129810988D02*
X64975911Y129755823D01*
X64975911Y129755823D02*
X65061433Y129692390D01*
X65061433Y129692390D02*
X65249016Y129659314D01*
X65249016Y129659314D02*
X65351076Y129689672D01*
X65351076Y129689672D02*
X65406240Y129728298D01*
X65406240Y129728298D02*
X65469674Y129813821D01*
X65469674Y129813821D02*
X65502750Y130001403D01*
X65502750Y130001403D02*
X65472392Y130103463D01*
X65472392Y130103463D02*
X65433765Y130158628D01*
X65433765Y130158628D02*
X65348243Y130222061D01*
D12*
X26537780Y125270750D02*
X33726877Y124003118D01*
X27293150Y129554663D02*
X27492845Y130687192D01*
X27492845Y130687192D02*
X34681942Y129419560D01*
X61960677Y61836504D02*
X68820433Y64333251D01*
X60472890Y65924167D02*
X60079567Y67004813D01*
X60079567Y67004813D02*
X66939323Y69501560D01*
X46953886Y150079000D02*
X46953886Y142779000D01*
X51303886Y150079000D02*
X52453886Y150079000D01*
X52453886Y150079000D02*
X52453886Y142779000D01*
X68060677Y42907562D02*
X74920433Y45404309D01*
X66572890Y46995225D02*
X66179567Y48075871D01*
X66179567Y48075871D02*
X73039323Y50572618D01*
X67132760Y103231728D02*
X73112570Y99044620D01*
X69627817Y106795039D02*
X70287430Y107737064D01*
X70287430Y107737064D02*
X76267240Y103549956D01*
X40789649Y117688192D02*
X47649405Y120184939D01*
X39301862Y121775855D02*
X38908539Y122856501D01*
X38908539Y122856501D02*
X45768295Y125353248D01*
X37807760Y65347621D02*
X43787570Y61160513D01*
X40302817Y68910932D02*
X40962430Y69852957D01*
X40962430Y69852957D02*
X46942240Y65665849D01*
X93142475Y124088334D02*
X100331572Y122820702D01*
X93897845Y128372247D02*
X94097540Y129504776D01*
X94097540Y129504776D02*
X101286637Y128237144D01*
X65512935Y18087000D02*
X65512935Y25387000D01*
X61162935Y18087000D02*
X60012935Y18087000D01*
X60012935Y18087000D02*
X60012935Y25387000D01*
X81876142Y61330970D02*
X89065239Y60063338D01*
X82631512Y65614883D02*
X82831207Y66747412D01*
X82831207Y66747412D02*
X90020304Y65479780D01*
X22737780Y103889685D02*
X29926877Y102622053D01*
X23493150Y108173598D02*
X23692845Y109306127D01*
X23692845Y109306127D02*
X30881942Y108038495D01*
X44627919Y39449809D02*
X51817016Y38182177D01*
X45383289Y43733722D02*
X45582984Y44866251D01*
X45582984Y44866251D02*
X52772081Y43598619D01*
X25257760Y46340886D02*
X31237570Y42153778D01*
X27752817Y49904197D02*
X28412430Y50846222D01*
X28412430Y50846222D02*
X34392240Y46659114D01*
X55894348Y104491609D02*
X63083445Y103223977D01*
X56649718Y108775522D02*
X56849413Y109908051D01*
X56849413Y109908051D02*
X64038510Y108640419D01*
X11387780Y39480933D02*
X18576877Y38213301D01*
X12143150Y43764846D02*
X12342845Y44897375D01*
X12342845Y44897375D02*
X19531942Y43629743D01*
X89592475Y103909739D02*
X96781572Y102642107D01*
X90347845Y108193652D02*
X90547540Y109326181D01*
X90547540Y109326181D02*
X97736637Y108058549D01*
X70719121Y88306000D02*
X70719121Y81006000D01*
X75069121Y88306000D02*
X76219121Y88306000D01*
X76219121Y88306000D02*
X76219121Y81006000D01*
X87423190Y142800000D02*
X87423190Y150100000D01*
X83073190Y142800000D02*
X81923190Y142800000D01*
X81923190Y142800000D02*
X81923190Y150100000D01*
X42328621Y81006000D02*
X42328621Y88306000D01*
X37978621Y81006000D02*
X36828621Y81006000D01*
X36828621Y81006000D02*
X36828621Y88306000D01*
X78176142Y40398557D02*
X85365239Y39130925D01*
X78931512Y44682470D02*
X79131207Y45814999D01*
X79131207Y45814999D02*
X86320304Y44547367D01*
X46406399Y99372326D02*
X53266155Y101869073D01*
X44918612Y103459989D02*
X44525289Y104540635D01*
X44525289Y104540635D02*
X51385045Y107037382D01*
X99654997Y24161000D02*
X99654997Y16861000D01*
X104004997Y24161000D02*
X105154997Y24161000D01*
X105154997Y24161000D02*
X105154997Y16861000D01*
X25448165Y25387000D02*
X25448165Y18087000D01*
X29798165Y25387000D02*
X30948165Y25387000D01*
X30948165Y25387000D02*
X30948165Y18087000D01*
X79604682Y121992050D02*
X85584492Y117804942D01*
X82099739Y125555361D02*
X82759352Y126497386D01*
X82759352Y126497386D02*
X88739162Y122310278D01*
X48627919Y60251574D02*
X55817016Y58983942D01*
X49383289Y64535487D02*
X49582984Y65668016D01*
X49582984Y65668016D02*
X56772081Y64400384D01*
X15237780Y61403087D02*
X22426877Y60135455D01*
X15993150Y65687000D02*
X16192845Y66819529D01*
X16192845Y66819529D02*
X23381942Y65551897D01*
X59594348Y124779724D02*
X66783445Y123512092D01*
X60349718Y129063637D02*
X60549413Y130196166D01*
X60549413Y130196166D02*
X67738510Y128928534D01*
%LPC*%
D13*
X33300477Y128495409D03*
X33022640Y126919717D03*
X32744803Y125344025D03*
X27919245Y126194901D03*
X28197082Y127770593D03*
X28474919Y129346285D03*
D14*
X66205015Y68010490D03*
X66752247Y66506981D03*
X67299479Y65003473D03*
X62694985Y63327574D03*
X62147753Y64831083D03*
X61600521Y66334591D03*
D15*
X51303886Y143979000D03*
X49703886Y143979000D03*
X48103886Y143979000D03*
X48103886Y148879000D03*
X49703886Y148879000D03*
X51303886Y148879000D03*
D14*
X72305015Y49081548D03*
X72852247Y47578039D03*
X73399479Y46074531D03*
X68794985Y44398632D03*
X68247753Y45902141D03*
X67700521Y47405649D03*
D16*
X105294000Y156095000D03*
D17*
X74624645Y103296223D03*
X73706923Y101985580D03*
X72789200Y100674936D03*
X68775355Y103485461D03*
X69693077Y104796104D03*
X70610800Y106106748D03*
D14*
X45033987Y123862178D03*
X45581219Y122358669D03*
X46128451Y120855161D03*
X41523957Y119179262D03*
X40976725Y120682771D03*
X40429493Y122186279D03*
D17*
X45299645Y65412116D03*
X44381923Y64101473D03*
X43464200Y62790829D03*
X39450355Y65601354D03*
X40368077Y66911997D03*
X41285800Y68222641D03*
D13*
X99905172Y127312993D03*
X99627335Y125737301D03*
X99349498Y124161609D03*
X94523940Y125012485D03*
X94801777Y126588177D03*
X95079614Y128163869D03*
D15*
X61162935Y24187000D03*
X62762935Y24187000D03*
X64362935Y24187000D03*
X64362935Y19287000D03*
X62762935Y19287000D03*
X61162935Y19287000D03*
D13*
X88638839Y64555629D03*
X88361002Y62979937D03*
X88083165Y61404245D03*
X83257607Y62255121D03*
X83535444Y63830813D03*
X83813281Y65406505D03*
D16*
X8994000Y8995000D03*
X8994000Y156095000D03*
D13*
X29500477Y107114344D03*
X29222640Y105538652D03*
X28944803Y103962960D03*
X24119245Y104813836D03*
X24397082Y106389528D03*
X24674919Y107965220D03*
X51390616Y42674468D03*
X51112779Y41098776D03*
X50834942Y39523084D03*
X46009384Y40373960D03*
X46287221Y41949652D03*
X46565058Y43525344D03*
D17*
X32749645Y46405381D03*
X31831923Y45094738D03*
X30914200Y43784094D03*
X26900355Y46594619D03*
X27818077Y47905262D03*
X28735800Y49215906D03*
D13*
X62657045Y107716268D03*
X62379208Y106140576D03*
X62101371Y104564884D03*
X57275813Y105415760D03*
X57553650Y106991452D03*
X57831487Y108567144D03*
X18150477Y42705592D03*
X17872640Y41129900D03*
X17594803Y39554208D03*
X12769245Y40405084D03*
X13047082Y41980776D03*
X13324919Y43556468D03*
X96355172Y107134398D03*
X96077335Y105558706D03*
X95799498Y103983014D03*
X90973940Y104833890D03*
X91251777Y106409582D03*
X91529614Y107985274D03*
D15*
X75069121Y82206000D03*
X73469121Y82206000D03*
X71869121Y82206000D03*
X71869121Y87106000D03*
X73469121Y87106000D03*
X75069121Y87106000D03*
X83073190Y148900000D03*
X84673190Y148900000D03*
X86273190Y148900000D03*
X86273190Y144000000D03*
X84673190Y144000000D03*
X83073190Y144000000D03*
D16*
X105294000Y8995000D03*
D15*
X37978621Y87106000D03*
X39578621Y87106000D03*
X41178621Y87106000D03*
X41178621Y82206000D03*
X39578621Y82206000D03*
X37978621Y82206000D03*
D13*
X84938839Y43623216D03*
X84661002Y42047524D03*
X84383165Y40471832D03*
X79557607Y41322708D03*
X79835444Y42898400D03*
X80113281Y44474092D03*
D14*
X50650737Y105546312D03*
X51197969Y104042803D03*
X51745201Y102539295D03*
X47140707Y100863396D03*
X46593475Y102366905D03*
X46046243Y103870413D03*
D15*
X104004997Y18061000D03*
X102404997Y18061000D03*
X100804997Y18061000D03*
X100804997Y22961000D03*
X102404997Y22961000D03*
X104004997Y22961000D03*
X29798165Y19287000D03*
X28198165Y19287000D03*
X26598165Y19287000D03*
X26598165Y24187000D03*
X28198165Y24187000D03*
X29798165Y24187000D03*
D17*
X87096567Y122056545D03*
X86178845Y120745902D03*
X85261122Y119435258D03*
X81247277Y122245783D03*
X82164999Y123556426D03*
X83082722Y124867070D03*
D13*
X55390616Y63476233D03*
X55112779Y61900541D03*
X54834942Y60324849D03*
X50009384Y61175725D03*
X50287221Y62751417D03*
X50565058Y64327109D03*
X22000477Y64627746D03*
X21722640Y63052054D03*
X21444803Y61476362D03*
X16619245Y62327238D03*
X16897082Y63902930D03*
X17174919Y65478622D03*
X66357045Y128004383D03*
X66079208Y126428691D03*
X65801371Y124852999D03*
X60975813Y125703875D03*
X61253650Y127279567D03*
X61531487Y128855259D03*
D18*
X101294000Y57175000D03*
D19*
X101294000Y54635000D03*
D20*
X101294000Y52095000D03*
D19*
X12994000Y112065000D03*
X12994000Y114605000D03*
D18*
X12994000Y117145000D03*
%LPD*%
M02*
