G04 #@! TF.GenerationSoftware,KiCad,Pcbnew,7.0.2*
G04 #@! TF.CreationDate,2023-12-01T11:33:06-06:00*
G04 #@! TF.ProjectId,SixteenSegClock-Main,53697874-6565-46e5-9365-67436c6f636b,rev?*
G04 #@! TF.SameCoordinates,PX1312d00PYb0866e0*
G04 #@! TF.FileFunction,Legend,Top*
G04 #@! TF.FilePolarity,Positive*
%FSLAX46Y46*%
G04 Gerber Fmt 4.6, Leading zero omitted, Abs format (unit mm)*
G04 Created by KiCad (PCBNEW 7.0.2) date 2023-12-01 11:33:06*
%MOMM*%
%LPD*%
G01*
G04 APERTURE LIST*
G04 Aperture macros list*
%AMRotRect*
0 Rectangle, with rotation*
0 The origin of the aperture is its center*
0 $1 length*
0 $2 width*
0 $3 Rotation angle, in degrees counterclockwise*
0 Add horizontal line*
21,1,$1,$2,0,0,$3*%
G04 Aperture macros list end*
%ADD10C,0.150000*%
%ADD11C,0.120000*%
%ADD12RotRect,1.500000X1.000000X350.000000*%
%ADD13RotRect,1.500000X1.000000X20.000000*%
%ADD14R,1.000000X1.500000*%
%ADD15C,7.500000*%
%ADD16RotRect,1.500000X1.000000X325.000000*%
%ADD17C,1.700000*%
%ADD18O,1.700000X1.700000*%
%ADD19R,1.700000X1.700000*%
G04 APERTURE END LIST*
D10*
X65357000Y146578000D02*
X59513000Y141675000D01*
X38945000Y141675000D01*
X33670000Y147961000D01*
X37500000Y151175000D01*
X61500000Y151175000D01*
X65357000Y146578000D01*
G36*
X65357000Y146578000D02*
G01*
X59513000Y141675000D01*
X38945000Y141675000D01*
X33670000Y147961000D01*
X37500000Y151175000D01*
X61500000Y151175000D01*
X65357000Y146578000D01*
G37*
X64562000Y77832000D02*
X76040000Y46297000D01*
X73170000Y30020000D01*
X69907000Y33908000D01*
X60767000Y59020000D01*
X57836000Y82542000D01*
X64562000Y77832000D01*
G36*
X64562000Y77832000D02*
G01*
X76040000Y46297000D01*
X73170000Y30020000D01*
X69907000Y33908000D01*
X60767000Y59020000D01*
X57836000Y82542000D01*
X64562000Y77832000D01*
G37*
X54637000Y84782000D02*
X44712000Y79652000D01*
X28261000Y79652000D01*
X24084000Y84629000D01*
X30070000Y89652000D01*
X47681000Y89652000D01*
X54637000Y84782000D01*
G36*
X54637000Y84782000D02*
G01*
X44712000Y79652000D01*
X28261000Y79652000D01*
X24084000Y84629000D01*
X30070000Y89652000D01*
X47681000Y89652000D01*
X54637000Y84782000D01*
G37*
X105121000Y142696000D02*
X95749000Y89544000D01*
X90341000Y85007000D01*
X85842000Y90369000D01*
X94694000Y140570000D01*
X101859000Y146583000D01*
X105121000Y142696000D01*
G36*
X105121000Y142696000D02*
G01*
X95749000Y89544000D01*
X90341000Y85007000D01*
X85842000Y90369000D01*
X94694000Y140570000D01*
X101859000Y146583000D01*
X105121000Y142696000D01*
G37*
X57978000Y65229000D02*
X51324000Y27495000D01*
X45688000Y22765000D01*
X41265000Y28036000D01*
X46880000Y59878000D01*
X56025000Y80902000D01*
X57978000Y65229000D01*
G36*
X57978000Y65229000D02*
G01*
X51324000Y27495000D01*
X45688000Y22765000D01*
X41265000Y28036000D01*
X46880000Y59878000D01*
X56025000Y80902000D01*
X57978000Y65229000D01*
G37*
X77517001Y78433000D02*
X77517001Y78432999D01*
X77517000Y78432999D01*
X77516999Y78432999D01*
X77516999Y78433000D01*
X77516999Y78433001D01*
X77517000Y78433001D01*
X77517001Y78433001D01*
X77517001Y78433000D01*
X100568000Y148111000D02*
X92898000Y141675000D01*
X72996000Y141675000D01*
X68881000Y146578000D01*
X74359000Y151175000D01*
X97997000Y151175000D01*
X100568000Y148111000D01*
G36*
X100568000Y148111000D02*
G01*
X92898000Y141675000D01*
X72996000Y141675000D01*
X68881000Y146578000D01*
X74359000Y151175000D01*
X97997000Y151175000D01*
X100568000Y148111000D01*
G37*
X93746000Y79046000D02*
X84163000Y24697000D01*
X80333000Y21483000D01*
X74848000Y28020000D01*
X83747000Y78488000D01*
X89890000Y83642000D01*
X93746000Y79046000D01*
G36*
X93746000Y79046000D02*
G01*
X84163000Y24697000D01*
X80333000Y21483000D01*
X74848000Y28020000D01*
X83747000Y78488000D01*
X89890000Y83642000D01*
X93746000Y79046000D01*
G37*
X26940000Y78115000D02*
X18059000Y27749000D01*
X10706000Y21580000D01*
X7492000Y25410000D01*
X16866000Y78573000D01*
X22552000Y83344000D01*
X26940000Y78115000D01*
G36*
X26940000Y78115000D02*
G01*
X18059000Y27749000D01*
X10706000Y21580000D01*
X7492000Y25410000D01*
X16866000Y78573000D01*
X22552000Y83344000D01*
X26940000Y78115000D01*
G37*
X43008000Y55991000D02*
X29271000Y37157000D01*
X20442000Y29749000D01*
X23297000Y45936000D01*
X47178000Y78675000D01*
X54527000Y82473000D01*
X43008000Y55991000D01*
G36*
X43008000Y55991000D02*
G01*
X29271000Y37157000D01*
X20442000Y29749000D01*
X23297000Y45936000D01*
X47178000Y78675000D01*
X54527000Y82473000D01*
X43008000Y55991000D01*
G37*
X37832000Y139889000D02*
X29324000Y91637000D01*
X22799000Y86162000D01*
X19002000Y90686000D01*
X28308000Y143461000D01*
X32138000Y146675000D01*
X37832000Y139889000D01*
G36*
X37832000Y139889000D02*
G01*
X29324000Y91637000D01*
X22799000Y86162000D01*
X19002000Y90686000D01*
X28308000Y143461000D01*
X32138000Y146675000D01*
X37832000Y139889000D01*
G37*
X44377000Y21216000D02*
X39332000Y16983000D01*
X14563000Y16983000D01*
X11992000Y20048000D01*
X19662000Y26483000D01*
X39957000Y26483000D01*
X44377000Y21216000D01*
G36*
X44377000Y21216000D02*
G01*
X39332000Y16983000D01*
X14563000Y16983000D01*
X11992000Y20048000D01*
X19662000Y26483000D01*
X39957000Y26483000D01*
X44377000Y21216000D01*
G37*
X71113000Y139719000D02*
X65444000Y107572000D01*
X57106000Y88402000D01*
X54954000Y105669000D01*
X61002000Y139967000D01*
X66813000Y144843000D01*
X71113000Y139719000D01*
G36*
X71113000Y139719000D02*
G01*
X65444000Y107572000D01*
X57106000Y88402000D01*
X54954000Y105669000D01*
X61002000Y139967000D01*
X66813000Y144843000D01*
X71113000Y139719000D01*
G37*
X45149000Y131170000D02*
X52162000Y111900000D01*
X55295000Y86763000D01*
X49088000Y91109000D01*
X37079000Y124102000D01*
X39510000Y137889000D01*
X45149000Y131170000D01*
G36*
X45149000Y131170000D02*
G01*
X52162000Y111900000D01*
X55295000Y86763000D01*
X49088000Y91109000D01*
X37079000Y124102000D01*
X39510000Y137889000D01*
X45149000Y131170000D01*
G37*
X88824000Y118801000D02*
X69679000Y92555000D01*
X58604000Y86831000D01*
X66693000Y105430000D01*
X88589000Y135448000D01*
X92310000Y138570000D01*
X88824000Y118801000D01*
G36*
X88824000Y118801000D02*
G01*
X69679000Y92555000D01*
X58604000Y86831000D01*
X66693000Y105430000D01*
X88589000Y135448000D01*
X92310000Y138570000D01*
X88824000Y118801000D01*
G37*
X88009000Y84675000D02*
X82023000Y79652000D01*
X65450000Y79652000D01*
X58493000Y84523000D01*
X68419000Y89652000D01*
X83832000Y89652000D01*
X88009000Y84675000D01*
G36*
X88009000Y84675000D02*
G01*
X82023000Y79652000D01*
X65450000Y79652000D01*
X58493000Y84523000D01*
X68419000Y89652000D01*
X83832000Y89652000D01*
X88009000Y84675000D01*
G37*
X103179166Y25445749D02*
X103620605Y25365640D01*
X104053085Y25246283D01*
X104473125Y25088639D01*
X104877343Y24893978D01*
X105262485Y24663866D01*
X105625449Y24400157D01*
X105963313Y24104974D01*
X106273357Y23780694D01*
X106553085Y23429926D01*
X106800244Y23055496D01*
X107012844Y22660419D01*
X107189174Y22247874D01*
X107327814Y21821184D01*
X107427648Y21383784D01*
X107487871Y20939197D01*
X107508000Y20491000D01*
X107487871Y20042803D01*
X107427648Y19598216D01*
X107327814Y19160816D01*
X107189174Y18734126D01*
X107012844Y18321581D01*
X106800244Y17926504D01*
X106553085Y17552074D01*
X106273357Y17201306D01*
X105963313Y16877026D01*
X105625449Y16581843D01*
X105262485Y16318134D01*
X104877343Y16088022D01*
X104473125Y15893361D01*
X104053085Y15735717D01*
X103620605Y15616360D01*
X103179166Y15536251D01*
X102732324Y15496035D01*
X102283676Y15496035D01*
X101836834Y15536251D01*
X101395395Y15616360D01*
X100962915Y15735717D01*
X100542875Y15893361D01*
X100138657Y16088022D01*
X99753515Y16318134D01*
X99390551Y16581843D01*
X99052687Y16877026D01*
X98742643Y17201306D01*
X98462915Y17552074D01*
X98215756Y17926504D01*
X98003156Y18321581D01*
X97826826Y18734126D01*
X97688186Y19160816D01*
X97588352Y19598216D01*
X97528129Y20042803D01*
X97508000Y20491000D01*
X97528129Y20939197D01*
X97588352Y21383784D01*
X97688186Y21821184D01*
X97826826Y22247874D01*
X98003156Y22660419D01*
X98215756Y23055496D01*
X98462915Y23429926D01*
X98742643Y23780694D01*
X99052687Y24104974D01*
X99390551Y24400157D01*
X99753515Y24663866D01*
X100138657Y24893978D01*
X100542875Y25088639D01*
X100962915Y25246283D01*
X101395395Y25365640D01*
X101836834Y25445749D01*
X102283676Y25485965D01*
X102732324Y25485965D01*
X103179166Y25445749D01*
G36*
X103179166Y25445749D02*
G01*
X103620605Y25365640D01*
X104053085Y25246283D01*
X104473125Y25088639D01*
X104877343Y24893978D01*
X105262485Y24663866D01*
X105625449Y24400157D01*
X105963313Y24104974D01*
X106273357Y23780694D01*
X106553085Y23429926D01*
X106800244Y23055496D01*
X107012844Y22660419D01*
X107189174Y22247874D01*
X107327814Y21821184D01*
X107427648Y21383784D01*
X107487871Y20939197D01*
X107508000Y20491000D01*
X107487871Y20042803D01*
X107427648Y19598216D01*
X107327814Y19160816D01*
X107189174Y18734126D01*
X107012844Y18321581D01*
X106800244Y17926504D01*
X106553085Y17552074D01*
X106273357Y17201306D01*
X105963313Y16877026D01*
X105625449Y16581843D01*
X105262485Y16318134D01*
X104877343Y16088022D01*
X104473125Y15893361D01*
X104053085Y15735717D01*
X103620605Y15616360D01*
X103179166Y15536251D01*
X102732324Y15496035D01*
X102283676Y15496035D01*
X101836834Y15536251D01*
X101395395Y15616360D01*
X100962915Y15735717D01*
X100542875Y15893361D01*
X100138657Y16088022D01*
X99753515Y16318134D01*
X99390551Y16581843D01*
X99052687Y16877026D01*
X98742643Y17201306D01*
X98462915Y17552074D01*
X98215756Y17926504D01*
X98003156Y18321581D01*
X97826826Y18734126D01*
X97688186Y19160816D01*
X97588352Y19598216D01*
X97528129Y20042803D01*
X97508000Y20491000D01*
X97528129Y20939197D01*
X97588352Y21383784D01*
X97688186Y21821184D01*
X97826826Y22247874D01*
X98003156Y22660419D01*
X98215756Y23055496D01*
X98462915Y23429926D01*
X98742643Y23780694D01*
X99052687Y24104974D01*
X99390551Y24400157D01*
X99753515Y24663866D01*
X100138657Y24893978D01*
X100542875Y25088639D01*
X100962915Y25246283D01*
X101395395Y25365640D01*
X101836834Y25445749D01*
X102283676Y25485965D01*
X102732324Y25485965D01*
X103179166Y25445749D01*
G37*
X78801000Y20197000D02*
X74971000Y16983000D01*
X50506000Y16983000D01*
X46954000Y21216000D01*
X53231000Y26483000D01*
X73526000Y26483000D01*
X78801000Y20197000D01*
G36*
X78801000Y20197000D02*
G01*
X74971000Y16983000D01*
X50506000Y16983000D01*
X46954000Y21216000D01*
X53231000Y26483000D01*
X73526000Y26483000D01*
X78801000Y20197000D01*
G37*
X29947459Y130552250D02*
X30121107Y131537058D01*
X30121107Y131537058D02*
X30355585Y131495713D01*
X30355585Y131495713D02*
X30488003Y131424011D01*
X30488003Y131424011D02*
X30565256Y131313682D01*
X30565256Y131313682D02*
X30595614Y131211621D01*
X30595614Y131211621D02*
X30609433Y131015770D01*
X30609433Y131015770D02*
X30584626Y130875083D01*
X30584626Y130875083D02*
X30504655Y130695770D01*
X30504655Y130695770D02*
X30441221Y130610247D01*
X30441221Y130610247D02*
X30330892Y130532994D01*
X30330892Y130532994D02*
X30181937Y130510905D01*
X30181937Y130510905D02*
X29947459Y130552250D01*
X31042481Y131277888D02*
X31097645Y131316514D01*
X31097645Y131316514D02*
X31199706Y131346872D01*
X31199706Y131346872D02*
X31434184Y131305527D01*
X31434184Y131305527D02*
X31519706Y131242094D01*
X31519706Y131242094D02*
X31558333Y131186929D01*
X31558333Y131186929D02*
X31588690Y131084869D01*
X31588690Y131084869D02*
X31572152Y130991078D01*
X31572152Y130991078D02*
X31500450Y130858660D01*
X31500450Y130858660D02*
X30838475Y130395140D01*
X30838475Y130395140D02*
X31448118Y130287643D01*
X32408004Y130795341D02*
X32292239Y130138802D01*
X32239678Y131211850D02*
X31881166Y130549761D01*
X31881166Y130549761D02*
X32490808Y130442265D01*
X62723571Y68275794D02*
X62381551Y69215486D01*
X62381551Y69215486D02*
X62605288Y69296920D01*
X62605288Y69296920D02*
X62755816Y69301032D01*
X62755816Y69301032D02*
X62877884Y69244111D01*
X62877884Y69244111D02*
X62955205Y69170903D01*
X62955205Y69170903D02*
X63065098Y69008201D01*
X63065098Y69008201D02*
X63113958Y68873959D01*
X63113958Y68873959D02*
X63134358Y68678683D01*
X63134358Y68678683D02*
X63122184Y68572902D01*
X63122184Y68572902D02*
X63065263Y68450834D01*
X63065263Y68450834D02*
X62947308Y68357227D01*
X62947308Y68357227D02*
X62723571Y68275794D01*
X63837976Y69390855D02*
X64065989Y68764394D01*
X63483946Y69667400D02*
X63504510Y68914758D01*
X63504510Y68914758D02*
X64086224Y69126485D01*
X53672505Y145695906D02*
X52672505Y145695906D01*
X52672505Y145695906D02*
X52672505Y145934001D01*
X52672505Y145934001D02*
X52720124Y146076858D01*
X52720124Y146076858D02*
X52815362Y146172096D01*
X52815362Y146172096D02*
X52910600Y146219715D01*
X52910600Y146219715D02*
X53101076Y146267334D01*
X53101076Y146267334D02*
X53243933Y146267334D01*
X53243933Y146267334D02*
X53434409Y146219715D01*
X53434409Y146219715D02*
X53529647Y146172096D01*
X53529647Y146172096D02*
X53624886Y146076858D01*
X53624886Y146076858D02*
X53672505Y145934001D01*
X53672505Y145934001D02*
X53672505Y145695906D01*
X53672505Y147219715D02*
X53672505Y146648287D01*
X53672505Y146934001D02*
X52672505Y146934001D01*
X52672505Y146934001D02*
X52815362Y146838763D01*
X52815362Y146838763D02*
X52910600Y146743525D01*
X52910600Y146743525D02*
X52958219Y146648287D01*
X68823571Y49346852D02*
X68481551Y50286544D01*
X68481551Y50286544D02*
X68705288Y50367978D01*
X68705288Y50367978D02*
X68855816Y50372090D01*
X68855816Y50372090D02*
X68977884Y50315169D01*
X68977884Y50315169D02*
X69055205Y50241961D01*
X69055205Y50241961D02*
X69165098Y50079259D01*
X69165098Y50079259D02*
X69213958Y49945017D01*
X69213958Y49945017D02*
X69234358Y49749741D01*
X69234358Y49749741D02*
X69222184Y49643960D01*
X69222184Y49643960D02*
X69165263Y49521892D01*
X69165263Y49521892D02*
X69047308Y49428285D01*
X69047308Y49428285D02*
X68823571Y49346852D01*
X69868716Y50791431D02*
X69421244Y50628564D01*
X69421244Y50628564D02*
X69539363Y50164805D01*
X69539363Y50164805D02*
X69567824Y50225839D01*
X69567824Y50225839D02*
X69641032Y50303159D01*
X69641032Y50303159D02*
X69864768Y50384593D01*
X69864768Y50384593D02*
X69970549Y50372419D01*
X69970549Y50372419D02*
X70031583Y50343958D01*
X70031583Y50343958D02*
X70108904Y50270750D01*
X70108904Y50270750D02*
X70190337Y50047014D01*
X70190337Y50047014D02*
X70178163Y49941233D01*
X70178163Y49941233D02*
X70149703Y49880199D01*
X70149703Y49880199D02*
X70076495Y49802878D01*
X70076495Y49802878D02*
X69852758Y49721445D01*
X69852758Y49721445D02*
X69746977Y49733619D01*
X69746977Y49733619D02*
X69685943Y49762080D01*
X72453485Y106580405D02*
X73027062Y107399557D01*
X73027062Y107399557D02*
X73222098Y107262991D01*
X73222098Y107262991D02*
X73311807Y107142044D01*
X73311807Y107142044D02*
X73335195Y107009404D01*
X73335195Y107009404D02*
X73319576Y106904076D01*
X73319576Y106904076D02*
X73249330Y106720734D01*
X73249330Y106720734D02*
X73167391Y106603712D01*
X73167391Y106603712D02*
X73019131Y106474996D01*
X73019131Y106474996D02*
X72925497Y106424295D01*
X72925497Y106424295D02*
X72792857Y106400907D01*
X72792857Y106400907D02*
X72648522Y106443839D01*
X72648522Y106443839D02*
X72453485Y106580405D01*
X73701717Y105706384D02*
X73233630Y106034142D01*
X73467674Y105870263D02*
X74041250Y106689415D01*
X74041250Y106689415D02*
X73881296Y106627019D01*
X73881296Y106627019D02*
X73748655Y106603631D01*
X73748655Y106603631D02*
X73643328Y106619250D01*
X74977424Y106033899D02*
X74821395Y106143151D01*
X74821395Y106143151D02*
X74716067Y106158770D01*
X74716067Y106158770D02*
X74649747Y106147076D01*
X74649747Y106147076D02*
X74489793Y106084681D01*
X74489793Y106084681D02*
X74341533Y105955965D01*
X74341533Y105955965D02*
X74123028Y105643907D01*
X74123028Y105643907D02*
X74107409Y105538580D01*
X74107409Y105538580D02*
X74119103Y105472259D01*
X74119103Y105472259D02*
X74169804Y105378626D01*
X74169804Y105378626D02*
X74325833Y105269373D01*
X74325833Y105269373D02*
X74431161Y105253754D01*
X74431161Y105253754D02*
X74497481Y105265448D01*
X74497481Y105265448D02*
X74591115Y105316149D01*
X74591115Y105316149D02*
X74727680Y105511185D01*
X74727680Y105511185D02*
X74743300Y105616513D01*
X74743300Y105616513D02*
X74731605Y105682834D01*
X74731605Y105682834D02*
X74680904Y105776467D01*
X74680904Y105776467D02*
X74524875Y105885720D01*
X74524875Y105885720D02*
X74419548Y105901339D01*
X74419548Y105901339D02*
X74353227Y105889645D01*
X74353227Y105889645D02*
X74259594Y105838943D01*
X41105070Y123964615D02*
X40763050Y124904307D01*
X40763050Y124904307D02*
X40986786Y124985741D01*
X40986786Y124985741D02*
X41137315Y124989853D01*
X41137315Y124989853D02*
X41259383Y124932932D01*
X41259383Y124932932D02*
X41336703Y124859724D01*
X41336703Y124859724D02*
X41446597Y124697022D01*
X41446597Y124697022D02*
X41495457Y124562780D01*
X41495457Y124562780D02*
X41515857Y124367504D01*
X41515857Y124367504D02*
X41503683Y124261723D01*
X41503683Y124261723D02*
X41446762Y124139655D01*
X41446762Y124139655D02*
X41328807Y124046048D01*
X41328807Y124046048D02*
X41105070Y123964615D01*
X41690569Y125140546D02*
X41719029Y125201580D01*
X41719029Y125201580D02*
X41792237Y125278901D01*
X41792237Y125278901D02*
X42015974Y125360334D01*
X42015974Y125360334D02*
X42121755Y125348160D01*
X42121755Y125348160D02*
X42182789Y125319700D01*
X42182789Y125319700D02*
X42260109Y125246492D01*
X42260109Y125246492D02*
X42292683Y125156997D01*
X42292683Y125156997D02*
X42296795Y125006469D01*
X42296795Y125006469D02*
X41955268Y124274061D01*
X41955268Y124274061D02*
X42536983Y124485788D01*
X42585514Y125466280D02*
X42613975Y125527314D01*
X42613975Y125527314D02*
X42687183Y125604634D01*
X42687183Y125604634D02*
X42910919Y125686068D01*
X42910919Y125686068D02*
X43016700Y125673894D01*
X43016700Y125673894D02*
X43077734Y125645433D01*
X43077734Y125645433D02*
X43155055Y125572225D01*
X43155055Y125572225D02*
X43187628Y125482731D01*
X43187628Y125482731D02*
X43191741Y125332202D01*
X43191741Y125332202D02*
X42850214Y124599795D01*
X42850214Y124599795D02*
X43431928Y124811522D01*
X43128485Y68696298D02*
X43702062Y69515450D01*
X43702062Y69515450D02*
X43897098Y69378884D01*
X43897098Y69378884D02*
X43986807Y69257937D01*
X43986807Y69257937D02*
X44010195Y69125297D01*
X44010195Y69125297D02*
X43994576Y69019969D01*
X43994576Y69019969D02*
X43924330Y68836627D01*
X43924330Y68836627D02*
X43842391Y68719605D01*
X43842391Y68719605D02*
X43694131Y68590889D01*
X43694131Y68590889D02*
X43600497Y68540188D01*
X43600497Y68540188D02*
X43467857Y68516800D01*
X43467857Y68516800D02*
X43323522Y68559732D01*
X43323522Y68559732D02*
X43128485Y68696298D01*
X44376717Y67822277D02*
X43908630Y68150035D01*
X44142674Y67986156D02*
X44716250Y68805308D01*
X44716250Y68805308D02*
X44556296Y68742912D01*
X44556296Y68742912D02*
X44423655Y68719524D01*
X44423655Y68719524D02*
X44318328Y68735143D01*
X45207725Y68344909D02*
X45274046Y68356603D01*
X45274046Y68356603D02*
X45379373Y68340984D01*
X45379373Y68340984D02*
X45574409Y68204418D01*
X45574409Y68204418D02*
X45625111Y68110784D01*
X45625111Y68110784D02*
X45636805Y68044464D01*
X45636805Y68044464D02*
X45621186Y67939136D01*
X45621186Y67939136D02*
X45566559Y67861122D01*
X45566559Y67861122D02*
X45445613Y67771413D01*
X45445613Y67771413D02*
X44649768Y67631084D01*
X44649768Y67631084D02*
X45156862Y67276013D01*
X97021110Y129287144D02*
X97194758Y130271952D01*
X97194758Y130271952D02*
X97429236Y130230607D01*
X97429236Y130230607D02*
X97561654Y130158905D01*
X97561654Y130158905D02*
X97638907Y130048576D01*
X97638907Y130048576D02*
X97669265Y129946516D01*
X97669265Y129946516D02*
X97683085Y129750664D01*
X97683085Y129750664D02*
X97658278Y129609977D01*
X97658278Y129609977D02*
X97578307Y129430664D01*
X97578307Y129430664D02*
X97514873Y129345142D01*
X97514873Y129345142D02*
X97404544Y129267888D01*
X97404544Y129267888D02*
X97255588Y129245800D01*
X97255588Y129245800D02*
X97021110Y129287144D01*
X98601626Y130023883D02*
X98414044Y130056959D01*
X98414044Y130056959D02*
X98311984Y130026602D01*
X98311984Y130026602D02*
X98256819Y129987975D01*
X98256819Y129987975D02*
X98138221Y129863826D01*
X98138221Y129863826D02*
X98058250Y129684513D01*
X98058250Y129684513D02*
X97992098Y129309348D01*
X97992098Y129309348D02*
X98022456Y129207288D01*
X98022456Y129207288D02*
X98061082Y129152123D01*
X98061082Y129152123D02*
X98146605Y129088689D01*
X98146605Y129088689D02*
X98334187Y129055614D01*
X98334187Y129055614D02*
X98436247Y129085971D01*
X98436247Y129085971D02*
X98491412Y129124598D01*
X98491412Y129124598D02*
X98554845Y129210120D01*
X98554845Y129210120D02*
X98596190Y129444598D01*
X98596190Y129444598D02*
X98565832Y129546658D01*
X98565832Y129546658D02*
X98527206Y129601823D01*
X98527206Y129601823D02*
X98441684Y129665256D01*
X98441684Y129665256D02*
X98254101Y129698332D01*
X98254101Y129698332D02*
X98152041Y129667975D01*
X98152041Y129667975D02*
X98096876Y129629348D01*
X98096876Y129629348D02*
X98033443Y129543826D01*
X59731554Y20527715D02*
X58731554Y20527715D01*
X58731554Y20527715D02*
X58731554Y20765810D01*
X58731554Y20765810D02*
X58779173Y20908667D01*
X58779173Y20908667D02*
X58874411Y21003905D01*
X58874411Y21003905D02*
X58969649Y21051524D01*
X58969649Y21051524D02*
X59160125Y21099143D01*
X59160125Y21099143D02*
X59302982Y21099143D01*
X59302982Y21099143D02*
X59493458Y21051524D01*
X59493458Y21051524D02*
X59588696Y21003905D01*
X59588696Y21003905D02*
X59683935Y20908667D01*
X59683935Y20908667D02*
X59731554Y20765810D01*
X59731554Y20765810D02*
X59731554Y20527715D01*
X59731554Y22051524D02*
X59731554Y21480096D01*
X59731554Y21765810D02*
X58731554Y21765810D01*
X58731554Y21765810D02*
X58874411Y21670572D01*
X58874411Y21670572D02*
X58969649Y21575334D01*
X58969649Y21575334D02*
X59017268Y21480096D01*
X59064887Y22908667D02*
X59731554Y22908667D01*
X58683935Y22670572D02*
X59398220Y22432477D01*
X59398220Y22432477D02*
X59398220Y23051524D01*
X85285821Y66612470D02*
X85459469Y67597278D01*
X85459469Y67597278D02*
X85693947Y67555933D01*
X85693947Y67555933D02*
X85826365Y67484231D01*
X85826365Y67484231D02*
X85903618Y67373902D01*
X85903618Y67373902D02*
X85933976Y67271841D01*
X85933976Y67271841D02*
X85947795Y67075990D01*
X85947795Y67075990D02*
X85922988Y66935303D01*
X85922988Y66935303D02*
X85843017Y66755990D01*
X85843017Y66755990D02*
X85779583Y66670467D01*
X85779583Y66670467D02*
X85669254Y66593214D01*
X85669254Y66593214D02*
X85520299Y66571125D01*
X85520299Y66571125D02*
X85285821Y66612470D01*
X86786480Y66347863D02*
X86223733Y66447091D01*
X86505106Y66397477D02*
X86678754Y67382285D01*
X86678754Y67382285D02*
X86560156Y67258136D01*
X86560156Y67258136D02*
X86449827Y67180883D01*
X86449827Y67180883D02*
X86347767Y67150525D01*
X87569771Y67225175D02*
X87663562Y67208637D01*
X87663562Y67208637D02*
X87749085Y67145203D01*
X87749085Y67145203D02*
X87787711Y67090039D01*
X87787711Y67090039D02*
X87818069Y66987978D01*
X87818069Y66987978D02*
X87831889Y66792127D01*
X87831889Y66792127D02*
X87790544Y66557649D01*
X87790544Y66557649D02*
X87710572Y66378336D01*
X87710572Y66378336D02*
X87647139Y66292813D01*
X87647139Y66292813D02*
X87591974Y66254187D01*
X87591974Y66254187D02*
X87489914Y66223829D01*
X87489914Y66223829D02*
X87396123Y66240367D01*
X87396123Y66240367D02*
X87310601Y66303800D01*
X87310601Y66303800D02*
X87271974Y66358965D01*
X87271974Y66358965D02*
X87241616Y66461025D01*
X87241616Y66461025D02*
X87227797Y66656877D01*
X87227797Y66656877D02*
X87269141Y66891355D01*
X87269141Y66891355D02*
X87349113Y67070668D01*
X87349113Y67070668D02*
X87412546Y67156190D01*
X87412546Y67156190D02*
X87467711Y67194817D01*
X87467711Y67194817D02*
X87569771Y67225175D01*
X26147459Y109171185D02*
X26321107Y110155993D01*
X26321107Y110155993D02*
X26555585Y110114648D01*
X26555585Y110114648D02*
X26688003Y110042946D01*
X26688003Y110042946D02*
X26765256Y109932617D01*
X26765256Y109932617D02*
X26795614Y109830556D01*
X26795614Y109830556D02*
X26809433Y109634705D01*
X26809433Y109634705D02*
X26784626Y109494018D01*
X26784626Y109494018D02*
X26704655Y109314705D01*
X26704655Y109314705D02*
X26641221Y109229182D01*
X26641221Y109229182D02*
X26530892Y109151929D01*
X26530892Y109151929D02*
X26381937Y109129840D01*
X26381937Y109129840D02*
X26147459Y109171185D01*
X27242481Y109896823D02*
X27297645Y109935449D01*
X27297645Y109935449D02*
X27399706Y109965807D01*
X27399706Y109965807D02*
X27634184Y109924462D01*
X27634184Y109924462D02*
X27719706Y109861029D01*
X27719706Y109861029D02*
X27758333Y109805864D01*
X27758333Y109805864D02*
X27788690Y109703804D01*
X27788690Y109703804D02*
X27772152Y109610013D01*
X27772152Y109610013D02*
X27700450Y109477595D01*
X27700450Y109477595D02*
X27038475Y109014075D01*
X27038475Y109014075D02*
X27648118Y108906578D01*
X28712783Y109734276D02*
X28243827Y109816966D01*
X28243827Y109816966D02*
X28114241Y109356278D01*
X28114241Y109356278D02*
X28169406Y109394905D01*
X28169406Y109394905D02*
X28271466Y109425263D01*
X28271466Y109425263D02*
X28505944Y109383918D01*
X28505944Y109383918D02*
X28591466Y109320484D01*
X28591466Y109320484D02*
X28630093Y109265320D01*
X28630093Y109265320D02*
X28660451Y109163260D01*
X28660451Y109163260D02*
X28619106Y108928782D01*
X28619106Y108928782D02*
X28555672Y108843259D01*
X28555672Y108843259D02*
X28500508Y108804633D01*
X28500508Y108804633D02*
X28398448Y108774275D01*
X28398448Y108774275D02*
X28163970Y108815620D01*
X28163970Y108815620D02*
X28078447Y108879053D01*
X28078447Y108879053D02*
X28039821Y108934218D01*
X48506554Y44648619D02*
X48680202Y45633427D01*
X48680202Y45633427D02*
X48914680Y45592082D01*
X48914680Y45592082D02*
X49047098Y45520380D01*
X49047098Y45520380D02*
X49124351Y45410051D01*
X49124351Y45410051D02*
X49154709Y45307991D01*
X49154709Y45307991D02*
X49168529Y45112139D01*
X49168529Y45112139D02*
X49143722Y44971452D01*
X49143722Y44971452D02*
X49063751Y44792139D01*
X49063751Y44792139D02*
X49000317Y44706617D01*
X49000317Y44706617D02*
X48889988Y44629363D01*
X48889988Y44629363D02*
X48741032Y44607275D01*
X48741032Y44607275D02*
X48506554Y44648619D01*
X49538257Y44466702D02*
X49725840Y44433627D01*
X49725840Y44433627D02*
X49827900Y44463984D01*
X49827900Y44463984D02*
X49883065Y44502611D01*
X49883065Y44502611D02*
X50001663Y44626760D01*
X50001663Y44626760D02*
X50081634Y44806073D01*
X50081634Y44806073D02*
X50147786Y45181238D01*
X50147786Y45181238D02*
X50117428Y45283298D01*
X50117428Y45283298D02*
X50078802Y45338463D01*
X50078802Y45338463D02*
X49993279Y45401896D01*
X49993279Y45401896D02*
X49805697Y45434972D01*
X49805697Y45434972D02*
X49703637Y45404614D01*
X49703637Y45404614D02*
X49648472Y45365988D01*
X49648472Y45365988D02*
X49585039Y45280466D01*
X49585039Y45280466D02*
X49543694Y45045988D01*
X49543694Y45045988D02*
X49574051Y44943927D01*
X49574051Y44943927D02*
X49612678Y44888763D01*
X49612678Y44888763D02*
X49698200Y44825329D01*
X49698200Y44825329D02*
X49885783Y44792253D01*
X49885783Y44792253D02*
X49987843Y44822611D01*
X49987843Y44822611D02*
X50043008Y44861238D01*
X50043008Y44861238D02*
X50106441Y44946760D01*
X30578485Y49689563D02*
X31152062Y50508715D01*
X31152062Y50508715D02*
X31347098Y50372149D01*
X31347098Y50372149D02*
X31436807Y50251202D01*
X31436807Y50251202D02*
X31460195Y50118562D01*
X31460195Y50118562D02*
X31444576Y50013234D01*
X31444576Y50013234D02*
X31374330Y49829892D01*
X31374330Y49829892D02*
X31292391Y49712870D01*
X31292391Y49712870D02*
X31144131Y49584154D01*
X31144131Y49584154D02*
X31050497Y49533453D01*
X31050497Y49533453D02*
X30917857Y49510065D01*
X30917857Y49510065D02*
X30773522Y49552997D01*
X30773522Y49552997D02*
X30578485Y49689563D01*
X31826717Y48815542D02*
X31358630Y49143300D01*
X31592674Y48979421D02*
X32166250Y49798573D01*
X32166250Y49798573D02*
X32006296Y49736177D01*
X32006296Y49736177D02*
X31873655Y49712789D01*
X31873655Y49712789D02*
X31768328Y49728408D01*
X32673344Y49443501D02*
X33180438Y49088430D01*
X33180438Y49088430D02*
X32688882Y48967565D01*
X32688882Y48967565D02*
X32805904Y48885625D01*
X32805904Y48885625D02*
X32856605Y48791992D01*
X32856605Y48791992D02*
X32868300Y48725671D01*
X32868300Y48725671D02*
X32852680Y48620343D01*
X32852680Y48620343D02*
X32716115Y48425307D01*
X32716115Y48425307D02*
X32622481Y48374606D01*
X32622481Y48374606D02*
X32556161Y48362912D01*
X32556161Y48362912D02*
X32450833Y48378531D01*
X32450833Y48378531D02*
X32216790Y48542410D01*
X32216790Y48542410D02*
X32166088Y48636044D01*
X32166088Y48636044D02*
X32154394Y48702364D01*
X59304027Y109773109D02*
X59477675Y110757917D01*
X59477675Y110757917D02*
X59712153Y110716572D01*
X59712153Y110716572D02*
X59844571Y110644870D01*
X59844571Y110644870D02*
X59921824Y110534541D01*
X59921824Y110534541D02*
X59952182Y110432480D01*
X59952182Y110432480D02*
X59966001Y110236629D01*
X59966001Y110236629D02*
X59941194Y110095942D01*
X59941194Y110095942D02*
X59861223Y109916629D01*
X59861223Y109916629D02*
X59797789Y109831106D01*
X59797789Y109831106D02*
X59687460Y109753853D01*
X59687460Y109753853D02*
X59538505Y109731764D01*
X59538505Y109731764D02*
X59304027Y109773109D01*
X60804686Y109508502D02*
X60241939Y109607730D01*
X60523312Y109558116D02*
X60696960Y110542924D01*
X60696960Y110542924D02*
X60578362Y110418775D01*
X60578362Y110418775D02*
X60468033Y110341522D01*
X60468033Y110341522D02*
X60365973Y110311164D01*
X61273642Y109425813D02*
X61461224Y109392737D01*
X61461224Y109392737D02*
X61563285Y109423095D01*
X61563285Y109423095D02*
X61618449Y109461721D01*
X61618449Y109461721D02*
X61737047Y109585870D01*
X61737047Y109585870D02*
X61817019Y109765184D01*
X61817019Y109765184D02*
X61883170Y110140349D01*
X61883170Y110140349D02*
X61852813Y110242409D01*
X61852813Y110242409D02*
X61814186Y110297573D01*
X61814186Y110297573D02*
X61728664Y110361007D01*
X61728664Y110361007D02*
X61541081Y110394083D01*
X61541081Y110394083D02*
X61439021Y110363725D01*
X61439021Y110363725D02*
X61383857Y110325098D01*
X61383857Y110325098D02*
X61320423Y110239576D01*
X61320423Y110239576D02*
X61279078Y110005098D01*
X61279078Y110005098D02*
X61309436Y109903038D01*
X61309436Y109903038D02*
X61348063Y109847873D01*
X61348063Y109847873D02*
X61433585Y109784440D01*
X61433585Y109784440D02*
X61621167Y109751364D01*
X61621167Y109751364D02*
X61723228Y109781722D01*
X61723228Y109781722D02*
X61778392Y109820348D01*
X61778392Y109820348D02*
X61841826Y109905871D01*
X14797459Y44762433D02*
X14971107Y45747241D01*
X14971107Y45747241D02*
X15205585Y45705896D01*
X15205585Y45705896D02*
X15338003Y45634194D01*
X15338003Y45634194D02*
X15415256Y45523865D01*
X15415256Y45523865D02*
X15445614Y45421804D01*
X15445614Y45421804D02*
X15459433Y45225953D01*
X15459433Y45225953D02*
X15434626Y45085266D01*
X15434626Y45085266D02*
X15354655Y44905953D01*
X15354655Y44905953D02*
X15291221Y44820430D01*
X15291221Y44820430D02*
X15180892Y44743177D01*
X15180892Y44743177D02*
X15031937Y44721088D01*
X15031937Y44721088D02*
X14797459Y44762433D01*
X15892481Y45488071D02*
X15947645Y45526697D01*
X15947645Y45526697D02*
X16049706Y45557055D01*
X16049706Y45557055D02*
X16284184Y45515710D01*
X16284184Y45515710D02*
X16369706Y45452277D01*
X16369706Y45452277D02*
X16408333Y45397112D01*
X16408333Y45397112D02*
X16438690Y45295052D01*
X16438690Y45295052D02*
X16422152Y45201261D01*
X16422152Y45201261D02*
X16350450Y45068843D01*
X16350450Y45068843D02*
X15688475Y44605323D01*
X15688475Y44605323D02*
X16298118Y44497826D01*
X17236030Y44332447D02*
X16673283Y44431675D01*
X16954656Y44382061D02*
X17128305Y45366869D01*
X17128305Y45366869D02*
X17009707Y45242720D01*
X17009707Y45242720D02*
X16899377Y45165467D01*
X16899377Y45165467D02*
X16797317Y45135109D01*
X93471110Y109108549D02*
X93644758Y110093357D01*
X93644758Y110093357D02*
X93879236Y110052012D01*
X93879236Y110052012D02*
X94011654Y109980310D01*
X94011654Y109980310D02*
X94088907Y109869981D01*
X94088907Y109869981D02*
X94119265Y109767921D01*
X94119265Y109767921D02*
X94133085Y109572069D01*
X94133085Y109572069D02*
X94108278Y109431382D01*
X94108278Y109431382D02*
X94028307Y109252069D01*
X94028307Y109252069D02*
X93964873Y109166547D01*
X93964873Y109166547D02*
X93854544Y109089293D01*
X93854544Y109089293D02*
X93705588Y109067205D01*
X93705588Y109067205D02*
X93471110Y109108549D01*
X94535775Y109936247D02*
X95192313Y109820482D01*
X95192313Y109820482D02*
X94596605Y108910094D01*
X77437740Y83446715D02*
X76437740Y83446715D01*
X76437740Y83446715D02*
X76437740Y83684810D01*
X76437740Y83684810D02*
X76485359Y83827667D01*
X76485359Y83827667D02*
X76580597Y83922905D01*
X76580597Y83922905D02*
X76675835Y83970524D01*
X76675835Y83970524D02*
X76866311Y84018143D01*
X76866311Y84018143D02*
X77009168Y84018143D01*
X77009168Y84018143D02*
X77199644Y83970524D01*
X77199644Y83970524D02*
X77294882Y83922905D01*
X77294882Y83922905D02*
X77390121Y83827667D01*
X77390121Y83827667D02*
X77437740Y83684810D01*
X77437740Y83684810D02*
X77437740Y83446715D01*
X76532978Y84399096D02*
X76485359Y84446715D01*
X76485359Y84446715D02*
X76437740Y84541953D01*
X76437740Y84541953D02*
X76437740Y84780048D01*
X76437740Y84780048D02*
X76485359Y84875286D01*
X76485359Y84875286D02*
X76532978Y84922905D01*
X76532978Y84922905D02*
X76628216Y84970524D01*
X76628216Y84970524D02*
X76723454Y84970524D01*
X76723454Y84970524D02*
X76866311Y84922905D01*
X76866311Y84922905D02*
X77437740Y84351477D01*
X77437740Y84351477D02*
X77437740Y84970524D01*
X76437740Y85303858D02*
X76437740Y85970524D01*
X76437740Y85970524D02*
X77437740Y85541953D01*
X81641809Y145716906D02*
X80641809Y145716906D01*
X80641809Y145716906D02*
X80641809Y145955001D01*
X80641809Y145955001D02*
X80689428Y146097858D01*
X80689428Y146097858D02*
X80784666Y146193096D01*
X80784666Y146193096D02*
X80879904Y146240715D01*
X80879904Y146240715D02*
X81070380Y146288334D01*
X81070380Y146288334D02*
X81213237Y146288334D01*
X81213237Y146288334D02*
X81403713Y146240715D01*
X81403713Y146240715D02*
X81498951Y146193096D01*
X81498951Y146193096D02*
X81594190Y146097858D01*
X81594190Y146097858D02*
X81641809Y145955001D01*
X81641809Y145955001D02*
X81641809Y145716906D01*
X80641809Y146621668D02*
X80641809Y147240715D01*
X80641809Y147240715D02*
X81022761Y146907382D01*
X81022761Y146907382D02*
X81022761Y147050239D01*
X81022761Y147050239D02*
X81070380Y147145477D01*
X81070380Y147145477D02*
X81117999Y147193096D01*
X81117999Y147193096D02*
X81213237Y147240715D01*
X81213237Y147240715D02*
X81451332Y147240715D01*
X81451332Y147240715D02*
X81546570Y147193096D01*
X81546570Y147193096D02*
X81594190Y147145477D01*
X81594190Y147145477D02*
X81641809Y147050239D01*
X81641809Y147050239D02*
X81641809Y146764525D01*
X81641809Y146764525D02*
X81594190Y146669287D01*
X81594190Y146669287D02*
X81546570Y146621668D01*
X36547240Y83446715D02*
X35547240Y83446715D01*
X35547240Y83446715D02*
X35547240Y83684810D01*
X35547240Y83684810D02*
X35594859Y83827667D01*
X35594859Y83827667D02*
X35690097Y83922905D01*
X35690097Y83922905D02*
X35785335Y83970524D01*
X35785335Y83970524D02*
X35975811Y84018143D01*
X35975811Y84018143D02*
X36118668Y84018143D01*
X36118668Y84018143D02*
X36309144Y83970524D01*
X36309144Y83970524D02*
X36404382Y83922905D01*
X36404382Y83922905D02*
X36499621Y83827667D01*
X36499621Y83827667D02*
X36547240Y83684810D01*
X36547240Y83684810D02*
X36547240Y83446715D01*
X35642478Y84399096D02*
X35594859Y84446715D01*
X35594859Y84446715D02*
X35547240Y84541953D01*
X35547240Y84541953D02*
X35547240Y84780048D01*
X35547240Y84780048D02*
X35594859Y84875286D01*
X35594859Y84875286D02*
X35642478Y84922905D01*
X35642478Y84922905D02*
X35737716Y84970524D01*
X35737716Y84970524D02*
X35832954Y84970524D01*
X35832954Y84970524D02*
X35975811Y84922905D01*
X35975811Y84922905D02*
X36547240Y84351477D01*
X36547240Y84351477D02*
X36547240Y84970524D01*
X35547240Y85827667D02*
X35547240Y85637191D01*
X35547240Y85637191D02*
X35594859Y85541953D01*
X35594859Y85541953D02*
X35642478Y85494334D01*
X35642478Y85494334D02*
X35785335Y85399096D01*
X35785335Y85399096D02*
X35975811Y85351477D01*
X35975811Y85351477D02*
X36356763Y85351477D01*
X36356763Y85351477D02*
X36452001Y85399096D01*
X36452001Y85399096D02*
X36499621Y85446715D01*
X36499621Y85446715D02*
X36547240Y85541953D01*
X36547240Y85541953D02*
X36547240Y85732429D01*
X36547240Y85732429D02*
X36499621Y85827667D01*
X36499621Y85827667D02*
X36452001Y85875286D01*
X36452001Y85875286D02*
X36356763Y85922905D01*
X36356763Y85922905D02*
X36118668Y85922905D01*
X36118668Y85922905D02*
X36023430Y85875286D01*
X36023430Y85875286D02*
X35975811Y85827667D01*
X35975811Y85827667D02*
X35928192Y85732429D01*
X35928192Y85732429D02*
X35928192Y85541953D01*
X35928192Y85541953D02*
X35975811Y85446715D01*
X35975811Y85446715D02*
X36023430Y85399096D01*
X36023430Y85399096D02*
X36118668Y85351477D01*
X81585821Y45680057D02*
X81759469Y46664865D01*
X81759469Y46664865D02*
X81993947Y46623520D01*
X81993947Y46623520D02*
X82126365Y46551818D01*
X82126365Y46551818D02*
X82203618Y46441489D01*
X82203618Y46441489D02*
X82233976Y46339428D01*
X82233976Y46339428D02*
X82247795Y46143577D01*
X82247795Y46143577D02*
X82222988Y46002890D01*
X82222988Y46002890D02*
X82143017Y45823577D01*
X82143017Y45823577D02*
X82079583Y45738054D01*
X82079583Y45738054D02*
X81969254Y45660801D01*
X81969254Y45660801D02*
X81820299Y45638712D01*
X81820299Y45638712D02*
X81585821Y45680057D01*
X83086480Y45415450D02*
X82523733Y45514678D01*
X82805106Y45465064D02*
X82978754Y46449872D01*
X82978754Y46449872D02*
X82860156Y46325723D01*
X82860156Y46325723D02*
X82749827Y46248470D01*
X82749827Y46248470D02*
X82647767Y46218112D01*
X84024392Y45250071D02*
X83461645Y45349299D01*
X83743018Y45299685D02*
X83916667Y46284493D01*
X83916667Y46284493D02*
X83798069Y46160344D01*
X83798069Y46160344D02*
X83687739Y46083091D01*
X83687739Y46083091D02*
X83585679Y46052733D01*
X46721820Y105648749D02*
X46379800Y106588441D01*
X46379800Y106588441D02*
X46603536Y106669875D01*
X46603536Y106669875D02*
X46754065Y106673987D01*
X46754065Y106673987D02*
X46876133Y106617066D01*
X46876133Y106617066D02*
X46953453Y106543858D01*
X46953453Y106543858D02*
X47063347Y106381156D01*
X47063347Y106381156D02*
X47112207Y106246914D01*
X47112207Y106246914D02*
X47132607Y106051638D01*
X47132607Y106051638D02*
X47120433Y105945857D01*
X47120433Y105945857D02*
X47063512Y105823789D01*
X47063512Y105823789D02*
X46945557Y105730182D01*
X46945557Y105730182D02*
X46721820Y105648749D01*
X47307319Y106824680D02*
X47335779Y106885714D01*
X47335779Y106885714D02*
X47408987Y106963035D01*
X47408987Y106963035D02*
X47632724Y107044468D01*
X47632724Y107044468D02*
X47738505Y107032294D01*
X47738505Y107032294D02*
X47799539Y107003834D01*
X47799539Y107003834D02*
X47876859Y106930626D01*
X47876859Y106930626D02*
X47909433Y106841131D01*
X47909433Y106841131D02*
X47913545Y106690603D01*
X47913545Y106690603D02*
X47572018Y105958195D01*
X47572018Y105958195D02*
X48153733Y106169922D01*
X48124944Y107223622D02*
X48706658Y107435348D01*
X48706658Y107435348D02*
X48523720Y106963363D01*
X48523720Y106963363D02*
X48657962Y107012223D01*
X48657962Y107012223D02*
X48763744Y107000050D01*
X48763744Y107000050D02*
X48824777Y106971589D01*
X48824777Y106971589D02*
X48902098Y106898381D01*
X48902098Y106898381D02*
X48983531Y106674645D01*
X48983531Y106674645D02*
X48971358Y106568864D01*
X48971358Y106568864D02*
X48942897Y106507830D01*
X48942897Y106507830D02*
X48869689Y106430509D01*
X48869689Y106430509D02*
X48601205Y106332789D01*
X48601205Y106332789D02*
X48495424Y106344963D01*
X48495424Y106344963D02*
X48434390Y106373423D01*
X106373616Y19777906D02*
X105373616Y19777906D01*
X105373616Y19777906D02*
X105373616Y20016001D01*
X105373616Y20016001D02*
X105421235Y20158858D01*
X105421235Y20158858D02*
X105516473Y20254096D01*
X105516473Y20254096D02*
X105611711Y20301715D01*
X105611711Y20301715D02*
X105802187Y20349334D01*
X105802187Y20349334D02*
X105945044Y20349334D01*
X105945044Y20349334D02*
X106135520Y20301715D01*
X106135520Y20301715D02*
X106230758Y20254096D01*
X106230758Y20254096D02*
X106325997Y20158858D01*
X106325997Y20158858D02*
X106373616Y20016001D01*
X106373616Y20016001D02*
X106373616Y19777906D01*
X105468854Y20730287D02*
X105421235Y20777906D01*
X105421235Y20777906D02*
X105373616Y20873144D01*
X105373616Y20873144D02*
X105373616Y21111239D01*
X105373616Y21111239D02*
X105421235Y21206477D01*
X105421235Y21206477D02*
X105468854Y21254096D01*
X105468854Y21254096D02*
X105564092Y21301715D01*
X105564092Y21301715D02*
X105659330Y21301715D01*
X105659330Y21301715D02*
X105802187Y21254096D01*
X105802187Y21254096D02*
X106373616Y20682668D01*
X106373616Y20682668D02*
X106373616Y21301715D01*
X32166784Y20527715D02*
X31166784Y20527715D01*
X31166784Y20527715D02*
X31166784Y20765810D01*
X31166784Y20765810D02*
X31214403Y20908667D01*
X31214403Y20908667D02*
X31309641Y21003905D01*
X31309641Y21003905D02*
X31404879Y21051524D01*
X31404879Y21051524D02*
X31595355Y21099143D01*
X31595355Y21099143D02*
X31738212Y21099143D01*
X31738212Y21099143D02*
X31928688Y21051524D01*
X31928688Y21051524D02*
X32023926Y21003905D01*
X32023926Y21003905D02*
X32119165Y20908667D01*
X32119165Y20908667D02*
X32166784Y20765810D01*
X32166784Y20765810D02*
X32166784Y20527715D01*
X32166784Y22051524D02*
X32166784Y21480096D01*
X32166784Y21765810D02*
X31166784Y21765810D01*
X31166784Y21765810D02*
X31309641Y21670572D01*
X31309641Y21670572D02*
X31404879Y21575334D01*
X31404879Y21575334D02*
X31452498Y21480096D01*
X31166784Y22384858D02*
X31166784Y23051524D01*
X31166784Y23051524D02*
X32166784Y22622953D01*
X84925407Y125340727D02*
X85498984Y126159879D01*
X85498984Y126159879D02*
X85694020Y126023313D01*
X85694020Y126023313D02*
X85783729Y125902366D01*
X85783729Y125902366D02*
X85807117Y125769726D01*
X85807117Y125769726D02*
X85791498Y125664398D01*
X85791498Y125664398D02*
X85721252Y125481056D01*
X85721252Y125481056D02*
X85639313Y125364034D01*
X85639313Y125364034D02*
X85491053Y125235318D01*
X85491053Y125235318D02*
X85397419Y125184617D01*
X85397419Y125184617D02*
X85264779Y125161229D01*
X85264779Y125161229D02*
X85120444Y125204161D01*
X85120444Y125204161D02*
X84925407Y125340727D01*
X86173639Y124466706D02*
X85705552Y124794464D01*
X85939596Y124630585D02*
X86513172Y125449737D01*
X86513172Y125449737D02*
X86353218Y125387341D01*
X86353218Y125387341D02*
X86220577Y125363953D01*
X86220577Y125363953D02*
X86115250Y125379572D01*
X87488353Y124766908D02*
X87098281Y125040039D01*
X87098281Y125040039D02*
X86786142Y124677280D01*
X86786142Y124677280D02*
X86852462Y124688974D01*
X86852462Y124688974D02*
X86957790Y124673355D01*
X86957790Y124673355D02*
X87152826Y124536789D01*
X87152826Y124536789D02*
X87203527Y124443156D01*
X87203527Y124443156D02*
X87215222Y124376835D01*
X87215222Y124376835D02*
X87199602Y124271507D01*
X87199602Y124271507D02*
X87063037Y124076471D01*
X87063037Y124076471D02*
X86969403Y124025770D01*
X86969403Y124025770D02*
X86903083Y124014076D01*
X86903083Y124014076D02*
X86797755Y124029695D01*
X86797755Y124029695D02*
X86602719Y124166261D01*
X86602719Y124166261D02*
X86552018Y124259894D01*
X86552018Y124259894D02*
X86540323Y124326215D01*
X52506554Y65450384D02*
X52680202Y66435192D01*
X52680202Y66435192D02*
X52914680Y66393847D01*
X52914680Y66393847D02*
X53047098Y66322145D01*
X53047098Y66322145D02*
X53124351Y66211816D01*
X53124351Y66211816D02*
X53154709Y66109756D01*
X53154709Y66109756D02*
X53168529Y65913904D01*
X53168529Y65913904D02*
X53143722Y65773217D01*
X53143722Y65773217D02*
X53063751Y65593904D01*
X53063751Y65593904D02*
X53000317Y65508382D01*
X53000317Y65508382D02*
X52889988Y65431128D01*
X52889988Y65431128D02*
X52741032Y65409040D01*
X52741032Y65409040D02*
X52506554Y65450384D01*
X53731276Y65814677D02*
X53645754Y65878110D01*
X53645754Y65878110D02*
X53607127Y65933275D01*
X53607127Y65933275D02*
X53576770Y66035335D01*
X53576770Y66035335D02*
X53585039Y66082231D01*
X53585039Y66082231D02*
X53648472Y66167753D01*
X53648472Y66167753D02*
X53703637Y66206379D01*
X53703637Y66206379D02*
X53805697Y66236737D01*
X53805697Y66236737D02*
X53993279Y66203661D01*
X53993279Y66203661D02*
X54078802Y66140228D01*
X54078802Y66140228D02*
X54117428Y66085063D01*
X54117428Y66085063D02*
X54147786Y65983003D01*
X54147786Y65983003D02*
X54139517Y65936107D01*
X54139517Y65936107D02*
X54076083Y65850585D01*
X54076083Y65850585D02*
X54020919Y65811959D01*
X54020919Y65811959D02*
X53918859Y65781601D01*
X53918859Y65781601D02*
X53731276Y65814677D01*
X53731276Y65814677D02*
X53629216Y65784319D01*
X53629216Y65784319D02*
X53574051Y65745692D01*
X53574051Y65745692D02*
X53510618Y65660170D01*
X53510618Y65660170D02*
X53477542Y65472588D01*
X53477542Y65472588D02*
X53507900Y65370528D01*
X53507900Y65370528D02*
X53546526Y65315363D01*
X53546526Y65315363D02*
X53632049Y65251929D01*
X53632049Y65251929D02*
X53819631Y65218854D01*
X53819631Y65218854D02*
X53921691Y65249211D01*
X53921691Y65249211D02*
X53976856Y65287838D01*
X53976856Y65287838D02*
X54040289Y65373360D01*
X54040289Y65373360D02*
X54073365Y65560943D01*
X54073365Y65560943D02*
X54043008Y65663003D01*
X54043008Y65663003D02*
X54004381Y65718167D01*
X54004381Y65718167D02*
X53918859Y65781601D01*
X18647459Y66684587D02*
X18821107Y67669395D01*
X18821107Y67669395D02*
X19055585Y67628050D01*
X19055585Y67628050D02*
X19188003Y67556348D01*
X19188003Y67556348D02*
X19265256Y67446019D01*
X19265256Y67446019D02*
X19295614Y67343958D01*
X19295614Y67343958D02*
X19309433Y67148107D01*
X19309433Y67148107D02*
X19284626Y67007420D01*
X19284626Y67007420D02*
X19204655Y66828107D01*
X19204655Y66828107D02*
X19141221Y66742584D01*
X19141221Y66742584D02*
X19030892Y66665331D01*
X19030892Y66665331D02*
X18881937Y66643242D01*
X18881937Y66643242D02*
X18647459Y66684587D01*
X19742481Y67410225D02*
X19797645Y67448851D01*
X19797645Y67448851D02*
X19899706Y67479209D01*
X19899706Y67479209D02*
X20134184Y67437864D01*
X20134184Y67437864D02*
X20219706Y67374431D01*
X20219706Y67374431D02*
X20258333Y67319266D01*
X20258333Y67319266D02*
X20288690Y67217206D01*
X20288690Y67217206D02*
X20272152Y67123415D01*
X20272152Y67123415D02*
X20200450Y66990997D01*
X20200450Y66990997D02*
X19538475Y66527477D01*
X19538475Y66527477D02*
X20148118Y66419980D01*
X20931409Y67297292D02*
X21025200Y67280754D01*
X21025200Y67280754D02*
X21110723Y67217320D01*
X21110723Y67217320D02*
X21149349Y67162156D01*
X21149349Y67162156D02*
X21179707Y67060095D01*
X21179707Y67060095D02*
X21193527Y66864244D01*
X21193527Y66864244D02*
X21152182Y66629766D01*
X21152182Y66629766D02*
X21072210Y66450453D01*
X21072210Y66450453D02*
X21008777Y66364930D01*
X21008777Y66364930D02*
X20953612Y66326304D01*
X20953612Y66326304D02*
X20851552Y66295946D01*
X20851552Y66295946D02*
X20757761Y66312484D01*
X20757761Y66312484D02*
X20672239Y66375917D01*
X20672239Y66375917D02*
X20633612Y66431082D01*
X20633612Y66431082D02*
X20603254Y66533142D01*
X20603254Y66533142D02*
X20589435Y66728994D01*
X20589435Y66728994D02*
X20630779Y66963472D01*
X20630779Y66963472D02*
X20710751Y67142785D01*
X20710751Y67142785D02*
X20774184Y67228307D01*
X20774184Y67228307D02*
X20829349Y67266934D01*
X20829349Y67266934D02*
X20931409Y67297292D01*
X63004027Y130061224D02*
X63177675Y131046032D01*
X63177675Y131046032D02*
X63412153Y131004687D01*
X63412153Y131004687D02*
X63544571Y130932985D01*
X63544571Y130932985D02*
X63621824Y130822656D01*
X63621824Y130822656D02*
X63652182Y130720595D01*
X63652182Y130720595D02*
X63666001Y130524744D01*
X63666001Y130524744D02*
X63641194Y130384057D01*
X63641194Y130384057D02*
X63561223Y130204744D01*
X63561223Y130204744D02*
X63497789Y130119221D01*
X63497789Y130119221D02*
X63387460Y130041968D01*
X63387460Y130041968D02*
X63238505Y130019879D01*
X63238505Y130019879D02*
X63004027Y130061224D01*
X64504686Y129796617D02*
X63941939Y129895845D01*
X64223312Y129846231D02*
X64396960Y130831039D01*
X64396960Y130831039D02*
X64278362Y130706890D01*
X64278362Y130706890D02*
X64168033Y130629637D01*
X64168033Y130629637D02*
X64065973Y130599279D01*
X65166661Y130260137D02*
X65081139Y130323571D01*
X65081139Y130323571D02*
X65042512Y130378735D01*
X65042512Y130378735D02*
X65012154Y130480795D01*
X65012154Y130480795D02*
X65020423Y130527691D01*
X65020423Y130527691D02*
X65083857Y130613213D01*
X65083857Y130613213D02*
X65139021Y130651840D01*
X65139021Y130651840D02*
X65241081Y130682198D01*
X65241081Y130682198D02*
X65428664Y130649122D01*
X65428664Y130649122D02*
X65514186Y130585688D01*
X65514186Y130585688D02*
X65552813Y130530524D01*
X65552813Y130530524D02*
X65583170Y130428464D01*
X65583170Y130428464D02*
X65574902Y130381568D01*
X65574902Y130381568D02*
X65511468Y130296046D01*
X65511468Y130296046D02*
X65456303Y130257419D01*
X65456303Y130257419D02*
X65354243Y130227061D01*
X65354243Y130227061D02*
X65166661Y130260137D01*
X65166661Y130260137D02*
X65064601Y130229780D01*
X65064601Y130229780D02*
X65009436Y130191153D01*
X65009436Y130191153D02*
X64946003Y130105631D01*
X64946003Y130105631D02*
X64912927Y129918048D01*
X64912927Y129918048D02*
X64943284Y129815988D01*
X64943284Y129815988D02*
X64981911Y129760823D01*
X64981911Y129760823D02*
X65067433Y129697390D01*
X65067433Y129697390D02*
X65255016Y129664314D01*
X65255016Y129664314D02*
X65357076Y129694672D01*
X65357076Y129694672D02*
X65412240Y129733298D01*
X65412240Y129733298D02*
X65475674Y129818821D01*
X65475674Y129818821D02*
X65508750Y130006403D01*
X65508750Y130006403D02*
X65478392Y130108463D01*
X65478392Y130108463D02*
X65439765Y130163628D01*
X65439765Y130163628D02*
X65354243Y130227061D01*
D11*
X27498845Y130692192D02*
X34687942Y129424560D01*
X27299150Y129559663D02*
X27498845Y130692192D01*
X26543780Y125275750D02*
X33732877Y124008118D01*
X60085567Y67009813D02*
X66945323Y69506560D01*
X60478890Y65929167D02*
X60085567Y67009813D01*
X61966677Y61841504D02*
X68826433Y64338251D01*
X52459886Y150084000D02*
X52459886Y142784000D01*
X51309886Y150084000D02*
X52459886Y150084000D01*
X46959886Y150084000D02*
X46959886Y142784000D01*
X66185567Y48080871D02*
X73045323Y50577618D01*
X66578890Y47000225D02*
X66185567Y48080871D01*
X68066677Y42912562D02*
X74926433Y45409309D01*
X70293430Y107742064D02*
X76273240Y103554956D01*
X69633817Y106800039D02*
X70293430Y107742064D01*
X67138760Y103236728D02*
X73118570Y99049620D01*
X38914539Y122861501D02*
X45774295Y125358248D01*
X39307862Y121780855D02*
X38914539Y122861501D01*
X40795649Y117693192D02*
X47655405Y120189939D01*
X40968430Y69857957D02*
X46948240Y65670849D01*
X40308817Y68915932D02*
X40968430Y69857957D01*
X37813760Y65352621D02*
X43793570Y61165513D01*
X94103540Y129509776D02*
X101292637Y128242144D01*
X93903845Y128377247D02*
X94103540Y129509776D01*
X93148475Y124093334D02*
X100337572Y122825702D01*
X60018935Y18092000D02*
X60018935Y25392000D01*
X61168935Y18092000D02*
X60018935Y18092000D01*
X65518935Y18092000D02*
X65518935Y25392000D01*
X82837207Y66752412D02*
X90026304Y65484780D01*
X82637512Y65619883D02*
X82837207Y66752412D01*
X81882142Y61335970D02*
X89071239Y60068338D01*
X23698845Y109311127D02*
X30887942Y108043495D01*
X23499150Y108178598D02*
X23698845Y109311127D01*
X22743780Y103894685D02*
X29932877Y102627053D01*
X45588984Y44871251D02*
X52778081Y43603619D01*
X45389289Y43738722D02*
X45588984Y44871251D01*
X44633919Y39454809D02*
X51823016Y38187177D01*
X28418430Y50851222D02*
X34398240Y46664114D01*
X27758817Y49909197D02*
X28418430Y50851222D01*
X25263760Y46345886D02*
X31243570Y42158778D01*
X56855413Y109913051D02*
X64044510Y108645419D01*
X56655718Y108780522D02*
X56855413Y109913051D01*
X55900348Y104496609D02*
X63089445Y103228977D01*
X12348845Y44902375D02*
X19537942Y43634743D01*
X12149150Y43769846D02*
X12348845Y44902375D01*
X11393780Y39485933D02*
X18582877Y38218301D01*
X90553540Y109331181D02*
X97742637Y108063549D01*
X90353845Y108198652D02*
X90553540Y109331181D01*
X89598475Y103914739D02*
X96787572Y102647107D01*
X76225121Y88311000D02*
X76225121Y81011000D01*
X75075121Y88311000D02*
X76225121Y88311000D01*
X70725121Y88311000D02*
X70725121Y81011000D01*
X81929190Y142805000D02*
X81929190Y150105000D01*
X83079190Y142805000D02*
X81929190Y142805000D01*
X87429190Y142805000D02*
X87429190Y150105000D01*
X36834621Y81011000D02*
X36834621Y88311000D01*
X37984621Y81011000D02*
X36834621Y81011000D01*
X42334621Y81011000D02*
X42334621Y88311000D01*
X79137207Y45819999D02*
X86326304Y44552367D01*
X78937512Y44687470D02*
X79137207Y45819999D01*
X78182142Y40403557D02*
X85371239Y39135925D01*
X44531289Y104545635D02*
X51391045Y107042382D01*
X44924612Y103464989D02*
X44531289Y104545635D01*
X46412399Y99377326D02*
X53272155Y101874073D01*
X105160997Y24166000D02*
X105160997Y16866000D01*
X104010997Y24166000D02*
X105160997Y24166000D01*
X99660997Y24166000D02*
X99660997Y16866000D01*
X30954165Y25392000D02*
X30954165Y18092000D01*
X29804165Y25392000D02*
X30954165Y25392000D01*
X25454165Y25392000D02*
X25454165Y18092000D01*
X82765352Y126502386D02*
X88745162Y122315278D01*
X82105739Y125560361D02*
X82765352Y126502386D01*
X79610682Y121997050D02*
X85590492Y117809942D01*
X49588984Y65673016D02*
X56778081Y64405384D01*
X49389289Y64540487D02*
X49588984Y65673016D01*
X48633919Y60256574D02*
X55823016Y58988942D01*
X16198845Y66824529D02*
X23387942Y65556897D01*
X15999150Y65692000D02*
X16198845Y66824529D01*
X15243780Y61408087D02*
X22432877Y60140455D01*
X60555413Y130201166D02*
X67744510Y128933534D01*
X60355718Y129068637D02*
X60555413Y130201166D01*
X59600348Y124784724D02*
X66789445Y123517092D01*
%LPC*%
D12*
X28480919Y129351285D03*
X28203082Y127775593D03*
X27925245Y126199901D03*
X32750803Y125349025D03*
X33028640Y126924717D03*
X33306477Y128500409D03*
D13*
X61606521Y66339591D03*
X62153753Y64836083D03*
X62700985Y63332574D03*
X67305479Y65008473D03*
X66758247Y66511981D03*
X66211015Y68015490D03*
D14*
X51309886Y148884000D03*
X49709886Y148884000D03*
X48109886Y148884000D03*
X48109886Y143984000D03*
X49709886Y143984000D03*
X51309886Y143984000D03*
D13*
X67706521Y47410649D03*
X68253753Y45907141D03*
X68800985Y44403632D03*
X73405479Y46079531D03*
X72858247Y47583039D03*
X72311015Y49086548D03*
D15*
X105300000Y156100000D03*
D16*
X70616800Y106111748D03*
X69699077Y104801104D03*
X68781355Y103490461D03*
X72795200Y100679936D03*
X73712923Y101990580D03*
X74630645Y103301223D03*
D13*
X40435493Y122191279D03*
X40982725Y120687771D03*
X41529957Y119184262D03*
X46134451Y120860161D03*
X45587219Y122363669D03*
X45039987Y123867178D03*
D16*
X41291800Y68227641D03*
X40374077Y66916997D03*
X39456355Y65606354D03*
X43470200Y62795829D03*
X44387923Y64106473D03*
X45305645Y65417116D03*
D12*
X95085614Y128168869D03*
X94807777Y126593177D03*
X94529940Y125017485D03*
X99355498Y124166609D03*
X99633335Y125742301D03*
X99911172Y127317993D03*
D14*
X61168935Y19292000D03*
X62768935Y19292000D03*
X64368935Y19292000D03*
X64368935Y24192000D03*
X62768935Y24192000D03*
X61168935Y24192000D03*
D12*
X83819281Y65411505D03*
X83541444Y63835813D03*
X83263607Y62260121D03*
X88089165Y61409245D03*
X88367002Y62984937D03*
X88644839Y64560629D03*
D15*
X9000000Y9000000D03*
X9000000Y156100000D03*
D12*
X24680919Y107970220D03*
X24403082Y106394528D03*
X24125245Y104818836D03*
X28950803Y103967960D03*
X29228640Y105543652D03*
X29506477Y107119344D03*
X46571058Y43530344D03*
X46293221Y41954652D03*
X46015384Y40378960D03*
X50840942Y39528084D03*
X51118779Y41103776D03*
X51396616Y42679468D03*
D16*
X28741800Y49220906D03*
X27824077Y47910262D03*
X26906355Y46599619D03*
X30920200Y43789094D03*
X31837923Y45099738D03*
X32755645Y46410381D03*
D12*
X57837487Y108572144D03*
X57559650Y106996452D03*
X57281813Y105420760D03*
X62107371Y104569884D03*
X62385208Y106145576D03*
X62663045Y107721268D03*
X13330919Y43561468D03*
X13053082Y41985776D03*
X12775245Y40410084D03*
X17600803Y39559208D03*
X17878640Y41134900D03*
X18156477Y42710592D03*
X91535614Y107990274D03*
X91257777Y106414582D03*
X90979940Y104838890D03*
X95805498Y103988014D03*
X96083335Y105563706D03*
X96361172Y107139398D03*
D14*
X75075121Y87111000D03*
X73475121Y87111000D03*
X71875121Y87111000D03*
X71875121Y82211000D03*
X73475121Y82211000D03*
X75075121Y82211000D03*
X83079190Y144005000D03*
X84679190Y144005000D03*
X86279190Y144005000D03*
X86279190Y148905000D03*
X84679190Y148905000D03*
X83079190Y148905000D03*
D15*
X105300000Y9000000D03*
D14*
X37984621Y82211000D03*
X39584621Y82211000D03*
X41184621Y82211000D03*
X41184621Y87111000D03*
X39584621Y87111000D03*
X37984621Y87111000D03*
D12*
X80119281Y44479092D03*
X79841444Y42903400D03*
X79563607Y41327708D03*
X84389165Y40476832D03*
X84667002Y42052524D03*
X84944839Y43628216D03*
D13*
X46052243Y103875413D03*
X46599475Y102371905D03*
X47146707Y100868396D03*
X51751201Y102544295D03*
X51203969Y104047803D03*
X50656737Y105551312D03*
D14*
X104010997Y22966000D03*
X102410997Y22966000D03*
X100810997Y22966000D03*
X100810997Y18066000D03*
X102410997Y18066000D03*
X104010997Y18066000D03*
X29804165Y24192000D03*
X28204165Y24192000D03*
X26604165Y24192000D03*
X26604165Y19292000D03*
X28204165Y19292000D03*
X29804165Y19292000D03*
D16*
X83088722Y124872070D03*
X82170999Y123561426D03*
X81253277Y122250783D03*
X85267122Y119440258D03*
X86184845Y120750902D03*
X87102567Y122061545D03*
D12*
X50571058Y64332109D03*
X50293221Y62756417D03*
X50015384Y61180725D03*
X54840942Y60329849D03*
X55118779Y61905541D03*
X55396616Y63481233D03*
X17180919Y65483622D03*
X16903082Y63907930D03*
X16625245Y62332238D03*
X21450803Y61481362D03*
X21728640Y63057054D03*
X22006477Y64632746D03*
X61537487Y128860259D03*
X61259650Y127284567D03*
X60981813Y125708875D03*
X65807371Y124857999D03*
X66085208Y126433691D03*
X66363045Y128009383D03*
D17*
X101300000Y52100000D03*
D18*
X101300000Y54640000D03*
D19*
X101300000Y57180000D03*
X13000000Y117150000D03*
D18*
X13000000Y114610000D03*
X13000000Y112070000D03*
%LPD*%
M02*
