G04 #@! TF.GenerationSoftware,KiCad,Pcbnew,7.0.2*
G04 #@! TF.CreationDate,2023-12-05T14:33:53-06:00*
G04 #@! TF.ProjectId,SixteenSegClock-Main,53697874-6565-46e5-9365-67436c6f636b,A*
G04 #@! TF.SameCoordinates,PX9fcafb8PYcb70528*
G04 #@! TF.FileFunction,Paste,Top*
G04 #@! TF.FilePolarity,Positive*
%FSLAX46Y46*%
G04 Gerber Fmt 4.6, Leading zero omitted, Abs format (unit mm)*
G04 Created by KiCad (PCBNEW 7.0.2) date 2023-12-05 14:33:53*
%MOMM*%
%LPD*%
G01*
G04 APERTURE LIST*
G04 Aperture macros list*
%AMRotRect*
0 Rectangle, with rotation*
0 The origin of the aperture is its center*
0 $1 length*
0 $2 width*
0 $3 Rotation angle, in degrees counterclockwise*
0 Add horizontal line*
21,1,$1,$2,0,0,$3*%
G04 Aperture macros list end*
%ADD10RotRect,1.500000X1.000000X350.000000*%
%ADD11RotRect,1.500000X1.000000X20.000000*%
%ADD12R,1.000000X1.500000*%
%ADD13RotRect,1.500000X1.000000X325.000000*%
G04 APERTURE END LIST*
D10*
X33300477Y128495409D03*
X33022640Y126919717D03*
X32744803Y125344025D03*
X27919245Y126194901D03*
X28197082Y127770593D03*
X28474919Y129346285D03*
D11*
X66205015Y68010490D03*
X66752247Y66506981D03*
X67299479Y65003473D03*
X62694985Y63327574D03*
X62147753Y64831083D03*
X61600521Y66334591D03*
D12*
X51303886Y143979000D03*
X49703886Y143979000D03*
X48103886Y143979000D03*
X48103886Y148879000D03*
X49703886Y148879000D03*
X51303886Y148879000D03*
D11*
X72305015Y49081548D03*
X72852247Y47578039D03*
X73399479Y46074531D03*
X68794985Y44398632D03*
X68247753Y45902141D03*
X67700521Y47405649D03*
D13*
X74624645Y103296223D03*
X73706923Y101985580D03*
X72789200Y100674936D03*
X68775355Y103485461D03*
X69693077Y104796104D03*
X70610800Y106106748D03*
D11*
X45033987Y123862178D03*
X45581219Y122358669D03*
X46128451Y120855161D03*
X41523957Y119179262D03*
X40976725Y120682771D03*
X40429493Y122186279D03*
D13*
X45299645Y65412116D03*
X44381923Y64101473D03*
X43464200Y62790829D03*
X39450355Y65601354D03*
X40368077Y66911997D03*
X41285800Y68222641D03*
D10*
X99905172Y127312993D03*
X99627335Y125737301D03*
X99349498Y124161609D03*
X94523940Y125012485D03*
X94801777Y126588177D03*
X95079614Y128163869D03*
D12*
X61162935Y24187000D03*
X62762935Y24187000D03*
X64362935Y24187000D03*
X64362935Y19287000D03*
X62762935Y19287000D03*
X61162935Y19287000D03*
D10*
X88638839Y64555629D03*
X88361002Y62979937D03*
X88083165Y61404245D03*
X83257607Y62255121D03*
X83535444Y63830813D03*
X83813281Y65406505D03*
X29500477Y107114344D03*
X29222640Y105538652D03*
X28944803Y103962960D03*
X24119245Y104813836D03*
X24397082Y106389528D03*
X24674919Y107965220D03*
X51390616Y42674468D03*
X51112779Y41098776D03*
X50834942Y39523084D03*
X46009384Y40373960D03*
X46287221Y41949652D03*
X46565058Y43525344D03*
D13*
X32749645Y46405381D03*
X31831923Y45094738D03*
X30914200Y43784094D03*
X26900355Y46594619D03*
X27818077Y47905262D03*
X28735800Y49215906D03*
D10*
X62657045Y107716268D03*
X62379208Y106140576D03*
X62101371Y104564884D03*
X57275813Y105415760D03*
X57553650Y106991452D03*
X57831487Y108567144D03*
X18150477Y42705592D03*
X17872640Y41129900D03*
X17594803Y39554208D03*
X12769245Y40405084D03*
X13047082Y41980776D03*
X13324919Y43556468D03*
X96355172Y107134398D03*
X96077335Y105558706D03*
X95799498Y103983014D03*
X90973940Y104833890D03*
X91251777Y106409582D03*
X91529614Y107985274D03*
D12*
X75069121Y82206000D03*
X73469121Y82206000D03*
X71869121Y82206000D03*
X71869121Y87106000D03*
X73469121Y87106000D03*
X75069121Y87106000D03*
X83073190Y148900000D03*
X84673190Y148900000D03*
X86273190Y148900000D03*
X86273190Y144000000D03*
X84673190Y144000000D03*
X83073190Y144000000D03*
X37978621Y87106000D03*
X39578621Y87106000D03*
X41178621Y87106000D03*
X41178621Y82206000D03*
X39578621Y82206000D03*
X37978621Y82206000D03*
D10*
X84938839Y43623216D03*
X84661002Y42047524D03*
X84383165Y40471832D03*
X79557607Y41322708D03*
X79835444Y42898400D03*
X80113281Y44474092D03*
D11*
X50650737Y105546312D03*
X51197969Y104042803D03*
X51745201Y102539295D03*
X47140707Y100863396D03*
X46593475Y102366905D03*
X46046243Y103870413D03*
D12*
X104004997Y18061000D03*
X102404997Y18061000D03*
X100804997Y18061000D03*
X100804997Y22961000D03*
X102404997Y22961000D03*
X104004997Y22961000D03*
X29798165Y19287000D03*
X28198165Y19287000D03*
X26598165Y19287000D03*
X26598165Y24187000D03*
X28198165Y24187000D03*
X29798165Y24187000D03*
D13*
X87096567Y122056545D03*
X86178845Y120745902D03*
X85261122Y119435258D03*
X81247277Y122245783D03*
X82164999Y123556426D03*
X83082722Y124867070D03*
D10*
X55390616Y63476233D03*
X55112779Y61900541D03*
X54834942Y60324849D03*
X50009384Y61175725D03*
X50287221Y62751417D03*
X50565058Y64327109D03*
X22000477Y64627746D03*
X21722640Y63052054D03*
X21444803Y61476362D03*
X16619245Y62327238D03*
X16897082Y63902930D03*
X17174919Y65478622D03*
X66357045Y128004383D03*
X66079208Y126428691D03*
X65801371Y124852999D03*
X60975813Y125703875D03*
X61253650Y127279567D03*
X61531487Y128855259D03*
M02*
