%TF.GenerationSoftware,KiCad,Pcbnew,7.0.2*%
%TF.CreationDate,2023-12-05T14:34:09-06:00*%
%TF.ProjectId,SixteenSegClock-Main,53697874-6565-46e5-9365-67436c6f636b,A*%
%TF.SameCoordinates,PX9fcafb8PYcb70528*%
%TF.FileFunction,Drillmap*%
%TF.FilePolarity,Positive*%
%FSLAX45Y45*%
G04 Gerber Fmt 4.5, Leading zero omitted, Abs format (unit mm)*
G04 Created by KiCad (PCBNEW 7.0.2) date 2023-12-05 14:34:09*
%MOMM*%
%LPD*%
G01*
G04 APERTURE LIST*
%ADD10C,0.200000*%
G04 APERTURE END LIST*
D10*
X11229400Y15609500D02*
X11229400Y909500D01*
X11229400Y15609500D02*
G75*
G03*
X10529400Y16309500I-699700J300D01*
G01*
X899400Y16309500D02*
X10529400Y16309500D01*
X10529400Y199500D02*
X899400Y199500D01*
X10529400Y199496D02*
G75*
G03*
X11229400Y909500I-4700J704704D01*
G01*
X899400Y16309500D02*
G75*
G03*
X199400Y15609500I-300J-699700D01*
G01*
X199400Y899500D02*
X199400Y15609500D01*
X199400Y899500D02*
G75*
G03*
X899400Y199500I699700J-300D01*
G01*
X437019Y-123024D02*
X437019Y76976D01*
X437019Y76976D02*
X484638Y76976D01*
X484638Y76976D02*
X513209Y67452D01*
X513209Y67452D02*
X532257Y48405D01*
X532257Y48405D02*
X541781Y29357D01*
X541781Y29357D02*
X551305Y-8738D01*
X551305Y-8738D02*
X551305Y-37310D01*
X551305Y-37310D02*
X541781Y-75405D01*
X541781Y-75405D02*
X532257Y-94452D01*
X532257Y-94452D02*
X513209Y-113500D01*
X513209Y-113500D02*
X484638Y-123024D01*
X484638Y-123024D02*
X437019Y-123024D01*
X637019Y-123024D02*
X637019Y10310D01*
X637019Y-27786D02*
X646543Y-8738D01*
X646543Y-8738D02*
X656067Y786D01*
X656067Y786D02*
X675114Y10310D01*
X675114Y10310D02*
X694162Y10310D01*
X760828Y-123024D02*
X760828Y10310D01*
X760828Y76976D02*
X751305Y67452D01*
X751305Y67452D02*
X760828Y57928D01*
X760828Y57928D02*
X770352Y67452D01*
X770352Y67452D02*
X760828Y76976D01*
X760828Y76976D02*
X760828Y57928D01*
X884638Y-123024D02*
X865590Y-113500D01*
X865590Y-113500D02*
X856066Y-94452D01*
X856066Y-94452D02*
X856066Y76976D01*
X989400Y-123024D02*
X970352Y-113500D01*
X970352Y-113500D02*
X960828Y-94452D01*
X960828Y-94452D02*
X960828Y76976D01*
X1217971Y-123024D02*
X1217971Y76976D01*
X1217971Y76976D02*
X1284638Y-65881D01*
X1284638Y-65881D02*
X1351305Y76976D01*
X1351305Y76976D02*
X1351305Y-123024D01*
X1532257Y-123024D02*
X1532257Y-18262D01*
X1532257Y-18262D02*
X1522733Y786D01*
X1522733Y786D02*
X1503686Y10310D01*
X1503686Y10310D02*
X1465590Y10310D01*
X1465590Y10310D02*
X1446543Y786D01*
X1532257Y-113500D02*
X1513209Y-123024D01*
X1513209Y-123024D02*
X1465590Y-123024D01*
X1465590Y-123024D02*
X1446543Y-113500D01*
X1446543Y-113500D02*
X1437019Y-94452D01*
X1437019Y-94452D02*
X1437019Y-75405D01*
X1437019Y-75405D02*
X1446543Y-56357D01*
X1446543Y-56357D02*
X1465590Y-46833D01*
X1465590Y-46833D02*
X1513209Y-46833D01*
X1513209Y-46833D02*
X1532257Y-37310D01*
X1627495Y10310D02*
X1627495Y-189690D01*
X1627495Y786D02*
X1646543Y10310D01*
X1646543Y10310D02*
X1684638Y10310D01*
X1684638Y10310D02*
X1703686Y786D01*
X1703686Y786D02*
X1713209Y-8738D01*
X1713209Y-8738D02*
X1722733Y-27786D01*
X1722733Y-27786D02*
X1722733Y-84929D01*
X1722733Y-84929D02*
X1713209Y-103976D01*
X1713209Y-103976D02*
X1703686Y-113500D01*
X1703686Y-113500D02*
X1684638Y-123024D01*
X1684638Y-123024D02*
X1646543Y-123024D01*
X1646543Y-123024D02*
X1627495Y-113500D01*
X1808447Y-103976D02*
X1817971Y-113500D01*
X1817971Y-113500D02*
X1808447Y-123024D01*
X1808447Y-123024D02*
X1798924Y-113500D01*
X1798924Y-113500D02*
X1808447Y-103976D01*
X1808447Y-103976D02*
X1808447Y-123024D01*
X1808447Y786D02*
X1817971Y-8738D01*
X1817971Y-8738D02*
X1808447Y-18262D01*
X1808447Y-18262D02*
X1798924Y-8738D01*
X1798924Y-8738D02*
X1808447Y786D01*
X1808447Y786D02*
X1808447Y-18262D01*
M02*
