G04 #@! TF.GenerationSoftware,KiCad,Pcbnew,7.0.2*
G04 #@! TF.CreationDate,2023-12-01T11:33:06-06:00*
G04 #@! TF.ProjectId,SixteenSegClock-Main,53697874-6565-46e5-9365-67436c6f636b,rev?*
G04 #@! TF.SameCoordinates,PX1312d00PYb0866e0*
G04 #@! TF.FileFunction,Copper,L2,Bot*
G04 #@! TF.FilePolarity,Positive*
%FSLAX46Y46*%
G04 Gerber Fmt 4.6, Leading zero omitted, Abs format (unit mm)*
G04 Created by KiCad (PCBNEW 7.0.2) date 2023-12-01 11:33:06*
%MOMM*%
%LPD*%
G01*
G04 APERTURE LIST*
G04 Aperture macros list*
%AMRoundRect*
0 Rectangle with rounded corners*
0 $1 Rounding radius*
0 $2 $3 $4 $5 $6 $7 $8 $9 X,Y pos of 4 corners*
0 Add a 4 corners polygon primitive as box body*
4,1,4,$2,$3,$4,$5,$6,$7,$8,$9,$2,$3,0*
0 Add four circle primitives for the rounded corners*
1,1,$1+$1,$2,$3*
1,1,$1+$1,$4,$5*
1,1,$1+$1,$6,$7*
1,1,$1+$1,$8,$9*
0 Add four rect primitives between the rounded corners*
20,1,$1+$1,$2,$3,$4,$5,0*
20,1,$1+$1,$4,$5,$6,$7,0*
20,1,$1+$1,$6,$7,$8,$9,0*
20,1,$1+$1,$8,$9,$2,$3,0*%
G04 Aperture macros list end*
G04 #@! TA.AperFunction,ComponentPad*
%ADD10C,7.500000*%
G04 #@! TD*
G04 #@! TA.AperFunction,SMDPad,CuDef*
%ADD11R,1.500000X2.000000*%
G04 #@! TD*
G04 #@! TA.AperFunction,SMDPad,CuDef*
%ADD12R,3.800000X2.000000*%
G04 #@! TD*
G04 #@! TA.AperFunction,ComponentPad*
%ADD13C,1.700000*%
G04 #@! TD*
G04 #@! TA.AperFunction,ComponentPad*
%ADD14O,1.700000X1.700000*%
G04 #@! TD*
G04 #@! TA.AperFunction,ComponentPad*
%ADD15R,1.700000X1.700000*%
G04 #@! TD*
G04 #@! TA.AperFunction,SMDPad,CuDef*
%ADD16RoundRect,0.237500X-0.044194X-0.380070X0.380070X0.044194X0.044194X0.380070X-0.380070X-0.044194X0*%
G04 #@! TD*
G04 #@! TA.AperFunction,SMDPad,CuDef*
%ADD17RoundRect,0.237500X0.237500X-0.300000X0.237500X0.300000X-0.237500X0.300000X-0.237500X-0.300000X0*%
G04 #@! TD*
G04 #@! TA.AperFunction,SMDPad,CuDef*
%ADD18RoundRect,0.237500X-0.372264X-0.088463X0.171520X-0.342034X0.372264X0.088463X-0.171520X0.342034X0*%
G04 #@! TD*
G04 #@! TA.AperFunction,SMDPad,CuDef*
%ADD19RoundRect,0.237500X0.190480X-0.287443X0.277304X0.204960X-0.190480X0.287443X-0.277304X-0.204960X0*%
G04 #@! TD*
G04 #@! TA.AperFunction,SMDPad,CuDef*
%ADD20RoundRect,0.237500X-0.336684X-0.181797X0.254201X-0.285986X0.336684X0.181797X-0.254201X0.285986X0*%
G04 #@! TD*
G04 #@! TA.AperFunction,SMDPad,CuDef*
%ADD21RoundRect,0.237500X-0.200678X-0.325783X0.363138X-0.120571X0.200678X0.325783X-0.363138X0.120571X0*%
G04 #@! TD*
G04 #@! TA.AperFunction,SMDPad,CuDef*
%ADD22RoundRect,0.237500X-0.120571X0.363138X-0.325783X-0.200678X0.120571X-0.363138X0.325783X0.200678X0*%
G04 #@! TD*
G04 #@! TA.AperFunction,SMDPad,CuDef*
%ADD23RoundRect,0.237500X-0.237500X0.300000X-0.237500X-0.300000X0.237500X-0.300000X0.237500X0.300000X0*%
G04 #@! TD*
G04 #@! TA.AperFunction,SMDPad,CuDef*
%ADD24RoundRect,0.237500X-0.381970X-0.022476X0.109521X-0.366622X0.381970X0.022476X-0.109521X0.366622X0*%
G04 #@! TD*
G04 #@! TA.AperFunction,SMDPad,CuDef*
%ADD25RoundRect,0.237500X-0.300000X-0.237500X0.300000X-0.237500X0.300000X0.237500X-0.300000X0.237500X0*%
G04 #@! TD*
G04 #@! TA.AperFunction,ViaPad*
%ADD26C,1.000000*%
G04 #@! TD*
G04 #@! TA.AperFunction,ViaPad*
%ADD27C,0.800000*%
G04 #@! TD*
G04 #@! TA.AperFunction,Conductor*
%ADD28C,1.000000*%
G04 #@! TD*
G04 #@! TA.AperFunction,Conductor*
%ADD29C,1.500000*%
G04 #@! TD*
G04 #@! TA.AperFunction,Conductor*
%ADD30C,1.750000*%
G04 #@! TD*
G04 APERTURE END LIST*
D10*
X105300000Y156100000D03*
X9000000Y9000000D03*
X9000000Y156100000D03*
X105300000Y9000000D03*
D11*
X14006000Y130905000D03*
X11706000Y130905000D03*
D12*
X11706000Y137205000D03*
D11*
X9406000Y130905000D03*
D13*
X101300000Y52100000D03*
D14*
X101300000Y54640000D03*
D15*
X101300000Y57180000D03*
D16*
X20321120Y136295120D03*
X21540880Y137514880D03*
D17*
X79656000Y144755000D03*
X79656000Y146480000D03*
D18*
X77049310Y112719508D03*
X78612690Y111990492D03*
D19*
X17766546Y120251363D03*
X18083454Y122048637D03*
D20*
X62956603Y116454772D03*
X64655397Y116155228D03*
D21*
X68520515Y56535008D03*
X70141485Y57124992D03*
D20*
X85107206Y52754544D03*
X86806000Y52455000D03*
D17*
X44656000Y83342500D03*
X44656000Y85067500D03*
D22*
X100875992Y24145485D03*
X100286008Y22524515D03*
D20*
X26006603Y117204772D03*
X27705397Y116905228D03*
D23*
X68281000Y85255000D03*
X68281000Y83530000D03*
D21*
X43645515Y111510008D03*
X45266485Y112099992D03*
D24*
X33949481Y57499710D03*
X35362519Y56510290D03*
D20*
X96481603Y115879772D03*
X98180397Y115580228D03*
D17*
X57706000Y20267500D03*
X57706000Y21992500D03*
D15*
X13000000Y117150000D03*
D14*
X13000000Y114610000D03*
X13000000Y112070000D03*
D20*
X14731603Y52954772D03*
X16430397Y52655228D03*
D23*
X33281000Y21917500D03*
X33281000Y20192500D03*
X54731000Y146530000D03*
X54731000Y144805000D03*
D20*
X51656603Y51729772D03*
X53355397Y51430228D03*
D25*
X11518500Y125880000D03*
X13243500Y125880000D03*
D26*
X84681000Y141631810D03*
X49706000Y146505000D03*
X44856000Y101755000D03*
X39548353Y80391736D03*
X11254748Y42345437D03*
X52057250Y62414570D03*
X81656000Y42555000D03*
X15034345Y64267497D03*
X63855999Y65430002D03*
X38834597Y68040180D03*
X102416000Y25158192D03*
X80634598Y124640188D03*
X22354752Y106795432D03*
X71352403Y103594815D03*
X93157256Y106039559D03*
X26229750Y128145433D03*
X59426792Y106601309D03*
X39281000Y120080000D03*
X73448352Y85291734D03*
X62781000Y17158620D03*
X96657256Y126239559D03*
X63201792Y126876309D03*
X85332254Y63489560D03*
X70006001Y46504999D03*
X48057251Y41614566D03*
X28206000Y22005000D03*
X26309597Y48990187D03*
X68481007Y67104996D03*
X29191000Y87165000D03*
X90132254Y62639560D03*
X84684598Y121840188D03*
X74631000Y48205000D03*
X53601000Y73735000D03*
X48871000Y137865000D03*
X27404752Y105920432D03*
X52907253Y40739562D03*
D27*
X21525000Y128700000D03*
D26*
X19859345Y63392497D03*
X56907254Y61564560D03*
X39548353Y85116736D03*
X35131000Y91465000D03*
X43906000Y121780000D03*
X64176792Y105776309D03*
X68991000Y99005000D03*
X86456000Y41705000D03*
X30259597Y46215187D03*
X68131000Y126005000D03*
X62781000Y22006810D03*
X100811000Y20515993D03*
X73448352Y80566734D03*
X31279750Y127270433D03*
X28206000Y17158620D03*
X75256000Y100880000D03*
X49481000Y103455000D03*
X101432256Y125389559D03*
X42784597Y65265180D03*
X70981000Y30455000D03*
X16079748Y41470437D03*
X67431000Y37855000D03*
X49706000Y141658620D03*
X84681000Y146480000D03*
X97907256Y105214559D03*
D27*
X19450000Y129250000D03*
D26*
X73171000Y31545000D03*
X69491000Y38855000D03*
X50981000Y75030000D03*
X66706000Y100480000D03*
X29131000Y89455000D03*
X35181000Y89355000D03*
D28*
X85332254Y63489560D02*
X81656000Y42555000D01*
X15034345Y64267497D02*
X18807028Y68040180D01*
X38834597Y79677980D02*
X39548353Y80391736D01*
X26006603Y117204772D02*
X24293987Y117480000D01*
X14731603Y52954772D02*
X13122742Y53180000D01*
X63201792Y126876309D02*
X59426792Y106601309D01*
D29*
X17170183Y137205000D02*
X19100592Y135274592D01*
D28*
X28231001Y21979999D02*
X33256000Y21980000D01*
X28206000Y22005000D02*
X28206000Y41155000D01*
X43645515Y111510008D02*
X42072303Y110905000D01*
X39281000Y120080000D02*
X44856000Y101755000D01*
X80634598Y124640188D02*
X91015945Y133489945D01*
X70006001Y46504999D02*
X63855999Y65430002D01*
X28206000Y41155000D02*
X27746434Y41614566D01*
D29*
X19100592Y135274592D02*
X26229750Y128145433D01*
D28*
X38834597Y68040180D02*
X38834597Y79677980D01*
X96657256Y126239559D02*
X94901268Y116105000D01*
X73431000Y85280000D02*
X68406000Y85280000D01*
X20321120Y136295120D02*
X19300592Y135274592D01*
X49231000Y100205000D02*
X59426792Y106601309D01*
D29*
X11706000Y137205000D02*
X17170183Y137205000D01*
D28*
X85332254Y63489560D02*
X78706000Y81955000D01*
X22354752Y106795432D02*
X26229750Y128145433D01*
X26229750Y128145433D02*
X29364317Y131280000D01*
X62781000Y17156810D02*
X57756000Y20280000D01*
X52057250Y62414570D02*
X48057251Y41614566D01*
X18807028Y68040180D02*
X38834597Y68040180D01*
X77049310Y112719508D02*
X75641526Y113319474D01*
X68520515Y56535008D02*
X66935062Y55955000D01*
X54731000Y146530000D02*
X65531000Y146505000D01*
X85107206Y52754544D02*
X83504263Y53080000D01*
X15034345Y64267497D02*
X11254748Y42345437D01*
X51656603Y51729772D02*
X50060218Y52030000D01*
X94901268Y116105000D02*
X93157256Y106039559D01*
X62956603Y116454772D02*
X61312652Y116730000D01*
X29364317Y131280000D02*
X44589317Y146505000D01*
X63201792Y126876309D02*
X65531000Y146505000D01*
X65531000Y146505000D02*
X79656000Y144755000D01*
X48057251Y41614566D02*
X53456000Y21155000D01*
X63855999Y65430002D02*
X55072682Y65430002D01*
X46656000Y99955000D02*
X49231000Y100205000D01*
X93157256Y106039559D02*
X73448352Y85291734D01*
X96481603Y115879772D02*
X94901268Y116105000D01*
X33949481Y57499710D02*
X32541838Y58469162D01*
X44589317Y146505000D02*
X49706000Y146505000D01*
X100875992Y24145485D02*
X81656000Y42555000D01*
X102416000Y25158192D02*
X100875992Y24145485D01*
X81656000Y42555000D02*
X70006001Y46504999D01*
X49706000Y146530000D02*
X54730999Y146530001D01*
X53456000Y21155000D02*
X57706000Y20267500D01*
X26309597Y43051403D02*
X26309597Y48990187D01*
X44856000Y101755000D02*
X46656000Y99955000D01*
X19300592Y135274592D02*
X19100592Y135274592D01*
X39548353Y80391736D02*
X44581000Y83380000D01*
X80634598Y124640188D02*
X71352403Y103594815D01*
X78706000Y81955000D02*
X73448352Y85291734D01*
X55072682Y65430002D02*
X52057250Y62414570D01*
X38834597Y68040180D02*
X26309597Y48990187D01*
D29*
X11706000Y130905000D02*
X11706000Y137205000D01*
D28*
X84681000Y141631810D02*
X96657256Y126239559D01*
X27746434Y41614566D02*
X26309597Y43051403D01*
X84681000Y141631810D02*
X79656000Y144755000D01*
X48057251Y41614566D02*
X27746434Y41614566D01*
X56907254Y61564560D02*
X52907253Y40739562D01*
X27705397Y116905228D02*
X29348036Y116605000D01*
X28231001Y17108619D02*
X33256001Y20254999D01*
X39556000Y85105000D02*
X44580999Y85105001D01*
X100811000Y20515993D02*
X100286008Y22524515D01*
X49706000Y141658620D02*
X54731000Y144805000D01*
X53355397Y51430228D02*
X54903016Y51130000D01*
X64655397Y116155228D02*
X66142040Y115830000D01*
X78612690Y111990492D02*
X79979795Y111381205D01*
X84684598Y121840188D02*
X75256000Y100880000D01*
X90132254Y62639560D02*
X86456000Y41705000D01*
X68481007Y67104996D02*
X74631000Y48205000D01*
X19859345Y63392497D02*
X16079748Y41470437D01*
X86806000Y52455000D02*
X88282312Y52105000D01*
X43906000Y121780000D02*
X49481000Y103455000D01*
X62781000Y22005000D02*
X57756000Y22005000D01*
X35362519Y56510290D02*
X36531506Y55754494D01*
X16430397Y52655228D02*
X17952053Y52330000D01*
X98180397Y115580228D02*
X99670270Y115305000D01*
X68131000Y126005000D02*
X64176792Y105776309D01*
X42784597Y65265180D02*
X30259597Y46215187D01*
X97907256Y105214559D02*
X101432256Y125389559D01*
X27406000Y105905000D02*
X31280998Y127255001D01*
X70141485Y57124992D02*
X71572273Y57605000D01*
X84681000Y146480000D02*
X79656000Y146480000D01*
X45266485Y112099992D02*
X46689697Y112630000D01*
X73431000Y80431810D02*
X68406000Y83555000D01*
X11518500Y125880000D02*
X9181000Y125880000D01*
D30*
X12975000Y117150000D02*
X8750000Y117150000D01*
X101325000Y57180000D02*
X105620000Y57180000D01*
D28*
X18083454Y122048637D02*
X19450000Y129250000D01*
X73171000Y31545000D02*
X69491000Y38855000D01*
X50981000Y75030000D02*
X66706000Y100480000D01*
X29131000Y89355000D02*
X35181000Y89355000D01*
X16400000Y114610000D02*
X13000000Y114610000D01*
X17766546Y120251363D02*
X16400000Y114610000D01*
G04 #@! TA.AperFunction,Conductor*
G36*
X105302152Y163099424D02*
G01*
X105594458Y163089104D01*
X105800103Y163081493D01*
X105808673Y163080875D01*
X106078189Y163052000D01*
X106308819Y163026100D01*
X106316930Y163024916D01*
X106579009Y162977721D01*
X106746148Y162946153D01*
X106812080Y162933700D01*
X106819691Y162932013D01*
X107075922Y162866694D01*
X107307283Y162804771D01*
X107314272Y162802676D01*
X107547873Y162724992D01*
X107564250Y162719545D01*
X107791652Y162640036D01*
X107798119Y162637569D01*
X108040993Y162537029D01*
X108262710Y162440348D01*
X108268562Y162437611D01*
X108502228Y162320697D01*
X108504577Y162319489D01*
X108717866Y162206807D01*
X108723132Y162203857D01*
X108947562Y162070737D01*
X108950228Y162069110D01*
X109154677Y161940681D01*
X109159403Y161937559D01*
X109273193Y161858570D01*
X109373593Y161788875D01*
X109376508Y161786788D01*
X109425808Y161750409D01*
X109570899Y161643345D01*
X109575010Y161640176D01*
X109680378Y161555275D01*
X109777965Y161476643D01*
X109781044Y161474079D01*
X109964221Y161316455D01*
X109967835Y161313220D01*
X110158528Y161135687D01*
X110161715Y161132611D01*
X110332609Y160961717D01*
X110335685Y160958530D01*
X110513218Y160767837D01*
X110516453Y160764223D01*
X110674077Y160581046D01*
X110676641Y160577967D01*
X110742530Y160496195D01*
X110840164Y160375024D01*
X110843355Y160370887D01*
X110858974Y160349720D01*
X110986786Y160176510D01*
X110988873Y160173595D01*
X111137549Y159959417D01*
X111140688Y159954666D01*
X111269098Y159750246D01*
X111270746Y159747546D01*
X111354163Y159606911D01*
X111379583Y159564054D01*
X111403835Y159523168D01*
X111406825Y159517832D01*
X111519464Y159304623D01*
X111520717Y159302185D01*
X111637593Y159068596D01*
X111640364Y159062674D01*
X111737029Y158840992D01*
X111837560Y158598138D01*
X111840036Y158591646D01*
X111919543Y158364251D01*
X112002663Y158114307D01*
X112004781Y158107244D01*
X112066704Y157875882D01*
X112132011Y157619696D01*
X112133699Y157612082D01*
X112177725Y157378982D01*
X112224912Y157116942D01*
X112226100Y157108807D01*
X112252000Y156878185D01*
X112280872Y156608700D01*
X112281492Y156600078D01*
X112289120Y156393978D01*
X112299423Y156102151D01*
X112299500Y156097776D01*
X112299500Y9142900D01*
X112299165Y9141761D01*
X112299481Y9102248D01*
X112299436Y9097762D01*
X112291588Y8819506D01*
X112284871Y8595553D01*
X112284312Y8586936D01*
X112258113Y8324859D01*
X112232662Y8082755D01*
X112231532Y8074610D01*
X112186913Y7816342D01*
X112143133Y7575183D01*
X112141500Y7567557D01*
X112078666Y7313557D01*
X112016767Y7075543D01*
X112014699Y7068464D01*
X111933941Y6819739D01*
X111854244Y6586499D01*
X111851812Y6579986D01*
X111753503Y6337652D01*
X111656421Y6110633D01*
X111653697Y6104702D01*
X111538944Y5871231D01*
X111537708Y5868784D01*
X111424392Y5650560D01*
X111421440Y5645203D01*
X111290342Y5420564D01*
X111288713Y5417852D01*
X111159357Y5208648D01*
X111156253Y5203876D01*
X111009530Y4989274D01*
X111007463Y4986343D01*
X110862782Y4787336D01*
X110859592Y4783139D01*
X110697916Y4579547D01*
X110695373Y4576449D01*
X110536215Y4388812D01*
X110533005Y4385175D01*
X110357235Y4193672D01*
X110354183Y4190463D01*
X110181445Y4015256D01*
X110178280Y4012158D01*
X109989272Y3833671D01*
X109985680Y3830410D01*
X109800316Y3668602D01*
X109797255Y3666016D01*
X109595988Y3501476D01*
X109591837Y3498227D01*
X109394918Y3350749D01*
X109392017Y3348641D01*
X109179488Y3198865D01*
X109174759Y3195693D01*
X108967410Y3063382D01*
X108964723Y3061714D01*
X108742006Y2927464D01*
X108736691Y2924437D01*
X108520059Y2808014D01*
X108517630Y2806743D01*
X108285824Y2688696D01*
X108279922Y2685884D01*
X108054283Y2585582D01*
X107813416Y2483865D01*
X107806942Y2481343D01*
X107574800Y2398322D01*
X107327281Y2314055D01*
X107320234Y2311888D01*
X107083062Y2246603D01*
X106830044Y2180188D01*
X106822444Y2178447D01*
X106581853Y2131234D01*
X106324318Y2082969D01*
X106316191Y2081723D01*
X106074545Y2052848D01*
X105812798Y2022925D01*
X105804181Y2022244D01*
X105569076Y2011871D01*
X105303599Y2000611D01*
X105298345Y2000500D01*
X9002227Y2000500D01*
X8997852Y2000577D01*
X8706022Y2010880D01*
X8499922Y2018508D01*
X8491299Y2019129D01*
X8221817Y2048000D01*
X7991193Y2073900D01*
X7983057Y2075088D01*
X7721018Y2122275D01*
X7487918Y2166302D01*
X7480304Y2167990D01*
X7224120Y2233296D01*
X7063114Y2276388D01*
X6992750Y2295220D01*
X6985691Y2297337D01*
X6735749Y2380456D01*
X6508356Y2459962D01*
X6501861Y2462440D01*
X6259008Y2562971D01*
X6037320Y2659639D01*
X6031409Y2662404D01*
X5797815Y2779282D01*
X5795377Y2780536D01*
X5582168Y2893175D01*
X5576841Y2896160D01*
X5389625Y3007206D01*
X5352454Y3029254D01*
X5349754Y3030902D01*
X5145334Y3159312D01*
X5140583Y3162451D01*
X4926405Y3311127D01*
X4923490Y3313214D01*
X4806614Y3399457D01*
X4729113Y3456645D01*
X4724976Y3459836D01*
X4609628Y3552778D01*
X4522033Y3623359D01*
X4518954Y3625923D01*
X4335777Y3783547D01*
X4332163Y3786782D01*
X4141470Y3964315D01*
X4138283Y3967391D01*
X3967389Y4138285D01*
X3964313Y4141472D01*
X3786780Y4332165D01*
X3783545Y4335779D01*
X3625921Y4518956D01*
X3623357Y4522035D01*
X3557470Y4603805D01*
X3459824Y4724990D01*
X3456655Y4729101D01*
X3313212Y4923492D01*
X3311125Y4926407D01*
X3170780Y5128584D01*
X3162441Y5140597D01*
X3159310Y5145336D01*
X3119539Y5208648D01*
X3030890Y5349772D01*
X3029252Y5352456D01*
X2990463Y5417852D01*
X2896143Y5576868D01*
X2893193Y5582134D01*
X2780512Y5795422D01*
X2779281Y5797817D01*
X2662405Y6031406D01*
X2659654Y6037284D01*
X2562971Y6259007D01*
X2462436Y6501869D01*
X2459961Y6508356D01*
X2380455Y6735750D01*
X2297335Y6985695D01*
X2295223Y6992738D01*
X2233306Y7224078D01*
X2167981Y7480333D01*
X2166304Y7487895D01*
X2122279Y7720991D01*
X2075084Y7983070D01*
X2073900Y7991181D01*
X2047992Y8221882D01*
X2019125Y8491325D01*
X2018507Y8499897D01*
X2010896Y8705542D01*
X2000604Y8997062D01*
X4745321Y8997062D01*
X4764307Y8598491D01*
X4764865Y8592642D01*
X4821650Y8197697D01*
X4822767Y8191899D01*
X4916834Y7804152D01*
X4918499Y7798481D01*
X5048995Y7421437D01*
X5051189Y7415958D01*
X5216939Y7053014D01*
X5219641Y7047773D01*
X5419138Y6702234D01*
X5422336Y6697259D01*
X5653773Y6372250D01*
X5657414Y6367620D01*
X5822986Y6176542D01*
X7313103Y7666659D01*
X7425031Y7529082D01*
X7639990Y7328324D01*
X7664544Y7310992D01*
X6174929Y5821377D01*
X6211553Y5786456D01*
X6215999Y5782603D01*
X6529654Y5535943D01*
X6534443Y5532533D01*
X6870109Y5316814D01*
X6875204Y5313872D01*
X7229859Y5131035D01*
X7235226Y5128584D01*
X7605654Y4980287D01*
X7611211Y4978364D01*
X7994051Y4865951D01*
X7999791Y4864559D01*
X8391574Y4789049D01*
X8397410Y4788209D01*
X8794612Y4750281D01*
X8800502Y4750000D01*
X9199498Y4750000D01*
X9205387Y4750281D01*
X9602589Y4788209D01*
X9608425Y4789049D01*
X10000208Y4864559D01*
X10005948Y4865951D01*
X10388788Y4978364D01*
X10394345Y4980287D01*
X10764773Y5128584D01*
X10770140Y5131035D01*
X11124787Y5313868D01*
X11129895Y5316817D01*
X11465555Y5532533D01*
X11470350Y5535947D01*
X11784001Y5782604D01*
X11788445Y5786455D01*
X11825070Y5821377D01*
X10335455Y7310992D01*
X10360010Y7328324D01*
X10574969Y7529082D01*
X10686895Y7666658D01*
X12177012Y6176542D01*
X12342589Y6367626D01*
X12346225Y6372249D01*
X12577663Y6697259D01*
X12580861Y6702234D01*
X12780358Y7047773D01*
X12783060Y7053014D01*
X12948810Y7415958D01*
X12951004Y7421437D01*
X13081500Y7798481D01*
X13083165Y7804152D01*
X13177232Y8191899D01*
X13178349Y8197697D01*
X13235134Y8592642D01*
X13235692Y8598491D01*
X13254679Y8997062D01*
X13254679Y9002939D01*
X13235692Y9401510D01*
X13235134Y9407359D01*
X13178349Y9802304D01*
X13177232Y9808102D01*
X13083165Y10195849D01*
X13081500Y10201520D01*
X12951004Y10578564D01*
X12948810Y10584043D01*
X12783060Y10946987D01*
X12780358Y10952228D01*
X12580861Y11297767D01*
X12577663Y11302742D01*
X12346226Y11627751D01*
X12342585Y11632381D01*
X12177012Y11823460D01*
X10686895Y10333343D01*
X10574969Y10470918D01*
X10360010Y10671676D01*
X10335453Y10689010D01*
X11825069Y12178625D01*
X11788446Y12213545D01*
X11784000Y12217398D01*
X11470350Y12464054D01*
X11465555Y12467468D01*
X11129895Y12683184D01*
X11124787Y12686133D01*
X10770140Y12868966D01*
X10764773Y12871417D01*
X10394345Y13019714D01*
X10388788Y13021637D01*
X10005948Y13134050D01*
X10000208Y13135442D01*
X9608425Y13210952D01*
X9602589Y13211792D01*
X9205387Y13249720D01*
X9199498Y13250000D01*
X8800502Y13250000D01*
X8794612Y13249720D01*
X8397410Y13211792D01*
X8391574Y13210952D01*
X7999791Y13135442D01*
X7994051Y13134050D01*
X7611211Y13021637D01*
X7605654Y13019714D01*
X7235226Y12871417D01*
X7229859Y12868966D01*
X6875204Y12686129D01*
X6870109Y12683187D01*
X6534443Y12467468D01*
X6529654Y12464058D01*
X6216000Y12217399D01*
X6211552Y12213544D01*
X6174929Y12178625D01*
X7664545Y10689009D01*
X7639990Y10671676D01*
X7425031Y10470918D01*
X7313104Y10333342D01*
X5822985Y11823461D01*
X5657414Y11632382D01*
X5653773Y11627751D01*
X5422336Y11302742D01*
X5419138Y11297767D01*
X5219641Y10952228D01*
X5216939Y10946987D01*
X5051189Y10584043D01*
X5048995Y10578564D01*
X4918499Y10201520D01*
X4916834Y10195849D01*
X4822767Y9808102D01*
X4821650Y9802304D01*
X4764865Y9407359D01*
X4764307Y9401510D01*
X4745321Y9002939D01*
X4745321Y8997062D01*
X2000604Y8997062D01*
X2000576Y8997849D01*
X2000500Y9002221D01*
X2000500Y18847871D01*
X3925500Y18847871D01*
X3926085Y18843643D01*
X3926086Y18843634D01*
X3943928Y18714762D01*
X3944514Y18710532D01*
X3945669Y18706439D01*
X3945672Y18706427D01*
X3961659Y18649799D01*
X3962820Y18645688D01*
X3964533Y18641776D01*
X4018431Y18518684D01*
X4110358Y18408001D01*
X4162194Y18361152D01*
X4281582Y18280850D01*
X23601098Y8964934D01*
X23710918Y8911979D01*
X23817870Y8874509D01*
X23871728Y8862202D01*
X23984336Y8849500D01*
X23987823Y8849500D01*
X80273641Y8849500D01*
X80275718Y8849500D01*
X80343145Y8854017D01*
X80375926Y8858429D01*
X80442133Y8871896D01*
X80574069Y8929292D01*
X80633520Y8965999D01*
X80633523Y8966001D01*
X80670705Y8997062D01*
X101045321Y8997062D01*
X101064307Y8598491D01*
X101064865Y8592642D01*
X101121650Y8197697D01*
X101122767Y8191899D01*
X101216834Y7804152D01*
X101218499Y7798481D01*
X101348995Y7421437D01*
X101351189Y7415958D01*
X101516939Y7053014D01*
X101519641Y7047773D01*
X101719138Y6702234D01*
X101722336Y6697259D01*
X101953773Y6372250D01*
X101957414Y6367620D01*
X102122986Y6176542D01*
X103613103Y7666659D01*
X103725031Y7529082D01*
X103939990Y7328324D01*
X103964544Y7310992D01*
X102474929Y5821377D01*
X102511553Y5786456D01*
X102515999Y5782603D01*
X102829654Y5535943D01*
X102834443Y5532533D01*
X103170109Y5316814D01*
X103175204Y5313872D01*
X103529859Y5131035D01*
X103535226Y5128584D01*
X103905654Y4980287D01*
X103911211Y4978364D01*
X104294051Y4865951D01*
X104299791Y4864559D01*
X104691574Y4789049D01*
X104697410Y4788209D01*
X105094612Y4750281D01*
X105100502Y4750000D01*
X105499498Y4750000D01*
X105505387Y4750281D01*
X105902589Y4788209D01*
X105908425Y4789049D01*
X106300208Y4864559D01*
X106305948Y4865951D01*
X106688788Y4978364D01*
X106694345Y4980287D01*
X107064773Y5128584D01*
X107070140Y5131035D01*
X107424787Y5313868D01*
X107429895Y5316817D01*
X107765555Y5532533D01*
X107770350Y5535947D01*
X108084001Y5782604D01*
X108088445Y5786455D01*
X108125070Y5821377D01*
X106635455Y7310992D01*
X106660010Y7328324D01*
X106874969Y7529082D01*
X106986895Y7666658D01*
X108477012Y6176542D01*
X108642589Y6367626D01*
X108646225Y6372249D01*
X108877663Y6697259D01*
X108880861Y6702234D01*
X109080358Y7047773D01*
X109083060Y7053014D01*
X109248810Y7415958D01*
X109251004Y7421437D01*
X109381500Y7798481D01*
X109383165Y7804152D01*
X109477232Y8191899D01*
X109478349Y8197697D01*
X109535134Y8592642D01*
X109535692Y8598491D01*
X109554679Y8997062D01*
X109554679Y9002939D01*
X109535692Y9401510D01*
X109535134Y9407359D01*
X109478349Y9802304D01*
X109477232Y9808102D01*
X109383165Y10195849D01*
X109381500Y10201520D01*
X109251004Y10578564D01*
X109248810Y10584043D01*
X109083060Y10946987D01*
X109080358Y10952228D01*
X108880861Y11297767D01*
X108877663Y11302742D01*
X108646226Y11627751D01*
X108642585Y11632381D01*
X108477012Y11823460D01*
X106986895Y10333343D01*
X106874969Y10470918D01*
X106660010Y10671676D01*
X106635453Y10689010D01*
X108125069Y12178625D01*
X108088446Y12213545D01*
X108084000Y12217398D01*
X107770350Y12464054D01*
X107765555Y12467468D01*
X107429895Y12683184D01*
X107424787Y12686133D01*
X107070140Y12868966D01*
X107064773Y12871417D01*
X106694345Y13019714D01*
X106688788Y13021637D01*
X106305948Y13134050D01*
X106300208Y13135442D01*
X105908425Y13210952D01*
X105902589Y13211792D01*
X105505387Y13249720D01*
X105499498Y13250000D01*
X105100502Y13250000D01*
X105094612Y13249720D01*
X104697410Y13211792D01*
X104691574Y13210952D01*
X104299791Y13135442D01*
X104294051Y13134050D01*
X103911211Y13021637D01*
X103905654Y13019714D01*
X103535226Y12871417D01*
X103529859Y12868966D01*
X103175204Y12686129D01*
X103170109Y12683187D01*
X102834443Y12467468D01*
X102829654Y12464058D01*
X102516000Y12217399D01*
X102511552Y12213544D01*
X102474929Y12178625D01*
X103964545Y10689009D01*
X103939990Y10671676D01*
X103725031Y10470918D01*
X103613104Y10333342D01*
X102122985Y11823461D01*
X101957414Y11632382D01*
X101953773Y11627751D01*
X101722336Y11302742D01*
X101719138Y11297767D01*
X101519641Y10952228D01*
X101516939Y10946987D01*
X101351189Y10584043D01*
X101348995Y10578564D01*
X101218499Y10201520D01*
X101216834Y10195849D01*
X101122767Y9808102D01*
X101121650Y9802304D01*
X101064865Y9407359D01*
X101064307Y9401510D01*
X101045321Y9002939D01*
X101045321Y8997062D01*
X80670705Y8997062D01*
X80743944Y9058245D01*
X85394055Y14232986D01*
X85453505Y14269692D01*
X85486458Y14274104D01*
X106360502Y14244592D01*
X106455734Y14253506D01*
X106501622Y14262240D01*
X106593456Y14288928D01*
X106718293Y14360463D01*
X106763577Y14395838D01*
X106769795Y14399766D01*
X106872979Y14507282D01*
X106872978Y14507282D01*
X106872982Y14507285D01*
X110293557Y19278010D01*
X110301033Y19288727D01*
X110301037Y19288734D01*
X110301081Y19288796D01*
X110304722Y19294163D01*
X110311803Y19304898D01*
X110311802Y19304898D01*
X110311809Y19304907D01*
X110371474Y19435833D01*
X110391105Y19502889D01*
X110391105Y19502890D01*
X110391105Y19502893D01*
X110391932Y19505716D01*
X110392350Y19511606D01*
X110411467Y19645322D01*
X110381722Y56702272D01*
X110379876Y56745026D01*
X110378085Y56765926D01*
X110372629Y56808375D01*
X110372629Y56808377D01*
X110328331Y56945263D01*
X110299196Y57004698D01*
X110297576Y57008004D01*
X110290685Y57022061D01*
X110282874Y57029558D01*
X110216504Y57126870D01*
X109062211Y58387546D01*
X108936016Y58525372D01*
X108936010Y58525379D01*
X108934677Y58526834D01*
X108930859Y58530499D01*
X108889166Y58570524D01*
X108889161Y58570528D01*
X108887723Y58571909D01*
X108886207Y58573188D01*
X108886193Y58573200D01*
X108864882Y58591170D01*
X108863363Y58592451D01*
X108861781Y58593620D01*
X108861755Y58593640D01*
X108811006Y58631122D01*
X108680155Y58690962D01*
X108610258Y58711524D01*
X108604322Y58711950D01*
X108552787Y58719387D01*
X108470724Y58731229D01*
X108451340Y58731240D01*
X102776302Y58734181D01*
X102776299Y58734181D01*
X102772151Y58734183D01*
X102768042Y58733632D01*
X102768039Y58733631D01*
X102642379Y58716755D01*
X102642365Y58716753D01*
X102638261Y58716201D01*
X102634258Y58715104D01*
X102634249Y58715102D01*
X102578925Y58699938D01*
X102578911Y58699934D01*
X102574919Y58698839D01*
X102571104Y58697220D01*
X102571095Y58697216D01*
X102450577Y58646043D01*
X102372301Y58582954D01*
X102307752Y58556211D01*
X102294488Y58555500D01*
X101266572Y58555500D01*
X101263956Y58555278D01*
X101263947Y58555277D01*
X101091703Y58540617D01*
X101091699Y58540617D01*
X101091699Y58540616D01*
X101068205Y58534500D01*
X101036968Y58530500D01*
X100405439Y58530500D01*
X100405420Y58530500D01*
X100402128Y58530499D01*
X100398848Y58530147D01*
X100398840Y58530146D01*
X100342515Y58524091D01*
X100207669Y58473796D01*
X100092454Y58387546D01*
X100006204Y58272332D01*
X99955909Y58137484D01*
X99951914Y58100321D01*
X99949500Y58077873D01*
X99949500Y58074552D01*
X99949500Y58074551D01*
X99949500Y57275621D01*
X99948496Y57259874D01*
X99945770Y57238589D01*
X99949388Y57153427D01*
X99949500Y57148165D01*
X99949500Y56285440D01*
X99949500Y56285422D01*
X99949501Y56282128D01*
X99949853Y56278848D01*
X99949854Y56278841D01*
X99954173Y56238668D01*
X99955909Y56222517D01*
X100006204Y56087669D01*
X100092454Y55972454D01*
X100207669Y55886204D01*
X100319907Y55844342D01*
X100339082Y55837190D01*
X100395016Y55795319D01*
X100419433Y55729854D01*
X100404581Y55661581D01*
X100383431Y55633327D01*
X100261503Y55511399D01*
X100125965Y55317830D01*
X100026097Y55103664D01*
X99964936Y54875408D01*
X99944340Y54640001D01*
X99964936Y54404593D01*
X100009709Y54237499D01*
X100026097Y54176337D01*
X100125965Y53962170D01*
X100261505Y53768599D01*
X100428599Y53601505D01*
X100614596Y53471268D01*
X100658219Y53416693D01*
X100665412Y53347194D01*
X100633890Y53284840D01*
X100614594Y53268119D01*
X100538626Y53214927D01*
X101167466Y52586087D01*
X101157685Y52584680D01*
X101026900Y52524952D01*
X100918239Y52430798D01*
X100840507Y52309844D01*
X100816923Y52229524D01*
X100185072Y52861375D01*
X100126399Y52777578D01*
X100026569Y52563493D01*
X99965430Y52335319D01*
X99944842Y52100000D01*
X99965430Y51864682D01*
X100026569Y51636508D01*
X100126400Y51422420D01*
X100185073Y51338627D01*
X100816922Y51970477D01*
X100840507Y51890156D01*
X100918239Y51769202D01*
X101026900Y51675048D01*
X101157685Y51615320D01*
X101167466Y51613914D01*
X100538625Y50985075D01*
X100622420Y50926401D01*
X100836507Y50826570D01*
X101064681Y50765431D01*
X101300000Y50744843D01*
X101535318Y50765431D01*
X101763492Y50826570D01*
X101977576Y50926400D01*
X102061373Y50985075D01*
X101432533Y51613914D01*
X101442315Y51615320D01*
X101573100Y51675048D01*
X101681761Y51769202D01*
X101759493Y51890156D01*
X101783076Y51970475D01*
X102414925Y51338627D01*
X102473600Y51422424D01*
X102573430Y51636508D01*
X102634569Y51864682D01*
X102655157Y52100000D01*
X102634569Y52335319D01*
X102573430Y52563493D01*
X102473599Y52777579D01*
X102414926Y52861374D01*
X102414925Y52861375D01*
X101783076Y52229527D01*
X101759493Y52309844D01*
X101681761Y52430798D01*
X101573100Y52524952D01*
X101442315Y52584680D01*
X101432533Y52586087D01*
X102061373Y53214927D01*
X102061373Y53214928D01*
X101985405Y53268120D01*
X101941780Y53322696D01*
X101934586Y53392195D01*
X101966108Y53454549D01*
X101985399Y53471266D01*
X102171401Y53601505D01*
X102338495Y53768599D01*
X102474035Y53962170D01*
X102573903Y54176337D01*
X102635063Y54404592D01*
X102655659Y54640000D01*
X102635063Y54875408D01*
X102573903Y55103663D01*
X102474035Y55317829D01*
X102338495Y55511401D01*
X102338493Y55511403D01*
X102336840Y55513764D01*
X102314513Y55579970D01*
X102331523Y55647737D01*
X102382471Y55695550D01*
X102451181Y55708228D01*
X102489921Y55697684D01*
X102562228Y55664662D01*
X102618654Y55648094D01*
X102625031Y55645586D01*
X102629268Y55644977D01*
X102629270Y55644976D01*
X102771686Y55624500D01*
X103654084Y55624504D01*
X104346082Y55621882D01*
X104413044Y55601944D01*
X104458599Y55548967D01*
X104469610Y55497905D01*
X104475464Y22429264D01*
X104455791Y22362221D01*
X104452872Y22357881D01*
X102380647Y19413139D01*
X102325968Y19369642D01*
X102279239Y19360500D01*
X81434122Y19360500D01*
X81432311Y19360393D01*
X81432277Y19360391D01*
X81375892Y19357027D01*
X81375886Y19357027D01*
X81374034Y19356916D01*
X81372220Y19356699D01*
X81372188Y19356696D01*
X81346583Y19353630D01*
X81346571Y19353629D01*
X81344765Y19353412D01*
X81342986Y19353091D01*
X81342955Y19353086D01*
X81285543Y19342715D01*
X81151978Y19289201D01*
X81091481Y19254250D01*
X81091478Y19254249D01*
X80978406Y19165275D01*
X77151091Y15148956D01*
X77090592Y15114004D01*
X77061323Y15110500D01*
X24386414Y15110500D01*
X24328704Y15124748D01*
X22366312Y16156616D01*
X16475277Y19254250D01*
X15166373Y19942500D01*
X32306001Y19942500D01*
X32306001Y19846503D01*
X32306321Y19840221D01*
X32316318Y19742350D01*
X32370546Y19578699D01*
X32461056Y19431960D01*
X32582959Y19310057D01*
X32729698Y19219547D01*
X32893348Y19165319D01*
X32991203Y19155322D01*
X32997519Y19155001D01*
X33031000Y19155001D01*
X33031000Y19942500D01*
X33531000Y19942500D01*
X33531000Y19155001D01*
X33564497Y19155001D01*
X33570779Y19155322D01*
X33668650Y19165319D01*
X33832301Y19219547D01*
X33979040Y19310057D01*
X34100943Y19431960D01*
X34191453Y19578699D01*
X34245681Y19742349D01*
X34255680Y19840223D01*
X34256000Y19846501D01*
X34256000Y19942500D01*
X33531000Y19942500D01*
X33031000Y19942500D01*
X32306001Y19942500D01*
X15166373Y19942500D01*
X9892100Y22715827D01*
X9841925Y22764450D01*
X9825810Y22825354D01*
X9825774Y22844943D01*
X9796500Y38975000D01*
X9796500Y84124858D01*
X9796836Y85317500D01*
X43681000Y85317500D01*
X44405999Y85317500D01*
X44405999Y86105000D01*
X44906000Y86105000D01*
X44906000Y85317500D01*
X45630999Y85317500D01*
X45630999Y85413498D01*
X45630678Y85419780D01*
X45620681Y85517651D01*
X45566453Y85681302D01*
X45475943Y85828041D01*
X45354040Y85949944D01*
X45207301Y86040454D01*
X45043651Y86094682D01*
X44945777Y86104681D01*
X44939500Y86105000D01*
X44906000Y86105000D01*
X44405999Y86105000D01*
X44372504Y86105000D01*
X44366219Y86104679D01*
X44268349Y86094682D01*
X44104698Y86040454D01*
X43957959Y85949944D01*
X43836056Y85828041D01*
X43745546Y85681302D01*
X43691318Y85517652D01*
X43681319Y85419778D01*
X43681000Y85413500D01*
X43681000Y85317500D01*
X9796836Y85317500D01*
X9798000Y89455000D01*
X28125659Y89455000D01*
X28130446Y89406384D01*
X28130884Y89387954D01*
X28126631Y89304065D01*
X28157443Y89102929D01*
X28228113Y88912114D01*
X28335745Y88739432D01*
X28335748Y88739429D01*
X28475941Y88591947D01*
X28642951Y88475705D01*
X28829942Y88395460D01*
X29029259Y88354500D01*
X35125756Y88354500D01*
X35137909Y88353904D01*
X35181000Y88349659D01*
X35228896Y88354377D01*
X35230558Y88354500D01*
X35231742Y88354500D01*
X35280663Y88359475D01*
X35377132Y88368976D01*
X35377135Y88368978D01*
X35381907Y88369447D01*
X35383431Y88369926D01*
X35383438Y88369926D01*
X35475992Y88398966D01*
X35565727Y88426186D01*
X35565729Y88426188D01*
X35571689Y88427995D01*
X35574855Y88429325D01*
X35577584Y88430840D01*
X35577588Y88430841D01*
X35659648Y88476388D01*
X35739538Y88519090D01*
X35739538Y88519091D01*
X35741972Y88520391D01*
X35755480Y88529573D01*
X35755499Y88529590D01*
X35755502Y88529591D01*
X35823286Y88587784D01*
X35825304Y88589479D01*
X35891883Y88644117D01*
X35892108Y88644392D01*
X35907191Y88659814D01*
X35909895Y88662134D01*
X35962410Y88729979D01*
X35964535Y88732646D01*
X36016910Y88796462D01*
X36018765Y88799935D01*
X36030072Y88817391D01*
X36034448Y88823042D01*
X36070648Y88896845D01*
X36072581Y88900619D01*
X36109814Y88970273D01*
X36111999Y88977481D01*
X36119333Y88996095D01*
X36124060Y89005729D01*
X36143767Y89081844D01*
X36145133Y89086705D01*
X36167024Y89158868D01*
X36168114Y89169941D01*
X36171471Y89188846D01*
X36175063Y89202715D01*
X36178864Y89277682D01*
X36179296Y89283480D01*
X36186341Y89355000D01*
X36184899Y89369632D01*
X36184462Y89388058D01*
X36185369Y89405936D01*
X36174544Y89476593D01*
X36173714Y89483199D01*
X36167024Y89551131D01*
X36167024Y89551132D01*
X36161715Y89568633D01*
X36157809Y89585833D01*
X36154556Y89607071D01*
X36130963Y89670771D01*
X36128598Y89677800D01*
X36109814Y89739727D01*
X36099512Y89759000D01*
X36092587Y89774391D01*
X36083886Y89797887D01*
X36049836Y89852516D01*
X36045739Y89859603D01*
X36016910Y89913538D01*
X36000776Y89933197D01*
X35991400Y89946268D01*
X35976252Y89970571D01*
X35934373Y90014627D01*
X35928392Y90021396D01*
X35891882Y90065884D01*
X35869458Y90084288D01*
X35858254Y90094705D01*
X35836058Y90118054D01*
X35789104Y90150736D01*
X35781280Y90156655D01*
X35739543Y90190907D01*
X35739539Y90190910D01*
X35739538Y90190910D01*
X35710793Y90206275D01*
X35698423Y90213850D01*
X35669050Y90234294D01*
X35669051Y90234294D01*
X35669049Y90234295D01*
X35619745Y90255454D01*
X35610213Y90260037D01*
X35565728Y90283814D01*
X35531131Y90294309D01*
X35518228Y90299018D01*
X35482058Y90314540D01*
X35482056Y90314541D01*
X35482055Y90314541D01*
X35433014Y90324620D01*
X35421984Y90327420D01*
X35377134Y90341024D01*
X35337592Y90344919D01*
X35324789Y90346860D01*
X35282742Y90355500D01*
X35282741Y90355500D01*
X35236244Y90355500D01*
X35224090Y90356097D01*
X35181000Y90360341D01*
X35137910Y90356097D01*
X35125756Y90355500D01*
X29599758Y90355500D01*
X29541306Y90370142D01*
X29530619Y90375854D01*
X29515726Y90383815D01*
X29327133Y90441024D01*
X29229066Y90450683D01*
X29131000Y90460341D01*
X29130999Y90460341D01*
X28934866Y90441024D01*
X28746273Y90383815D01*
X28572463Y90290911D01*
X28420117Y90165883D01*
X28295089Y90013537D01*
X28202185Y89839727D01*
X28144976Y89651134D01*
X28125659Y89455000D01*
X9798000Y89455000D01*
X9805321Y115471200D01*
X9825024Y115538233D01*
X9877841Y115583973D01*
X9929187Y115595164D01*
X11528724Y115596846D01*
X11662179Y115614926D01*
X11725317Y115632282D01*
X11813656Y115669826D01*
X11883053Y115677931D01*
X11945816Y115647230D01*
X11982018Y115587471D01*
X11980165Y115517625D01*
X11963731Y115484581D01*
X11825965Y115287830D01*
X11726097Y115073664D01*
X11664936Y114845408D01*
X11644340Y114610000D01*
X11664936Y114374593D01*
X11692295Y114272489D01*
X11726097Y114146337D01*
X11825965Y113932170D01*
X11961505Y113738599D01*
X12128599Y113571505D01*
X12314596Y113441268D01*
X12358219Y113386693D01*
X12365412Y113317194D01*
X12333890Y113254840D01*
X12314595Y113238120D01*
X12128919Y113108108D01*
X11961890Y112941079D01*
X11826400Y112747579D01*
X11726569Y112533493D01*
X11669364Y112320001D01*
X11669364Y112320000D01*
X12566314Y112320000D01*
X12540507Y112279844D01*
X12500000Y112141889D01*
X12500000Y111998111D01*
X12540507Y111860156D01*
X12566314Y111820000D01*
X11669364Y111820000D01*
X11726569Y111606508D01*
X11826399Y111392424D01*
X11961893Y111198919D01*
X12128918Y111031894D01*
X12322423Y110896400D01*
X12536509Y110796570D01*
X12750000Y110739366D01*
X12749999Y111634499D01*
X12857685Y111585320D01*
X12964237Y111570000D01*
X13035763Y111570000D01*
X13142315Y111585320D01*
X13250000Y111634499D01*
X13250000Y110739367D01*
X13463490Y110796570D01*
X13677576Y110896400D01*
X13871081Y111031894D01*
X14038106Y111198919D01*
X14173600Y111392424D01*
X14273430Y111606508D01*
X14330636Y111820000D01*
X13433686Y111820000D01*
X13459493Y111860156D01*
X13500000Y111998111D01*
X13500000Y112141889D01*
X13459493Y112279844D01*
X13433686Y112320000D01*
X14330636Y112320000D01*
X14330635Y112320001D01*
X14273430Y112533493D01*
X14173599Y112747579D01*
X14038109Y112941079D01*
X13871081Y113108107D01*
X13685404Y113238120D01*
X13641780Y113292697D01*
X13634587Y113362196D01*
X13666109Y113424550D01*
X13685399Y113441266D01*
X13871401Y113571505D01*
X13873077Y113573181D01*
X13876334Y113574960D01*
X13880288Y113577728D01*
X13880596Y113577288D01*
X13934400Y113606666D01*
X13960758Y113609500D01*
X16351819Y113609500D01*
X16362426Y113609046D01*
X16415783Y113604464D01*
X16509013Y113615426D01*
X16602438Y113624926D01*
X16602443Y113624928D01*
X16605603Y113625249D01*
X16614852Y113627225D01*
X16617871Y113628225D01*
X16617874Y113628225D01*
X16676832Y113647745D01*
X16707031Y113657743D01*
X16799625Y113686794D01*
X16808296Y113690597D01*
X16811039Y113692177D01*
X16811044Y113692178D01*
X16865405Y113723478D01*
X16892456Y113739052D01*
X16930859Y113760368D01*
X16974502Y113784591D01*
X16974504Y113784593D01*
X16977288Y113786138D01*
X16985002Y113791597D01*
X16987384Y113793709D01*
X16987386Y113793709D01*
X17057662Y113855983D01*
X17128895Y113917134D01*
X17128898Y113917139D01*
X17131316Y113919214D01*
X17137766Y113926106D01*
X17142310Y113932170D01*
X17195971Y114003790D01*
X17253448Y114078042D01*
X17253450Y114078047D01*
X17255398Y114080563D01*
X17260336Y114088625D01*
X17301709Y114176431D01*
X17343060Y114260729D01*
X17343061Y114260736D01*
X17344459Y114263584D01*
X17347678Y114272489D01*
X17370524Y114366799D01*
X17383430Y114416649D01*
X17394063Y114457715D01*
X17394063Y114457719D01*
X17394857Y114460785D01*
X17397200Y114476930D01*
X18750870Y120065133D01*
X18771591Y120216197D01*
X18766919Y120286478D01*
X18768529Y120316227D01*
X18779176Y120376600D01*
X18786560Y120477935D01*
X18761556Y120648633D01*
X18729865Y120728403D01*
X18697861Y120808963D01*
X18605414Y120940992D01*
X18583087Y121007198D01*
X18600097Y121074965D01*
X18635866Y121113690D01*
X18637172Y121114605D01*
X18767893Y121206136D01*
X18882583Y121335012D01*
X18964462Y121486864D01*
X18992182Y121584611D01*
X19003179Y121646983D01*
X19010611Y121672602D01*
X19047444Y121762151D01*
X20442419Y129113324D01*
X20455545Y129265237D01*
X20431894Y129467339D01*
X20368045Y129660545D01*
X20366684Y129662911D01*
X20266611Y129836939D01*
X20266610Y129836941D01*
X20131744Y129989309D01*
X19968967Y130111410D01*
X19784943Y130198243D01*
X19587207Y130246256D01*
X19574145Y130246721D01*
X19383855Y130253483D01*
X19183204Y130219626D01*
X18993484Y130146073D01*
X18822450Y130035835D01*
X18677113Y129893427D01*
X18563410Y129724671D01*
X18486010Y129536487D01*
X17091619Y122188395D01*
X17091616Y122188379D01*
X17091035Y122185313D01*
X17090765Y122182196D01*
X17090765Y122182191D01*
X17077909Y122033400D01*
X17080708Y122009480D01*
X17079664Y121973539D01*
X17071372Y121926510D01*
X17070824Y121923400D01*
X17070596Y121920276D01*
X17070594Y121920257D01*
X17063440Y121822067D01*
X17088444Y121651365D01*
X17152138Y121491038D01*
X17244585Y121359009D01*
X17266912Y121292803D01*
X17249902Y121225036D01*
X17214134Y121186311D01*
X17082106Y121093864D01*
X16967417Y120964989D01*
X16940954Y120915910D01*
X16885538Y120813136D01*
X16871795Y120764675D01*
X16860605Y120725215D01*
X16857818Y120715389D01*
X16857272Y120712296D01*
X16857271Y120712289D01*
X16847917Y120659242D01*
X16837974Y120627926D01*
X16827401Y120605486D01*
X16818121Y120585790D01*
X15641595Y115728868D01*
X15635888Y115705307D01*
X15600973Y115644786D01*
X15538882Y115612749D01*
X15515373Y115610500D01*
X14120858Y115610500D01*
X14053819Y115630185D01*
X14008064Y115682989D01*
X13998120Y115752147D01*
X14027145Y115815703D01*
X14077521Y115850681D01*
X14092331Y115856204D01*
X14207546Y115942454D01*
X14293796Y116057669D01*
X14344091Y116192517D01*
X14350500Y116252127D01*
X14350499Y117054383D01*
X14351504Y117070135D01*
X14354229Y117091411D01*
X14350611Y117176575D01*
X14350499Y117181838D01*
X14350499Y118044561D01*
X14350499Y118047872D01*
X14344091Y118107483D01*
X14293796Y118242331D01*
X14207546Y118357546D01*
X14092331Y118443796D01*
X13957483Y118494091D01*
X13897873Y118500500D01*
X13894551Y118500500D01*
X13248425Y118500500D01*
X13227469Y118502284D01*
X13092074Y118525500D01*
X13092072Y118525500D01*
X12005637Y118525500D01*
X11938598Y118545185D01*
X11924488Y118555741D01*
X11868234Y118604434D01*
X11868233Y118604435D01*
X11737323Y118664138D01*
X11680930Y118680665D01*
X11674534Y118683178D01*
X11527849Y118704191D01*
X10835563Y118703831D01*
X10768514Y118723481D01*
X10722731Y118776261D01*
X10711499Y118827831D01*
X10711499Y124755500D01*
X10731184Y124822539D01*
X10783988Y124868294D01*
X10835499Y124879500D01*
X11566100Y124879500D01*
X11569242Y124879500D01*
X11720938Y124894926D01*
X11733330Y124898815D01*
X11770451Y124904501D01*
X11864527Y124904501D01*
X11867676Y124904501D01*
X11968753Y124914826D01*
X12132516Y124969092D01*
X12279350Y125059660D01*
X12293669Y125073980D01*
X12354992Y125107467D01*
X12424684Y125102484D01*
X12469034Y125073982D01*
X12482959Y125060057D01*
X12629698Y124969547D01*
X12793348Y124915319D01*
X12891222Y124905320D01*
X12897500Y124905001D01*
X12993500Y124905002D01*
X12993500Y125630000D01*
X13493500Y125630000D01*
X13493500Y124905001D01*
X13589497Y124905001D01*
X13595779Y124905322D01*
X13693650Y124915319D01*
X13857301Y124969547D01*
X14004040Y125060057D01*
X14125943Y125181960D01*
X14216453Y125328699D01*
X14270681Y125492349D01*
X14280680Y125590223D01*
X14281000Y125596501D01*
X14281000Y125630000D01*
X13493500Y125630000D01*
X12993500Y125630000D01*
X12993500Y126855000D01*
X13493500Y126855000D01*
X13493500Y126130000D01*
X14280999Y126130000D01*
X14280999Y126163498D01*
X14280678Y126169780D01*
X14270681Y126267651D01*
X14216453Y126431302D01*
X14125943Y126578041D01*
X14004040Y126699944D01*
X13857301Y126790454D01*
X13693651Y126844682D01*
X13595777Y126854681D01*
X13589500Y126855000D01*
X13493500Y126855000D01*
X12993500Y126855000D01*
X12993500Y126855001D01*
X12897504Y126855000D01*
X12891219Y126854679D01*
X12793349Y126844682D01*
X12629698Y126790454D01*
X12482958Y126699943D01*
X12469032Y126686017D01*
X12407709Y126652533D01*
X12338017Y126657519D01*
X12293672Y126686019D01*
X12279352Y126700339D01*
X12132515Y126790909D01*
X11968753Y126845175D01*
X11870809Y126855181D01*
X11870790Y126855182D01*
X11867677Y126855500D01*
X11864528Y126855500D01*
X11754506Y126855500D01*
X11729546Y126858038D01*
X11620241Y126880500D01*
X10835499Y126880500D01*
X10768460Y126900185D01*
X10722705Y126952989D01*
X10711499Y127004500D01*
X10711499Y129277669D01*
X10711499Y129281000D01*
X10711444Y129281508D01*
X10727384Y129348984D01*
X10777660Y129397503D01*
X10846186Y129411139D01*
X10848397Y129410922D01*
X10848516Y129410910D01*
X10848517Y129410909D01*
X10908127Y129404500D01*
X12503872Y129404501D01*
X12563483Y129410909D01*
X12698331Y129461204D01*
X12782107Y129523920D01*
X12847568Y129548336D01*
X12915841Y129533485D01*
X12930727Y129523919D01*
X13013911Y129461648D01*
X13148628Y129411401D01*
X13204867Y129405355D01*
X13211482Y129405000D01*
X13756000Y129405000D01*
X13756000Y130655000D01*
X14256000Y130655000D01*
X14256000Y129405000D01*
X14800518Y129405000D01*
X14807132Y129405355D01*
X14863371Y129411401D01*
X14998089Y129461648D01*
X15113188Y129547812D01*
X15199352Y129662911D01*
X15249599Y129797629D01*
X15255645Y129853868D01*
X15256000Y129860482D01*
X15256000Y130655000D01*
X14256000Y130655000D01*
X13756000Y130655000D01*
X13756000Y132405000D01*
X14256000Y132405000D01*
X14256000Y131155000D01*
X15256000Y131155000D01*
X15256000Y131949519D01*
X15255645Y131956133D01*
X15249599Y132012372D01*
X15199352Y132147090D01*
X15113188Y132262189D01*
X14998089Y132348353D01*
X14863371Y132398600D01*
X14807132Y132404646D01*
X14800518Y132405000D01*
X14256000Y132405000D01*
X13756000Y132405000D01*
X13211482Y132405000D01*
X13204867Y132404646D01*
X13148624Y132398599D01*
X13123832Y132389352D01*
X13054141Y132384368D01*
X12992818Y132417854D01*
X12959334Y132479177D01*
X12956500Y132505534D01*
X12956500Y135580501D01*
X12976185Y135647540D01*
X13028989Y135693295D01*
X13080500Y135704501D01*
X13650561Y135704501D01*
X13653872Y135704501D01*
X13713483Y135710909D01*
X13848331Y135761204D01*
X13963546Y135847454D01*
X13970142Y135856267D01*
X14006485Y135904811D01*
X14062419Y135946682D01*
X14105751Y135954500D01*
X16600846Y135954500D01*
X16667885Y135934815D01*
X16688527Y135918181D01*
X18136772Y134469938D01*
X25051517Y127555192D01*
X25085002Y127493869D01*
X25085843Y127445367D01*
X23312632Y117675547D01*
X23311901Y117671843D01*
X23294259Y117589073D01*
X23294225Y117584391D01*
X23292235Y117563165D01*
X21381890Y107037777D01*
X21378544Y107023928D01*
X21368728Y106991568D01*
X21363555Y106939049D01*
X21362162Y106929078D01*
X21361833Y106927267D01*
X21361830Y106927251D01*
X21361273Y106924176D01*
X21358088Y106883537D01*
X21349411Y106795432D01*
X21349412Y106795419D01*
X21349340Y106794686D01*
X21349542Y106774483D01*
X21349360Y106772167D01*
X21360157Y106685874D01*
X21360519Y106682636D01*
X21368727Y106599303D01*
X21368728Y106599300D01*
X21369514Y106596709D01*
X21373894Y106576109D01*
X21374626Y106570254D01*
X21401421Y106491296D01*
X21402658Y106487444D01*
X21425937Y106410706D01*
X21428903Y106405156D01*
X21436963Y106386561D01*
X21440014Y106377570D01*
X21480360Y106308689D01*
X21482721Y106304471D01*
X21494583Y106282279D01*
X21518842Y106236894D01*
X21525047Y106229333D01*
X21525107Y106229260D01*
X21536249Y106213268D01*
X21542856Y106201987D01*
X21593851Y106145293D01*
X21597510Y106141035D01*
X21643865Y106084553D01*
X21643867Y106084552D01*
X21643869Y106084549D01*
X21654270Y106076014D01*
X21667790Y106063092D01*
X21678935Y106050701D01*
X21737467Y106007523D01*
X21742475Y106003626D01*
X21796214Y105959522D01*
X21811238Y105951492D01*
X21826394Y105941922D01*
X21842683Y105929905D01*
X21905444Y105900901D01*
X21911852Y105897712D01*
X21970025Y105866618D01*
X21989752Y105860634D01*
X22005770Y105854538D01*
X22027394Y105844544D01*
X22091248Y105829579D01*
X22098926Y105827517D01*
X22158620Y105809408D01*
X22182705Y105807036D01*
X22198826Y105804366D01*
X22225508Y105798112D01*
X22287490Y105796406D01*
X22296211Y105795857D01*
X22354752Y105790091D01*
X22382392Y105792815D01*
X22397961Y105793364D01*
X22428912Y105792511D01*
X22486465Y105802697D01*
X22495906Y105803995D01*
X22550884Y105809408D01*
X22580883Y105818509D01*
X22595252Y105821948D01*
X22629281Y105827968D01*
X22671044Y105844544D01*
X22680291Y105848214D01*
X22690026Y105851617D01*
X22739479Y105866618D01*
X22770272Y105883079D01*
X22782963Y105888966D01*
X22818411Y105903034D01*
X22861321Y105931181D01*
X22870868Y105936848D01*
X22913290Y105959522D01*
X22943033Y105983933D01*
X22953689Y105991765D01*
X22977733Y106007536D01*
X22988558Y106014636D01*
X23022392Y106048323D01*
X23031211Y106056300D01*
X23065635Y106084549D01*
X23065636Y106084551D01*
X23065638Y106084552D01*
X23092314Y106117058D01*
X23100682Y106126271D01*
X23132756Y106158203D01*
X23157145Y106195034D01*
X23164666Y106205220D01*
X23190662Y106236894D01*
X23212184Y106277161D01*
X23218126Y106287121D01*
X23245104Y106327858D01*
X23260248Y106365533D01*
X23265930Y106377713D01*
X23283566Y106410705D01*
X23297851Y106457802D01*
X23301451Y106468030D01*
X23321000Y106516656D01*
X23327611Y106553088D01*
X23330956Y106566930D01*
X23340776Y106599300D01*
X23345948Y106651826D01*
X23347338Y106661781D01*
X25024360Y115901630D01*
X27782291Y115901630D01*
X27876813Y115884963D01*
X27883090Y115884183D01*
X27981192Y115877036D01*
X28151776Y115902022D01*
X28311999Y115965675D01*
X28453222Y116064560D01*
X28567836Y116193350D01*
X28649658Y116345099D01*
X28676496Y116439732D01*
X28677906Y116445879D01*
X28683721Y116478868D01*
X27908186Y116615616D01*
X27782291Y115901630D01*
X25024360Y115901630D01*
X25081606Y116217038D01*
X25112945Y116279482D01*
X25173072Y116315071D01*
X25223283Y116317320D01*
X25897952Y116208896D01*
X26050174Y116200056D01*
X26050556Y116200111D01*
X26089973Y116199525D01*
X26181081Y116183459D01*
X26282415Y116176076D01*
X26453113Y116201080D01*
X26613443Y116264775D01*
X26630033Y116276392D01*
X26696237Y116298720D01*
X26764004Y116281711D01*
X26802731Y116245943D01*
X26814029Y116229808D01*
X26942821Y116115194D01*
X27094572Y116033371D01*
X27189206Y116006532D01*
X27195358Y116005121D01*
X27289887Y115988453D01*
X27438139Y116829222D01*
X27487305Y117108059D01*
X27994776Y117108059D01*
X28770545Y116971271D01*
X28770545Y116971272D01*
X28776362Y117004253D01*
X28777139Y117010510D01*
X28784287Y117108620D01*
X28759300Y117279207D01*
X28695649Y117439426D01*
X28596764Y117580649D01*
X28467972Y117695263D01*
X28316221Y117777086D01*
X28221580Y117803927D01*
X28215440Y117805335D01*
X28120904Y117822005D01*
X28013078Y117210486D01*
X28002023Y117188181D01*
X27995482Y117113415D01*
X27994776Y117108059D01*
X27487305Y117108059D01*
X27628501Y117908827D01*
X27533965Y117925496D01*
X27527719Y117926272D01*
X27429601Y117933421D01*
X27259017Y117908435D01*
X27098794Y117844782D01*
X27082659Y117833484D01*
X27016452Y117811158D01*
X26948685Y117828171D01*
X26909964Y117863937D01*
X26898345Y117880530D01*
X26769470Y117995218D01*
X26617615Y118077098D01*
X26522921Y118103953D01*
X26522910Y118103956D01*
X26519869Y118104818D01*
X26516756Y118105367D01*
X26516747Y118105369D01*
X26409891Y118124211D01*
X26387508Y118130364D01*
X26298834Y118163946D01*
X26265804Y118176454D01*
X26116191Y118200498D01*
X25585648Y118285760D01*
X25522581Y118315832D01*
X25485784Y118375227D01*
X25483316Y118430329D01*
X27072720Y127187443D01*
X27104060Y127249888D01*
X27111070Y127256825D01*
X27156498Y127298347D01*
X27292858Y127477437D01*
X27395049Y127677998D01*
X27459786Y127893582D01*
X27463431Y127925938D01*
X27490496Y127990348D01*
X27498960Y127999724D01*
X29989626Y130490391D01*
X29989631Y130490394D01*
X29999834Y130500598D01*
X29999836Y130500598D01*
X44054238Y144555000D01*
X53756001Y144555000D01*
X53756001Y144459003D01*
X53756321Y144452721D01*
X53766318Y144354850D01*
X53820546Y144191199D01*
X53911056Y144044460D01*
X54032959Y143922557D01*
X54179698Y143832047D01*
X54343348Y143777819D01*
X54441203Y143767822D01*
X54447519Y143767501D01*
X54481000Y143767501D01*
X54481000Y144555000D01*
X54981000Y144555000D01*
X54981000Y143767501D01*
X55014497Y143767501D01*
X55020779Y143767822D01*
X55118650Y143777819D01*
X55282301Y143832047D01*
X55429040Y143922557D01*
X55550943Y144044460D01*
X55641453Y144191199D01*
X55695681Y144354849D01*
X55705680Y144452723D01*
X55706000Y144459001D01*
X55706000Y144555000D01*
X54981000Y144555000D01*
X54481000Y144555000D01*
X53756001Y144555000D01*
X44054238Y144555000D01*
X44967419Y145468181D01*
X45028742Y145501666D01*
X45055100Y145504500D01*
X49650756Y145504500D01*
X49662909Y145503904D01*
X49706000Y145499659D01*
X49753896Y145504377D01*
X49755558Y145504500D01*
X49756742Y145504500D01*
X49805663Y145509475D01*
X49902132Y145518976D01*
X49902134Y145518977D01*
X49906909Y145519447D01*
X49908434Y145519926D01*
X49908438Y145519926D01*
X49920825Y145523814D01*
X49957950Y145529501D01*
X53685509Y145529501D01*
X53752548Y145509816D01*
X53798303Y145457012D01*
X53808247Y145387854D01*
X53803215Y145366497D01*
X53766318Y145255152D01*
X53756319Y145157278D01*
X53756000Y145151000D01*
X53756000Y145055000D01*
X55705999Y145055000D01*
X55705999Y145150998D01*
X55705678Y145157280D01*
X55695681Y145255151D01*
X55659588Y145364072D01*
X55657186Y145433900D01*
X55692918Y145493942D01*
X55755438Y145525135D01*
X55777571Y145527076D01*
X64265809Y145507427D01*
X64332801Y145487587D01*
X64378433Y145434677D01*
X64388656Y145368815D01*
X62219979Y127092956D01*
X62215838Y127073168D01*
X62210843Y127022462D01*
X62209346Y127011923D01*
X60332398Y116931091D01*
X60331597Y116927146D01*
X60313658Y116845604D01*
X60313577Y116839791D01*
X60311494Y116818824D01*
X58533445Y107269162D01*
X58501822Y107206858D01*
X58477437Y107186818D01*
X48924101Y101193554D01*
X48870187Y101175175D01*
X47087725Y101002120D01*
X47019097Y101015235D01*
X46988064Y101037857D01*
X45762289Y102263631D01*
X45731340Y102315220D01*
X45643993Y102602329D01*
X43334084Y110194989D01*
X43333404Y110264853D01*
X43370605Y110323996D01*
X43408202Y110346812D01*
X44051996Y110594395D01*
X44188046Y110663243D01*
X44188049Y110663247D01*
X44194796Y110666660D01*
X44221213Y110681441D01*
X44307273Y110712764D01*
X44398723Y110757037D01*
X44534050Y110864040D01*
X44641053Y110999367D01*
X44649612Y111017723D01*
X44695782Y111070161D01*
X44762975Y111089315D01*
X44814399Y111077701D01*
X44832252Y111069376D01*
X45001088Y111034514D01*
X45173423Y111039529D01*
X45268811Y111063606D01*
X45274828Y111065455D01*
X45365030Y111098287D01*
X45054824Y111950574D01*
X45586912Y111950574D01*
X45834876Y111269299D01*
X45925078Y111302129D01*
X45930883Y111304583D01*
X46019431Y111347451D01*
X46154664Y111454379D01*
X46261595Y111589615D01*
X46334454Y111745865D01*
X46369317Y111914704D01*
X46364303Y112087037D01*
X46340224Y112182431D01*
X46338378Y112188436D01*
X46326920Y112219915D01*
X46326919Y112219915D01*
X45586912Y111950574D01*
X45054824Y111950574D01*
X44953535Y112228865D01*
X44953535Y112228866D01*
X44698093Y112930688D01*
X44607904Y112897861D01*
X44602076Y112895397D01*
X44513538Y112852534D01*
X44378307Y112745607D01*
X44271374Y112610370D01*
X44263049Y112592516D01*
X44216875Y112540078D01*
X44149681Y112520928D01*
X44098263Y112532542D01*
X44079905Y112541103D01*
X43910955Y112575987D01*
X43910952Y112575987D01*
X43807483Y112572977D01*
X43738503Y112570970D01*
X43643057Y112546878D01*
X43643046Y112546875D01*
X43639993Y112546104D01*
X43637030Y112545026D01*
X43637015Y112545021D01*
X43535494Y112508071D01*
X43513387Y112502266D01*
X43381355Y112480354D01*
X42840944Y112272530D01*
X42771307Y112266840D01*
X42709648Y112299702D01*
X42677806Y112352175D01*
X42449779Y113101698D01*
X45167938Y113101698D01*
X45415903Y112420421D01*
X46155909Y112689761D01*
X46144457Y112721225D01*
X46141996Y112727046D01*
X46099135Y112815581D01*
X45992204Y112950817D01*
X45856967Y113057748D01*
X45700717Y113130609D01*
X45531881Y113165471D01*
X45359546Y113160456D01*
X45264176Y113136383D01*
X45258127Y113134524D01*
X45167939Y113101699D01*
X45167938Y113101698D01*
X42449779Y113101698D01*
X40238375Y120370574D01*
X40209814Y120464727D01*
X40188346Y120504890D01*
X40183336Y120515430D01*
X40164505Y120560386D01*
X40164505Y120560387D01*
X40141542Y120593998D01*
X40134580Y120605479D01*
X40116910Y120638538D01*
X40085757Y120676497D01*
X40079233Y120685199D01*
X40049718Y120728402D01*
X40023036Y120754210D01*
X40013391Y120764675D01*
X39991882Y120790884D01*
X39951174Y120824292D01*
X39943628Y120831018D01*
X39903458Y120869873D01*
X39875143Y120887866D01*
X39862982Y120896670D01*
X39839537Y120915911D01*
X39789947Y120942417D01*
X39781898Y120947116D01*
X39731718Y120979002D01*
X39703707Y120989654D01*
X39689332Y120996197D01*
X39665726Y121008815D01*
X39608509Y121026172D01*
X39600434Y121028928D01*
X39559059Y121044661D01*
X39541524Y121051329D01*
X39515472Y121055553D01*
X39499322Y121059293D01*
X39477132Y121066025D01*
X39414065Y121072236D01*
X39406378Y121073237D01*
X39340666Y121083890D01*
X39317863Y121082932D01*
X39300510Y121083420D01*
X39281000Y121085342D01*
X39214392Y121078781D01*
X39207442Y121078293D01*
X39137358Y121075349D01*
X39118702Y121070692D01*
X39100834Y121067598D01*
X39084868Y121066025D01*
X39017392Y121045557D01*
X39011437Y121043911D01*
X38939938Y121026060D01*
X38925823Y121019288D01*
X38908193Y121012431D01*
X38896275Y121008816D01*
X38830964Y120973906D01*
X38826152Y120971468D01*
X38756480Y120938040D01*
X38746866Y120930731D01*
X38730289Y120920094D01*
X38722462Y120915910D01*
X38662464Y120866672D01*
X38658849Y120863816D01*
X38594494Y120814889D01*
X38588905Y120808492D01*
X38574205Y120794240D01*
X38570118Y120790886D01*
X38518620Y120728135D01*
X38516162Y120725233D01*
X38489173Y120694341D01*
X38460612Y120661651D01*
X38458196Y120657385D01*
X38446171Y120639857D01*
X38445091Y120638542D01*
X38405143Y120563805D01*
X38403678Y120561143D01*
X38360322Y120484605D01*
X38359916Y120483348D01*
X38352640Y120466226D01*
X38339147Y120421746D01*
X38326228Y120379157D01*
X38305883Y120316233D01*
X38297135Y120289176D01*
X38295451Y120280963D01*
X38285899Y120183979D01*
X38275071Y120085967D01*
X38285050Y119984649D01*
X38294203Y119886134D01*
X38323536Y119789720D01*
X38355571Y119684111D01*
X38355921Y119683267D01*
X41085326Y110711723D01*
X41089669Y110690800D01*
X41089822Y110690332D01*
X41089823Y110690327D01*
X41117788Y110604930D01*
X41118576Y110602432D01*
X43879484Y101527342D01*
X43882908Y101513129D01*
X43889142Y101478345D01*
X43909038Y101428538D01*
X43912545Y101418537D01*
X43927185Y101370274D01*
X43944230Y101338384D01*
X43950022Y101325933D01*
X43965618Y101286889D01*
X43970980Y101276830D01*
X43995451Y101241011D01*
X44002422Y101229515D01*
X44020087Y101196466D01*
X44045292Y101165754D01*
X44052976Y101155323D01*
X44078075Y101117239D01*
X44085354Y101108463D01*
X44113962Y101080792D01*
X44123606Y101070328D01*
X44145117Y101044117D01*
X44178582Y101016653D01*
X44187598Y101008481D01*
X45896284Y99299795D01*
X45906997Y99287576D01*
X45923954Y99265462D01*
X45962368Y99232180D01*
X45970483Y99225149D01*
X45976966Y99219113D01*
X45984419Y99211660D01*
X46010751Y99190190D01*
X46013537Y99187847D01*
X46077740Y99132220D01*
X46077741Y99132219D01*
X46077743Y99132218D01*
X46081538Y99130089D01*
X46099217Y99118055D01*
X46102592Y99115303D01*
X46177880Y99075976D01*
X46181101Y99074231D01*
X46216791Y99054209D01*
X46255204Y99032658D01*
X46259349Y99031337D01*
X46279096Y99023105D01*
X46282951Y99021091D01*
X46364619Y98997724D01*
X46368102Y98996670D01*
X46449074Y98970858D01*
X46453399Y98970399D01*
X46474409Y98966308D01*
X46478582Y98965114D01*
X46563299Y98958663D01*
X46566924Y98958332D01*
X46651416Y98949351D01*
X46655742Y98949772D01*
X46677143Y98949993D01*
X46681476Y98949663D01*
X46765762Y98960398D01*
X46769377Y98960805D01*
X49246647Y99201317D01*
X49264549Y99201754D01*
X49275749Y99201219D01*
X49284851Y99200783D01*
X49284851Y99200784D01*
X49284854Y99200783D01*
X49353097Y99211442D01*
X49360245Y99212345D01*
X49378185Y99214086D01*
X49404107Y99219291D01*
X49409339Y99220224D01*
X49485900Y99232180D01*
X49497042Y99236344D01*
X49516024Y99241758D01*
X49527681Y99244098D01*
X49598994Y99274318D01*
X49603944Y99276289D01*
X49636049Y99288287D01*
X49676509Y99303405D01*
X49686578Y99309723D01*
X49704097Y99318854D01*
X49715036Y99323489D01*
X49715035Y99323489D01*
X49778809Y99367448D01*
X49783251Y99370371D01*
X59869163Y105697748D01*
X59883735Y105705089D01*
X59886390Y105706814D01*
X59886397Y105706816D01*
X59931593Y105736170D01*
X59940670Y105741528D01*
X59985330Y105765399D01*
X60013098Y105788190D01*
X60024223Y105796328D01*
X60026970Y105798112D01*
X60057048Y105817645D01*
X60082588Y105842845D01*
X60093475Y105852396D01*
X60121774Y105874431D01*
X60123018Y105875889D01*
X60136993Y105889598D01*
X60137667Y105890420D01*
X60137675Y105890426D01*
X60162741Y105920971D01*
X60171487Y105930555D01*
X60201897Y105960556D01*
X60221843Y105990384D01*
X60230580Y106001926D01*
X60253867Y106029209D01*
X60253867Y106029211D01*
X60254778Y106030277D01*
X60260676Y106038982D01*
X60262699Y106042769D01*
X60262702Y106042771D01*
X60283005Y106080757D01*
X60289288Y106091233D01*
X60315012Y106129698D01*
X60315013Y106129699D01*
X60328542Y106162920D01*
X60334787Y106176005D01*
X60352100Y106207409D01*
X60352100Y106207412D01*
X60353708Y106210327D01*
X60355604Y106216580D01*
X60355606Y106216582D01*
X60369146Y106261221D01*
X60372966Y106271995D01*
X60391765Y106318151D01*
X60398331Y106353421D01*
X60401807Y106367469D01*
X60412450Y106401735D01*
X60412450Y106401742D01*
X60412490Y106401868D01*
X60413360Y106410705D01*
X60417739Y106455164D01*
X60419232Y106465676D01*
X62036468Y115151630D01*
X64732291Y115151630D01*
X64826813Y115134963D01*
X64833090Y115134183D01*
X64931192Y115127036D01*
X65101776Y115152022D01*
X65261999Y115215675D01*
X65403222Y115314560D01*
X65517836Y115443350D01*
X65599658Y115595099D01*
X65626496Y115689732D01*
X65627906Y115695879D01*
X65633721Y115728868D01*
X64858186Y115865616D01*
X64732291Y115151630D01*
X62036468Y115151630D01*
X62094127Y115461308D01*
X62125749Y115523609D01*
X62186036Y115558926D01*
X62236503Y115560906D01*
X62841445Y115459627D01*
X62993606Y115449793D01*
X62999315Y115450587D01*
X63037925Y115449886D01*
X63131081Y115433459D01*
X63232415Y115426076D01*
X63403113Y115451080D01*
X63563443Y115514775D01*
X63580033Y115526392D01*
X63646237Y115548720D01*
X63714004Y115531711D01*
X63752731Y115495943D01*
X63764029Y115479808D01*
X63892821Y115365194D01*
X64044572Y115283371D01*
X64139206Y115256532D01*
X64145358Y115255121D01*
X64239887Y115238453D01*
X64366095Y115954204D01*
X64437305Y116358059D01*
X64944776Y116358059D01*
X65720545Y116221271D01*
X65720545Y116221272D01*
X65726362Y116254253D01*
X65727139Y116260510D01*
X65734287Y116358620D01*
X65709300Y116529207D01*
X65645649Y116689426D01*
X65546764Y116830649D01*
X65417972Y116945263D01*
X65266221Y117027086D01*
X65171580Y117053927D01*
X65165440Y117055335D01*
X65070904Y117072005D01*
X64963078Y116460486D01*
X64952023Y116438181D01*
X64945482Y116363415D01*
X64944776Y116358059D01*
X64437305Y116358059D01*
X64578501Y117158827D01*
X64483965Y117175496D01*
X64477719Y117176272D01*
X64379601Y117183421D01*
X64209017Y117158435D01*
X64048794Y117094782D01*
X64032659Y117083484D01*
X63966452Y117061158D01*
X63898685Y117078171D01*
X63859964Y117113937D01*
X63848345Y117130530D01*
X63719470Y117245218D01*
X63567615Y117327098D01*
X63472914Y117353955D01*
X63472903Y117353958D01*
X63469869Y117354818D01*
X63466757Y117355367D01*
X63466756Y117355367D01*
X63359066Y117374356D01*
X63335925Y117380799D01*
X63222151Y117424739D01*
X62607291Y117527678D01*
X62544422Y117558162D01*
X62508014Y117617796D01*
X62505861Y117672673D01*
X62506050Y117673685D01*
X64171295Y126617484D01*
X64175526Y126633886D01*
X64183333Y126657381D01*
X64183603Y126659659D01*
X64187742Y126679433D01*
X64187814Y126680174D01*
X64187816Y126680177D01*
X64192739Y126730166D01*
X64193755Y126737308D01*
X64193682Y126736851D01*
X64194099Y126739964D01*
X64194676Y126743058D01*
X64197226Y126773811D01*
X64197665Y126778164D01*
X66391337Y145264672D01*
X66418783Y145328922D01*
X66476611Y145368135D01*
X66529718Y145373116D01*
X68322513Y145151000D01*
X79009504Y143826949D01*
X79059353Y143809429D01*
X79104484Y143781592D01*
X79268246Y143727326D01*
X79342535Y143719737D01*
X79369323Y143717000D01*
X79395349Y143717001D01*
X79460807Y143698318D01*
X81440752Y142467722D01*
X83982286Y140888081D01*
X84014695Y140858911D01*
X86899102Y137151784D01*
X89565969Y133724244D01*
X89591601Y133659247D01*
X89578023Y133590710D01*
X89548546Y133553734D01*
X80053535Y125459549D01*
X80037634Y125448035D01*
X80027030Y125441572D01*
X79978416Y125396282D01*
X79972560Y125391160D01*
X79923713Y125351071D01*
X79908906Y125333029D01*
X79897585Y125320973D01*
X79878151Y125302867D01*
X79866658Y125286703D01*
X79855182Y125272821D01*
X79841484Y125258511D01*
X79825214Y125232608D01*
X79816068Y125219905D01*
X79798687Y125198726D01*
X79785994Y125174980D01*
X79777701Y125161589D01*
X79760239Y125137028D01*
X79752242Y125118898D01*
X79743798Y125102994D01*
X79733252Y125086204D01*
X79723779Y125060896D01*
X79717010Y125045920D01*
X79705784Y125024916D01*
X79696927Y124995723D01*
X79691723Y124981684D01*
X74734761Y113742842D01*
X74732770Y113738552D01*
X74697596Y113666389D01*
X74695357Y113657651D01*
X74688694Y113638395D01*
X70454118Y104037410D01*
X70450023Y104029000D01*
X70423589Y103979543D01*
X70397821Y103894600D01*
X70369019Y103805921D01*
X70366784Y103795058D01*
X70357365Y103699426D01*
X70346408Y103601454D01*
X70356384Y103500157D01*
X70365373Y103401999D01*
X70394820Y103304926D01*
X70424315Y103207511D01*
X70471468Y103120513D01*
X70519389Y103030859D01*
X70521276Y103028616D01*
X70582925Y102955330D01*
X70641520Y102883932D01*
X70641521Y102883931D01*
X70644507Y102880293D01*
X70650885Y102873992D01*
X70652263Y102872903D01*
X70652264Y102872902D01*
X70724876Y102815523D01*
X70793865Y102758905D01*
X70793868Y102758904D01*
X70794981Y102757990D01*
X70810761Y102747656D01*
X70811916Y102746743D01*
X70890398Y102707265D01*
X70893049Y102705890D01*
X70967676Y102666001D01*
X70967678Y102666001D01*
X70967679Y102666000D01*
X70969447Y102665463D01*
X70989174Y102657579D01*
X70993696Y102655304D01*
X71075046Y102633369D01*
X71078674Y102632331D01*
X71156271Y102608791D01*
X71161686Y102608258D01*
X71181817Y102604580D01*
X71190161Y102602329D01*
X71270683Y102597437D01*
X71275298Y102597069D01*
X71352403Y102589474D01*
X71361385Y102590359D01*
X71381066Y102590728D01*
X71393268Y102589986D01*
X71469636Y102600904D01*
X71474963Y102601546D01*
X71548535Y102608791D01*
X71560600Y102612452D01*
X71579043Y102616543D01*
X71594702Y102618780D01*
X71663967Y102643648D01*
X71669817Y102645583D01*
X71737130Y102666001D01*
X71751405Y102673633D01*
X71767965Y102680983D01*
X71786217Y102687535D01*
X71845981Y102723961D01*
X71852046Y102727425D01*
X71888189Y102746744D01*
X71910941Y102758905D01*
X71926227Y102771452D01*
X71940355Y102781480D01*
X71959970Y102793433D01*
X72008585Y102838727D01*
X72014405Y102843818D01*
X72063286Y102883932D01*
X72078096Y102901979D01*
X72089409Y102914027D01*
X72108851Y102932139D01*
X72145278Y102983375D01*
X72150473Y102990171D01*
X72188313Y103036277D01*
X72201006Y103060028D01*
X72209297Y103073416D01*
X72226761Y103097976D01*
X72250693Y103152239D01*
X72254761Y103160595D01*
X72281217Y103210088D01*
X72290073Y103239286D01*
X72295271Y103253310D01*
X75712522Y111001189D01*
X78427214Y111001189D01*
X78514213Y110960620D01*
X78520049Y110958252D01*
X78612971Y110925953D01*
X78784210Y110905938D01*
X78955449Y110925953D01*
X79117454Y110984918D01*
X79261493Y111079654D01*
X79379803Y111205054D01*
X79430221Y111289522D01*
X79433177Y111295100D01*
X79447328Y111325450D01*
X78733613Y111658262D01*
X78427214Y111001189D01*
X75712522Y111001189D01*
X76108799Y111899662D01*
X76153862Y111953055D01*
X76220640Y111973610D01*
X76270868Y111963693D01*
X76301651Y111950574D01*
X76703736Y111779214D01*
X76706733Y111778282D01*
X76706741Y111778279D01*
X76857332Y111731444D01*
X76872912Y111725420D01*
X76953507Y111687838D01*
X77049478Y111654478D01*
X77220831Y111634451D01*
X77392184Y111654478D01*
X77411216Y111661406D01*
X77480941Y111665838D01*
X77541998Y111631869D01*
X77570147Y111587297D01*
X77576883Y111568790D01*
X77671622Y111424745D01*
X77797021Y111306437D01*
X77881496Y111256014D01*
X77887063Y111253065D01*
X77974059Y111212498D01*
X78280458Y111869570D01*
X78393233Y112111417D01*
X78944921Y112111417D01*
X79658638Y111778604D01*
X79672792Y111808957D01*
X79675158Y111814788D01*
X79707460Y111907717D01*
X79727475Y112078959D01*
X79707460Y112250190D01*
X79648495Y112412196D01*
X79553757Y112556240D01*
X79428358Y112674548D01*
X79343883Y112724971D01*
X79338316Y112727920D01*
X79251319Y112768488D01*
X78944921Y112111417D01*
X78393233Y112111417D01*
X78798164Y112979798D01*
X78711174Y113020362D01*
X78705330Y113022733D01*
X78612408Y113055032D01*
X78441169Y113075047D01*
X78269930Y113055032D01*
X78251421Y113048295D01*
X78181692Y113043865D01*
X78120637Y113077837D01*
X78092491Y113122409D01*
X78085565Y113141439D01*
X77990764Y113285577D01*
X77865278Y113403968D01*
X77811673Y113435965D01*
X77780742Y113454428D01*
X77780738Y113454430D01*
X77778036Y113456043D01*
X77680625Y113501467D01*
X77662449Y113511896D01*
X77571357Y113574960D01*
X77535160Y113600020D01*
X77081288Y113793450D01*
X77027334Y113837841D01*
X77005944Y113904356D01*
X77016448Y113957559D01*
X81446278Y124001242D01*
X81479287Y124045563D01*
X90770119Y131965691D01*
X90833903Y131994200D01*
X90902979Y131983699D01*
X90948425Y131947470D01*
X95562226Y126017670D01*
X95587858Y125952672D01*
X95586540Y125920354D01*
X94876441Y121822067D01*
X93932826Y116376058D01*
X93932826Y116376056D01*
X93931006Y116365551D01*
X93931005Y116365552D01*
X93931005Y116365547D01*
X93917441Y116287270D01*
X93916978Y116284752D01*
X93899621Y116195576D01*
X93897937Y116174702D01*
X92229587Y106545935D01*
X92198746Y106483241D01*
X92197310Y106481704D01*
X73044323Y86319099D01*
X72983880Y86284050D01*
X72954420Y86280500D01*
X68695324Y86280500D01*
X68682394Y86282586D01*
X68682263Y86281294D01*
X68570809Y86292681D01*
X68570790Y86292682D01*
X68567677Y86293000D01*
X68564528Y86293000D01*
X67997473Y86293000D01*
X67997453Y86293000D01*
X67994324Y86292999D01*
X67991192Y86292680D01*
X67991190Y86292679D01*
X67893247Y86282675D01*
X67729484Y86228409D01*
X67582647Y86137839D01*
X67460661Y86015853D01*
X67370091Y85869016D01*
X67315825Y85705254D01*
X67305819Y85607310D01*
X67305817Y85607290D01*
X67305500Y85604177D01*
X67305500Y85601030D01*
X67305500Y85601029D01*
X67305500Y84908974D01*
X67305500Y84908955D01*
X67305501Y84905824D01*
X67305820Y84902692D01*
X67305821Y84902691D01*
X67315825Y84804748D01*
X67370091Y84640985D01*
X67460661Y84494148D01*
X67474981Y84479828D01*
X67508466Y84418505D01*
X67503482Y84348813D01*
X67474983Y84304468D01*
X67461057Y84290542D01*
X67370546Y84143802D01*
X67316318Y83980152D01*
X67306319Y83882278D01*
X67306000Y83876000D01*
X67306000Y83780000D01*
X69255999Y83780000D01*
X69255999Y83875998D01*
X69255678Y83882280D01*
X69245681Y83980151D01*
X69200501Y84116496D01*
X69198099Y84186325D01*
X69233831Y84246366D01*
X69296352Y84277559D01*
X69318207Y84279500D01*
X73140132Y84279500D01*
X73206576Y84260196D01*
X77844282Y81316904D01*
X77890337Y81264362D01*
X77894551Y81254091D01*
X84289844Y63432270D01*
X84295262Y63368941D01*
X82526347Y53295794D01*
X82524332Y53286448D01*
X82509841Y53229927D01*
X82508341Y53198898D01*
X82506617Y53183442D01*
X80897375Y44019556D01*
X80866392Y43956931D01*
X80806470Y43920999D01*
X80736634Y43923167D01*
X80735427Y43923569D01*
X70861340Y47271437D01*
X70804172Y47311606D01*
X70783228Y47350548D01*
X70170317Y49236618D01*
X69791595Y50402036D01*
X68221655Y55233111D01*
X68219656Y55302952D01*
X68255734Y55362786D01*
X68296977Y55387884D01*
X68911903Y55612842D01*
X69012275Y55661581D01*
X69049061Y55679444D01*
X69049061Y55679445D01*
X69049065Y55679446D01*
X69058270Y55686514D01*
X69091370Y55704679D01*
X69182273Y55737764D01*
X69273723Y55782037D01*
X69409050Y55889040D01*
X69516053Y56024367D01*
X69524612Y56042723D01*
X69570782Y56095161D01*
X69637975Y56114315D01*
X69689399Y56102701D01*
X69707252Y56094376D01*
X69876088Y56059514D01*
X70048423Y56064529D01*
X70143811Y56088606D01*
X70149828Y56090455D01*
X70240030Y56123287D01*
X69929824Y56975574D01*
X70461912Y56975574D01*
X70709876Y56294299D01*
X70800078Y56327129D01*
X70805883Y56329583D01*
X70894431Y56372451D01*
X71029664Y56479379D01*
X71136595Y56614615D01*
X71209454Y56770865D01*
X71244317Y56939704D01*
X71239303Y57112037D01*
X71215224Y57207431D01*
X71213378Y57213436D01*
X71201920Y57244915D01*
X71201919Y57244915D01*
X70461912Y56975574D01*
X69929824Y56975574D01*
X69828535Y57253865D01*
X69828535Y57253866D01*
X69573093Y57955688D01*
X69482904Y57922861D01*
X69477076Y57920397D01*
X69388538Y57877534D01*
X69253307Y57770607D01*
X69146374Y57635370D01*
X69138049Y57617516D01*
X69091875Y57565078D01*
X69024681Y57545928D01*
X68973263Y57557542D01*
X68954905Y57566103D01*
X68785955Y57600987D01*
X68785952Y57600987D01*
X68682483Y57597977D01*
X68613503Y57595970D01*
X68518057Y57571878D01*
X68518046Y57571875D01*
X68514993Y57571104D01*
X68512030Y57570026D01*
X68512015Y57570021D01*
X68408727Y57532428D01*
X68384608Y57526306D01*
X68272327Y57509562D01*
X67686651Y57295304D01*
X67616929Y57290758D01*
X67555818Y57324628D01*
X67526121Y57373431D01*
X67281334Y58126698D01*
X70042938Y58126698D01*
X70290903Y57445421D01*
X71030909Y57714761D01*
X71019457Y57746225D01*
X71016996Y57752046D01*
X70974135Y57840581D01*
X70867204Y57975817D01*
X70731967Y58082748D01*
X70575717Y58155609D01*
X70406881Y58190471D01*
X70234546Y58185456D01*
X70139176Y58161383D01*
X70133127Y58159524D01*
X70042939Y58126699D01*
X70042938Y58126698D01*
X67281334Y58126698D01*
X64835762Y65652298D01*
X64831122Y65671839D01*
X64829555Y65682073D01*
X64805966Y65745763D01*
X64803597Y65752802D01*
X64784813Y65814729D01*
X64774511Y65834002D01*
X64767586Y65849393D01*
X64758884Y65872891D01*
X64747320Y65891444D01*
X64739106Y65906977D01*
X64730282Y65926974D01*
X64712870Y65951455D01*
X64704563Y65964865D01*
X64691909Y65988540D01*
X64675778Y66008196D01*
X64666400Y66021269D01*
X64651250Y66045575D01*
X64636186Y66061422D01*
X64625010Y66074986D01*
X64612346Y66092793D01*
X64592973Y66110837D01*
X64581634Y66122910D01*
X64566881Y66140886D01*
X64544459Y66159288D01*
X64533264Y66169695D01*
X64511058Y66193055D01*
X64511054Y66193058D01*
X64511053Y66193059D01*
X64493110Y66205548D01*
X64479434Y66216584D01*
X64463444Y66231477D01*
X64443896Y66243387D01*
X64429748Y66253429D01*
X64414538Y66265912D01*
X64385806Y66281269D01*
X64373421Y66288853D01*
X64344047Y66309298D01*
X64323955Y66317920D01*
X64308347Y66325971D01*
X64289674Y66337348D01*
X64289672Y66337349D01*
X64289670Y66337350D01*
X64271500Y66343870D01*
X64254931Y66351224D01*
X64240725Y66358817D01*
X64206130Y66369312D01*
X64193228Y66374021D01*
X64157057Y66389543D01*
X64135645Y66393943D01*
X64118730Y66398690D01*
X64108868Y66402228D01*
X64098145Y66406076D01*
X64082574Y66408299D01*
X64064113Y66412392D01*
X64052131Y66416026D01*
X64044434Y66416785D01*
X64012591Y66419921D01*
X63999788Y66421862D01*
X63957741Y66430502D01*
X63957740Y66430502D01*
X63935886Y66430502D01*
X63918358Y66431747D01*
X63896708Y66434839D01*
X63884578Y66434100D01*
X63864896Y66434468D01*
X63856003Y66435344D01*
X63812908Y66431099D01*
X63800754Y66430502D01*
X55086961Y66430502D01*
X55083819Y66430542D01*
X54996319Y66432760D01*
X54938262Y66422354D01*
X54928933Y66421045D01*
X54870244Y66415076D01*
X54841209Y66405967D01*
X54825972Y66402228D01*
X54796028Y66396861D01*
X54741250Y66374981D01*
X54732380Y66371823D01*
X54676096Y66354163D01*
X54649501Y66339401D01*
X54635323Y66332668D01*
X54607067Y66321382D01*
X54557804Y66288915D01*
X54549748Y66284035D01*
X54498177Y66255411D01*
X54475088Y66235590D01*
X54462565Y66226147D01*
X54437166Y66209406D01*
X54395464Y66167705D01*
X54388557Y66161304D01*
X54343786Y66122868D01*
X54325162Y66098808D01*
X54314789Y66087031D01*
X51388852Y63161094D01*
X51379838Y63152924D01*
X51346366Y63125453D01*
X51323418Y63097492D01*
X51314136Y63087379D01*
X51285942Y63059888D01*
X51257868Y63018442D01*
X51251058Y63009320D01*
X51218292Y62969394D01*
X51200152Y62934669D01*
X51192913Y62922547D01*
X51171829Y62891418D01*
X51154040Y62848467D01*
X51148836Y62837465D01*
X51125530Y62793863D01*
X51124187Y62790576D01*
X51113001Y62751484D01*
X51108350Y62738153D01*
X51093965Y62703422D01*
X51085860Y62661279D01*
X51082753Y62648707D01*
X51070432Y62608088D01*
X51067363Y62591996D01*
X51064508Y62554507D01*
X51062635Y62540507D01*
X49082668Y52244674D01*
X49081446Y52239032D01*
X49063738Y52165577D01*
X49063271Y52151790D01*
X49061111Y52132577D01*
X47791038Y45528189D01*
X47261531Y42774750D01*
X47250165Y42715649D01*
X47218174Y42653533D01*
X47157680Y42618573D01*
X47128396Y42615066D01*
X28212217Y42615066D01*
X28145178Y42634751D01*
X28124536Y42651385D01*
X27346416Y43429506D01*
X27312931Y43490829D01*
X27310097Y43517187D01*
X27310097Y48653634D01*
X27329782Y48720673D01*
X27330486Y48721756D01*
X31831905Y55568224D01*
X35008069Y55568224D01*
X35086695Y55513171D01*
X35092041Y55509819D01*
X35177942Y55461875D01*
X35343105Y55412428D01*
X35515212Y55402404D01*
X35684997Y55432342D01*
X35843300Y55500627D01*
X35981588Y55603578D01*
X36045918Y55678019D01*
X36049787Y55682985D01*
X36068993Y55710417D01*
X35423913Y56162108D01*
X35008070Y55568224D01*
X35008069Y55568224D01*
X31831905Y55568224D01*
X32746640Y56959497D01*
X32799916Y57004698D01*
X32869175Y57013920D01*
X32920581Y56993498D01*
X32998690Y56939704D01*
X33391016Y56669506D01*
X33423784Y56646939D01*
X33557468Y56573601D01*
X33563684Y56571685D01*
X33598268Y56554768D01*
X33675986Y56500349D01*
X33764706Y56450831D01*
X33929978Y56401353D01*
X34102205Y56391321D01*
X34122153Y56394839D01*
X34191589Y56387096D01*
X34245819Y56343041D01*
X34265801Y56294258D01*
X34269222Y56274858D01*
X34337507Y56116554D01*
X34440459Y55978266D01*
X34514887Y55913944D01*
X34519863Y55910068D01*
X34598494Y55855011D01*
X35100314Y56571684D01*
X35710699Y56571684D01*
X36355782Y56119993D01*
X36374986Y56147419D01*
X36378339Y56152766D01*
X36426283Y56238668D01*
X36475730Y56403831D01*
X36485754Y56575939D01*
X36455815Y56745722D01*
X36387530Y56904027D01*
X36284578Y57042315D01*
X36210150Y57106637D01*
X36205173Y57110513D01*
X36126542Y57165571D01*
X35710699Y56571685D01*
X35710699Y56571684D01*
X35100314Y56571684D01*
X35301125Y56858472D01*
X35716967Y57452357D01*
X35716967Y57452358D01*
X35638343Y57507410D01*
X35632996Y57510762D01*
X35547095Y57558706D01*
X35381932Y57608153D01*
X35209823Y57618177D01*
X35190422Y57614756D01*
X35120984Y57622503D01*
X35066756Y57666561D01*
X35046778Y57715341D01*
X35043261Y57735287D01*
X35036032Y57752046D01*
X34974929Y57893697D01*
X34871908Y58032080D01*
X34818918Y58077873D01*
X34797416Y58096455D01*
X34797410Y58096460D01*
X34795034Y58098513D01*
X34702793Y58163101D01*
X34684469Y58178797D01*
X34600759Y58265992D01*
X34224140Y58525372D01*
X34015747Y58668894D01*
X33971700Y58723131D01*
X33963968Y58792572D01*
X33982469Y58839140D01*
X34060224Y58957402D01*
X39637946Y67440881D01*
X39645691Y67451406D01*
X39670507Y67481642D01*
X39672362Y67485115D01*
X39683669Y67502571D01*
X39688045Y67508222D01*
X39695138Y67522684D01*
X39704690Y67538912D01*
X39713892Y67552131D01*
X39735053Y67601445D01*
X39739633Y67610970D01*
X39763411Y67655453D01*
X39763411Y67655455D01*
X39766041Y67660374D01*
X39768213Y67665698D01*
X39768913Y67668154D01*
X39768915Y67668157D01*
X39769225Y67669246D01*
X39777154Y67689886D01*
X39777657Y67690909D01*
X39781693Y67706500D01*
X39787783Y67724319D01*
X39794137Y67739122D01*
X39804218Y67788182D01*
X39807011Y67799184D01*
X39820621Y67844048D01*
X39820621Y67844052D01*
X39821261Y67846160D01*
X39824520Y67863299D01*
X39824677Y67863849D01*
X39824761Y67864981D01*
X39828374Y67886794D01*
X39828660Y67887895D01*
X39829476Y67903987D01*
X39831855Y67922664D01*
X39835097Y67938439D01*
X39835097Y67984955D01*
X39835691Y67997067D01*
X39839938Y68040180D01*
X39839841Y68041156D01*
X39839592Y68062582D01*
X39839906Y68066761D01*
X39839759Y68067899D01*
X39838908Y68089978D01*
X39838966Y68091116D01*
X39836527Y68107038D01*
X39835097Y68125815D01*
X39835097Y75029997D01*
X49975658Y75029997D01*
X49977315Y75013170D01*
X49977777Y74995232D01*
X49976837Y74975131D01*
X49987594Y74906705D01*
X49988501Y74899604D01*
X49994976Y74833868D01*
X50000926Y74814252D01*
X50004760Y74797516D01*
X50008438Y74774118D01*
X50031498Y74712595D01*
X50034046Y74705071D01*
X50052185Y74645274D01*
X50063532Y74624045D01*
X50070283Y74609117D01*
X50079855Y74583579D01*
X50112927Y74530980D01*
X50117311Y74523431D01*
X50145090Y74471461D01*
X50162618Y74450104D01*
X50171739Y74437443D01*
X50188164Y74411321D01*
X50188166Y74411318D01*
X50226088Y74371736D01*
X50228695Y74369015D01*
X50235008Y74361897D01*
X50270117Y74319117D01*
X50294248Y74299312D01*
X50305120Y74289244D01*
X50328935Y74264387D01*
X50374205Y74233141D01*
X50382429Y74226945D01*
X50422462Y74194090D01*
X50453154Y74177686D01*
X50465125Y74170386D01*
X50496400Y74148799D01*
X50543748Y74128701D01*
X50553726Y74123929D01*
X50596273Y74101186D01*
X50632994Y74090047D01*
X50645439Y74085533D01*
X50683704Y74069289D01*
X50730624Y74059839D01*
X50742113Y74056946D01*
X50784868Y74043976D01*
X50826608Y74039866D01*
X50838928Y74038023D01*
X50883180Y74029109D01*
X50927482Y74029284D01*
X50940088Y74028690D01*
X50981000Y74024659D01*
X51026282Y74029120D01*
X51037945Y74029715D01*
X51085466Y74029901D01*
X51086661Y74029905D01*
X51126517Y74038259D01*
X51139797Y74040300D01*
X51177132Y74043976D01*
X51224108Y74058228D01*
X51234634Y74060921D01*
X51285815Y74071647D01*
X51319910Y74086438D01*
X51333241Y74091332D01*
X51365727Y74101186D01*
X51398488Y74118699D01*
X51412149Y74126000D01*
X51421249Y74130398D01*
X51472489Y74152623D01*
X51499984Y74171921D01*
X51512741Y74179768D01*
X51539538Y74194090D01*
X51582986Y74229748D01*
X51590408Y74235385D01*
X51639044Y74269519D01*
X51659643Y74291362D01*
X51671170Y74302120D01*
X51691883Y74319117D01*
X51729812Y74365335D01*
X51735421Y74371708D01*
X51778657Y74417550D01*
X51792549Y74440036D01*
X51802177Y74453513D01*
X51816910Y74471462D01*
X51846789Y74527364D01*
X51850615Y74534012D01*
X57254570Y83280000D01*
X67306001Y83280000D01*
X67306001Y83184003D01*
X67306321Y83177721D01*
X67316318Y83079850D01*
X67370546Y82916199D01*
X67461056Y82769460D01*
X67582959Y82647557D01*
X67729698Y82557047D01*
X67893348Y82502819D01*
X67991203Y82492822D01*
X67997519Y82492501D01*
X68031000Y82492501D01*
X68031000Y83280000D01*
X68531000Y83280000D01*
X68531000Y82492501D01*
X68564497Y82492501D01*
X68570779Y82492822D01*
X68668650Y82502819D01*
X68832301Y82557047D01*
X68979040Y82647557D01*
X69100943Y82769460D01*
X69191453Y82916199D01*
X69245681Y83079849D01*
X69255680Y83177723D01*
X69256000Y83184001D01*
X69256000Y83280000D01*
X68531000Y83280000D01*
X68031000Y83280000D01*
X67306001Y83280000D01*
X57254570Y83280000D01*
X67517552Y99890042D01*
X67527166Y99903499D01*
X67541910Y99921462D01*
X67571774Y99977336D01*
X67575633Y99984042D01*
X67583807Y99997269D01*
X67596490Y100023386D01*
X67598614Y100027549D01*
X67634814Y100095273D01*
X67637643Y100104603D01*
X67644763Y100122777D01*
X67650421Y100134427D01*
X67669279Y100208459D01*
X67670775Y100213827D01*
X67692024Y100283868D01*
X67693331Y100297145D01*
X67696571Y100315594D01*
X67700651Y100331609D01*
X67700652Y100331611D01*
X67704055Y100404372D01*
X67704517Y100410722D01*
X67711341Y100480000D01*
X67709683Y100496834D01*
X67709222Y100514786D01*
X67710162Y100534872D01*
X67699406Y100603284D01*
X67698498Y100610391D01*
X67692024Y100676131D01*
X67686075Y100695741D01*
X67682239Y100712486D01*
X67678561Y100735885D01*
X67655503Y100797401D01*
X67652960Y100804907D01*
X67634814Y100864727D01*
X67623470Y100885950D01*
X67616718Y100900879D01*
X67607145Y100926418D01*
X67607144Y100926421D01*
X67574053Y100979050D01*
X67569682Y100986579D01*
X67541910Y101038539D01*
X67524379Y101059900D01*
X67515256Y101072564D01*
X67498835Y101098681D01*
X67458303Y101140987D01*
X67451988Y101148107D01*
X67441618Y101160743D01*
X67416883Y101190883D01*
X67413628Y101193554D01*
X67392754Y101210686D01*
X67381882Y101220754D01*
X67358064Y101245614D01*
X67312799Y101276857D01*
X67304572Y101283055D01*
X67264538Y101315910D01*
X67233856Y101332310D01*
X67221873Y101339616D01*
X67196140Y101357377D01*
X67190600Y101361201D01*
X67190598Y101361202D01*
X67143258Y101381298D01*
X67133258Y101386081D01*
X67090728Y101408814D01*
X67054012Y101419952D01*
X67041559Y101424470D01*
X67003300Y101440710D01*
X67003296Y101440711D01*
X66956376Y101450163D01*
X66944879Y101453057D01*
X66902131Y101466025D01*
X66860392Y101470136D01*
X66848066Y101471980D01*
X66803821Y101480891D01*
X66803820Y101480891D01*
X66803061Y101480889D01*
X66759528Y101480718D01*
X66746891Y101481314D01*
X66705998Y101485342D01*
X66660720Y101480883D01*
X66649056Y101480287D01*
X66600342Y101480096D01*
X66560482Y101471742D01*
X66547209Y101469704D01*
X66509868Y101466025D01*
X66462908Y101451780D01*
X66452354Y101449079D01*
X66401186Y101438354D01*
X66367102Y101423570D01*
X66353760Y101418671D01*
X66321272Y101408815D01*
X66274855Y101384004D01*
X66265749Y101379604D01*
X66214510Y101357378D01*
X66187026Y101338088D01*
X66174249Y101330229D01*
X66147459Y101315909D01*
X66104031Y101280269D01*
X66096606Y101274629D01*
X66047958Y101240484D01*
X66027362Y101218646D01*
X66015822Y101207876D01*
X65995118Y101190884D01*
X65957193Y101144676D01*
X65951554Y101138269D01*
X65908343Y101092451D01*
X65894453Y101069971D01*
X65884822Y101056491D01*
X65870090Y101038540D01*
X65840232Y100982680D01*
X65836363Y100975956D01*
X50169455Y75619975D01*
X50159824Y75606493D01*
X50145090Y75588539D01*
X50115229Y75532675D01*
X50111367Y75525964D01*
X50104851Y75515417D01*
X50104839Y75515396D01*
X50103193Y75512731D01*
X50101828Y75509922D01*
X50101816Y75509899D01*
X50090544Y75486690D01*
X50088365Y75482417D01*
X50052186Y75414728D01*
X50049354Y75405394D01*
X50042240Y75387232D01*
X50036579Y75375575D01*
X50017723Y75301558D01*
X50016222Y75296176D01*
X49994974Y75226130D01*
X49993667Y75212859D01*
X49990429Y75194414D01*
X49986347Y75178389D01*
X49982944Y75105653D01*
X49982483Y75099296D01*
X49975658Y75029997D01*
X39835097Y75029997D01*
X39835097Y79212198D01*
X39854782Y79279237D01*
X39871416Y79299879D01*
X39871415Y79299880D01*
X40156077Y79584541D01*
X40180441Y79603475D01*
X44700073Y82287123D01*
X44763382Y82304501D01*
X44939527Y82304501D01*
X44942676Y82304501D01*
X45043753Y82314826D01*
X45207516Y82369092D01*
X45354350Y82459660D01*
X45476340Y82581650D01*
X45566908Y82728484D01*
X45621174Y82892247D01*
X45631500Y82993323D01*
X45631499Y83691676D01*
X45621174Y83792753D01*
X45566908Y83956516D01*
X45476340Y84103350D01*
X45462019Y84117671D01*
X45428532Y84178993D01*
X45433515Y84248685D01*
X45462019Y84293037D01*
X45475945Y84306964D01*
X45566452Y84453696D01*
X45620681Y84617349D01*
X45630680Y84715223D01*
X45631000Y84721501D01*
X45631000Y84817500D01*
X43681001Y84817500D01*
X43681001Y84721503D01*
X43681321Y84715221D01*
X43691318Y84617350D01*
X43745546Y84453699D01*
X43836056Y84306960D01*
X43849981Y84293035D01*
X43883466Y84231712D01*
X43878482Y84162020D01*
X43849986Y84117678D01*
X43840922Y84108613D01*
X43816545Y84089668D01*
X39113014Y81296826D01*
X39095710Y81288297D01*
X39082740Y81283116D01*
X39040924Y81255557D01*
X39031144Y81249738D01*
X38989816Y81227648D01*
X38959108Y81202447D01*
X38948686Y81194769D01*
X38912834Y81171139D01*
X38899929Y81158234D01*
X38886027Y81146254D01*
X38878701Y81140831D01*
X38871351Y81135390D01*
X38860828Y81123653D01*
X38847172Y81110582D01*
X38837471Y81102621D01*
X38809999Y81069148D01*
X38801829Y81060135D01*
X38137242Y80395547D01*
X38134995Y80393356D01*
X38071545Y80333040D01*
X38037841Y80284618D01*
X38032170Y80277098D01*
X37994898Y80231387D01*
X37980807Y80204414D01*
X37972679Y80190997D01*
X37955302Y80166030D01*
X37932036Y80111815D01*
X37927996Y80103309D01*
X37900687Y80051028D01*
X37892317Y80021779D01*
X37887056Y80007002D01*
X37875057Y79979038D01*
X37863184Y79921267D01*
X37860939Y79912120D01*
X37844710Y79855400D01*
X37842399Y79825055D01*
X37840219Y79809514D01*
X37834097Y79779722D01*
X37834097Y79720739D01*
X37833739Y79711325D01*
X37829260Y79652503D01*
X37833103Y79622329D01*
X37834097Y79606663D01*
X37834097Y69164680D01*
X37814412Y69097641D01*
X37761608Y69051886D01*
X37710097Y69040680D01*
X18821266Y69040680D01*
X18818124Y69040720D01*
X18730663Y69042937D01*
X18672609Y69032532D01*
X18663281Y69031223D01*
X18604589Y69025254D01*
X18575555Y69016145D01*
X18560316Y69012405D01*
X18530373Y69007038D01*
X18475596Y68985159D01*
X18466726Y68982001D01*
X18410438Y68964339D01*
X18383837Y68949575D01*
X18369667Y68942845D01*
X18341413Y68931558D01*
X18292149Y68899093D01*
X18284098Y68894216D01*
X18232526Y68865590D01*
X18209442Y68845773D01*
X18196915Y68836327D01*
X18171509Y68819582D01*
X18129803Y68777877D01*
X18122896Y68771476D01*
X18078131Y68733045D01*
X18059508Y68708987D01*
X18049136Y68697211D01*
X14405069Y65053144D01*
X14399487Y65048559D01*
X14363639Y65012234D01*
X14354047Y65003482D01*
X14323461Y64978381D01*
X14293623Y64942024D01*
X14286033Y64933593D01*
X14250752Y64897843D01*
X14229402Y64864977D01*
X14221275Y64853869D01*
X14195388Y64822324D01*
X14172214Y64777962D01*
X14166294Y64767830D01*
X14139907Y64727209D01*
X14126910Y64694036D01*
X14120816Y64680821D01*
X14102622Y64646782D01*
X14101279Y64643496D01*
X14087107Y64593971D01*
X14083350Y64582858D01*
X14065677Y64537747D01*
X14060231Y64506161D01*
X14056696Y64491241D01*
X14047526Y64461013D01*
X14044458Y64444923D01*
X14040778Y64396601D01*
X14039333Y64384950D01*
X12138405Y53359368D01*
X12120728Y53267330D01*
X12119194Y53247945D01*
X10280635Y42584106D01*
X10277099Y42569180D01*
X10268724Y42541570D01*
X10263065Y42484119D01*
X10261861Y42475216D01*
X10260708Y42468529D01*
X10260706Y42468516D01*
X10260173Y42465422D01*
X10259954Y42462285D01*
X10259954Y42462277D01*
X10257776Y42430949D01*
X10257478Y42427398D01*
X10249406Y42345434D01*
X10249809Y42341339D01*
X10250108Y42320614D01*
X10249601Y42313310D01*
X10260497Y42232044D01*
X10261000Y42227721D01*
X10268723Y42149307D01*
X10270956Y42141948D01*
X10275195Y42122433D01*
X10276644Y42111633D01*
X10289372Y42075186D01*
X10302504Y42037580D01*
X10304096Y42032697D01*
X10308791Y42017220D01*
X10325934Y41960710D01*
X10331248Y41950768D01*
X10338954Y41933203D01*
X10343730Y41919526D01*
X10382139Y41855256D01*
X10385056Y41850099D01*
X10418836Y41786902D01*
X10428263Y41775414D01*
X10438847Y41760365D01*
X10448111Y41744863D01*
X10448114Y41744860D01*
X10496284Y41692247D01*
X10500666Y41687192D01*
X10543865Y41634554D01*
X10558109Y41622864D01*
X10570902Y41610745D01*
X10580095Y41600704D01*
X10585520Y41594779D01*
X10615420Y41573127D01*
X10640395Y41555040D01*
X10646330Y41550462D01*
X10696209Y41509527D01*
X10715621Y41499151D01*
X10729895Y41490226D01*
X10750326Y41475431D01*
X10808822Y41449021D01*
X10816248Y41445366D01*
X10870021Y41416623D01*
X10894515Y41409194D01*
X10909534Y41403552D01*
X10935782Y41391701D01*
X10985856Y41380430D01*
X10994910Y41378392D01*
X11003666Y41376083D01*
X11036697Y41366063D01*
X11058615Y41359413D01*
X11066019Y41358684D01*
X11087651Y41356554D01*
X11102717Y41354126D01*
X11134297Y41347017D01*
X11191330Y41345951D01*
X11201138Y41345377D01*
X11254748Y41340096D01*
X11287355Y41343308D01*
X11301797Y41343882D01*
X11337743Y41343208D01*
X11390323Y41352993D01*
X11400831Y41354485D01*
X11450880Y41359413D01*
X11485632Y41369956D01*
X11498942Y41373203D01*
X11537792Y41380430D01*
X11584029Y41399256D01*
X11594768Y41403062D01*
X11639475Y41416623D01*
X11674652Y41435427D01*
X11686331Y41440907D01*
X11726253Y41457160D01*
X11764789Y41482926D01*
X11775250Y41489197D01*
X11777175Y41490226D01*
X11813286Y41509527D01*
X11846877Y41537096D01*
X11856600Y41544310D01*
X11895410Y41570256D01*
X11925457Y41600706D01*
X11935043Y41609453D01*
X11965631Y41634554D01*
X11995464Y41670909D01*
X12003053Y41679335D01*
X12015810Y41692262D01*
X12038337Y41715088D01*
X12059689Y41747960D01*
X12067823Y41759076D01*
X12068881Y41760365D01*
X12090658Y41786899D01*
X12114505Y41831515D01*
X12119879Y41840613D01*
X12149185Y41885726D01*
X12149186Y41885727D01*
X12162182Y41918902D01*
X12168275Y41932114D01*
X12183562Y41960710D01*
X12199286Y42012548D01*
X12202482Y42021760D01*
X12223415Y42075186D01*
X12228860Y42106775D01*
X12232397Y42121698D01*
X12240772Y42149304D01*
X12241450Y42156193D01*
X12246431Y42206777D01*
X12247631Y42215649D01*
X13874495Y51651630D01*
X16507291Y51651630D01*
X16601813Y51634963D01*
X16608090Y51634183D01*
X16706192Y51627036D01*
X16876776Y51652022D01*
X17036999Y51715675D01*
X17178222Y51814560D01*
X17292836Y51943350D01*
X17374658Y52095099D01*
X17401496Y52189732D01*
X17402906Y52195879D01*
X17408721Y52228868D01*
X16633186Y52365616D01*
X16507291Y51651630D01*
X13874495Y51651630D01*
X13923590Y51936385D01*
X13954379Y51999104D01*
X14014189Y52035222D01*
X14062979Y52038118D01*
X14640020Y51957336D01*
X14640032Y51957335D01*
X14643146Y51956899D01*
X14795515Y51951145D01*
X14795519Y51951146D01*
X14800092Y51950973D01*
X14816929Y51949179D01*
X14906081Y51933459D01*
X15007415Y51926076D01*
X15178113Y51951080D01*
X15338443Y52014775D01*
X15355033Y52026392D01*
X15421237Y52048720D01*
X15489004Y52031711D01*
X15527731Y51995943D01*
X15539029Y51979808D01*
X15667821Y51865194D01*
X15819572Y51783371D01*
X15914206Y51756532D01*
X15920358Y51755121D01*
X16014887Y51738453D01*
X16177099Y52658394D01*
X16212305Y52858059D01*
X16719776Y52858059D01*
X17495545Y52721271D01*
X17495545Y52721272D01*
X17501362Y52754253D01*
X17502139Y52760510D01*
X17509287Y52858620D01*
X17484300Y53029207D01*
X17420649Y53189426D01*
X17321764Y53330649D01*
X17192972Y53445263D01*
X17041221Y53527086D01*
X16946580Y53553927D01*
X16940440Y53555335D01*
X16845904Y53572005D01*
X16738078Y52960486D01*
X16727023Y52938181D01*
X16720482Y52863415D01*
X16719776Y52858059D01*
X16212305Y52858059D01*
X16353501Y53658827D01*
X16258965Y53675496D01*
X16252719Y53676272D01*
X16154601Y53683421D01*
X15984017Y53658435D01*
X15823794Y53594782D01*
X15807659Y53583484D01*
X15741452Y53561158D01*
X15673685Y53578171D01*
X15634964Y53613937D01*
X15623345Y53630530D01*
X15494470Y53745218D01*
X15342615Y53827098D01*
X15247921Y53853953D01*
X15247910Y53853956D01*
X15244869Y53854818D01*
X15241756Y53855367D01*
X15241747Y53855369D01*
X15139659Y53873370D01*
X15119633Y53878658D01*
X14971069Y53931506D01*
X14410901Y54009925D01*
X14347238Y54038713D01*
X14309245Y54097351D01*
X14305895Y54153795D01*
X14309782Y54176337D01*
X15959659Y63745797D01*
X15990448Y63808515D01*
X15994152Y63812385D01*
X19185129Y67003361D01*
X19246453Y67036846D01*
X19272811Y67039680D01*
X36749482Y67039680D01*
X36816521Y67019995D01*
X36862276Y66967191D01*
X36872220Y66898033D01*
X36853093Y66847558D01*
X36268161Y65957900D01*
X31728143Y59052729D01*
X31722964Y59045439D01*
X31685770Y58996893D01*
X31673452Y58971464D01*
X31665468Y58957402D01*
X25506252Y49589497D01*
X25498496Y49578956D01*
X25473686Y49548725D01*
X25458328Y49519992D01*
X25450748Y49507614D01*
X25430303Y49478239D01*
X25409147Y49428942D01*
X25404557Y49419395D01*
X25378160Y49370008D01*
X25375971Y49364644D01*
X25367109Y49333545D01*
X25361809Y49318635D01*
X25350057Y49291249D01*
X25339976Y49242197D01*
X25337176Y49231169D01*
X25322938Y49184231D01*
X25319683Y49167108D01*
X25319516Y49166525D01*
X25317284Y49136790D01*
X25315095Y49121118D01*
X25309097Y49091927D01*
X25309097Y49045433D01*
X25308500Y49033279D01*
X25304255Y48990188D01*
X25304352Y48989212D01*
X25304601Y48967779D01*
X25304287Y48963607D01*
X25308086Y48934045D01*
X25309097Y48918243D01*
X25309097Y43065682D01*
X25309057Y43062540D01*
X25306839Y42975041D01*
X25317245Y42916983D01*
X25318554Y42907654D01*
X25324523Y42848965D01*
X25333630Y42819936D01*
X25337369Y42804701D01*
X25342738Y42774751D01*
X25364617Y42719978D01*
X25367777Y42711103D01*
X25385438Y42654815D01*
X25400204Y42628212D01*
X25406934Y42614039D01*
X25418219Y42585786D01*
X25450677Y42536536D01*
X25455558Y42528480D01*
X25484187Y42476902D01*
X25504001Y42453822D01*
X25513453Y42441287D01*
X25530196Y42415883D01*
X25571897Y42374182D01*
X25578302Y42367271D01*
X25616727Y42322512D01*
X25616728Y42322511D01*
X25616731Y42322508D01*
X25640795Y42303881D01*
X25652565Y42293514D01*
X27028884Y40917195D01*
X27031077Y40914946D01*
X27091375Y40851513D01*
X27092820Y40850507D01*
X27109668Y40836411D01*
X27169181Y40776898D01*
X27202666Y40715575D01*
X27205500Y40689217D01*
X27205500Y22060246D01*
X27204903Y22048092D01*
X27200658Y22005000D01*
X27205373Y21957131D01*
X27205500Y21955431D01*
X27205500Y21954258D01*
X27205816Y21951141D01*
X27205817Y21951140D01*
X27210474Y21905337D01*
X27220447Y21804089D01*
X27220925Y21802563D01*
X27220926Y21802562D01*
X27239771Y21742500D01*
X27249965Y21710008D01*
X27278981Y21614353D01*
X27280340Y21611117D01*
X27327387Y21526352D01*
X27371388Y21444034D01*
X27380576Y21430517D01*
X27380588Y21430503D01*
X27380591Y21430498D01*
X27425465Y21378227D01*
X27435080Y21365131D01*
X27444818Y21354887D01*
X27450798Y21348119D01*
X27495113Y21294121D01*
X27495115Y21294120D01*
X27495117Y21294117D01*
X27495396Y21293888D01*
X27510810Y21278811D01*
X27513134Y21276105D01*
X27513136Y21276103D01*
X27530545Y21262627D01*
X27544515Y21250006D01*
X27553164Y21240908D01*
X27575942Y21216946D01*
X27742952Y21100704D01*
X27929943Y21020459D01*
X28129260Y20979499D01*
X32256218Y20979500D01*
X32323257Y20959815D01*
X32369012Y20907011D01*
X32378956Y20837853D01*
X32373924Y20816497D01*
X32316319Y20642654D01*
X32306319Y20544778D01*
X32306000Y20538500D01*
X32306000Y20442500D01*
X34255999Y20442500D01*
X34255999Y20538498D01*
X34255678Y20544780D01*
X34245681Y20642651D01*
X34191453Y20806302D01*
X34100943Y20953041D01*
X34087018Y20966966D01*
X34053533Y21028289D01*
X34058517Y21097981D01*
X34087020Y21142330D01*
X34087019Y21142331D01*
X34101340Y21156650D01*
X34191908Y21303484D01*
X34246174Y21467247D01*
X34256500Y21568323D01*
X34256499Y21951489D01*
X34256658Y21957769D01*
X34260369Y22030936D01*
X34257929Y22046863D01*
X34256499Y22065642D01*
X34256499Y22263528D01*
X34256499Y22266676D01*
X34246174Y22367753D01*
X34191908Y22531516D01*
X34101340Y22678350D01*
X34101339Y22678351D01*
X34101338Y22678353D01*
X33979352Y22800339D01*
X33832515Y22890909D01*
X33668753Y22945175D01*
X33570809Y22955181D01*
X33570790Y22955182D01*
X33567677Y22955500D01*
X33564528Y22955500D01*
X33492006Y22955500D01*
X33467046Y22958038D01*
X33357741Y22980500D01*
X29330500Y22980500D01*
X29263461Y23000185D01*
X29217706Y23052989D01*
X29206500Y23104500D01*
X29206500Y40490066D01*
X29226185Y40557105D01*
X29278989Y40602860D01*
X29330500Y40614066D01*
X47190986Y40614066D01*
X47258025Y40594381D01*
X47303780Y40541577D01*
X47310882Y40521703D01*
X52472937Y20959134D01*
X52475670Y20945887D01*
X52481647Y20906025D01*
X52499326Y20857819D01*
X52500829Y20853433D01*
X52501559Y20850668D01*
X52502658Y20847741D01*
X52502663Y20847727D01*
X52518036Y20806805D01*
X52553069Y20711278D01*
X52607323Y20625127D01*
X52660876Y20538599D01*
X52663612Y20535747D01*
X52663613Y20535746D01*
X52731385Y20465109D01*
X52798516Y20394036D01*
X52798517Y20394035D01*
X52801236Y20391157D01*
X52885037Y20333405D01*
X52968391Y20274994D01*
X52972036Y20273450D01*
X53062136Y20235279D01*
X53151891Y20196423D01*
X53151893Y20196423D01*
X53155526Y20194850D01*
X53159395Y20194074D01*
X53159397Y20194073D01*
X53255398Y20174809D01*
X56970234Y19399065D01*
X57009977Y19383225D01*
X57154484Y19294092D01*
X57203016Y19278010D01*
X57318246Y19239826D01*
X57392535Y19232237D01*
X57419323Y19229500D01*
X57515461Y19229501D01*
X57580919Y19210817D01*
X58483559Y18649799D01*
X62199245Y16340388D01*
X62212450Y16330927D01*
X62222462Y16322710D01*
X62256220Y16304666D01*
X62263196Y16300641D01*
X62295954Y16280280D01*
X62363045Y16247477D01*
X62366996Y16245455D01*
X62396273Y16229806D01*
X62396274Y16229806D01*
X62397456Y16229174D01*
X62412895Y16223103D01*
X62432936Y16213303D01*
X62519505Y16191008D01*
X62547886Y16183698D01*
X62552902Y16182293D01*
X62584868Y16172596D01*
X62585270Y16172557D01*
X62604046Y16169235D01*
X62629986Y16162553D01*
X62741115Y16157061D01*
X62747109Y16156618D01*
X62781000Y16153279D01*
X62784105Y16153585D01*
X62802378Y16154032D01*
X62833220Y16152507D01*
X62935480Y16168307D01*
X62942206Y16169157D01*
X62977132Y16172596D01*
X62983148Y16174422D01*
X63000208Y16178308D01*
X63034316Y16183577D01*
X63123725Y16216822D01*
X63130918Y16219248D01*
X63165727Y16229806D01*
X63174516Y16234505D01*
X63189734Y16241365D01*
X63225041Y16254491D01*
X63299000Y16300723D01*
X63306239Y16304913D01*
X63339538Y16322710D01*
X63350496Y16331705D01*
X63363435Y16340998D01*
X63397584Y16362344D01*
X63397584Y16362345D01*
X63397587Y16362346D01*
X63454750Y16416825D01*
X63461614Y16422897D01*
X63491883Y16447737D01*
X63503923Y16462410D01*
X63514230Y16473509D01*
X63544889Y16502727D01*
X63585248Y16560873D01*
X63591240Y16568805D01*
X63616910Y16600082D01*
X63628406Y16621592D01*
X63635892Y16633835D01*
X63660918Y16669887D01*
X63668143Y16686784D01*
X63685594Y16727592D01*
X63690250Y16737293D01*
X63709814Y16773893D01*
X63718633Y16802969D01*
X63723280Y16815722D01*
X63726696Y16823713D01*
X63740923Y16856980D01*
X63751926Y16910873D01*
X63754753Y16922038D01*
X63767024Y16962488D01*
X63770644Y16999253D01*
X63772552Y17011895D01*
X63781629Y17056349D01*
X63781567Y17103928D01*
X63782162Y17116205D01*
X63786341Y17158620D01*
X63782023Y17202453D01*
X63781427Y17214443D01*
X63781370Y17259831D01*
X63773156Y17299540D01*
X63771187Y17312474D01*
X63767024Y17354752D01*
X63752028Y17404184D01*
X63749264Y17415047D01*
X63740154Y17459095D01*
X63726725Y17490277D01*
X63721959Y17503308D01*
X63709814Y17543347D01*
X63681681Y17595979D01*
X63677154Y17605382D01*
X63659669Y17645985D01*
X63643734Y17668817D01*
X63636063Y17681325D01*
X63616910Y17717158D01*
X63573760Y17769737D01*
X63567931Y17777433D01*
X63543219Y17812840D01*
X63543217Y17812842D01*
X63543215Y17812845D01*
X63527039Y17828182D01*
X63516521Y17839481D01*
X63491883Y17869503D01*
X63432616Y17918142D01*
X63426001Y17923979D01*
X63395553Y17952848D01*
X63395550Y17952850D01*
X63380929Y17961938D01*
X63367725Y17971398D01*
X63339536Y17994532D01*
X63264192Y18034805D01*
X63257190Y18038846D01*
X58600262Y20933267D01*
X58560180Y20973487D01*
X58526340Y21028351D01*
X58512019Y21042671D01*
X58478532Y21103993D01*
X58483515Y21173685D01*
X58512019Y21218037D01*
X58525945Y21231964D01*
X58616452Y21378696D01*
X58644745Y21464080D01*
X100166085Y21464080D01*
X100197556Y21452626D01*
X100203575Y21450776D01*
X100298963Y21426697D01*
X100471296Y21421683D01*
X100640135Y21456546D01*
X100796385Y21529405D01*
X100931619Y21636335D01*
X101038551Y21771571D01*
X101081417Y21860116D01*
X101083874Y21865926D01*
X101116703Y21956123D01*
X100435426Y22204088D01*
X100166085Y21464081D01*
X100166085Y21464080D01*
X58644745Y21464080D01*
X58670681Y21542349D01*
X58680680Y21640223D01*
X58681000Y21646501D01*
X58681000Y21742500D01*
X56731001Y21742500D01*
X56731001Y21645755D01*
X56711316Y21578716D01*
X56658512Y21532961D01*
X56589354Y21523017D01*
X56581654Y21524373D01*
X54340660Y21992345D01*
X54279060Y22025318D01*
X54246111Y22082090D01*
X54203783Y22242500D01*
X56731000Y22242500D01*
X57456000Y22242500D01*
X57456000Y23030000D01*
X57956000Y23030000D01*
X57956000Y22242500D01*
X58680999Y22242500D01*
X58680999Y22259119D01*
X99220529Y22259119D01*
X99255391Y22090283D01*
X99328252Y21934033D01*
X99435185Y21798793D01*
X99570417Y21691865D01*
X99658963Y21648997D01*
X99664758Y21646547D01*
X99696238Y21635090D01*
X99965579Y22375097D01*
X99965579Y22375098D01*
X99284303Y22623061D01*
X99251468Y22532845D01*
X99249621Y22526837D01*
X99225544Y22431454D01*
X99220529Y22259119D01*
X58680999Y22259119D01*
X58680999Y22338498D01*
X58680678Y22344780D01*
X58670681Y22442651D01*
X58616453Y22606302D01*
X58525943Y22753041D01*
X58404040Y22874944D01*
X58257301Y22965454D01*
X58093651Y23019682D01*
X57995777Y23029681D01*
X57989500Y23030000D01*
X57956000Y23030000D01*
X57456000Y23030000D01*
X57422504Y23030000D01*
X57416219Y23029679D01*
X57318349Y23019682D01*
X57154698Y22965454D01*
X57007959Y22874944D01*
X56886056Y22753041D01*
X56795546Y22606302D01*
X56741318Y22442652D01*
X56731319Y22344778D01*
X56731000Y22338500D01*
X56731000Y22242500D01*
X54203783Y22242500D01*
X54178451Y22338500D01*
X49820173Y38855002D01*
X68485658Y38855002D01*
X68493270Y38777723D01*
X68493636Y38773129D01*
X68498564Y38692446D01*
X68500772Y38684267D01*
X68504459Y38664111D01*
X68504975Y38658869D01*
X68528548Y38581158D01*
X68529600Y38577487D01*
X68551603Y38495993D01*
X68553799Y38491631D01*
X68561695Y38471888D01*
X68562184Y38470276D01*
X68602141Y38395521D01*
X68603540Y38392825D01*
X72233794Y31181642D01*
X72241696Y31161886D01*
X72242184Y31160275D01*
X72282145Y31085515D01*
X72283543Y31082820D01*
X72298752Y31052609D01*
X72300168Y31049797D01*
X72301857Y31047149D01*
X72304208Y31043462D01*
X72309012Y31035248D01*
X72335088Y30986464D01*
X72335090Y30986462D01*
X72354926Y30962291D01*
X72363613Y30950313D01*
X72382157Y30921238D01*
X72420434Y30881795D01*
X72427286Y30874120D01*
X72460116Y30834118D01*
X72487049Y30812014D01*
X72497371Y30802517D01*
X72523868Y30775212D01*
X72566341Y30746298D01*
X72575226Y30739649D01*
X72612462Y30709090D01*
X72646348Y30690978D01*
X72657657Y30684133D01*
X72692071Y30660704D01*
X72736214Y30642300D01*
X72746938Y30637211D01*
X72786273Y30616186D01*
X72826467Y30603993D01*
X72838164Y30599793D01*
X72879882Y30582399D01*
X72895978Y30579265D01*
X72923301Y30573943D01*
X72935590Y30570892D01*
X72974868Y30558976D01*
X73020215Y30554510D01*
X73031742Y30552824D01*
X73079612Y30543501D01*
X73079612Y30543502D01*
X73079613Y30543501D01*
X73080102Y30543507D01*
X73120283Y30543923D01*
X73133692Y30543334D01*
X73171000Y30539659D01*
X73219910Y30544477D01*
X73230757Y30545066D01*
X73283083Y30545606D01*
X73319344Y30553450D01*
X73333393Y30555654D01*
X73367132Y30558976D01*
X73417554Y30574273D01*
X73427328Y30576807D01*
X73453179Y30582399D01*
X73481965Y30588625D01*
X73512640Y30602168D01*
X73526701Y30607383D01*
X73555727Y30616186D01*
X73605363Y30642718D01*
X73613696Y30646777D01*
X73668116Y30670800D01*
X73692522Y30688166D01*
X73705940Y30696478D01*
X73729538Y30709090D01*
X73764329Y30737644D01*
X73775793Y30747051D01*
X73782561Y30752227D01*
X73833915Y30788763D01*
X73851894Y30808074D01*
X73863969Y30819417D01*
X73881883Y30834117D01*
X73922100Y30883123D01*
X73927195Y30888949D01*
X73957259Y30921238D01*
X73972575Y30937687D01*
X73984437Y30957166D01*
X73994478Y30971315D01*
X74006910Y30986462D01*
X74038465Y31045499D01*
X74041911Y31051535D01*
X74078419Y31111475D01*
X74084907Y31129569D01*
X74092264Y31146151D01*
X74099814Y31160273D01*
X74120289Y31227776D01*
X74122214Y31233593D01*
X74147111Y31303011D01*
X74149317Y31318479D01*
X74153416Y31336974D01*
X74154576Y31340800D01*
X74157024Y31348868D01*
X74164287Y31422623D01*
X74164927Y31427939D01*
X74175842Y31504454D01*
X74175107Y31516482D01*
X74175472Y31536187D01*
X74176341Y31545000D01*
X74168725Y31622310D01*
X74168362Y31626881D01*
X74163435Y31707553D01*
X74163435Y31707557D01*
X74161227Y31715732D01*
X74157540Y31735890D01*
X74157024Y31741132D01*
X74133453Y31818832D01*
X74132399Y31822509D01*
X74131965Y31824113D01*
X74110397Y31904006D01*
X74108203Y31908364D01*
X74100299Y31928129D01*
X74099815Y31929725D01*
X74059856Y32004481D01*
X74058457Y32007178D01*
X70804804Y38470276D01*
X70428204Y39218360D01*
X70420302Y39238118D01*
X70419814Y39239727D01*
X70379840Y39314512D01*
X70378453Y39317186D01*
X70363244Y39347399D01*
X70363240Y39347406D01*
X70361832Y39350203D01*
X70357786Y39356547D01*
X70352981Y39364762D01*
X70326910Y39413538D01*
X70307068Y39437716D01*
X70298387Y39449686D01*
X70279843Y39478762D01*
X70241566Y39518204D01*
X70234711Y39525882D01*
X70201883Y39565883D01*
X70183643Y39580852D01*
X70174957Y39587981D01*
X70164637Y39597476D01*
X70138131Y39624789D01*
X70095650Y39653709D01*
X70086767Y39660357D01*
X70049538Y39690910D01*
X70049537Y39690911D01*
X70015658Y39709019D01*
X70004335Y39715873D01*
X69984757Y39729201D01*
X69969929Y39739296D01*
X69969928Y39739297D01*
X69969926Y39739298D01*
X69925797Y39757697D01*
X69915064Y39762788D01*
X69913077Y39763850D01*
X69875727Y39783814D01*
X69862960Y39787687D01*
X69835541Y39796005D01*
X69823820Y39800215D01*
X69782118Y39817603D01*
X69738697Y39826059D01*
X69726409Y39829111D01*
X69687135Y39841024D01*
X69641790Y39845490D01*
X69630241Y39847180D01*
X69582387Y39856500D01*
X69541722Y39856079D01*
X69528287Y39856669D01*
X69490999Y39860342D01*
X69442111Y39855527D01*
X69431242Y39854937D01*
X69378917Y39854396D01*
X69342661Y39846553D01*
X69328602Y39844347D01*
X69294866Y39841024D01*
X69244444Y39825729D01*
X69234667Y39823193D01*
X69180035Y39811375D01*
X69180034Y39811375D01*
X69180031Y39811374D01*
X69149360Y39797836D01*
X69135290Y39792618D01*
X69106275Y39783816D01*
X69056661Y39757297D01*
X69048290Y39753220D01*
X68993885Y39729202D01*
X68969479Y39711838D01*
X68956052Y39703520D01*
X68932462Y39690911D01*
X68886214Y39652957D01*
X68879440Y39647778D01*
X68828086Y39611239D01*
X68810111Y39591934D01*
X68798032Y39580587D01*
X68780118Y39565884D01*
X68739906Y39516888D01*
X68734810Y39511060D01*
X68689422Y39462311D01*
X68677561Y39442837D01*
X68667515Y39428680D01*
X68655089Y39413540D01*
X68623535Y39354504D01*
X68620089Y39348471D01*
X68601036Y39317186D01*
X68583580Y39288525D01*
X68577091Y39270430D01*
X68569734Y39253851D01*
X68565040Y39245067D01*
X68562185Y39239726D01*
X68541716Y39172250D01*
X68539777Y39166389D01*
X68514888Y39096989D01*
X68512681Y39081515D01*
X68508588Y39063044D01*
X68504976Y39051135D01*
X68497714Y38977406D01*
X68497069Y38972054D01*
X68486157Y38895545D01*
X68486892Y38883519D01*
X68486526Y38863811D01*
X68485658Y38855002D01*
X49820173Y38855002D01*
X49089997Y41622139D01*
X49088125Y41677189D01*
X50770709Y50426630D01*
X53432291Y50426630D01*
X53526813Y50409963D01*
X53533090Y50409183D01*
X53631192Y50402036D01*
X53801776Y50427022D01*
X53961999Y50490675D01*
X54103222Y50589560D01*
X54217836Y50718350D01*
X54299658Y50870099D01*
X54326496Y50964732D01*
X54327906Y50970879D01*
X54333721Y51003868D01*
X53558186Y51140616D01*
X53432291Y50426630D01*
X50770709Y50426630D01*
X50831223Y50741303D01*
X50863214Y50803417D01*
X50923708Y50838377D01*
X50975911Y50839748D01*
X51521551Y50737131D01*
X51673484Y50724254D01*
X51673484Y50724255D01*
X51673485Y50724254D01*
X51688869Y50726080D01*
X51695988Y50726925D01*
X51732132Y50725907D01*
X51831081Y50708459D01*
X51932415Y50701076D01*
X52103113Y50726080D01*
X52263443Y50789775D01*
X52280033Y50801392D01*
X52346237Y50823720D01*
X52414004Y50806711D01*
X52452731Y50770943D01*
X52464029Y50754808D01*
X52592821Y50640194D01*
X52744572Y50558371D01*
X52839206Y50531532D01*
X52845358Y50530121D01*
X52939887Y50513453D01*
X53116567Y51515446D01*
X53137305Y51633059D01*
X53644776Y51633059D01*
X54420545Y51496271D01*
X54420545Y51496272D01*
X54426362Y51529253D01*
X54427139Y51535510D01*
X54434287Y51633620D01*
X54409300Y51804207D01*
X54345649Y51964426D01*
X54246764Y52105649D01*
X54117972Y52220263D01*
X53966221Y52302086D01*
X53871580Y52328927D01*
X53865440Y52330335D01*
X53770904Y52347005D01*
X53663078Y51735486D01*
X53652023Y51713181D01*
X53645482Y51638415D01*
X53644776Y51633059D01*
X53137305Y51633059D01*
X53278501Y52433827D01*
X53183965Y52450496D01*
X53177719Y52451272D01*
X53079601Y52458421D01*
X52909017Y52433435D01*
X52748794Y52369782D01*
X52732659Y52358484D01*
X52666452Y52336158D01*
X52598685Y52353171D01*
X52559964Y52388937D01*
X52548345Y52405530D01*
X52419470Y52520218D01*
X52267615Y52602098D01*
X52172914Y52628955D01*
X52172903Y52628958D01*
X52169869Y52629818D01*
X52166757Y52630367D01*
X52166756Y52630367D01*
X52058232Y52649503D01*
X52032785Y52656863D01*
X51941511Y52694230D01*
X51354795Y52804573D01*
X51292549Y52836310D01*
X51257342Y52896661D01*
X51255945Y52949854D01*
X52974590Y61886817D01*
X53006581Y61948931D01*
X53008636Y61951037D01*
X55450783Y64393183D01*
X55512106Y64426668D01*
X55538464Y64429502D01*
X63039039Y64429502D01*
X63106078Y64409817D01*
X63151833Y64357013D01*
X63156968Y64343825D01*
X65981338Y55652573D01*
X66010501Y55558312D01*
X66016398Y55544685D01*
X69039920Y46240599D01*
X69042712Y46230605D01*
X69055201Y46177381D01*
X69065136Y46155898D01*
X69071246Y46139851D01*
X69077184Y46120276D01*
X69103662Y46070741D01*
X69107751Y46062344D01*
X69132600Y46006027D01*
X69139312Y45994459D01*
X69140612Y45992697D01*
X69140614Y45992694D01*
X69150192Y45979717D01*
X69152543Y45976532D01*
X69162130Y45961354D01*
X69170091Y45946461D01*
X69207974Y45900301D01*
X69213169Y45893505D01*
X69250914Y45840435D01*
X69259826Y45830445D01*
X69261451Y45828984D01*
X69261454Y45828980D01*
X69273734Y45817940D01*
X69286675Y45804402D01*
X69295117Y45794117D01*
X69344031Y45753974D01*
X69349879Y45748860D01*
X69400163Y45702026D01*
X69410874Y45694055D01*
X69412776Y45692942D01*
X69423930Y45686413D01*
X69439952Y45675253D01*
X69447462Y45669089D01*
X69478161Y45652681D01*
X69506424Y45637574D01*
X69512476Y45634116D01*
X69574197Y45596512D01*
X69586302Y45590857D01*
X69588384Y45590152D01*
X69588386Y45590150D01*
X69597229Y45587152D01*
X69615861Y45579079D01*
X69621274Y45576185D01*
X69688687Y45555736D01*
X69694512Y45553809D01*
X69763851Y45528927D01*
X69763853Y45528927D01*
X69765909Y45528189D01*
X69783555Y45523977D01*
X81098290Y41687651D01*
X81144242Y41659768D01*
X97533610Y25961514D01*
X99807616Y23783399D01*
X99842414Y23722811D01*
X99843280Y23718929D01*
X99844897Y23711096D01*
X99853459Y23692735D01*
X99863950Y23623658D01*
X99835429Y23559874D01*
X99793484Y23527951D01*
X99775630Y23519626D01*
X99640395Y23412694D01*
X99533464Y23277460D01*
X99490603Y23188925D01*
X99488137Y23183093D01*
X99455311Y23092908D01*
X100136590Y22844943D01*
X101287711Y22425971D01*
X101320543Y22516174D01*
X101322394Y22522194D01*
X101346471Y22617577D01*
X101351486Y22789912D01*
X101316624Y22958748D01*
X101308299Y22976601D01*
X101297807Y23045679D01*
X101326327Y23109463D01*
X101368276Y23141388D01*
X101386633Y23149947D01*
X101521960Y23256950D01*
X101628963Y23392277D01*
X101650226Y23436198D01*
X101693701Y23485769D01*
X102923031Y24294175D01*
X102932679Y24299910D01*
X102974538Y24322282D01*
X103049052Y24383435D01*
X103126386Y24446361D01*
X103190206Y24524469D01*
X103251910Y24599654D01*
X103251911Y24599658D01*
X103254628Y24602967D01*
X103255130Y24603927D01*
X103255135Y24603932D01*
X103300393Y24690360D01*
X103344814Y24773465D01*
X103344815Y24773469D01*
X103348025Y24779474D01*
X103348525Y24780694D01*
X103375574Y24874867D01*
X103402976Y24965196D01*
X103405667Y24979273D01*
X103412616Y25069324D01*
X103412845Y25071939D01*
X103421341Y25158192D01*
X103421340Y25158198D01*
X103421358Y25158375D01*
X103421133Y25179669D01*
X103421363Y25182647D01*
X103410544Y25268284D01*
X103410166Y25271654D01*
X103402024Y25354324D01*
X103401047Y25357545D01*
X103396685Y25378003D01*
X103396318Y25380900D01*
X103395861Y25384524D01*
X103369163Y25462891D01*
X103367898Y25466821D01*
X103344814Y25542919D01*
X103341538Y25549047D01*
X103333519Y25567519D01*
X103330242Y25577137D01*
X103290145Y25645409D01*
X103287709Y25649754D01*
X103251910Y25716730D01*
X103245227Y25724873D01*
X103234158Y25740738D01*
X103227195Y25752595D01*
X103220331Y25760208D01*
X103176552Y25808764D01*
X103172794Y25813133D01*
X103126884Y25869074D01*
X103126883Y25869075D01*
X103115967Y25878034D01*
X103102543Y25890848D01*
X103090937Y25903720D01*
X103032905Y25946425D01*
X103027735Y25950444D01*
X102974538Y25994102D01*
X102958929Y26002445D01*
X102943888Y26011931D01*
X102927051Y26024321D01*
X102927050Y26024322D01*
X102927048Y26024323D01*
X102864816Y26052994D01*
X102858277Y26056245D01*
X102800729Y26087005D01*
X102800728Y26087006D01*
X102800727Y26087006D01*
X102780362Y26093184D01*
X102764479Y26099220D01*
X102742234Y26109468D01*
X102678999Y26124211D01*
X102671161Y26126311D01*
X102612131Y26144217D01*
X102587390Y26146654D01*
X102571404Y26149293D01*
X102560768Y26151773D01*
X102544067Y26155666D01*
X102482734Y26157282D01*
X102473849Y26157836D01*
X102415998Y26163534D01*
X102387704Y26160747D01*
X102372287Y26160193D01*
X102340655Y26161027D01*
X102283777Y26150892D01*
X102274182Y26149566D01*
X102219865Y26144216D01*
X102189243Y26134927D01*
X102175005Y26131511D01*
X102140329Y26125332D01*
X102089954Y26105270D01*
X102080075Y26101812D01*
X102031274Y26087007D01*
X101999885Y26070231D01*
X101987320Y26064393D01*
X101951288Y26050042D01*
X101908971Y26022215D01*
X101899298Y26016466D01*
X101857464Y25994105D01*
X101827197Y25969265D01*
X101816665Y25961514D01*
X101074901Y25473732D01*
X101008072Y25453345D01*
X100940829Y25472324D01*
X100920997Y25487789D01*
X82781615Y42862259D01*
X82746817Y42922847D01*
X82745257Y42973255D01*
X84234078Y51451402D01*
X86882894Y51451402D01*
X86977416Y51434735D01*
X86983693Y51433955D01*
X87081795Y51426808D01*
X87252379Y51451794D01*
X87412602Y51515447D01*
X87553825Y51614332D01*
X87668439Y51743122D01*
X87750261Y51894871D01*
X87777099Y51989504D01*
X87778509Y51995651D01*
X87784324Y52028640D01*
X87008789Y52165388D01*
X86882894Y51451402D01*
X84234078Y51451402D01*
X84289970Y51769682D01*
X84320953Y51832305D01*
X84380875Y51868237D01*
X84436772Y51869753D01*
X84957857Y51763953D01*
X85109589Y51748887D01*
X85109589Y51748888D01*
X85109590Y51748887D01*
X85144700Y51752542D01*
X85179068Y51751326D01*
X85281684Y51733231D01*
X85383018Y51725848D01*
X85553716Y51750852D01*
X85714046Y51814547D01*
X85730636Y51826164D01*
X85796840Y51848492D01*
X85864607Y51831483D01*
X85903334Y51795715D01*
X85914632Y51779580D01*
X86043424Y51664966D01*
X86195175Y51583143D01*
X86289809Y51556304D01*
X86295961Y51554893D01*
X86390490Y51538225D01*
X86525181Y52302085D01*
X86587908Y52657831D01*
X87095379Y52657831D01*
X87871148Y52521043D01*
X87871148Y52521044D01*
X87876965Y52554025D01*
X87877742Y52560282D01*
X87884891Y52658394D01*
X87859903Y52828979D01*
X87796252Y52989198D01*
X87697367Y53130421D01*
X87568575Y53245035D01*
X87416824Y53326858D01*
X87322183Y53353699D01*
X87316043Y53355107D01*
X87221507Y53371777D01*
X87113681Y52760258D01*
X87102626Y52737953D01*
X87096085Y52663187D01*
X87095379Y52657831D01*
X86587908Y52657831D01*
X86729104Y53458599D01*
X86634568Y53475268D01*
X86628322Y53476044D01*
X86530204Y53483193D01*
X86359620Y53458207D01*
X86199397Y53394554D01*
X86183262Y53383256D01*
X86117055Y53360930D01*
X86049288Y53377943D01*
X86010567Y53413709D01*
X85998948Y53430302D01*
X85870073Y53544990D01*
X85718218Y53626870D01*
X85623524Y53653725D01*
X85623513Y53653728D01*
X85620472Y53654590D01*
X85617359Y53655139D01*
X85617350Y53655141D01*
X85509539Y53674151D01*
X85482443Y53682200D01*
X85405989Y53714794D01*
X84776552Y53842593D01*
X84714770Y53875224D01*
X84680436Y53936076D01*
X84679094Y53985558D01*
X86305924Y63249603D01*
X86309395Y63264148D01*
X86318278Y63293428D01*
X86318802Y63298761D01*
X86322486Y63318912D01*
X86324718Y63327181D01*
X86329629Y63407819D01*
X86329992Y63412381D01*
X86337595Y63489560D01*
X86337364Y63491894D01*
X86337093Y63513041D01*
X86337495Y63518568D01*
X86337494Y63518572D01*
X86337883Y63523920D01*
X86337846Y63524991D01*
X86337090Y63530286D01*
X86326171Y63606740D01*
X86325531Y63612049D01*
X86318278Y63685692D01*
X86316556Y63691366D01*
X86312264Y63711270D01*
X86311079Y63720328D01*
X86311077Y63720334D01*
X86310383Y63725637D01*
X86310130Y63726682D01*
X86308322Y63731719D01*
X86308322Y63731724D01*
X86283453Y63801025D01*
X86281511Y63806898D01*
X86261069Y63874285D01*
X86256581Y63882681D01*
X86248746Y63900615D01*
X86244589Y63912641D01*
X86244587Y63912645D01*
X86242843Y63917689D01*
X86237569Y63928890D01*
X86070959Y64393183D01*
X79676236Y82213412D01*
X79671290Y82231320D01*
X79667954Y82248252D01*
X79640056Y82314747D01*
X79637686Y82320841D01*
X79631626Y82337729D01*
X79630565Y82340687D01*
X79620476Y82361794D01*
X79618022Y82367265D01*
X79589232Y82435888D01*
X79589231Y82435890D01*
X79580786Y82448236D01*
X79571256Y82464768D01*
X79564809Y82478258D01*
X79519884Y82537532D01*
X79516360Y82542424D01*
X79501397Y82564298D01*
X79474351Y82603838D01*
X79474350Y82603839D01*
X79463587Y82614238D01*
X79450923Y82628516D01*
X79441898Y82640424D01*
X79385936Y82689463D01*
X79381526Y82693521D01*
X79328012Y82745223D01*
X79315382Y82753239D01*
X79300118Y82764664D01*
X79288860Y82774529D01*
X79288857Y82774531D01*
X79224175Y82811297D01*
X79219007Y82814403D01*
X75138843Y85403853D01*
X75092788Y85456396D01*
X75082451Y85525497D01*
X75111113Y85589217D01*
X75115384Y85593950D01*
X75221115Y85705254D01*
X93834632Y105299952D01*
X93845856Y105310390D01*
X93868139Y105328676D01*
X93897678Y105364670D01*
X93905321Y105373153D01*
X93940321Y105408559D01*
X93961961Y105441812D01*
X93970022Y105452822D01*
X93993166Y105481021D01*
X93995120Y105484678D01*
X94006387Y105502079D01*
X94010883Y105507890D01*
X94025625Y105537971D01*
X94033029Y105551015D01*
X94051311Y105579105D01*
X94064513Y105612723D01*
X94070557Y105625811D01*
X94086070Y105654832D01*
X94088309Y105662213D01*
X94095627Y105680800D01*
X94100434Y105690607D01*
X94108821Y105723049D01*
X94113452Y105737327D01*
X94125698Y105768503D01*
X94131249Y105800544D01*
X94134769Y105815372D01*
X94138804Y105828673D01*
X94143280Y105843427D01*
X94144387Y105854673D01*
X94147736Y105873559D01*
X94151371Y105887611D01*
X94153055Y105921065D01*
X94154718Y105935997D01*
X94154866Y105936851D01*
X95651858Y114576630D01*
X98257291Y114576630D01*
X98351813Y114559963D01*
X98358090Y114559183D01*
X98456192Y114552036D01*
X98626776Y114577022D01*
X98786999Y114640675D01*
X98928222Y114739560D01*
X99042836Y114868350D01*
X99124658Y115020099D01*
X99151496Y115114732D01*
X99152906Y115120879D01*
X99158721Y115153868D01*
X98383186Y115290616D01*
X98257291Y114576630D01*
X95651858Y114576630D01*
X95700775Y114858953D01*
X95731615Y114921643D01*
X95791455Y114957712D01*
X95840447Y114960539D01*
X96390673Y114882121D01*
X96543028Y114875990D01*
X96543030Y114875991D01*
X96552358Y114875615D01*
X96568898Y114873832D01*
X96656081Y114858459D01*
X96757415Y114851076D01*
X96928113Y114876080D01*
X97088443Y114939775D01*
X97105033Y114951392D01*
X97171237Y114973720D01*
X97239004Y114956711D01*
X97277731Y114920943D01*
X97289029Y114904808D01*
X97417821Y114790194D01*
X97569572Y114708371D01*
X97664206Y114681532D01*
X97670358Y114680121D01*
X97764887Y114663453D01*
X97909115Y115481401D01*
X97962305Y115783059D01*
X98469776Y115783059D01*
X99245545Y115646271D01*
X99245545Y115646272D01*
X99251362Y115679253D01*
X99252139Y115685510D01*
X99259287Y115783620D01*
X99234300Y115954207D01*
X99170649Y116114426D01*
X99071764Y116255649D01*
X98942972Y116370263D01*
X98791221Y116452086D01*
X98696580Y116478927D01*
X98690440Y116480335D01*
X98595904Y116497005D01*
X98488078Y115885486D01*
X98477023Y115863181D01*
X98470482Y115788415D01*
X98469776Y115783059D01*
X97962305Y115783059D01*
X98103501Y116583827D01*
X98008965Y116600496D01*
X98002719Y116601272D01*
X97904601Y116608421D01*
X97734017Y116583435D01*
X97573794Y116519782D01*
X97557659Y116508484D01*
X97491452Y116486158D01*
X97423685Y116503171D01*
X97384964Y116538937D01*
X97373345Y116555530D01*
X97244470Y116670218D01*
X97092615Y116752098D01*
X96997921Y116778953D01*
X96997910Y116778956D01*
X96994869Y116779818D01*
X96991756Y116780367D01*
X96991747Y116780369D01*
X96888870Y116798509D01*
X96868555Y116803900D01*
X96723488Y116855909D01*
X96189588Y116932001D01*
X96125997Y116960947D01*
X96088150Y117019679D01*
X96084904Y117075927D01*
X97625682Y125968414D01*
X97631429Y125989847D01*
X97631440Y125989923D01*
X97631442Y125989927D01*
X97634431Y126009776D01*
X97638387Y126027300D01*
X97643280Y126043427D01*
X97648892Y126100418D01*
X97650117Y126109434D01*
X97651731Y126118747D01*
X97652160Y126124862D01*
X97653239Y126134640D01*
X97658065Y126166676D01*
X97661750Y126191139D01*
X97660873Y126207611D01*
X97661294Y126226338D01*
X97662597Y126239559D01*
X97662239Y126243186D01*
X97661949Y126264028D01*
X97662429Y126270850D01*
X97654881Y126327491D01*
X97653971Y126337275D01*
X97650935Y126394332D01*
X97647669Y126406816D01*
X97644229Y126426050D01*
X97643280Y126435691D01*
X97641182Y126442607D01*
X97636930Y126462216D01*
X97635554Y126472549D01*
X97616761Y126526506D01*
X97613906Y126535884D01*
X97599439Y126591190D01*
X97595312Y126599551D01*
X97587842Y126618443D01*
X97586070Y126624286D01*
X97580978Y126633812D01*
X97573236Y126651480D01*
X97568628Y126664711D01*
X97539357Y126713782D01*
X97534659Y126722419D01*
X97509369Y126773651D01*
X97509369Y126773652D01*
X97505847Y126778178D01*
X97494360Y126795864D01*
X97493166Y126798097D01*
X97484041Y126809216D01*
X97473402Y126824357D01*
X97464390Y126839465D01*
X97425833Y126881649D01*
X97419495Y126889161D01*
X97369832Y126952989D01*
X91807474Y134101902D01*
X91747238Y134180280D01*
X91747237Y134180281D01*
X91741938Y134187176D01*
X91737434Y134191919D01*
X85529595Y142170423D01*
X85518099Y142188124D01*
X85516912Y142190345D01*
X85516910Y142190348D01*
X85482192Y142232652D01*
X85476371Y142240337D01*
X85443215Y142287845D01*
X85420352Y142309523D01*
X85409818Y142320839D01*
X85391881Y142342695D01*
X85368371Y142361989D01*
X85357377Y142372184D01*
X85334146Y142396501D01*
X85321459Y142405285D01*
X85306742Y142417239D01*
X85295553Y142427848D01*
X85295552Y142427849D01*
X85271841Y142442586D01*
X85258634Y142452048D01*
X85239536Y142467722D01*
X85209552Y142483749D01*
X85197425Y142491154D01*
X85191520Y142495242D01*
X85166845Y142512325D01*
X85166843Y142512326D01*
X85152662Y142518370D01*
X85135824Y142527125D01*
X80593850Y145350099D01*
X80553768Y145390319D01*
X80476340Y145515851D01*
X80462019Y145530171D01*
X80428532Y145591493D01*
X80433515Y145661185D01*
X80462019Y145705537D01*
X80475945Y145719464D01*
X80566452Y145866196D01*
X80620681Y146029849D01*
X80630680Y146127723D01*
X80631000Y146134001D01*
X80631000Y146230000D01*
X78681001Y146230000D01*
X78681001Y146134003D01*
X78681321Y146127721D01*
X78690734Y146035574D01*
X78677964Y145966881D01*
X78630083Y145915997D01*
X78562293Y145899077D01*
X78552130Y145899914D01*
X71852144Y146730000D01*
X78681000Y146730000D01*
X79406000Y146730000D01*
X79406000Y147517500D01*
X79905999Y147517500D01*
X79905999Y146730001D01*
X79906001Y146730000D01*
X80630999Y146730000D01*
X80630999Y146825998D01*
X80630678Y146832280D01*
X80620681Y146930151D01*
X80566453Y147093802D01*
X80475943Y147240541D01*
X80354040Y147362444D01*
X80207301Y147452954D01*
X80043651Y147507182D01*
X79945777Y147517181D01*
X79939500Y147517500D01*
X79905999Y147517500D01*
X79406000Y147517500D01*
X79372504Y147517500D01*
X79366219Y147517179D01*
X79268349Y147507182D01*
X79104698Y147452954D01*
X78957959Y147362444D01*
X78836056Y147240541D01*
X78745546Y147093802D01*
X78691318Y146930152D01*
X78681319Y146832278D01*
X78681000Y146826000D01*
X78681000Y146730000D01*
X71852144Y146730000D01*
X65699652Y147492255D01*
X65689657Y147493910D01*
X65635056Y147505263D01*
X65627119Y147505281D01*
X65606592Y147507042D01*
X65598772Y147508374D01*
X65598770Y147508374D01*
X65563613Y147507182D01*
X65528454Y147505990D01*
X65521536Y147505950D01*
X65517886Y147506029D01*
X65450002Y147507517D01*
X65430103Y147505738D01*
X55223915Y147529363D01*
X55185199Y147535657D01*
X55118755Y147557675D01*
X55020809Y147567681D01*
X55020790Y147567682D01*
X55017677Y147568000D01*
X55014528Y147568000D01*
X54447473Y147568000D01*
X54447453Y147568000D01*
X54444324Y147567999D01*
X54441192Y147567680D01*
X54441190Y147567679D01*
X54343247Y147557675D01*
X54280238Y147536795D01*
X54241234Y147530501D01*
X49658399Y147530501D01*
X49658379Y147530501D01*
X49655258Y147530500D01*
X49652147Y147530184D01*
X49652134Y147530183D01*
X49503558Y147515074D01*
X49491172Y147511187D01*
X49454052Y147505500D01*
X44603555Y147505500D01*
X44600413Y147505540D01*
X44512952Y147507757D01*
X44454898Y147497352D01*
X44445570Y147496043D01*
X44386878Y147490074D01*
X44357844Y147480965D01*
X44342605Y147477225D01*
X44312662Y147471858D01*
X44257885Y147449979D01*
X44249015Y147446821D01*
X44192727Y147429159D01*
X44166126Y147414395D01*
X44151956Y147407665D01*
X44123702Y147396378D01*
X44074438Y147363913D01*
X44066387Y147359036D01*
X44014815Y147330410D01*
X43991731Y147310593D01*
X43979204Y147301147D01*
X43953798Y147284402D01*
X43912092Y147242697D01*
X43905185Y147236296D01*
X43860420Y147197865D01*
X43841797Y147173807D01*
X43831425Y147162031D01*
X28728800Y132059404D01*
X28728798Y132059402D01*
X26494207Y129824812D01*
X26432884Y129791327D01*
X26363192Y129796311D01*
X26318845Y129824812D01*
X20879970Y135263688D01*
X20846485Y135325011D01*
X20851469Y135394703D01*
X20879970Y135439050D01*
X21064461Y135623540D01*
X21160818Y135741713D01*
X21166831Y135753226D01*
X21189055Y135783493D01*
X21257807Y135852243D01*
X21321978Y135931016D01*
X21399404Y136085186D01*
X21439190Y136253054D01*
X21439190Y136273311D01*
X21458875Y136340349D01*
X21511679Y136386104D01*
X21563190Y136397310D01*
X21582885Y136397310D01*
X21750644Y136437069D01*
X21904709Y136514445D01*
X21980967Y136576565D01*
X21985668Y136580810D01*
X22053532Y136648675D01*
X22053532Y136648676D01*
X21540880Y137161327D01*
X21187326Y137514881D01*
X21894433Y137514881D01*
X22407084Y137002228D01*
X22407085Y137002228D01*
X22474955Y137070099D01*
X22479183Y137074781D01*
X22541317Y137151054D01*
X22618691Y137305116D01*
X22658450Y137472875D01*
X22658450Y137645274D01*
X22618691Y137813033D01*
X22541315Y137967098D01*
X22479193Y138043359D01*
X22474957Y138048049D01*
X22451279Y138071727D01*
X21894433Y137514882D01*
X21894433Y137514881D01*
X21187326Y137514881D01*
X20674674Y138027533D01*
X20606795Y137959652D01*
X20602576Y137954980D01*
X20540442Y137878707D01*
X20463068Y137724645D01*
X20423310Y137556886D01*
X20423310Y137537190D01*
X20403625Y137470151D01*
X20350821Y137424396D01*
X20299310Y137413190D01*
X20279052Y137413190D01*
X20111187Y137373405D01*
X19957017Y137295979D01*
X19957015Y137295978D01*
X19957016Y137295978D01*
X19878243Y137231808D01*
X19876019Y137229584D01*
X19798219Y137151784D01*
X19778776Y137135931D01*
X19685602Y137074523D01*
X19465049Y136853970D01*
X19403726Y136820485D01*
X19334034Y136825469D01*
X19289687Y136853970D01*
X18108999Y138034658D01*
X18099733Y138045026D01*
X18097322Y138048049D01*
X18077691Y138072666D01*
X18077689Y138072668D01*
X18027786Y138116268D01*
X18021690Y138121967D01*
X18016689Y138126968D01*
X18014712Y138128945D01*
X18012568Y138130735D01*
X17983443Y138155051D01*
X17981329Y138156857D01*
X17908181Y138220764D01*
X17904420Y138223011D01*
X17888551Y138234271D01*
X17885199Y138237070D01*
X17800735Y138284996D01*
X17798332Y138286396D01*
X17714948Y138336215D01*
X17710844Y138337755D01*
X17693238Y138345992D01*
X17689427Y138348154D01*
X17689425Y138348155D01*
X17689423Y138348156D01*
X17597732Y138380240D01*
X17595397Y138381086D01*
X21028227Y138381086D01*
X21540880Y137868433D01*
X21540881Y137868433D01*
X22097726Y138425279D01*
X22074037Y138448968D01*
X22069363Y138453188D01*
X21993098Y138515316D01*
X21839033Y138592692D01*
X21671273Y138632450D01*
X21498875Y138632450D01*
X21331115Y138592692D01*
X21177050Y138515316D01*
X21100781Y138453187D01*
X21096111Y138448970D01*
X21028227Y138381086D01*
X17595397Y138381086D01*
X17595116Y138381188D01*
X17504204Y138415308D01*
X17499901Y138416089D01*
X17481096Y138421053D01*
X17476964Y138422499D01*
X17381022Y138437695D01*
X17378281Y138438161D01*
X17282733Y138455500D01*
X17282730Y138455500D01*
X17278352Y138455500D01*
X17258955Y138457027D01*
X17256380Y138457435D01*
X17254643Y138457710D01*
X17254642Y138457710D01*
X17209302Y138456693D01*
X17157560Y138455531D01*
X17154778Y138455500D01*
X14105751Y138455500D01*
X14038712Y138475185D01*
X14006485Y138505189D01*
X13963548Y138562544D01*
X13963546Y138562545D01*
X13963546Y138562546D01*
X13848331Y138648796D01*
X13713483Y138699091D01*
X13653873Y138705500D01*
X13650550Y138705500D01*
X9761439Y138705500D01*
X9761420Y138705500D01*
X9758128Y138705499D01*
X9754848Y138705147D01*
X9754840Y138705146D01*
X9698515Y138699091D01*
X9563669Y138648796D01*
X9448454Y138562546D01*
X9362204Y138447332D01*
X9321335Y138337755D01*
X9311909Y138312483D01*
X9305500Y138252873D01*
X9305500Y138249552D01*
X9305500Y138249551D01*
X9305500Y136160440D01*
X9305500Y136160422D01*
X9305501Y136157128D01*
X9311909Y136097517D01*
X9362204Y135962669D01*
X9448454Y135847454D01*
X9563669Y135761204D01*
X9698517Y135710909D01*
X9758127Y135704500D01*
X10331500Y135704501D01*
X10398539Y135684817D01*
X10444294Y135632013D01*
X10455500Y135580501D01*
X10455500Y134037816D01*
X10435815Y133970777D01*
X10383011Y133925022D01*
X10313853Y133915078D01*
X10296564Y133918839D01*
X10226113Y133939526D01*
X10226111Y133939527D01*
X10224420Y133940023D01*
X10224416Y133940024D01*
X10221290Y133940474D01*
X10221277Y133940476D01*
X10082000Y133960500D01*
X7251636Y133960500D01*
X7249983Y133960410D01*
X7249951Y133960409D01*
X7198328Y133957593D01*
X7198302Y133957591D01*
X7196654Y133957501D01*
X7194988Y133957319D01*
X7194979Y133957318D01*
X7171536Y133954753D01*
X7171524Y133954752D01*
X7169839Y133954567D01*
X7168167Y133954292D01*
X7168158Y133954290D01*
X7115512Y133945607D01*
X6980890Y133894817D01*
X6929595Y133866557D01*
X6923229Y133863771D01*
X6804838Y133774445D01*
X6585785Y133553734D01*
X5681160Y132642264D01*
X5680081Y132641059D01*
X5680065Y132641040D01*
X5647096Y132604158D01*
X5647075Y132604134D01*
X5646003Y132602934D01*
X5644989Y132601674D01*
X5644978Y132601660D01*
X5630828Y132584063D01*
X5630806Y132584036D01*
X5629808Y132582793D01*
X5628867Y132581490D01*
X5628858Y132581477D01*
X5598947Y132540021D01*
X5538962Y132409242D01*
X5520239Y132345862D01*
X5520236Y132345851D01*
X5519168Y132342234D01*
X5519167Y132342228D01*
X5518761Y132339442D01*
X5518743Y132339360D01*
X5498459Y132199851D01*
X5496761Y131155822D01*
X5495948Y130655822D01*
X5476131Y118468650D01*
X5456337Y118401643D01*
X5438412Y118379792D01*
X4118267Y117100846D01*
X4118250Y117100830D01*
X4116987Y117099605D01*
X4115800Y117098315D01*
X4115773Y117098287D01*
X4078829Y117058127D01*
X4078818Y117058116D01*
X4077630Y117056823D01*
X4076523Y117055472D01*
X4076508Y117055454D01*
X4060731Y117036190D01*
X4060703Y117036155D01*
X4059596Y117034802D01*
X4058554Y117033370D01*
X4058544Y117033356D01*
X4025432Y116987817D01*
X3965662Y116856943D01*
X3950087Y116803900D01*
X3945977Y116789902D01*
X3945976Y116789898D01*
X3945527Y116786776D01*
X3945524Y116786760D01*
X3928769Y116670219D01*
X3925500Y116647482D01*
X3925500Y18847871D01*
X2000500Y18847871D01*
X2000500Y156097062D01*
X4745321Y156097062D01*
X4764307Y155698491D01*
X4764865Y155692642D01*
X4821650Y155297697D01*
X4822767Y155291899D01*
X4916834Y154904152D01*
X4918499Y154898481D01*
X5048995Y154521437D01*
X5051189Y154515958D01*
X5216939Y154153014D01*
X5219641Y154147773D01*
X5419138Y153802234D01*
X5422336Y153797259D01*
X5653773Y153472250D01*
X5657414Y153467620D01*
X5822986Y153276542D01*
X7313103Y154766659D01*
X7425031Y154629082D01*
X7639990Y154428324D01*
X7664544Y154410992D01*
X6174929Y152921377D01*
X6211553Y152886456D01*
X6215999Y152882603D01*
X6529654Y152635943D01*
X6534443Y152632533D01*
X6870109Y152416814D01*
X6875204Y152413872D01*
X7229859Y152231035D01*
X7235226Y152228584D01*
X7605654Y152080287D01*
X7611211Y152078364D01*
X7994051Y151965951D01*
X7999791Y151964559D01*
X8391574Y151889049D01*
X8397410Y151888209D01*
X8794612Y151850281D01*
X8800502Y151850000D01*
X9199498Y151850000D01*
X9205387Y151850281D01*
X9602589Y151888209D01*
X9608425Y151889049D01*
X10000208Y151964559D01*
X10005948Y151965951D01*
X10388788Y152078364D01*
X10394345Y152080287D01*
X10764773Y152228584D01*
X10770140Y152231035D01*
X11124787Y152413868D01*
X11129895Y152416817D01*
X11465555Y152632533D01*
X11470350Y152635947D01*
X11784001Y152882604D01*
X11788445Y152886455D01*
X11825070Y152921377D01*
X10335455Y154410992D01*
X10360010Y154428324D01*
X10574969Y154629082D01*
X10686895Y154766658D01*
X12177012Y153276542D01*
X12342589Y153467626D01*
X12346225Y153472249D01*
X12577663Y153797259D01*
X12580861Y153802234D01*
X12780358Y154147773D01*
X12783060Y154153014D01*
X12948810Y154515958D01*
X12951004Y154521437D01*
X13081500Y154898481D01*
X13083165Y154904152D01*
X13177232Y155291899D01*
X13178349Y155297697D01*
X13235134Y155692642D01*
X13235692Y155698491D01*
X13254679Y156097062D01*
X101045321Y156097062D01*
X101064307Y155698491D01*
X101064865Y155692642D01*
X101121650Y155297697D01*
X101122767Y155291899D01*
X101216834Y154904152D01*
X101218499Y154898481D01*
X101348995Y154521437D01*
X101351189Y154515958D01*
X101516939Y154153014D01*
X101519641Y154147773D01*
X101719138Y153802234D01*
X101722336Y153797259D01*
X101953773Y153472250D01*
X101957414Y153467620D01*
X102122986Y153276542D01*
X103613103Y154766659D01*
X103725031Y154629082D01*
X103939990Y154428324D01*
X103964544Y154410992D01*
X102474929Y152921377D01*
X102511553Y152886456D01*
X102515999Y152882603D01*
X102829654Y152635943D01*
X102834443Y152632533D01*
X103170109Y152416814D01*
X103175204Y152413872D01*
X103529859Y152231035D01*
X103535226Y152228584D01*
X103905654Y152080287D01*
X103911211Y152078364D01*
X104294051Y151965951D01*
X104299791Y151964559D01*
X104691574Y151889049D01*
X104697410Y151888209D01*
X105094612Y151850281D01*
X105100502Y151850000D01*
X105499498Y151850000D01*
X105505387Y151850281D01*
X105902589Y151888209D01*
X105908425Y151889049D01*
X106300208Y151964559D01*
X106305948Y151965951D01*
X106688788Y152078364D01*
X106694345Y152080287D01*
X107064773Y152228584D01*
X107070140Y152231035D01*
X107424787Y152413868D01*
X107429895Y152416817D01*
X107765555Y152632533D01*
X107770350Y152635947D01*
X108084001Y152882604D01*
X108088445Y152886455D01*
X108125070Y152921377D01*
X106635455Y154410992D01*
X106660010Y154428324D01*
X106874969Y154629082D01*
X106986895Y154766658D01*
X108477012Y153276542D01*
X108642589Y153467626D01*
X108646225Y153472249D01*
X108877663Y153797259D01*
X108880861Y153802234D01*
X109080358Y154147773D01*
X109083060Y154153014D01*
X109248810Y154515958D01*
X109251004Y154521437D01*
X109381500Y154898481D01*
X109383165Y154904152D01*
X109477232Y155291899D01*
X109478349Y155297697D01*
X109535134Y155692642D01*
X109535692Y155698491D01*
X109554679Y156097062D01*
X109554679Y156102939D01*
X109535692Y156501510D01*
X109535134Y156507359D01*
X109478349Y156902304D01*
X109477232Y156908102D01*
X109383165Y157295849D01*
X109381500Y157301520D01*
X109251004Y157678564D01*
X109248810Y157684043D01*
X109083060Y158046987D01*
X109080358Y158052228D01*
X108880861Y158397767D01*
X108877663Y158402742D01*
X108646226Y158727751D01*
X108642585Y158732381D01*
X108477012Y158923460D01*
X106986895Y157433343D01*
X106874969Y157570918D01*
X106660010Y157771676D01*
X106635453Y157789010D01*
X108125069Y159278625D01*
X108088446Y159313545D01*
X108084000Y159317398D01*
X107770350Y159564054D01*
X107765555Y159567468D01*
X107429895Y159783184D01*
X107424787Y159786133D01*
X107070140Y159968966D01*
X107064773Y159971417D01*
X106694345Y160119714D01*
X106688788Y160121637D01*
X106305948Y160234050D01*
X106300208Y160235442D01*
X105908425Y160310952D01*
X105902589Y160311792D01*
X105505387Y160349720D01*
X105499498Y160350000D01*
X105100502Y160350000D01*
X105094612Y160349720D01*
X104697410Y160311792D01*
X104691574Y160310952D01*
X104299791Y160235442D01*
X104294051Y160234050D01*
X103911211Y160121637D01*
X103905654Y160119714D01*
X103535226Y159971417D01*
X103529859Y159968966D01*
X103175204Y159786129D01*
X103170109Y159783187D01*
X102834443Y159567468D01*
X102829654Y159564058D01*
X102516000Y159317399D01*
X102511552Y159313544D01*
X102474929Y159278625D01*
X103964545Y157789009D01*
X103939990Y157771676D01*
X103725031Y157570918D01*
X103613104Y157433342D01*
X102122985Y158923461D01*
X101957414Y158732382D01*
X101953773Y158727751D01*
X101722336Y158402742D01*
X101719138Y158397767D01*
X101519641Y158052228D01*
X101516939Y158046987D01*
X101351189Y157684043D01*
X101348995Y157678564D01*
X101218499Y157301520D01*
X101216834Y157295849D01*
X101122767Y156908102D01*
X101121650Y156902304D01*
X101064865Y156507359D01*
X101064307Y156501510D01*
X101045321Y156102939D01*
X101045321Y156097062D01*
X13254679Y156097062D01*
X13254679Y156102939D01*
X13235692Y156501510D01*
X13235134Y156507359D01*
X13178349Y156902304D01*
X13177232Y156908102D01*
X13083165Y157295849D01*
X13081500Y157301520D01*
X12951004Y157678564D01*
X12948810Y157684043D01*
X12783060Y158046987D01*
X12780358Y158052228D01*
X12580861Y158397767D01*
X12577663Y158402742D01*
X12346226Y158727751D01*
X12342585Y158732381D01*
X12177012Y158923460D01*
X10686895Y157433343D01*
X10574969Y157570918D01*
X10360010Y157771676D01*
X10335453Y157789010D01*
X11825069Y159278625D01*
X11788446Y159313545D01*
X11784000Y159317398D01*
X11470350Y159564054D01*
X11465555Y159567468D01*
X11129895Y159783184D01*
X11124787Y159786133D01*
X10770140Y159968966D01*
X10764773Y159971417D01*
X10394345Y160119714D01*
X10388788Y160121637D01*
X10005948Y160234050D01*
X10000208Y160235442D01*
X9608425Y160310952D01*
X9602589Y160311792D01*
X9205387Y160349720D01*
X9199498Y160350000D01*
X8800502Y160350000D01*
X8794612Y160349720D01*
X8397410Y160311792D01*
X8391574Y160310952D01*
X7999791Y160235442D01*
X7994051Y160234050D01*
X7611211Y160121637D01*
X7605654Y160119714D01*
X7235226Y159971417D01*
X7229859Y159968966D01*
X6875204Y159786129D01*
X6870109Y159783187D01*
X6534443Y159567468D01*
X6529654Y159564058D01*
X6216000Y159317399D01*
X6211552Y159313544D01*
X6174929Y159278625D01*
X7664545Y157789009D01*
X7639990Y157771676D01*
X7425031Y157570918D01*
X7313104Y157433342D01*
X5822985Y158923461D01*
X5657414Y158732382D01*
X5653773Y158727751D01*
X5422336Y158402742D01*
X5419138Y158397767D01*
X5219641Y158052228D01*
X5216939Y158046987D01*
X5051189Y157684043D01*
X5048995Y157678564D01*
X4918499Y157301520D01*
X4916834Y157295849D01*
X4822767Y156908102D01*
X4821650Y156902304D01*
X4764865Y156507359D01*
X4764307Y156501510D01*
X4745321Y156102939D01*
X4745321Y156097062D01*
X2000500Y156097062D01*
X2000500Y156097778D01*
X2000577Y156102153D01*
X2005693Y156247064D01*
X2010881Y156394025D01*
X2018508Y156600108D01*
X2019124Y156608670D01*
X2048008Y156878270D01*
X2073901Y157108829D01*
X2075082Y157116923D01*
X2122284Y157379036D01*
X2166300Y157612083D01*
X2167988Y157619696D01*
X2233304Y157875917D01*
X2295234Y158107303D01*
X2297318Y158114254D01*
X2380460Y158364266D01*
X2459972Y158591677D01*
X2462421Y158598096D01*
X2562974Y158841001D01*
X2659658Y159062726D01*
X2662375Y159068534D01*
X2779342Y159302307D01*
X2780472Y159304505D01*
X2893211Y159517902D01*
X2896123Y159523098D01*
X3029306Y159747636D01*
X3030847Y159750161D01*
X3159344Y159954719D01*
X3162413Y159959364D01*
X3311160Y160173645D01*
X3313176Y160176461D01*
X3456689Y160370947D01*
X3459788Y160374966D01*
X3623402Y160578022D01*
X3625876Y160580993D01*
X3783570Y160764252D01*
X3786753Y160767808D01*
X3964367Y160958587D01*
X3967333Y160961660D01*
X4138340Y161132667D01*
X4141413Y161135633D01*
X4332192Y161313247D01*
X4335748Y161316430D01*
X4519007Y161474124D01*
X4521978Y161476598D01*
X4725034Y161640212D01*
X4729053Y161643311D01*
X4923539Y161786824D01*
X4926355Y161788840D01*
X5140636Y161937587D01*
X5145281Y161940656D01*
X5349839Y162069153D01*
X5352364Y162070694D01*
X5576902Y162203877D01*
X5582098Y162206789D01*
X5795492Y162319526D01*
X5797767Y162320695D01*
X6031446Y162437615D01*
X6037254Y162440333D01*
X6258999Y162537026D01*
X6501904Y162637579D01*
X6508330Y162640031D01*
X6735690Y162719526D01*
X6985737Y162802679D01*
X6992719Y162804772D01*
X7224083Y162866696D01*
X7480345Y162932023D01*
X7487880Y162933693D01*
X7720964Y162977716D01*
X7983077Y163024918D01*
X7991171Y163026099D01*
X8221664Y163051985D01*
X8491328Y163080876D01*
X8499892Y163081492D01*
X8705975Y163089119D01*
X8997849Y163099424D01*
X9002220Y163099500D01*
X105297778Y163099500D01*
X105302152Y163099424D01*
G37*
G04 #@! TD.AperFunction*
G04 #@! TA.AperFunction,Conductor*
G36*
X10149039Y133435315D02*
G01*
X10194794Y133382511D01*
X10206000Y133331000D01*
X10205999Y132529000D01*
X10186314Y132461960D01*
X10133510Y132416206D01*
X10081999Y132405000D01*
X9656000Y132405000D01*
X9655999Y129405000D01*
X10081999Y129405000D01*
X10149038Y129385315D01*
X10194793Y129332511D01*
X10205999Y129281000D01*
X10205999Y118198004D01*
X10205999Y118198003D01*
X10206000Y118198004D01*
X10206000Y118080000D01*
X5981000Y118080000D01*
X6001447Y130655000D01*
X8156000Y130655000D01*
X8156000Y129860482D01*
X8156354Y129853868D01*
X8162400Y129797629D01*
X8212647Y129662911D01*
X8298811Y129547812D01*
X8413910Y129461648D01*
X8548628Y129411401D01*
X8604867Y129405355D01*
X8611482Y129405000D01*
X9156000Y129405000D01*
X9156000Y130655000D01*
X8156000Y130655000D01*
X6001447Y130655000D01*
X6002260Y131155000D01*
X8156000Y131155000D01*
X9156000Y131155000D01*
X9156000Y132405000D01*
X8611482Y132405000D01*
X8604867Y132404646D01*
X8548628Y132398600D01*
X8413910Y132348353D01*
X8298811Y132262189D01*
X8212647Y132147090D01*
X8162400Y132012372D01*
X8156354Y131956133D01*
X8156000Y131949519D01*
X8156000Y131155000D01*
X6002260Y131155000D01*
X6003958Y132199024D01*
X6023752Y132266030D01*
X6039947Y132286171D01*
X6157533Y132404646D01*
X7163625Y133418351D01*
X7224821Y133452066D01*
X7251636Y133455000D01*
X10082000Y133455000D01*
X10149039Y133435315D01*
G37*
G04 #@! TD.AperFunction*
G04 #@! TA.AperFunction,Conductor*
G36*
X11595157Y118179041D02*
G01*
X11640940Y118126261D01*
X11651462Y118061445D01*
X11650354Y118051137D01*
X11650000Y118044519D01*
X11650000Y117400000D01*
X12566314Y117400000D01*
X12540507Y117359844D01*
X12500000Y117221889D01*
X12500000Y117078111D01*
X12540507Y116940156D01*
X12566314Y116900000D01*
X11650000Y116900000D01*
X11650000Y116255482D01*
X11650354Y116248874D01*
X11651351Y116239596D01*
X11638943Y116170837D01*
X11591330Y116119702D01*
X11528192Y116102346D01*
X9299999Y116100001D01*
X9291000Y84125001D01*
X9291000Y84125000D01*
X9291000Y38975000D01*
X9321000Y22445000D01*
X16374385Y18736178D01*
X24230999Y14605000D01*
X24231000Y14605000D01*
X77330999Y14605000D01*
X77331000Y14605000D01*
X81344353Y18816544D01*
X81404853Y18851496D01*
X81434122Y18855000D01*
X102606000Y18855000D01*
X104980999Y22229999D01*
X104981000Y22230000D01*
X104975000Y56125000D01*
X104974998Y56125001D01*
X103656000Y56130000D01*
X102771686Y56130000D01*
X102704646Y56149685D01*
X102658892Y56202489D01*
X102648397Y56267257D01*
X102649645Y56278873D01*
X102650000Y56285482D01*
X102650000Y56930000D01*
X101733686Y56930000D01*
X101759493Y56970156D01*
X101800000Y57108111D01*
X101800000Y57251889D01*
X101759493Y57389844D01*
X101733686Y57430000D01*
X102650000Y57430000D01*
X102650000Y58074519D01*
X102649646Y58081114D01*
X102648538Y58091420D01*
X102660940Y58160181D01*
X102708547Y58211321D01*
X102771889Y58228683D01*
X108470462Y58225729D01*
X108537490Y58206010D01*
X108561850Y58185468D01*
X109711374Y56930000D01*
X109843677Y56785504D01*
X109874431Y56722766D01*
X109876222Y56701866D01*
X109905967Y19644916D01*
X109886336Y19577860D01*
X109882741Y19572562D01*
X106462166Y14801837D01*
X106407105Y14758825D01*
X106361217Y14750091D01*
X85242329Y14779949D01*
X85206000Y14780000D01*
X85205999Y14780000D01*
X80367950Y9396119D01*
X80308499Y9359412D01*
X80275718Y9355000D01*
X23984336Y9355000D01*
X23930478Y9367307D01*
X4501142Y18736178D01*
X4449306Y18783027D01*
X4431000Y18847871D01*
X4431000Y116647482D01*
X4450685Y116714521D01*
X4468719Y116736542D01*
X4637443Y116900000D01*
X5938959Y118160898D01*
X5954334Y118168980D01*
X5981187Y118195807D01*
X5981188Y118195808D01*
X5981000Y118080000D01*
X10206000Y118080000D01*
X10205999Y118198003D01*
X11528112Y118198690D01*
X11595157Y118179041D01*
G37*
G04 #@! TD.AperFunction*
M02*
